%TF.GenerationSoftware,KiCad,Pcbnew,9.0.0*%
%TF.CreationDate,2025-04-24T16:42:49+01:00*%
%TF.ProjectId,DST,4453542e-6b69-4636-9164-5f7063625858,rev?*%
%TF.SameCoordinates,Original*%
%TF.FileFunction,Soldermask,Top*%
%TF.FilePolarity,Negative*%
%FSLAX46Y46*%
G04 Gerber Fmt 4.6, Leading zero omitted, Abs format (unit mm)*
G04 Created by KiCad (PCBNEW 9.0.0) date 2025-04-24 16:42:49*
%MOMM*%
%LPD*%
G01*
G04 APERTURE LIST*
G04 Aperture macros list*
%AMRoundRect*
0 Rectangle with rounded corners*
0 $1 Rounding radius*
0 $2 $3 $4 $5 $6 $7 $8 $9 X,Y pos of 4 corners*
0 Add a 4 corners polygon primitive as box body*
4,1,4,$2,$3,$4,$5,$6,$7,$8,$9,$2,$3,0*
0 Add four circle primitives for the rounded corners*
1,1,$1+$1,$2,$3*
1,1,$1+$1,$4,$5*
1,1,$1+$1,$6,$7*
1,1,$1+$1,$8,$9*
0 Add four rect primitives between the rounded corners*
20,1,$1+$1,$2,$3,$4,$5,0*
20,1,$1+$1,$4,$5,$6,$7,0*
20,1,$1+$1,$6,$7,$8,$9,0*
20,1,$1+$1,$8,$9,$2,$3,0*%
G04 Aperture macros list end*
%ADD10RoundRect,0.050000X-0.450000X-0.127000X0.450000X-0.127000X0.450000X0.127000X-0.450000X0.127000X0*%
%ADD11RoundRect,0.050000X-0.127000X-0.450000X0.127000X-0.450000X0.127000X0.450000X-0.127000X0.450000X0*%
%ADD12RoundRect,0.102000X-1.550000X-1.550000X1.550000X-1.550000X1.550000X1.550000X-1.550000X1.550000X0*%
%ADD13RoundRect,0.050000X0.450000X0.127000X-0.450000X0.127000X-0.450000X-0.127000X0.450000X-0.127000X0*%
%ADD14RoundRect,0.050000X0.127000X0.450000X-0.127000X0.450000X-0.127000X-0.450000X0.127000X-0.450000X0*%
%ADD15RoundRect,0.102000X1.550000X1.550000X-1.550000X1.550000X-1.550000X-1.550000X1.550000X-1.550000X0*%
%ADD16RoundRect,0.102000X-0.699000X0.699000X-0.699000X-0.699000X0.699000X-0.699000X0.699000X0.699000X0*%
%ADD17C,1.602000*%
%ADD18RoundRect,0.225000X-0.250000X0.225000X-0.250000X-0.225000X0.250000X-0.225000X0.250000X0.225000X0*%
%ADD19RoundRect,0.250000X0.450000X-0.262500X0.450000X0.262500X-0.450000X0.262500X-0.450000X-0.262500X0*%
%ADD20RoundRect,0.250000X-0.450000X0.262500X-0.450000X-0.262500X0.450000X-0.262500X0.450000X0.262500X0*%
%ADD21RoundRect,0.250000X0.262500X0.450000X-0.262500X0.450000X-0.262500X-0.450000X0.262500X-0.450000X0*%
%ADD22RoundRect,0.140000X0.140000X0.170000X-0.140000X0.170000X-0.140000X-0.170000X0.140000X-0.170000X0*%
%ADD23RoundRect,0.135000X-0.185000X0.135000X-0.185000X-0.135000X0.185000X-0.135000X0.185000X0.135000X0*%
%ADD24RoundRect,0.225000X0.225000X0.250000X-0.225000X0.250000X-0.225000X-0.250000X0.225000X-0.250000X0*%
%ADD25RoundRect,0.102000X0.699000X0.699000X-0.699000X0.699000X-0.699000X-0.699000X0.699000X-0.699000X0*%
%ADD26C,3.000000*%
%ADD27RoundRect,0.225000X0.250000X-0.225000X0.250000X0.225000X-0.250000X0.225000X-0.250000X-0.225000X0*%
%ADD28RoundRect,0.102000X-0.725000X0.550000X-0.725000X-0.550000X0.725000X-0.550000X0.725000X0.550000X0*%
%ADD29R,2.150000X2.200000*%
%ADD30RoundRect,0.225000X-0.225000X-0.250000X0.225000X-0.250000X0.225000X0.250000X-0.225000X0.250000X0*%
%ADD31RoundRect,0.050000X0.350000X0.050000X-0.350000X0.050000X-0.350000X-0.050000X0.350000X-0.050000X0*%
%ADD32RoundRect,0.050000X0.050000X0.350000X-0.050000X0.350000X-0.050000X-0.350000X0.050000X-0.350000X0*%
%ADD33R,3.400000X3.400000*%
%ADD34RoundRect,0.140000X-0.170000X0.140000X-0.170000X-0.140000X0.170000X-0.140000X0.170000X0.140000X0*%
%ADD35RoundRect,0.140000X0.170000X-0.140000X0.170000X0.140000X-0.170000X0.140000X-0.170000X-0.140000X0*%
%ADD36RoundRect,0.218750X-0.218750X-0.381250X0.218750X-0.381250X0.218750X0.381250X-0.218750X0.381250X0*%
%ADD37RoundRect,0.140000X-0.140000X-0.170000X0.140000X-0.170000X0.140000X0.170000X-0.140000X0.170000X0*%
%ADD38RoundRect,0.102000X-0.699000X-0.699000X0.699000X-0.699000X0.699000X0.699000X-0.699000X0.699000X0*%
%ADD39RoundRect,0.135000X-0.135000X-0.185000X0.135000X-0.185000X0.135000X0.185000X-0.135000X0.185000X0*%
%ADD40RoundRect,0.098000X0.809000X0.294000X-0.809000X0.294000X-0.809000X-0.294000X0.809000X-0.294000X0*%
%ADD41O,2.404000X4.604000*%
%ADD42O,2.204000X4.204000*%
%ADD43O,4.204000X2.204000*%
%ADD44RoundRect,0.135000X0.135000X0.185000X-0.135000X0.185000X-0.135000X-0.185000X0.135000X-0.185000X0*%
%ADD45RoundRect,0.250000X-0.262500X-0.450000X0.262500X-0.450000X0.262500X0.450000X-0.262500X0.450000X0*%
%ADD46RoundRect,0.102000X-1.220000X-0.565000X1.220000X-0.565000X1.220000X0.565000X-1.220000X0.565000X0*%
%ADD47R,2.000000X2.000000*%
%ADD48RoundRect,0.102000X0.700000X0.550000X-0.700000X0.550000X-0.700000X-0.550000X0.700000X-0.550000X0*%
%ADD49R,0.700000X0.400000*%
%ADD50RoundRect,0.102000X-1.387500X-1.387500X1.387500X-1.387500X1.387500X1.387500X-1.387500X1.387500X0*%
%ADD51C,2.979000*%
%ADD52RoundRect,0.140000X0.219203X0.021213X0.021213X0.219203X-0.219203X-0.021213X-0.021213X-0.219203X0*%
%ADD53RoundRect,0.102000X-0.550000X-0.725000X0.550000X-0.725000X0.550000X0.725000X-0.550000X0.725000X0*%
%ADD54RoundRect,0.147500X0.172500X-0.147500X0.172500X0.147500X-0.172500X0.147500X-0.172500X-0.147500X0*%
%ADD55RoundRect,0.102000X-1.200000X0.380000X-1.200000X-0.380000X1.200000X-0.380000X1.200000X0.380000X0*%
%ADD56RoundRect,0.102000X-0.675000X0.200000X-0.675000X-0.200000X0.675000X-0.200000X0.675000X0.200000X0*%
%ADD57RoundRect,0.102000X-0.700000X0.800000X-0.700000X-0.800000X0.700000X-0.800000X0.700000X0.800000X0*%
%ADD58RoundRect,0.102000X-0.650000X0.725000X-0.650000X-0.725000X0.650000X-0.725000X0.650000X0.725000X0*%
%ADD59RoundRect,0.102000X-0.950000X0.950000X-0.950000X-0.950000X0.950000X-0.950000X0.950000X0.950000X0*%
%ADD60RoundRect,0.102000X-0.400000X-0.400000X0.400000X-0.400000X0.400000X0.400000X-0.400000X0.400000X0*%
%ADD61RoundRect,0.102000X-0.825000X-0.825000X0.825000X-0.825000X0.825000X0.825000X-0.825000X0.825000X0*%
%ADD62C,1.854000*%
%ADD63RoundRect,0.102000X-0.300000X-0.700000X0.300000X-0.700000X0.300000X0.700000X-0.300000X0.700000X0*%
%ADD64RoundRect,0.135000X0.185000X-0.135000X0.185000X0.135000X-0.185000X0.135000X-0.185000X-0.135000X0*%
G04 APERTURE END LIST*
D10*
%TO.C,U15*%
X104610000Y-63490000D03*
X104610000Y-63990000D03*
X104610000Y-64490000D03*
X104610000Y-64990000D03*
X104610000Y-65490000D03*
X104610000Y-65990000D03*
X104610000Y-66490000D03*
D11*
X105700000Y-67580000D03*
X106200000Y-67580000D03*
X106700000Y-67580000D03*
X107200000Y-67580000D03*
X107700000Y-67580000D03*
X108200000Y-67580000D03*
X108700000Y-67580000D03*
D10*
X109790000Y-66490000D03*
X109790000Y-65990000D03*
X109790000Y-65490000D03*
X109790000Y-64990000D03*
X109790000Y-64490000D03*
X109790000Y-63990000D03*
X109790000Y-63490000D03*
D11*
X108700000Y-62400000D03*
X108200000Y-62400000D03*
X107700000Y-62400000D03*
X107200000Y-62400000D03*
X106700000Y-62400000D03*
X106200000Y-62400000D03*
X105700000Y-62400000D03*
D12*
X107200000Y-64990000D03*
%TD*%
D13*
%TO.C,U9*%
X233340000Y-117651000D03*
X233340000Y-117151000D03*
X233340000Y-116651000D03*
X233340000Y-116151000D03*
X233340000Y-115651000D03*
X233340000Y-115151000D03*
X233340000Y-114651000D03*
D14*
X232250000Y-113561000D03*
X231750000Y-113561000D03*
X231250000Y-113561000D03*
X230750000Y-113561000D03*
X230250000Y-113561000D03*
X229750000Y-113561000D03*
X229250000Y-113561000D03*
D13*
X228160000Y-114651000D03*
X228160000Y-115151000D03*
X228160000Y-115651000D03*
X228160000Y-116151000D03*
X228160000Y-116651000D03*
X228160000Y-117151000D03*
X228160000Y-117651000D03*
D14*
X229250000Y-118741000D03*
X229750000Y-118741000D03*
X230250000Y-118741000D03*
X230750000Y-118741000D03*
X231250000Y-118741000D03*
X231750000Y-118741000D03*
X232250000Y-118741000D03*
D15*
X230750000Y-116151000D03*
%TD*%
D13*
%TO.C,U8*%
X210045000Y-117500000D03*
X210045000Y-117000000D03*
X210045000Y-116500000D03*
X210045000Y-116000000D03*
X210045000Y-115500000D03*
X210045000Y-115000000D03*
X210045000Y-114500000D03*
D14*
X208955000Y-113410000D03*
X208455000Y-113410000D03*
X207955000Y-113410000D03*
X207455000Y-113410000D03*
X206955000Y-113410000D03*
X206455000Y-113410000D03*
X205955000Y-113410000D03*
D13*
X204865000Y-114500000D03*
X204865000Y-115000000D03*
X204865000Y-115500000D03*
X204865000Y-116000000D03*
X204865000Y-116500000D03*
X204865000Y-117000000D03*
X204865000Y-117500000D03*
D14*
X205955000Y-118590000D03*
X206455000Y-118590000D03*
X206955000Y-118590000D03*
X207455000Y-118590000D03*
X207955000Y-118590000D03*
X208455000Y-118590000D03*
X208955000Y-118590000D03*
D15*
X207455000Y-116000000D03*
%TD*%
D13*
%TO.C,U5*%
X141385000Y-117250000D03*
X141385000Y-116750000D03*
X141385000Y-116250000D03*
X141385000Y-115750000D03*
X141385000Y-115250000D03*
X141385000Y-114750000D03*
X141385000Y-114250000D03*
D14*
X140295000Y-113160000D03*
X139795000Y-113160000D03*
X139295000Y-113160000D03*
X138795000Y-113160000D03*
X138295000Y-113160000D03*
X137795000Y-113160000D03*
X137295000Y-113160000D03*
D13*
X136205000Y-114250000D03*
X136205000Y-114750000D03*
X136205000Y-115250000D03*
X136205000Y-115750000D03*
X136205000Y-116250000D03*
X136205000Y-116750000D03*
X136205000Y-117250000D03*
D14*
X137295000Y-118340000D03*
X137795000Y-118340000D03*
X138295000Y-118340000D03*
X138795000Y-118340000D03*
X139295000Y-118340000D03*
X139795000Y-118340000D03*
X140295000Y-118340000D03*
D15*
X138795000Y-115750000D03*
%TD*%
D13*
%TO.C,U7*%
X188090000Y-116750000D03*
X188090000Y-116250000D03*
X188090000Y-115750000D03*
X188090000Y-115250000D03*
X188090000Y-114750000D03*
X188090000Y-114250000D03*
X188090000Y-113750000D03*
D14*
X187000000Y-112660000D03*
X186500000Y-112660000D03*
X186000000Y-112660000D03*
X185500000Y-112660000D03*
X185000000Y-112660000D03*
X184500000Y-112660000D03*
X184000000Y-112660000D03*
D13*
X182910000Y-113750000D03*
X182910000Y-114250000D03*
X182910000Y-114750000D03*
X182910000Y-115250000D03*
X182910000Y-115750000D03*
X182910000Y-116250000D03*
X182910000Y-116750000D03*
D14*
X184000000Y-117840000D03*
X184500000Y-117840000D03*
X185000000Y-117840000D03*
X185500000Y-117840000D03*
X186000000Y-117840000D03*
X186500000Y-117840000D03*
X187000000Y-117840000D03*
D15*
X185500000Y-115250000D03*
%TD*%
D13*
%TO.C,U4*%
X117840000Y-117750000D03*
X117840000Y-117250000D03*
X117840000Y-116750000D03*
X117840000Y-116250000D03*
X117840000Y-115750000D03*
X117840000Y-115250000D03*
X117840000Y-114750000D03*
D14*
X116750000Y-113660000D03*
X116250000Y-113660000D03*
X115750000Y-113660000D03*
X115250000Y-113660000D03*
X114750000Y-113660000D03*
X114250000Y-113660000D03*
X113750000Y-113660000D03*
D13*
X112660000Y-114750000D03*
X112660000Y-115250000D03*
X112660000Y-115750000D03*
X112660000Y-116250000D03*
X112660000Y-116750000D03*
X112660000Y-117250000D03*
X112660000Y-117750000D03*
D14*
X113750000Y-118840000D03*
X114250000Y-118840000D03*
X114750000Y-118840000D03*
X115250000Y-118840000D03*
X115750000Y-118840000D03*
X116250000Y-118840000D03*
X116750000Y-118840000D03*
D15*
X115250000Y-116250000D03*
%TD*%
D13*
%TO.C,U6*%
X165590000Y-117250000D03*
X165590000Y-116750000D03*
X165590000Y-116250000D03*
X165590000Y-115750000D03*
X165590000Y-115250000D03*
X165590000Y-114750000D03*
X165590000Y-114250000D03*
D14*
X164500000Y-113160000D03*
X164000000Y-113160000D03*
X163500000Y-113160000D03*
X163000000Y-113160000D03*
X162500000Y-113160000D03*
X162000000Y-113160000D03*
X161500000Y-113160000D03*
D13*
X160410000Y-114250000D03*
X160410000Y-114750000D03*
X160410000Y-115250000D03*
X160410000Y-115750000D03*
X160410000Y-116250000D03*
X160410000Y-116750000D03*
X160410000Y-117250000D03*
D14*
X161500000Y-118340000D03*
X162000000Y-118340000D03*
X162500000Y-118340000D03*
X163000000Y-118340000D03*
X163500000Y-118340000D03*
X164000000Y-118340000D03*
X164500000Y-118340000D03*
D15*
X163000000Y-115750000D03*
%TD*%
D10*
%TO.C,U10*%
X224775000Y-63250000D03*
X224775000Y-63750000D03*
X224775000Y-64250000D03*
X224775000Y-64750000D03*
X224775000Y-65250000D03*
X224775000Y-65750000D03*
X224775000Y-66250000D03*
D11*
X225865000Y-67340000D03*
X226365000Y-67340000D03*
X226865000Y-67340000D03*
X227365000Y-67340000D03*
X227865000Y-67340000D03*
X228365000Y-67340000D03*
X228865000Y-67340000D03*
D10*
X229955000Y-66250000D03*
X229955000Y-65750000D03*
X229955000Y-65250000D03*
X229955000Y-64750000D03*
X229955000Y-64250000D03*
X229955000Y-63750000D03*
X229955000Y-63250000D03*
D11*
X228865000Y-62160000D03*
X228365000Y-62160000D03*
X227865000Y-62160000D03*
X227365000Y-62160000D03*
X226865000Y-62160000D03*
X226365000Y-62160000D03*
X225865000Y-62160000D03*
D12*
X227365000Y-64750000D03*
%TD*%
D10*
%TO.C,U13*%
X154775000Y-63250000D03*
X154775000Y-63750000D03*
X154775000Y-64250000D03*
X154775000Y-64750000D03*
X154775000Y-65250000D03*
X154775000Y-65750000D03*
X154775000Y-66250000D03*
D11*
X155865000Y-67340000D03*
X156365000Y-67340000D03*
X156865000Y-67340000D03*
X157365000Y-67340000D03*
X157865000Y-67340000D03*
X158365000Y-67340000D03*
X158865000Y-67340000D03*
D10*
X159955000Y-66250000D03*
X159955000Y-65750000D03*
X159955000Y-65250000D03*
X159955000Y-64750000D03*
X159955000Y-64250000D03*
X159955000Y-63750000D03*
X159955000Y-63250000D03*
D11*
X158865000Y-62160000D03*
X158365000Y-62160000D03*
X157865000Y-62160000D03*
X157365000Y-62160000D03*
X156865000Y-62160000D03*
X156365000Y-62160000D03*
X155865000Y-62160000D03*
D12*
X157365000Y-64750000D03*
%TD*%
D10*
%TO.C,U12*%
X177570000Y-63250000D03*
X177570000Y-63750000D03*
X177570000Y-64250000D03*
X177570000Y-64750000D03*
X177570000Y-65250000D03*
X177570000Y-65750000D03*
X177570000Y-66250000D03*
D11*
X178660000Y-67340000D03*
X179160000Y-67340000D03*
X179660000Y-67340000D03*
X180160000Y-67340000D03*
X180660000Y-67340000D03*
X181160000Y-67340000D03*
X181660000Y-67340000D03*
D10*
X182750000Y-66250000D03*
X182750000Y-65750000D03*
X182750000Y-65250000D03*
X182750000Y-64750000D03*
X182750000Y-64250000D03*
X182750000Y-63750000D03*
X182750000Y-63250000D03*
D11*
X181660000Y-62160000D03*
X181160000Y-62160000D03*
X180660000Y-62160000D03*
X180160000Y-62160000D03*
X179660000Y-62160000D03*
X179160000Y-62160000D03*
X178660000Y-62160000D03*
D12*
X180160000Y-64750000D03*
%TD*%
D10*
%TO.C,U11*%
X200525000Y-63225000D03*
X200525000Y-63725000D03*
X200525000Y-64225000D03*
X200525000Y-64725000D03*
X200525000Y-65225000D03*
X200525000Y-65725000D03*
X200525000Y-66225000D03*
D11*
X201615000Y-67315000D03*
X202115000Y-67315000D03*
X202615000Y-67315000D03*
X203115000Y-67315000D03*
X203615000Y-67315000D03*
X204115000Y-67315000D03*
X204615000Y-67315000D03*
D10*
X205705000Y-66225000D03*
X205705000Y-65725000D03*
X205705000Y-65225000D03*
X205705000Y-64725000D03*
X205705000Y-64225000D03*
X205705000Y-63725000D03*
X205705000Y-63225000D03*
D11*
X204615000Y-62135000D03*
X204115000Y-62135000D03*
X203615000Y-62135000D03*
X203115000Y-62135000D03*
X202615000Y-62135000D03*
X202115000Y-62135000D03*
X201615000Y-62135000D03*
D12*
X203115000Y-64725000D03*
%TD*%
D10*
%TO.C,U14*%
X131480000Y-63250000D03*
X131480000Y-63750000D03*
X131480000Y-64250000D03*
X131480000Y-64750000D03*
X131480000Y-65250000D03*
X131480000Y-65750000D03*
X131480000Y-66250000D03*
D11*
X132570000Y-67340000D03*
X133070000Y-67340000D03*
X133570000Y-67340000D03*
X134070000Y-67340000D03*
X134570000Y-67340000D03*
X135070000Y-67340000D03*
X135570000Y-67340000D03*
D10*
X136660000Y-66250000D03*
X136660000Y-65750000D03*
X136660000Y-65250000D03*
X136660000Y-64750000D03*
X136660000Y-64250000D03*
X136660000Y-63750000D03*
X136660000Y-63250000D03*
D11*
X135570000Y-62160000D03*
X135070000Y-62160000D03*
X134570000Y-62160000D03*
X134070000Y-62160000D03*
X133570000Y-62160000D03*
X133070000Y-62160000D03*
X132570000Y-62160000D03*
D12*
X134070000Y-64750000D03*
%TD*%
D16*
%TO.C,J2*%
X121137500Y-52160000D03*
D17*
X121137500Y-54700000D03*
X121137500Y-57240000D03*
%TD*%
D18*
%TO.C,C67*%
X210615000Y-59450000D03*
X210615000Y-61000000D03*
%TD*%
D19*
%TO.C,R54*%
X219865000Y-65662500D03*
X219865000Y-63837500D03*
%TD*%
D20*
%TO.C,R112*%
X115200000Y-63577500D03*
X115200000Y-65402500D03*
%TD*%
%TO.C,R55*%
X226615000Y-57337500D03*
X226615000Y-59162500D03*
%TD*%
%TO.C,R96*%
X165365000Y-63337500D03*
X165365000Y-65162500D03*
%TD*%
D21*
%TO.C,R58*%
X111612500Y-72490000D03*
X109787500Y-72490000D03*
%TD*%
D22*
%TO.C,C107*%
X131880000Y-82000000D03*
X130920000Y-82000000D03*
%TD*%
D20*
%TO.C,R86*%
X186500000Y-108837500D03*
X186500000Y-110662500D03*
%TD*%
D18*
%TO.C,C6*%
X117750000Y-119725000D03*
X117750000Y-121275000D03*
%TD*%
D23*
%TO.C,R67*%
X126900000Y-98390000D03*
X126900000Y-99410000D03*
%TD*%
D24*
%TO.C,C79*%
X154640000Y-68250000D03*
X153090000Y-68250000D03*
%TD*%
D25*
%TO.C,J29*%
X112940000Y-51300000D03*
D17*
X110400000Y-51300000D03*
X107860000Y-51300000D03*
X105320000Y-51300000D03*
X102780000Y-51300000D03*
%TD*%
D19*
%TO.C,R52*%
X222750000Y-117563500D03*
X222750000Y-115738500D03*
%TD*%
D20*
%TO.C,R10*%
X109250000Y-115837500D03*
X109250000Y-117662500D03*
%TD*%
D26*
%TO.C,REF\u002A\u002A*%
X97900000Y-129300000D03*
%TD*%
D27*
%TO.C,C26*%
X153000000Y-113525000D03*
X153000000Y-111975000D03*
%TD*%
D24*
%TO.C,C17*%
X135570000Y-119250000D03*
X134020000Y-119250000D03*
%TD*%
D27*
%TO.C,C11*%
X105250000Y-114025000D03*
X105250000Y-112475000D03*
%TD*%
D28*
%TO.C,D7*%
X246800000Y-107337500D03*
X246800000Y-105537500D03*
%TD*%
D29*
%TO.C,D1*%
X231750000Y-103950000D03*
X231750000Y-99550000D03*
%TD*%
D27*
%TO.C,C19*%
X131295000Y-121025000D03*
X131295000Y-119475000D03*
%TD*%
D18*
%TO.C,C98*%
X117200000Y-67215000D03*
X117200000Y-68765000D03*
%TD*%
D30*
%TO.C,C73*%
X183385000Y-61250000D03*
X184935000Y-61250000D03*
%TD*%
D31*
%TO.C,U1*%
X132462500Y-93087500D03*
X132462500Y-92687500D03*
X132462500Y-92287500D03*
X132462500Y-91887500D03*
X132462500Y-91487500D03*
X132462500Y-91087500D03*
X132462500Y-90687500D03*
X132462500Y-90287500D03*
X132462500Y-89887500D03*
X132462500Y-89487500D03*
X132462500Y-89087500D03*
X132462500Y-88687500D03*
X132462500Y-88287500D03*
X132462500Y-87887500D03*
X132462500Y-87487500D03*
X132462500Y-87087500D03*
X132462500Y-86687500D03*
X132462500Y-86287500D03*
X132462500Y-85887500D03*
X132462500Y-85487500D03*
D32*
X131312500Y-84337500D03*
X130912500Y-84337500D03*
X130512500Y-84337500D03*
X130112500Y-84337500D03*
X129712500Y-84337500D03*
X129312500Y-84337500D03*
X128912500Y-84337500D03*
X128512500Y-84337500D03*
X128112500Y-84337500D03*
X127712500Y-84337500D03*
X127312500Y-84337500D03*
X126912500Y-84337500D03*
X126512500Y-84337500D03*
X126112500Y-84337500D03*
X125712500Y-84337500D03*
X125312500Y-84337500D03*
X124912500Y-84337500D03*
X124512500Y-84337500D03*
X124112500Y-84337500D03*
X123712500Y-84337500D03*
D31*
X122562500Y-85487500D03*
X122562500Y-85887500D03*
X122562500Y-86287500D03*
X122562500Y-86687500D03*
X122562500Y-87087500D03*
X122562500Y-87487500D03*
X122562500Y-87887500D03*
X122562500Y-88287500D03*
X122562500Y-88687500D03*
X122562500Y-89087500D03*
X122562500Y-89487500D03*
X122562500Y-89887500D03*
X122562500Y-90287500D03*
X122562500Y-90687500D03*
X122562500Y-91087500D03*
X122562500Y-91487500D03*
X122562500Y-91887500D03*
X122562500Y-92287500D03*
X122562500Y-92687500D03*
X122562500Y-93087500D03*
D32*
X123712500Y-94237500D03*
X124112500Y-94237500D03*
X124512500Y-94237500D03*
X124912500Y-94237500D03*
X125312500Y-94237500D03*
X125712500Y-94237500D03*
X126112500Y-94237500D03*
X126512500Y-94237500D03*
X126912500Y-94237500D03*
X127312500Y-94237500D03*
X127712500Y-94237500D03*
X128112500Y-94237500D03*
X128512500Y-94237500D03*
X128912500Y-94237500D03*
X129312500Y-94237500D03*
X129712500Y-94237500D03*
X130112500Y-94237500D03*
X130512500Y-94237500D03*
X130912500Y-94237500D03*
X131312500Y-94237500D03*
D33*
X127512500Y-89287500D03*
%TD*%
D34*
%TO.C,C3*%
X137200000Y-103240000D03*
X137200000Y-104200000D03*
%TD*%
D19*
%TO.C,R25*%
X161250000Y-123162500D03*
X161250000Y-121337500D03*
%TD*%
D20*
%TO.C,R92*%
X208455000Y-109587500D03*
X208455000Y-111412500D03*
%TD*%
D21*
%TO.C,R40*%
X231777500Y-72250000D03*
X229952500Y-72250000D03*
%TD*%
%TO.C,R42*%
X207527500Y-72225000D03*
X205702500Y-72225000D03*
%TD*%
%TO.C,R56*%
X138482500Y-72250000D03*
X136657500Y-72250000D03*
%TD*%
D24*
%TO.C,C76*%
X153365000Y-66500000D03*
X151815000Y-66500000D03*
%TD*%
D19*
%TO.C,R102*%
X202115000Y-71137500D03*
X202115000Y-69312500D03*
%TD*%
%TO.C,R114*%
X133070000Y-71162500D03*
X133070000Y-69337500D03*
%TD*%
D30*
%TO.C,C44*%
X234750000Y-114401000D03*
X236300000Y-114401000D03*
%TD*%
D20*
%TO.C,R29*%
X157000000Y-115337500D03*
X157000000Y-117162500D03*
%TD*%
D19*
%TO.C,R11*%
X107250000Y-117662500D03*
X107250000Y-115837500D03*
%TD*%
D18*
%TO.C,C66*%
X213115000Y-66950000D03*
X213115000Y-68500000D03*
%TD*%
D19*
%TO.C,R20*%
X130795000Y-117162500D03*
X130795000Y-115337500D03*
%TD*%
D35*
%TO.C,C101*%
X128000000Y-99380000D03*
X128000000Y-98420000D03*
%TD*%
D18*
%TO.C,C59*%
X234865000Y-59475000D03*
X234865000Y-61025000D03*
%TD*%
D36*
%TO.C,L2*%
X237687500Y-106000000D03*
X239812500Y-106000000D03*
%TD*%
D34*
%TO.C,C111*%
X126300000Y-80740000D03*
X126300000Y-81700000D03*
%TD*%
D37*
%TO.C,C109*%
X118440000Y-89700000D03*
X119400000Y-89700000D03*
%TD*%
D38*
%TO.C,J24*%
X181640000Y-131500000D03*
D17*
X184180000Y-131500000D03*
X186720000Y-131500000D03*
X189260000Y-131500000D03*
X191800000Y-131500000D03*
%TD*%
D38*
%TO.C,J26*%
X202820000Y-131437500D03*
D17*
X205360000Y-131437500D03*
X207900000Y-131437500D03*
X210440000Y-131437500D03*
X212980000Y-131437500D03*
%TD*%
D24*
%TO.C,C55*%
X224640000Y-68250000D03*
X223090000Y-68250000D03*
%TD*%
D20*
%TO.C,R22*%
X170500000Y-114837500D03*
X170500000Y-116662500D03*
%TD*%
%TO.C,R37*%
X179500000Y-114837500D03*
X179500000Y-116662500D03*
%TD*%
D39*
%TO.C,R73*%
X142500000Y-84700000D03*
X143520000Y-84700000D03*
%TD*%
D18*
%TO.C,C88*%
X138070000Y-66975000D03*
X138070000Y-68525000D03*
%TD*%
D21*
%TO.C,R51*%
X228162500Y-110651000D03*
X226337500Y-110651000D03*
%TD*%
D38*
%TO.C,J22*%
X159180000Y-131400000D03*
D17*
X161720000Y-131400000D03*
X164260000Y-131400000D03*
X166800000Y-131400000D03*
X169340000Y-131400000D03*
%TD*%
D40*
%TO.C,U3*%
X147105000Y-102905000D03*
X147105000Y-101635000D03*
X147105000Y-100365000D03*
X147105000Y-99095000D03*
X139895000Y-99095000D03*
X139895000Y-100365000D03*
X139895000Y-101635000D03*
X139895000Y-102905000D03*
%TD*%
D21*
%TO.C,R76*%
X155812500Y-102400000D03*
X153987500Y-102400000D03*
%TD*%
D18*
%TO.C,C75*%
X187660000Y-59475000D03*
X187660000Y-61025000D03*
%TD*%
D19*
%TO.C,R98*%
X126570000Y-65662500D03*
X126570000Y-63837500D03*
%TD*%
D27*
%TO.C,C10*%
X111250000Y-114025000D03*
X111250000Y-112475000D03*
%TD*%
D41*
%TO.C,J13*%
X233900000Y-83100000D03*
D42*
X239900000Y-83100000D03*
D43*
X236900000Y-78400000D03*
%TD*%
D21*
%TO.C,R27*%
X160412500Y-110250000D03*
X158587500Y-110250000D03*
%TD*%
D30*
%TO.C,C89*%
X137295000Y-61250000D03*
X138845000Y-61250000D03*
%TD*%
%TO.C,C93*%
X101650000Y-64990000D03*
X103200000Y-64990000D03*
%TD*%
D38*
%TO.C,J20*%
X134220000Y-131337500D03*
D17*
X136760000Y-131337500D03*
X139300000Y-131337500D03*
X141840000Y-131337500D03*
X144380000Y-131337500D03*
%TD*%
D30*
%TO.C,C97*%
X110425000Y-61490000D03*
X111975000Y-61490000D03*
%TD*%
D44*
%TO.C,R80*%
X115710000Y-82800000D03*
X114690000Y-82800000D03*
%TD*%
D24*
%TO.C,C25*%
X159775000Y-119250000D03*
X158225000Y-119250000D03*
%TD*%
D27*
%TO.C,C35*%
X178000000Y-120525000D03*
X178000000Y-118975000D03*
%TD*%
D24*
%TO.C,C63*%
X200390000Y-68225000D03*
X198840000Y-68225000D03*
%TD*%
D30*
%TO.C,C12*%
X142795000Y-114000000D03*
X144345000Y-114000000D03*
%TD*%
D27*
%TO.C,C34*%
X175500000Y-113025000D03*
X175500000Y-111475000D03*
%TD*%
D45*
%TO.C,R77*%
X153475000Y-96400000D03*
X155300000Y-96400000D03*
%TD*%
D46*
%TO.C,SW3*%
X140500000Y-75320000D03*
X149110000Y-75320000D03*
X140500000Y-77860000D03*
X149110000Y-77860000D03*
X140500000Y-80400000D03*
X149110000Y-80400000D03*
%TD*%
D30*
%TO.C,C61*%
X197565000Y-64725000D03*
X199115000Y-64725000D03*
%TD*%
D26*
%TO.C,REF\u002A\u002A*%
X248800000Y-129300000D03*
%TD*%
D47*
%TO.C,TP11*%
X126900000Y-127600000D03*
%TD*%
%TO.C,SW2*%
X106500000Y-78100000D03*
X112500000Y-78100000D03*
%TD*%
D35*
%TO.C,C112*%
X123600000Y-99380000D03*
X123600000Y-98420000D03*
%TD*%
D24*
%TO.C,C8*%
X112025000Y-119750000D03*
X110475000Y-119750000D03*
%TD*%
%TO.C,C52*%
X223365000Y-66500000D03*
X221815000Y-66500000D03*
%TD*%
D19*
%TO.C,R17*%
X137045000Y-123162500D03*
X137045000Y-121337500D03*
%TD*%
D37*
%TO.C,C103*%
X120220000Y-84400000D03*
X121180000Y-84400000D03*
%TD*%
D24*
%TO.C,C49*%
X227525000Y-119651000D03*
X225975000Y-119651000D03*
%TD*%
D30*
%TO.C,C1*%
X117975000Y-112750000D03*
X119525000Y-112750000D03*
%TD*%
D27*
%TO.C,C43*%
X199955000Y-121275000D03*
X199955000Y-119725000D03*
%TD*%
%TO.C,C50*%
X220750000Y-113926000D03*
X220750000Y-112376000D03*
%TD*%
D24*
%TO.C,C68*%
X176160000Y-66500000D03*
X174610000Y-66500000D03*
%TD*%
D45*
%TO.C,R26*%
X181087500Y-107750000D03*
X182912500Y-107750000D03*
%TD*%
D27*
%TO.C,C86*%
X131570000Y-61275000D03*
X131570000Y-59725000D03*
%TD*%
D29*
%TO.C,D2*%
X227000000Y-87150000D03*
X227000000Y-82750000D03*
%TD*%
D21*
%TO.C,R48*%
X184572500Y-72250000D03*
X182747500Y-72250000D03*
%TD*%
D18*
%TO.C,C56*%
X231365000Y-66975000D03*
X231365000Y-68525000D03*
%TD*%
D37*
%TO.C,C114*%
X121740000Y-95400000D03*
X122700000Y-95400000D03*
%TD*%
D20*
%TO.C,R45*%
X201455000Y-115587500D03*
X201455000Y-117412500D03*
%TD*%
D21*
%TO.C,R43*%
X204867500Y-110500000D03*
X203042500Y-110500000D03*
%TD*%
D30*
%TO.C,C36*%
X211455000Y-114250000D03*
X213005000Y-114250000D03*
%TD*%
D27*
%TO.C,C16*%
X134795000Y-113525000D03*
X134795000Y-111975000D03*
%TD*%
D19*
%TO.C,R110*%
X156365000Y-71162500D03*
X156365000Y-69337500D03*
%TD*%
%TO.C,R70*%
X121300000Y-99025000D03*
X121300000Y-97200000D03*
%TD*%
D48*
%TO.C,U2*%
X129100000Y-73500000D03*
X129100000Y-71900000D03*
X126900000Y-71900000D03*
X126900000Y-73500000D03*
%TD*%
D35*
%TO.C,C113*%
X124600000Y-99380000D03*
X124600000Y-98420000D03*
%TD*%
D49*
%TO.C,D3*%
X101800000Y-97800000D03*
X101800000Y-97100000D03*
%TD*%
D20*
%TO.C,R72*%
X211115000Y-63312500D03*
X211115000Y-65137500D03*
%TD*%
D27*
%TO.C,C116*%
X242750000Y-106800000D03*
X242750000Y-105250000D03*
%TD*%
%TO.C,C27*%
X155500000Y-121025000D03*
X155500000Y-119475000D03*
%TD*%
D18*
%TO.C,C22*%
X165500000Y-119225000D03*
X165500000Y-120775000D03*
%TD*%
D27*
%TO.C,C70*%
X177660000Y-61275000D03*
X177660000Y-59725000D03*
%TD*%
D19*
%TO.C,R90*%
X149865000Y-65662500D03*
X149865000Y-63837500D03*
%TD*%
D18*
%TO.C,C14*%
X141295000Y-119225000D03*
X141295000Y-120775000D03*
%TD*%
D20*
%TO.C,R107*%
X106450000Y-57577500D03*
X106450000Y-59402500D03*
%TD*%
D47*
%TO.C,TP12*%
X122700000Y-123800000D03*
%TD*%
%TO.C,TP2*%
X110200000Y-102700000D03*
%TD*%
D25*
%TO.C,J19*%
X233440000Y-51400000D03*
D17*
X230900000Y-51400000D03*
X228360000Y-51400000D03*
X225820000Y-51400000D03*
X223280000Y-51400000D03*
%TD*%
D25*
%TO.C,J25*%
X162320000Y-51400000D03*
D17*
X159780000Y-51400000D03*
X157240000Y-51400000D03*
X154700000Y-51400000D03*
X152160000Y-51400000D03*
%TD*%
D30*
%TO.C,C81*%
X160590000Y-61250000D03*
X162140000Y-61250000D03*
%TD*%
D18*
%TO.C,C96*%
X111200000Y-67215000D03*
X111200000Y-68765000D03*
%TD*%
D20*
%TO.C,R85*%
X181910000Y-57337500D03*
X181910000Y-59162500D03*
%TD*%
D45*
%TO.C,R87*%
X182747500Y-70250000D03*
X184572500Y-70250000D03*
%TD*%
D27*
%TO.C,C78*%
X154865000Y-61275000D03*
X154865000Y-59725000D03*
%TD*%
D45*
%TO.C,R32*%
X203042500Y-108500000D03*
X204867500Y-108500000D03*
%TD*%
D47*
%TO.C,SW1*%
X154400000Y-89400000D03*
X148400000Y-89400000D03*
%TD*%
D50*
%TO.C,S1*%
X223250000Y-93250000D03*
D51*
X227060000Y-93250000D03*
X230870000Y-93250000D03*
X210550000Y-95790000D03*
X210550000Y-90710000D03*
%TD*%
D19*
%TO.C,R89*%
X186160000Y-65162500D03*
X186160000Y-63337500D03*
%TD*%
D27*
%TO.C,C40*%
X203455000Y-113775000D03*
X203455000Y-112225000D03*
%TD*%
D20*
%TO.C,R101*%
X135820000Y-57337500D03*
X135820000Y-59162500D03*
%TD*%
D19*
%TO.C,R9*%
X113500000Y-123662500D03*
X113500000Y-121837500D03*
%TD*%
D24*
%TO.C,C37*%
X213005000Y-116000000D03*
X211455000Y-116000000D03*
%TD*%
D45*
%TO.C,R71*%
X205702500Y-70225000D03*
X207527500Y-70225000D03*
%TD*%
D37*
%TO.C,C104*%
X118440000Y-88700000D03*
X119400000Y-88700000D03*
%TD*%
D27*
%TO.C,C24*%
X159000000Y-113525000D03*
X159000000Y-111975000D03*
%TD*%
D19*
%TO.C,R97*%
X163365000Y-65162500D03*
X163365000Y-63337500D03*
%TD*%
D47*
%TO.C,TP10*%
X102100000Y-123500000D03*
%TD*%
D38*
%TO.C,J18*%
X110520000Y-131437500D03*
D17*
X113060000Y-131437500D03*
X115600000Y-131437500D03*
X118140000Y-131437500D03*
X120680000Y-131437500D03*
%TD*%
D30*
%TO.C,C69*%
X174610000Y-64750000D03*
X176160000Y-64750000D03*
%TD*%
D20*
%TO.C,R94*%
X231750000Y-109738500D03*
X231750000Y-111563500D03*
%TD*%
D19*
%TO.C,R62*%
X195615000Y-65637500D03*
X195615000Y-63812500D03*
%TD*%
D47*
%TO.C,TP3*%
X103200000Y-106500000D03*
%TD*%
D24*
%TO.C,C60*%
X199115000Y-66475000D03*
X197565000Y-66475000D03*
%TD*%
D52*
%TO.C,C106*%
X131478822Y-97278822D03*
X130800000Y-96600000D03*
%TD*%
D27*
%TO.C,C7*%
X107750000Y-121525000D03*
X107750000Y-119975000D03*
%TD*%
D20*
%TO.C,R53*%
X224750000Y-115738500D03*
X224750000Y-117563500D03*
%TD*%
D19*
%TO.C,R33*%
X183750000Y-122662500D03*
X183750000Y-120837500D03*
%TD*%
D45*
%TO.C,R111*%
X109787500Y-70490000D03*
X111612500Y-70490000D03*
%TD*%
D20*
%TO.C,R93*%
X159115000Y-57337500D03*
X159115000Y-59162500D03*
%TD*%
D22*
%TO.C,C2*%
X126905000Y-78825000D03*
X125945000Y-78825000D03*
%TD*%
D47*
%TO.C,TP8*%
X178500000Y-77500000D03*
%TD*%
D19*
%TO.C,R44*%
X199455000Y-117412500D03*
X199455000Y-115587500D03*
%TD*%
D53*
%TO.C,D5*%
X111400000Y-83500000D03*
X109600000Y-83500000D03*
%TD*%
D23*
%TO.C,R68*%
X125900000Y-98400000D03*
X125900000Y-99420000D03*
%TD*%
D30*
%TO.C,C28*%
X189500000Y-113500000D03*
X191050000Y-113500000D03*
%TD*%
D19*
%TO.C,R39*%
X208205000Y-123412500D03*
X208205000Y-121587500D03*
%TD*%
D18*
%TO.C,C80*%
X161365000Y-66975000D03*
X161365000Y-68525000D03*
%TD*%
D45*
%TO.C,R79*%
X242750000Y-109250000D03*
X244575000Y-109250000D03*
%TD*%
D24*
%TO.C,C45*%
X236300000Y-116151000D03*
X234750000Y-116151000D03*
%TD*%
D45*
%TO.C,R34*%
X226337500Y-108651000D03*
X228162500Y-108651000D03*
%TD*%
D49*
%TO.C,D4*%
X101800000Y-99300000D03*
X101800000Y-100000000D03*
%TD*%
D19*
%TO.C,R113*%
X113200000Y-65402500D03*
X113200000Y-63577500D03*
%TD*%
D18*
%TO.C,C90*%
X144070000Y-66975000D03*
X144070000Y-68525000D03*
%TD*%
D47*
%TO.C,TP9*%
X106200000Y-127500000D03*
%TD*%
D20*
%TO.C,R57*%
X229115000Y-57337500D03*
X229115000Y-59162500D03*
%TD*%
D27*
%TO.C,C32*%
X181500000Y-113025000D03*
X181500000Y-111475000D03*
%TD*%
D19*
%TO.C,R78*%
X209115000Y-65137500D03*
X209115000Y-63312500D03*
%TD*%
D30*
%TO.C,C57*%
X230590000Y-61250000D03*
X232140000Y-61250000D03*
%TD*%
D27*
%TO.C,C54*%
X224865000Y-61275000D03*
X224865000Y-59725000D03*
%TD*%
D19*
%TO.C,R100*%
X226365000Y-71162500D03*
X226365000Y-69337500D03*
%TD*%
D27*
%TO.C,C94*%
X104700000Y-61515000D03*
X104700000Y-59965000D03*
%TD*%
D24*
%TO.C,C21*%
X168550000Y-115750000D03*
X167000000Y-115750000D03*
%TD*%
D30*
%TO.C,C47*%
X233475000Y-112651000D03*
X235025000Y-112651000D03*
%TD*%
D26*
%TO.C,REF\u002A\u002A*%
X248800000Y-54300000D03*
%TD*%
D19*
%TO.C,R36*%
X177500000Y-116662500D03*
X177500000Y-114837500D03*
%TD*%
D30*
%TO.C,C31*%
X188225000Y-111750000D03*
X189775000Y-111750000D03*
%TD*%
D24*
%TO.C,C33*%
X182275000Y-118750000D03*
X180725000Y-118750000D03*
%TD*%
D30*
%TO.C,C20*%
X167000000Y-114000000D03*
X168550000Y-114000000D03*
%TD*%
D45*
%TO.C,R59*%
X229952500Y-70250000D03*
X231777500Y-70250000D03*
%TD*%
D34*
%TO.C,C108*%
X128200000Y-79620000D03*
X128200000Y-80580000D03*
%TD*%
D24*
%TO.C,C87*%
X131345000Y-68250000D03*
X129795000Y-68250000D03*
%TD*%
D21*
%TO.C,R19*%
X136207500Y-110250000D03*
X134382500Y-110250000D03*
%TD*%
%TO.C,R6*%
X112662500Y-110750000D03*
X110837500Y-110750000D03*
%TD*%
D18*
%TO.C,C46*%
X233250000Y-119626000D03*
X233250000Y-121176000D03*
%TD*%
D24*
%TO.C,C5*%
X120800000Y-116250000D03*
X119250000Y-116250000D03*
%TD*%
D22*
%TO.C,C102*%
X135960000Y-92100000D03*
X135000000Y-92100000D03*
%TD*%
D19*
%TO.C,R8*%
X116000000Y-123662500D03*
X116000000Y-121837500D03*
%TD*%
D18*
%TO.C,C72*%
X184160000Y-66975000D03*
X184160000Y-68525000D03*
%TD*%
D19*
%TO.C,R108*%
X179160000Y-71162500D03*
X179160000Y-69337500D03*
%TD*%
D45*
%TO.C,R103*%
X136657500Y-70250000D03*
X138482500Y-70250000D03*
%TD*%
%TO.C,R16*%
X110837500Y-108750000D03*
X112662500Y-108750000D03*
%TD*%
D30*
%TO.C,C9*%
X119250000Y-114500000D03*
X120800000Y-114500000D03*
%TD*%
D25*
%TO.C,J27*%
X138980000Y-51362500D03*
D17*
X136440000Y-51362500D03*
X133900000Y-51362500D03*
X131360000Y-51362500D03*
X128820000Y-51362500D03*
%TD*%
D54*
%TO.C,L1*%
X123700000Y-96685000D03*
X123700000Y-95715000D03*
%TD*%
D20*
%TO.C,R63*%
X202365000Y-57312500D03*
X202365000Y-59137500D03*
%TD*%
%TO.C,R64*%
X116250000Y-109837500D03*
X116250000Y-111662500D03*
%TD*%
D47*
%TO.C,TP1*%
X243250000Y-112250000D03*
%TD*%
D30*
%TO.C,C15*%
X141520000Y-112250000D03*
X143070000Y-112250000D03*
%TD*%
D20*
%TO.C,R83*%
X179410000Y-57337500D03*
X179410000Y-59162500D03*
%TD*%
D18*
%TO.C,C64*%
X207115000Y-66950000D03*
X207115000Y-68500000D03*
%TD*%
D30*
%TO.C,C77*%
X151815000Y-64750000D03*
X153365000Y-64750000D03*
%TD*%
D20*
%TO.C,R69*%
X123902000Y-72012500D03*
X123902000Y-73837500D03*
%TD*%
D38*
%TO.C,J28*%
X226280000Y-131300000D03*
D17*
X228820000Y-131300000D03*
X231360000Y-131300000D03*
X233900000Y-131300000D03*
X236440000Y-131300000D03*
%TD*%
D27*
%TO.C,C48*%
X226750000Y-113926000D03*
X226750000Y-112376000D03*
%TD*%
D24*
%TO.C,C29*%
X191050000Y-115250000D03*
X189500000Y-115250000D03*
%TD*%
D35*
%TO.C,C4*%
X125377000Y-73180000D03*
X125377000Y-72220000D03*
%TD*%
D24*
%TO.C,C92*%
X103200000Y-66740000D03*
X101650000Y-66740000D03*
%TD*%
D27*
%TO.C,C51*%
X223250000Y-121426000D03*
X223250000Y-119876000D03*
%TD*%
D20*
%TO.C,R109*%
X108950000Y-57577500D03*
X108950000Y-59402500D03*
%TD*%
D18*
%TO.C,C82*%
X167365000Y-66975000D03*
X167365000Y-68525000D03*
%TD*%
D21*
%TO.C,R50*%
X161777500Y-72250000D03*
X159952500Y-72250000D03*
%TD*%
D18*
%TO.C,C58*%
X237365000Y-66975000D03*
X237365000Y-68525000D03*
%TD*%
D55*
%TO.C,J3*%
X96600000Y-81772500D03*
X100500000Y-81772500D03*
X96600000Y-83042500D03*
X100500000Y-83042500D03*
X96600000Y-84312500D03*
X100500000Y-84312500D03*
X96600000Y-85582500D03*
X100500000Y-85582500D03*
X96600000Y-86852500D03*
X100500000Y-86852500D03*
X96600000Y-88122500D03*
X100500000Y-88122500D03*
X96600000Y-89392500D03*
X100500000Y-89392500D03*
X96600000Y-90662500D03*
X100500000Y-90662500D03*
X96600000Y-91932500D03*
X100500000Y-91932500D03*
X96600000Y-93202500D03*
X100500000Y-93202500D03*
%TD*%
D19*
%TO.C,R49*%
X229000000Y-123563500D03*
X229000000Y-121738500D03*
%TD*%
D45*
%TO.C,R24*%
X158587500Y-108250000D03*
X160412500Y-108250000D03*
%TD*%
D20*
%TO.C,R30*%
X193000000Y-114337500D03*
X193000000Y-116162500D03*
%TD*%
D56*
%TO.C,J14*%
X98400000Y-97600000D03*
X98400000Y-98250000D03*
X98400000Y-98900000D03*
X98400000Y-99550000D03*
X98400000Y-100200000D03*
D57*
X98175000Y-95700000D03*
X98175000Y-102100000D03*
D58*
X95725000Y-102325000D03*
D59*
X95725000Y-100100000D03*
X95725000Y-97700000D03*
D58*
X95725000Y-95475000D03*
%TD*%
D22*
%TO.C,C100*%
X136180000Y-87000000D03*
X135220000Y-87000000D03*
%TD*%
D26*
%TO.C,REF\u002A\u002A*%
X97900000Y-54300000D03*
%TD*%
D18*
%TO.C,C99*%
X114700000Y-59715000D03*
X114700000Y-61265000D03*
%TD*%
D27*
%TO.C,C18*%
X128795000Y-113525000D03*
X128795000Y-111975000D03*
%TD*%
D19*
%TO.C,R23*%
X163750000Y-123162500D03*
X163750000Y-121337500D03*
%TD*%
D20*
%TO.C,R21*%
X132795000Y-115337500D03*
X132795000Y-117162500D03*
%TD*%
D19*
%TO.C,R81*%
X172660000Y-65662500D03*
X172660000Y-63837500D03*
%TD*%
D20*
%TO.C,R46*%
X238250000Y-115238500D03*
X238250000Y-117063500D03*
%TD*%
D44*
%TO.C,R82*%
X115710000Y-83900000D03*
X114690000Y-83900000D03*
%TD*%
D18*
%TO.C,C38*%
X209955000Y-119475000D03*
X209955000Y-121025000D03*
%TD*%
D19*
%TO.C,R61*%
X233365000Y-65162500D03*
X233365000Y-63337500D03*
%TD*%
D20*
%TO.C,R84*%
X164000000Y-109337500D03*
X164000000Y-111162500D03*
%TD*%
D22*
%TO.C,C110*%
X135660000Y-89800000D03*
X134700000Y-89800000D03*
%TD*%
D27*
%TO.C,C115*%
X235500000Y-100050000D03*
X235500000Y-98500000D03*
%TD*%
D24*
%TO.C,C71*%
X177435000Y-68250000D03*
X175885000Y-68250000D03*
%TD*%
D19*
%TO.C,R105*%
X140070000Y-65162500D03*
X140070000Y-63337500D03*
%TD*%
D45*
%TO.C,R5*%
X116987500Y-80900000D03*
X118812500Y-80900000D03*
%TD*%
D30*
%TO.C,C39*%
X210180000Y-112500000D03*
X211730000Y-112500000D03*
%TD*%
D20*
%TO.C,R65*%
X204865000Y-57312500D03*
X204865000Y-59137500D03*
%TD*%
%TO.C,R104*%
X142070000Y-63337500D03*
X142070000Y-65162500D03*
%TD*%
D24*
%TO.C,C13*%
X144345000Y-115750000D03*
X142795000Y-115750000D03*
%TD*%
D45*
%TO.C,R95*%
X159952500Y-70250000D03*
X161777500Y-70250000D03*
%TD*%
D18*
%TO.C,C30*%
X188000000Y-118725000D03*
X188000000Y-120275000D03*
%TD*%
D60*
%TO.C,D6*%
X111350000Y-85400000D03*
X109850000Y-85400000D03*
%TD*%
D30*
%TO.C,C53*%
X221815000Y-64750000D03*
X223365000Y-64750000D03*
%TD*%
D20*
%TO.C,R60*%
X235365000Y-63337500D03*
X235365000Y-65162500D03*
%TD*%
D19*
%TO.C,R106*%
X99700000Y-65902500D03*
X99700000Y-64077500D03*
%TD*%
D39*
%TO.C,R74*%
X142490000Y-83300000D03*
X143510000Y-83300000D03*
%TD*%
D20*
%TO.C,R14*%
X146295000Y-114837500D03*
X146295000Y-116662500D03*
%TD*%
D61*
%TO.C,J1*%
X242390000Y-71400000D03*
D62*
X246200000Y-71400000D03*
%TD*%
D19*
%TO.C,R15*%
X139545000Y-123162500D03*
X139545000Y-121337500D03*
%TD*%
D37*
%TO.C,C105*%
X119740000Y-93000000D03*
X120700000Y-93000000D03*
%TD*%
D25*
%TO.C,J23*%
X186540000Y-51300000D03*
D17*
X184000000Y-51300000D03*
X181460000Y-51300000D03*
X178920000Y-51300000D03*
X176380000Y-51300000D03*
%TD*%
D19*
%TO.C,R28*%
X155000000Y-117162500D03*
X155000000Y-115337500D03*
%TD*%
D25*
%TO.C,J21*%
X210140000Y-51300000D03*
D17*
X207600000Y-51300000D03*
X205060000Y-51300000D03*
X202520000Y-51300000D03*
X199980000Y-51300000D03*
%TD*%
D21*
%TO.C,R35*%
X182912500Y-109750000D03*
X181087500Y-109750000D03*
%TD*%
D63*
%TO.C,U16*%
X237345000Y-103700000D03*
X238615000Y-103700000D03*
X239885000Y-103700000D03*
X241155000Y-103700000D03*
X241155000Y-98300000D03*
X239885000Y-98300000D03*
X238615000Y-98300000D03*
X237345000Y-98300000D03*
%TD*%
D21*
%TO.C,R4*%
X145600000Y-91900000D03*
X143775000Y-91900000D03*
%TD*%
D19*
%TO.C,R41*%
X205705000Y-123412500D03*
X205705000Y-121587500D03*
%TD*%
D20*
%TO.C,R91*%
X156615000Y-57337500D03*
X156615000Y-59162500D03*
%TD*%
%TO.C,R99*%
X133320000Y-57337500D03*
X133320000Y-59162500D03*
%TD*%
D18*
%TO.C,C91*%
X141570000Y-59475000D03*
X141570000Y-61025000D03*
%TD*%
D24*
%TO.C,C84*%
X130070000Y-66500000D03*
X128520000Y-66500000D03*
%TD*%
D45*
%TO.C,R3*%
X142975000Y-95700000D03*
X144800000Y-95700000D03*
%TD*%
D20*
%TO.C,R66*%
X139795000Y-109337500D03*
X139795000Y-111162500D03*
%TD*%
D19*
%TO.C,R115*%
X106200000Y-71402500D03*
X106200000Y-69577500D03*
%TD*%
D27*
%TO.C,C62*%
X200615000Y-61250000D03*
X200615000Y-59700000D03*
%TD*%
D30*
%TO.C,C65*%
X206340000Y-61225000D03*
X207890000Y-61225000D03*
%TD*%
D19*
%TO.C,R47*%
X231500000Y-123563500D03*
X231500000Y-121738500D03*
%TD*%
D18*
%TO.C,C74*%
X190160000Y-66975000D03*
X190160000Y-68525000D03*
%TD*%
D30*
%TO.C,C85*%
X128520000Y-64750000D03*
X130070000Y-64750000D03*
%TD*%
D20*
%TO.C,R13*%
X122750000Y-115337500D03*
X122750000Y-117162500D03*
%TD*%
D24*
%TO.C,C41*%
X204230000Y-119500000D03*
X202680000Y-119500000D03*
%TD*%
D20*
%TO.C,R38*%
X214955000Y-115087500D03*
X214955000Y-116912500D03*
%TD*%
D30*
%TO.C,C23*%
X165725000Y-112250000D03*
X167275000Y-112250000D03*
%TD*%
D45*
%TO.C,R18*%
X134382500Y-108250000D03*
X136207500Y-108250000D03*
%TD*%
D27*
%TO.C,C42*%
X197455000Y-113775000D03*
X197455000Y-112225000D03*
%TD*%
D18*
%TO.C,C83*%
X164865000Y-59475000D03*
X164865000Y-61025000D03*
%TD*%
D19*
%TO.C,R31*%
X186250000Y-122662500D03*
X186250000Y-120837500D03*
%TD*%
D20*
%TO.C,R88*%
X188160000Y-63337500D03*
X188160000Y-65162500D03*
%TD*%
D64*
%TO.C,R75*%
X136245000Y-80420000D03*
X136245000Y-79400000D03*
%TD*%
D24*
%TO.C,C95*%
X104475000Y-68490000D03*
X102925000Y-68490000D03*
%TD*%
M02*
