M48
; DRILL file {KiCad 9.0.0} date 2025-04-24T16:33:43+0100
; FORMAT={-:-/ absolute / metric / decimal}
; #@! TF.CreationDate,2025-04-24T16:33:43+01:00
; #@! TF.GenerationSoftware,Kicad,Pcbnew,9.0.0
; #@! TF.FileFunction,Plated,1,6,PTH
FMAT,2
METRIC
; #@! TA.AperFunction,Plated,PTH,ComponentDrill
T1C0.200
; #@! TA.AperFunction,Plated,PTH,ViaDrill
T2C0.300
; #@! TA.AperFunction,Plated,PTH,ComponentDrill
T3C0.890
; #@! TA.AperFunction,Plated,PTH,ComponentDrill
T4C1.000
; #@! TA.AperFunction,Plated,PTH,ComponentDrill
T5C1.100
; #@! TA.AperFunction,Plated,PTH,ComponentDrill
T6C1.850
%
G90
G05
T1
X126.062Y-87.837
X126.062Y-89.287
X126.062Y-90.737
X127.512Y-87.837
X127.512Y-89.287
X127.512Y-90.737
X128.963Y-87.837
X128.963Y-89.287
X128.963Y-90.737
T2
X96.4Y-80.1
X98.45Y-64.9
X98.5Y-88.4
X98.6Y-86.8
X98.6Y-90.4
X98.7Y-80.7
X98.7Y-84.1
X98.7Y-85.5
X98.7Y-91.7
X98.7Y-93.0
X100.2Y-100.4
X101.6Y-67.9
X102.4Y-95.9
X103.2Y-61.5
X104.142Y-58.695
X104.2Y-70.49
X104.25Y-114.25
X105.0Y-76.6
X105.3Y-98.125
X105.3Y-98.975
X106.5Y-121.5
X106.8Y-54.4
X106.8Y-61.1
X107.175Y-95.3
X107.2Y-64.99
X107.6Y-70.9
X107.7Y-57.74
X107.7Y-60.8
X107.7Y-84.3
X108.025Y-95.3
X108.25Y-111.75
X108.6Y-124.2
X109.1Y-56.0
X109.25Y-119.75
X109.75Y-110.75
X110.1Y-114.625
X110.5Y-60.3
X111.1Y-63.3
X111.1Y-116.6
X111.4Y-64.6
X111.6Y-118.2
X111.9Y-87.164
X112.0Y-120.8
X112.632Y-86.782
X112.7Y-70.49
X112.851Y-85.264
X112.967Y-86.055
X113.2Y-61.49
X113.396Y-84.678
X113.6Y-125.7
X114.1Y-66.6
X114.184Y-84.815
X114.2Y-69.49
X114.6Y-120.8
X114.75Y-123.5
X115.25Y-116.25
X115.6Y-103.6
X115.6Y-126.5
X115.65Y-120.0
X116.2Y-59.49
X116.5Y-84.9
X117.3Y-84.3
X117.7Y-83.6
X117.7Y-89.0
X118.245Y-66.69
X118.25Y-110.75
X119.0Y-119.7
X119.101Y-84.998
X119.666Y-84.432
X119.8Y-93.7
X119.9Y-99.2
X120.479Y-88.956
X120.9Y-113.3
X121.555Y-92.946
X121.709Y-85.086
X122.5Y-126.5
X124.0Y-100.1
X124.0Y-116.0
X124.3Y-97.5
X125.32Y-64.9
X125.326Y-80.074
X126.875Y-97.023
X127.662Y-113.912
X127.9Y-78.7
X128.195Y-81.474
X128.2Y-67.9
X128.2Y-104.7
X128.3Y-100.2
X129.2Y-75.9
X130.0Y-121.0
X130.074Y-95.85
X130.3Y-61.3
X130.312Y-82.8
X131.058Y-58.705
X131.07Y-70.25
X131.2Y-80.8
X131.795Y-111.25
X132.795Y-119.25
X132.8Y-82.0
X133.295Y-110.25
X133.3Y-96.4
X133.5Y-54.8
X133.67Y-60.9
X133.7Y-82.2
X133.8Y-98.301
X133.9Y-97.0
X134.07Y-64.75
X134.206Y-92.094
X134.3Y-94.4
X134.424Y-86.924
X134.5Y-83.5
X134.551Y-82.6
X134.564Y-60.677
X134.57Y-57.5
X134.6Y-116.2
X134.7Y-114.65
X134.9Y-117.6
X135.345Y-79.41
X135.6Y-120.4
X135.7Y-55.4
X135.8Y-84.5
X135.8Y-97.1
X136.0Y-95.9
X136.3Y-89.8
X136.6Y-85.028
X136.7Y-95.4
X136.8Y-92.3
X136.9Y-87.0
X136.9Y-124.7
X137.3Y-60.2
X137.9Y-95.6
X138.0Y-63.2
X138.0Y-64.4
X138.0Y-92.4
X138.2Y-102.9
X138.295Y-123.0
X138.3Y-94.0
X138.395Y-119.5
X138.4Y-104.3
X138.791Y-86.985
X138.795Y-115.75
X139.0Y-89.7
X139.195Y-119.9
X139.2Y-91.6
X139.3Y-88.7
X139.3Y-126.1
X139.4Y-86.385
X139.57Y-70.25
X140.0Y-85.785
X140.07Y-61.25
X140.3Y-66.375
X140.304Y-90.206
X140.4Y-88.1
X140.4Y-91.0
X141.07Y-69.25
X141.3Y-87.7
X141.795Y-110.25
X142.5Y-119.2
X143.07Y-59.25
X144.3Y-83.9
X144.4Y-112.8
X145.0Y-67.0
X147.412Y-115.662
X148.6Y-99.0
X148.615Y-64.5
X151.2Y-80.0
X151.3Y-75.8
X151.6Y-77.8
X151.75Y-113.0
X151.8Y-67.5
X153.6Y-61.3
X154.308Y-58.705
X154.365Y-70.25
X155.6Y-99.9
X155.7Y-87.6
X156.0Y-111.25
X156.8Y-96.4
X156.8Y-121.0
X156.9Y-54.7
X156.965Y-60.7
X157.0Y-119.25
X157.3Y-114.125
X157.365Y-64.75
X157.5Y-108.25
X157.5Y-110.25
X157.861Y-60.675
X157.865Y-57.5
X158.6Y-55.3
X159.1Y-116.2
X159.3Y-117.6
X159.8Y-120.4
X160.6Y-60.1
X161.0Y-62.9
X161.1Y-124.8
X161.4Y-64.3
X162.5Y-119.9
X162.5Y-123.0
X162.865Y-70.25
X163.0Y-115.75
X163.1Y-66.375
X163.365Y-61.25
X163.4Y-119.6
X163.6Y-125.6
X163.7Y-59.5
X164.365Y-69.25
X166.0Y-110.25
X166.6Y-119.2
X168.308Y-66.705
X168.7Y-112.8
X171.41Y-64.7
X171.75Y-115.5
X174.162Y-113.662
X174.6Y-67.6
X176.4Y-61.3
X177.16Y-70.25
X177.6Y-113.7
X178.5Y-110.75
X179.2Y-120.5
X179.5Y-118.75
X179.7Y-55.7
X179.76Y-60.6
X180.0Y-109.75
X180.16Y-64.75
X180.66Y-57.5
X180.7Y-60.5
X181.6Y-115.6
X181.8Y-117.2
X182.2Y-119.9
X182.6Y-55.6
X183.4Y-60.2
X183.5Y-124.6
X184.0Y-62.8
X184.1Y-64.5
X185.0Y-119.6
X185.0Y-122.5
X185.4Y-67.6
X185.5Y-115.25
X185.66Y-70.25
X185.7Y-66.375
X185.9Y-119.1
X186.0Y-125.0
X186.16Y-61.25
X186.5Y-59.5
X187.16Y-69.25
X188.5Y-109.75
X189.3Y-118.7
X191.5Y-112.2
X193.912Y-115.162
X194.365Y-64.975
X196.322Y-113.912
X197.5Y-67.7
X198.8Y-121.3
X199.4Y-61.2
X200.115Y-58.475
X200.115Y-70.225
X200.2Y-114.375
X200.455Y-111.5
X201.455Y-119.5
X201.955Y-110.5
X202.6Y-55.7
X202.715Y-60.8
X203.115Y-64.725
X203.3Y-116.4
X203.6Y-57.0
X203.6Y-60.5
X203.7Y-118.0
X204.2Y-120.7
X205.5Y-125.6
X205.6Y-55.7
X206.4Y-60.2
X206.9Y-120.2
X206.955Y-123.25
X207.1Y-62.7
X207.455Y-116.0
X207.5Y-64.4
X207.855Y-119.7
X207.9Y-125.7
X208.615Y-70.225
X209.1Y-66.35
X209.115Y-61.225
X210.115Y-69.225
X210.455Y-110.5
X211.2Y-119.4
X212.1Y-59.2
X213.5Y-113.0
X214.115Y-66.475
X215.4Y-93.2
X215.4Y-95.0
X215.5Y-91.6
X215.5Y-96.8
X216.072Y-115.662
X217.3Y-91.6
X217.3Y-93.2
X217.3Y-94.9
X217.3Y-96.8
X218.6Y-97.6
X218.865Y-65.0
X219.572Y-114.063
X220.4Y-93.8
X220.6Y-91.4
X221.0Y-96.0
X221.7Y-67.6
X222.8Y-96.5
X223.5Y-61.3
X223.75Y-111.651
X224.1Y-114.6
X224.365Y-58.68
X224.365Y-70.25
X224.5Y-121.4
X224.75Y-119.651
X225.25Y-110.651
X226.7Y-116.6
X226.965Y-60.8
X227.0Y-55.0
X227.1Y-117.9
X227.2Y-120.9
X227.365Y-64.75
X227.861Y-60.675
X227.865Y-57.5
X229.3Y-125.0
X229.4Y-55.7
X230.147Y-120.353
X230.25Y-123.401
X230.6Y-60.1
X230.75Y-116.151
X231.1Y-62.8
X231.15Y-120.0
X231.2Y-126.1
X231.4Y-64.5
X232.865Y-70.25
X233.1Y-66.375
X233.365Y-61.25
X233.7Y-59.5
X233.75Y-110.651
X234.365Y-69.25
X234.4Y-119.6
X235.4Y-101.3
X236.8Y-113.3
X238.365Y-66.68
X239.322Y-115.813
X239.75Y-96.75
X242.5Y-104.0
T3
X102.78Y-51.3
X105.32Y-51.3
X107.86Y-51.3
X110.4Y-51.3
X110.52Y-131.438
X112.94Y-51.3
X113.06Y-131.438
X115.6Y-131.438
X118.14Y-131.438
X120.68Y-131.438
X121.137Y-52.16
X121.137Y-54.7
X121.137Y-57.24
X128.82Y-51.362
X131.36Y-51.362
X133.9Y-51.362
X134.22Y-131.338
X136.44Y-51.362
X136.76Y-131.338
X138.98Y-51.362
X139.3Y-131.338
X141.84Y-131.338
X144.38Y-131.338
X152.16Y-51.4
X154.7Y-51.4
X157.24Y-51.4
X159.18Y-131.4
X159.78Y-51.4
X161.72Y-131.4
X162.32Y-51.4
X164.26Y-131.4
X166.8Y-131.4
X169.34Y-131.4
X176.38Y-51.3
X178.92Y-51.3
X181.46Y-51.3
X181.64Y-131.5
X184.0Y-51.3
X184.18Y-131.5
X186.54Y-51.3
X186.72Y-131.5
X189.26Y-131.5
X191.8Y-131.5
X199.98Y-51.3
X202.52Y-51.3
X202.82Y-131.438
X205.06Y-51.3
X205.36Y-131.438
X207.6Y-51.3
X207.9Y-131.438
X210.14Y-51.3
X210.44Y-131.438
X212.98Y-131.438
X223.28Y-51.4
X225.82Y-51.4
X226.28Y-131.3
X228.36Y-51.4
X228.82Y-131.3
X230.9Y-51.4
X231.36Y-131.3
X233.44Y-51.4
X233.9Y-131.3
X236.44Y-131.3
T5
X242.39Y-71.4
X246.2Y-71.4
T6
X210.55Y-90.71
X210.55Y-95.79
X223.25Y-93.25
X227.06Y-93.25
X230.87Y-93.25
T4
G00X233.9Y-84.35
M15
G01X233.9Y-81.85
M16
G05
G00X237.9Y-78.4
M15
G01X235.9Y-78.4
M16
G05
G00X239.9Y-84.1
M15
G01X239.9Y-82.1
M16
G05
M30
