%TF.GenerationSoftware,KiCad,Pcbnew,9.0.0*%
%TF.CreationDate,2025-04-24T16:42:49+01:00*%
%TF.ProjectId,DST,4453542e-6b69-4636-9164-5f7063625858,rev?*%
%TF.SameCoordinates,Original*%
%TF.FileFunction,Paste,Top*%
%TF.FilePolarity,Positive*%
%FSLAX46Y46*%
G04 Gerber Fmt 4.6, Leading zero omitted, Abs format (unit mm)*
G04 Created by KiCad (PCBNEW 9.0.0) date 2025-04-24 16:42:49*
%MOMM*%
%LPD*%
G01*
G04 APERTURE LIST*
G04 Aperture macros list*
%AMRoundRect*
0 Rectangle with rounded corners*
0 $1 Rounding radius*
0 $2 $3 $4 $5 $6 $7 $8 $9 X,Y pos of 4 corners*
0 Add a 4 corners polygon primitive as box body*
4,1,4,$2,$3,$4,$5,$6,$7,$8,$9,$2,$3,0*
0 Add four circle primitives for the rounded corners*
1,1,$1+$1,$2,$3*
1,1,$1+$1,$4,$5*
1,1,$1+$1,$6,$7*
1,1,$1+$1,$8,$9*
0 Add four rect primitives between the rounded corners*
20,1,$1+$1,$2,$3,$4,$5,0*
20,1,$1+$1,$4,$5,$6,$7,0*
20,1,$1+$1,$6,$7,$8,$9,0*
20,1,$1+$1,$8,$9,$2,$3,0*%
%AMFreePoly0*
4,1,19,0.252748,0.308718,0.308718,0.252748,0.329204,0.176292,0.329204,-0.176292,0.308718,-0.252748,0.252748,-0.308718,0.176292,-0.329204,-0.176292,-0.329204,-0.252748,-0.308718,-0.308718,-0.252748,-0.329204,-0.176292,-0.329204,0.049616,-0.308718,0.126072,-0.284417,0.157741,-0.157741,0.284417,-0.089193,0.323994,-0.049616,0.329204,0.176292,0.329204,0.252748,0.308718,0.252748,0.308718,
$1*%
%AMFreePoly1*
4,1,19,0.252748,0.308718,0.308718,0.252748,0.329204,0.176292,0.329204,-0.176292,0.308718,-0.252748,0.252748,-0.308718,0.176292,-0.329204,-0.049616,-0.329204,-0.126072,-0.308718,-0.157741,-0.284417,-0.284417,-0.157741,-0.323994,-0.089193,-0.329204,-0.049616,-0.329204,0.176292,-0.308718,0.252748,-0.252748,0.308718,-0.176292,0.329204,0.176292,0.329204,0.252748,0.308718,0.252748,0.308718,
$1*%
%AMFreePoly2*
4,1,19,0.126072,0.308718,0.157741,0.284417,0.284417,0.157741,0.323994,0.089193,0.329204,0.049616,0.329204,-0.176292,0.308718,-0.252748,0.252748,-0.308718,0.176292,-0.329204,-0.176292,-0.329204,-0.252748,-0.308718,-0.308718,-0.252748,-0.329204,-0.176292,-0.329204,0.176292,-0.308718,0.252748,-0.252748,0.308718,-0.176292,0.329204,0.049616,0.329204,0.126072,0.308718,0.126072,0.308718,
$1*%
%AMFreePoly3*
4,1,19,0.252748,0.308718,0.308718,0.252748,0.329204,0.176292,0.329204,-0.049616,0.308718,-0.126072,0.284417,-0.157741,0.157741,-0.284417,0.089193,-0.323994,0.049616,-0.329204,-0.176292,-0.329204,-0.252748,-0.308718,-0.308718,-0.252748,-0.329204,-0.176292,-0.329204,0.176292,-0.308718,0.252748,-0.252748,0.308718,-0.176292,0.329204,0.176292,0.329204,0.252748,0.308718,0.252748,0.308718,
$1*%
G04 Aperture macros list end*
%ADD10C,0.010000*%
%ADD11R,0.900000X0.254000*%
%ADD12R,0.254000X0.900000*%
%ADD13RoundRect,0.225000X-0.250000X0.225000X-0.250000X-0.225000X0.250000X-0.225000X0.250000X0.225000X0*%
%ADD14RoundRect,0.250000X0.450000X-0.262500X0.450000X0.262500X-0.450000X0.262500X-0.450000X-0.262500X0*%
%ADD15RoundRect,0.250000X-0.450000X0.262500X-0.450000X-0.262500X0.450000X-0.262500X0.450000X0.262500X0*%
%ADD16RoundRect,0.250000X0.262500X0.450000X-0.262500X0.450000X-0.262500X-0.450000X0.262500X-0.450000X0*%
%ADD17RoundRect,0.140000X0.140000X0.170000X-0.140000X0.170000X-0.140000X-0.170000X0.140000X-0.170000X0*%
%ADD18RoundRect,0.135000X-0.185000X0.135000X-0.185000X-0.135000X0.185000X-0.135000X0.185000X0.135000X0*%
%ADD19RoundRect,0.225000X0.225000X0.250000X-0.225000X0.250000X-0.225000X-0.250000X0.225000X-0.250000X0*%
%ADD20RoundRect,0.225000X0.250000X-0.225000X0.250000X0.225000X-0.250000X0.225000X-0.250000X-0.225000X0*%
%ADD21R,1.450000X1.100000*%
%ADD22R,2.150000X2.200000*%
%ADD23RoundRect,0.225000X-0.225000X-0.250000X0.225000X-0.250000X0.225000X0.250000X-0.225000X0.250000X0*%
%ADD24FreePoly0,180.000000*%
%ADD25FreePoly1,180.000000*%
%ADD26FreePoly2,180.000000*%
%ADD27FreePoly3,180.000000*%
%ADD28RoundRect,0.050000X0.350000X0.050000X-0.350000X0.050000X-0.350000X-0.050000X0.350000X-0.050000X0*%
%ADD29RoundRect,0.050000X0.050000X0.350000X-0.050000X0.350000X-0.050000X-0.350000X0.050000X-0.350000X0*%
%ADD30RoundRect,0.140000X-0.170000X0.140000X-0.170000X-0.140000X0.170000X-0.140000X0.170000X0.140000X0*%
%ADD31RoundRect,0.140000X0.170000X-0.140000X0.170000X0.140000X-0.170000X0.140000X-0.170000X-0.140000X0*%
%ADD32RoundRect,0.218750X-0.218750X-0.381250X0.218750X-0.381250X0.218750X0.381250X-0.218750X0.381250X0*%
%ADD33RoundRect,0.140000X-0.140000X-0.170000X0.140000X-0.170000X0.140000X0.170000X-0.140000X0.170000X0*%
%ADD34RoundRect,0.135000X-0.135000X-0.185000X0.135000X-0.185000X0.135000X0.185000X-0.135000X0.185000X0*%
%ADD35RoundRect,0.072500X0.732500X0.217500X-0.732500X0.217500X-0.732500X-0.217500X0.732500X-0.217500X0*%
%ADD36RoundRect,0.135000X0.135000X0.185000X-0.135000X0.185000X-0.135000X-0.185000X0.135000X-0.185000X0*%
%ADD37RoundRect,0.250000X-0.262500X-0.450000X0.262500X-0.450000X0.262500X0.450000X-0.262500X0.450000X0*%
%ADD38R,2.440000X1.130000*%
%ADD39R,2.000000X2.000000*%
%ADD40R,1.400000X1.100000*%
%ADD41R,0.700000X0.400000*%
%ADD42RoundRect,0.140000X0.219203X0.021213X0.021213X0.219203X-0.219203X-0.021213X-0.021213X-0.219203X0*%
%ADD43R,1.100000X1.450000*%
%ADD44RoundRect,0.147500X0.172500X-0.147500X0.172500X0.147500X-0.172500X0.147500X-0.172500X-0.147500X0*%
%ADD45R,2.400000X0.760000*%
%ADD46R,1.350000X0.400000*%
%ADD47R,1.400000X1.600000*%
%ADD48R,1.300000X1.450000*%
%ADD49R,1.900000X1.900000*%
%ADD50R,0.800000X0.800000*%
%ADD51R,0.600000X1.400000*%
%ADD52RoundRect,0.135000X0.185000X-0.135000X0.185000X0.135000X-0.185000X0.135000X-0.185000X-0.135000X0*%
G04 APERTURE END LIST*
D10*
%TO.C,U15*%
X106950000Y-66492620D02*
X105697380Y-66492620D01*
X105697380Y-65240000D01*
X106950000Y-65240000D01*
X106950000Y-66492620D01*
G36*
X106950000Y-66492620D02*
G01*
X105697380Y-66492620D01*
X105697380Y-65240000D01*
X106950000Y-65240000D01*
X106950000Y-66492620D01*
G37*
X106950000Y-64739577D02*
X105697460Y-64739577D01*
X105697460Y-63490000D01*
X106950000Y-63490000D01*
X106950000Y-64739577D01*
G36*
X106950000Y-64739577D02*
G01*
X105697460Y-64739577D01*
X105697460Y-63490000D01*
X106950000Y-63490000D01*
X106950000Y-64739577D01*
G37*
X108700000Y-66490400D02*
X107450067Y-66490400D01*
X107450067Y-65240000D01*
X108700000Y-65240000D01*
X108700000Y-66490400D01*
G36*
X108700000Y-66490400D02*
G01*
X107450067Y-66490400D01*
X107450067Y-65240000D01*
X108700000Y-65240000D01*
X108700000Y-66490400D01*
G37*
X108700000Y-64739822D02*
X107450178Y-64739822D01*
X107450178Y-63490000D01*
X108700000Y-63490000D01*
X108700000Y-64739822D01*
G36*
X108700000Y-64739822D02*
G01*
X107450178Y-64739822D01*
X107450178Y-63490000D01*
X108700000Y-63490000D01*
X108700000Y-64739822D01*
G37*
%TO.C,U9*%
X232252620Y-115901000D02*
X231000000Y-115901000D01*
X231000000Y-114648380D01*
X232252620Y-114648380D01*
X232252620Y-115901000D01*
G36*
X232252620Y-115901000D02*
G01*
X231000000Y-115901000D01*
X231000000Y-114648380D01*
X232252620Y-114648380D01*
X232252620Y-115901000D01*
G37*
X232252540Y-117651000D02*
X231000000Y-117651000D01*
X231000000Y-116401423D01*
X232252540Y-116401423D01*
X232252540Y-117651000D01*
G36*
X232252540Y-117651000D02*
G01*
X231000000Y-117651000D01*
X231000000Y-116401423D01*
X232252540Y-116401423D01*
X232252540Y-117651000D01*
G37*
X230499933Y-115901000D02*
X229250000Y-115901000D01*
X229250000Y-114650600D01*
X230499933Y-114650600D01*
X230499933Y-115901000D01*
G36*
X230499933Y-115901000D02*
G01*
X229250000Y-115901000D01*
X229250000Y-114650600D01*
X230499933Y-114650600D01*
X230499933Y-115901000D01*
G37*
X230499822Y-117651000D02*
X229250000Y-117651000D01*
X229250000Y-116401178D01*
X230499822Y-116401178D01*
X230499822Y-117651000D01*
G36*
X230499822Y-117651000D02*
G01*
X229250000Y-117651000D01*
X229250000Y-116401178D01*
X230499822Y-116401178D01*
X230499822Y-117651000D01*
G37*
%TO.C,U8*%
X208957620Y-115750000D02*
X207705000Y-115750000D01*
X207705000Y-114497380D01*
X208957620Y-114497380D01*
X208957620Y-115750000D01*
G36*
X208957620Y-115750000D02*
G01*
X207705000Y-115750000D01*
X207705000Y-114497380D01*
X208957620Y-114497380D01*
X208957620Y-115750000D01*
G37*
X208957540Y-117500000D02*
X207705000Y-117500000D01*
X207705000Y-116250423D01*
X208957540Y-116250423D01*
X208957540Y-117500000D01*
G36*
X208957540Y-117500000D02*
G01*
X207705000Y-117500000D01*
X207705000Y-116250423D01*
X208957540Y-116250423D01*
X208957540Y-117500000D01*
G37*
X207204933Y-115750000D02*
X205955000Y-115750000D01*
X205955000Y-114499600D01*
X207204933Y-114499600D01*
X207204933Y-115750000D01*
G36*
X207204933Y-115750000D02*
G01*
X205955000Y-115750000D01*
X205955000Y-114499600D01*
X207204933Y-114499600D01*
X207204933Y-115750000D01*
G37*
X207204822Y-117500000D02*
X205955000Y-117500000D01*
X205955000Y-116250178D01*
X207204822Y-116250178D01*
X207204822Y-117500000D01*
G36*
X207204822Y-117500000D02*
G01*
X205955000Y-117500000D01*
X205955000Y-116250178D01*
X207204822Y-116250178D01*
X207204822Y-117500000D01*
G37*
%TO.C,U5*%
X140297620Y-115500000D02*
X139045000Y-115500000D01*
X139045000Y-114247380D01*
X140297620Y-114247380D01*
X140297620Y-115500000D01*
G36*
X140297620Y-115500000D02*
G01*
X139045000Y-115500000D01*
X139045000Y-114247380D01*
X140297620Y-114247380D01*
X140297620Y-115500000D01*
G37*
X140297540Y-117250000D02*
X139045000Y-117250000D01*
X139045000Y-116000423D01*
X140297540Y-116000423D01*
X140297540Y-117250000D01*
G36*
X140297540Y-117250000D02*
G01*
X139045000Y-117250000D01*
X139045000Y-116000423D01*
X140297540Y-116000423D01*
X140297540Y-117250000D01*
G37*
X138544933Y-115500000D02*
X137295000Y-115500000D01*
X137295000Y-114249600D01*
X138544933Y-114249600D01*
X138544933Y-115500000D01*
G36*
X138544933Y-115500000D02*
G01*
X137295000Y-115500000D01*
X137295000Y-114249600D01*
X138544933Y-114249600D01*
X138544933Y-115500000D01*
G37*
X138544822Y-117250000D02*
X137295000Y-117250000D01*
X137295000Y-116000178D01*
X138544822Y-116000178D01*
X138544822Y-117250000D01*
G36*
X138544822Y-117250000D02*
G01*
X137295000Y-117250000D01*
X137295000Y-116000178D01*
X138544822Y-116000178D01*
X138544822Y-117250000D01*
G37*
%TO.C,U7*%
X187002620Y-115000000D02*
X185750000Y-115000000D01*
X185750000Y-113747380D01*
X187002620Y-113747380D01*
X187002620Y-115000000D01*
G36*
X187002620Y-115000000D02*
G01*
X185750000Y-115000000D01*
X185750000Y-113747380D01*
X187002620Y-113747380D01*
X187002620Y-115000000D01*
G37*
X187002540Y-116750000D02*
X185750000Y-116750000D01*
X185750000Y-115500423D01*
X187002540Y-115500423D01*
X187002540Y-116750000D01*
G36*
X187002540Y-116750000D02*
G01*
X185750000Y-116750000D01*
X185750000Y-115500423D01*
X187002540Y-115500423D01*
X187002540Y-116750000D01*
G37*
X185249933Y-115000000D02*
X184000000Y-115000000D01*
X184000000Y-113749600D01*
X185249933Y-113749600D01*
X185249933Y-115000000D01*
G36*
X185249933Y-115000000D02*
G01*
X184000000Y-115000000D01*
X184000000Y-113749600D01*
X185249933Y-113749600D01*
X185249933Y-115000000D01*
G37*
X185249822Y-116750000D02*
X184000000Y-116750000D01*
X184000000Y-115500178D01*
X185249822Y-115500178D01*
X185249822Y-116750000D01*
G36*
X185249822Y-116750000D02*
G01*
X184000000Y-116750000D01*
X184000000Y-115500178D01*
X185249822Y-115500178D01*
X185249822Y-116750000D01*
G37*
%TO.C,U4*%
X116752620Y-116000000D02*
X115500000Y-116000000D01*
X115500000Y-114747380D01*
X116752620Y-114747380D01*
X116752620Y-116000000D01*
G36*
X116752620Y-116000000D02*
G01*
X115500000Y-116000000D01*
X115500000Y-114747380D01*
X116752620Y-114747380D01*
X116752620Y-116000000D01*
G37*
X116752540Y-117750000D02*
X115500000Y-117750000D01*
X115500000Y-116500423D01*
X116752540Y-116500423D01*
X116752540Y-117750000D01*
G36*
X116752540Y-117750000D02*
G01*
X115500000Y-117750000D01*
X115500000Y-116500423D01*
X116752540Y-116500423D01*
X116752540Y-117750000D01*
G37*
X114999933Y-116000000D02*
X113750000Y-116000000D01*
X113750000Y-114749600D01*
X114999933Y-114749600D01*
X114999933Y-116000000D01*
G36*
X114999933Y-116000000D02*
G01*
X113750000Y-116000000D01*
X113750000Y-114749600D01*
X114999933Y-114749600D01*
X114999933Y-116000000D01*
G37*
X114999822Y-117750000D02*
X113750000Y-117750000D01*
X113750000Y-116500178D01*
X114999822Y-116500178D01*
X114999822Y-117750000D01*
G36*
X114999822Y-117750000D02*
G01*
X113750000Y-117750000D01*
X113750000Y-116500178D01*
X114999822Y-116500178D01*
X114999822Y-117750000D01*
G37*
%TO.C,U6*%
X164502620Y-115500000D02*
X163250000Y-115500000D01*
X163250000Y-114247380D01*
X164502620Y-114247380D01*
X164502620Y-115500000D01*
G36*
X164502620Y-115500000D02*
G01*
X163250000Y-115500000D01*
X163250000Y-114247380D01*
X164502620Y-114247380D01*
X164502620Y-115500000D01*
G37*
X164502540Y-117250000D02*
X163250000Y-117250000D01*
X163250000Y-116000423D01*
X164502540Y-116000423D01*
X164502540Y-117250000D01*
G36*
X164502540Y-117250000D02*
G01*
X163250000Y-117250000D01*
X163250000Y-116000423D01*
X164502540Y-116000423D01*
X164502540Y-117250000D01*
G37*
X162749933Y-115500000D02*
X161500000Y-115500000D01*
X161500000Y-114249600D01*
X162749933Y-114249600D01*
X162749933Y-115500000D01*
G36*
X162749933Y-115500000D02*
G01*
X161500000Y-115500000D01*
X161500000Y-114249600D01*
X162749933Y-114249600D01*
X162749933Y-115500000D01*
G37*
X162749822Y-117250000D02*
X161500000Y-117250000D01*
X161500000Y-116000178D01*
X162749822Y-116000178D01*
X162749822Y-117250000D01*
G36*
X162749822Y-117250000D02*
G01*
X161500000Y-117250000D01*
X161500000Y-116000178D01*
X162749822Y-116000178D01*
X162749822Y-117250000D01*
G37*
%TO.C,U10*%
X227115000Y-66252620D02*
X225862380Y-66252620D01*
X225862380Y-65000000D01*
X227115000Y-65000000D01*
X227115000Y-66252620D01*
G36*
X227115000Y-66252620D02*
G01*
X225862380Y-66252620D01*
X225862380Y-65000000D01*
X227115000Y-65000000D01*
X227115000Y-66252620D01*
G37*
X227115000Y-64499577D02*
X225862460Y-64499577D01*
X225862460Y-63250000D01*
X227115000Y-63250000D01*
X227115000Y-64499577D01*
G36*
X227115000Y-64499577D02*
G01*
X225862460Y-64499577D01*
X225862460Y-63250000D01*
X227115000Y-63250000D01*
X227115000Y-64499577D01*
G37*
X228865000Y-66250400D02*
X227615067Y-66250400D01*
X227615067Y-65000000D01*
X228865000Y-65000000D01*
X228865000Y-66250400D01*
G36*
X228865000Y-66250400D02*
G01*
X227615067Y-66250400D01*
X227615067Y-65000000D01*
X228865000Y-65000000D01*
X228865000Y-66250400D01*
G37*
X228865000Y-64499822D02*
X227615178Y-64499822D01*
X227615178Y-63250000D01*
X228865000Y-63250000D01*
X228865000Y-64499822D01*
G36*
X228865000Y-64499822D02*
G01*
X227615178Y-64499822D01*
X227615178Y-63250000D01*
X228865000Y-63250000D01*
X228865000Y-64499822D01*
G37*
%TO.C,U13*%
X157115000Y-66252620D02*
X155862380Y-66252620D01*
X155862380Y-65000000D01*
X157115000Y-65000000D01*
X157115000Y-66252620D01*
G36*
X157115000Y-66252620D02*
G01*
X155862380Y-66252620D01*
X155862380Y-65000000D01*
X157115000Y-65000000D01*
X157115000Y-66252620D01*
G37*
X157115000Y-64499577D02*
X155862460Y-64499577D01*
X155862460Y-63250000D01*
X157115000Y-63250000D01*
X157115000Y-64499577D01*
G36*
X157115000Y-64499577D02*
G01*
X155862460Y-64499577D01*
X155862460Y-63250000D01*
X157115000Y-63250000D01*
X157115000Y-64499577D01*
G37*
X158865000Y-66250400D02*
X157615067Y-66250400D01*
X157615067Y-65000000D01*
X158865000Y-65000000D01*
X158865000Y-66250400D01*
G36*
X158865000Y-66250400D02*
G01*
X157615067Y-66250400D01*
X157615067Y-65000000D01*
X158865000Y-65000000D01*
X158865000Y-66250400D01*
G37*
X158865000Y-64499822D02*
X157615178Y-64499822D01*
X157615178Y-63250000D01*
X158865000Y-63250000D01*
X158865000Y-64499822D01*
G36*
X158865000Y-64499822D02*
G01*
X157615178Y-64499822D01*
X157615178Y-63250000D01*
X158865000Y-63250000D01*
X158865000Y-64499822D01*
G37*
%TO.C,U12*%
X179910000Y-66252620D02*
X178657380Y-66252620D01*
X178657380Y-65000000D01*
X179910000Y-65000000D01*
X179910000Y-66252620D01*
G36*
X179910000Y-66252620D02*
G01*
X178657380Y-66252620D01*
X178657380Y-65000000D01*
X179910000Y-65000000D01*
X179910000Y-66252620D01*
G37*
X179910000Y-64499577D02*
X178657460Y-64499577D01*
X178657460Y-63250000D01*
X179910000Y-63250000D01*
X179910000Y-64499577D01*
G36*
X179910000Y-64499577D02*
G01*
X178657460Y-64499577D01*
X178657460Y-63250000D01*
X179910000Y-63250000D01*
X179910000Y-64499577D01*
G37*
X181660000Y-66250400D02*
X180410067Y-66250400D01*
X180410067Y-65000000D01*
X181660000Y-65000000D01*
X181660000Y-66250400D01*
G36*
X181660000Y-66250400D02*
G01*
X180410067Y-66250400D01*
X180410067Y-65000000D01*
X181660000Y-65000000D01*
X181660000Y-66250400D01*
G37*
X181660000Y-64499822D02*
X180410178Y-64499822D01*
X180410178Y-63250000D01*
X181660000Y-63250000D01*
X181660000Y-64499822D01*
G36*
X181660000Y-64499822D02*
G01*
X180410178Y-64499822D01*
X180410178Y-63250000D01*
X181660000Y-63250000D01*
X181660000Y-64499822D01*
G37*
%TO.C,U11*%
X202865000Y-66227620D02*
X201612380Y-66227620D01*
X201612380Y-64975000D01*
X202865000Y-64975000D01*
X202865000Y-66227620D01*
G36*
X202865000Y-66227620D02*
G01*
X201612380Y-66227620D01*
X201612380Y-64975000D01*
X202865000Y-64975000D01*
X202865000Y-66227620D01*
G37*
X202865000Y-64474577D02*
X201612460Y-64474577D01*
X201612460Y-63225000D01*
X202865000Y-63225000D01*
X202865000Y-64474577D01*
G36*
X202865000Y-64474577D02*
G01*
X201612460Y-64474577D01*
X201612460Y-63225000D01*
X202865000Y-63225000D01*
X202865000Y-64474577D01*
G37*
X204615000Y-66225400D02*
X203365067Y-66225400D01*
X203365067Y-64975000D01*
X204615000Y-64975000D01*
X204615000Y-66225400D01*
G36*
X204615000Y-66225400D02*
G01*
X203365067Y-66225400D01*
X203365067Y-64975000D01*
X204615000Y-64975000D01*
X204615000Y-66225400D01*
G37*
X204615000Y-64474822D02*
X203365178Y-64474822D01*
X203365178Y-63225000D01*
X204615000Y-63225000D01*
X204615000Y-64474822D01*
G36*
X204615000Y-64474822D02*
G01*
X203365178Y-64474822D01*
X203365178Y-63225000D01*
X204615000Y-63225000D01*
X204615000Y-64474822D01*
G37*
%TO.C,U14*%
X133820000Y-66252620D02*
X132567380Y-66252620D01*
X132567380Y-65000000D01*
X133820000Y-65000000D01*
X133820000Y-66252620D01*
G36*
X133820000Y-66252620D02*
G01*
X132567380Y-66252620D01*
X132567380Y-65000000D01*
X133820000Y-65000000D01*
X133820000Y-66252620D01*
G37*
X133820000Y-64499577D02*
X132567460Y-64499577D01*
X132567460Y-63250000D01*
X133820000Y-63250000D01*
X133820000Y-64499577D01*
G36*
X133820000Y-64499577D02*
G01*
X132567460Y-64499577D01*
X132567460Y-63250000D01*
X133820000Y-63250000D01*
X133820000Y-64499577D01*
G37*
X135570000Y-66250400D02*
X134320067Y-66250400D01*
X134320067Y-65000000D01*
X135570000Y-65000000D01*
X135570000Y-66250400D01*
G36*
X135570000Y-66250400D02*
G01*
X134320067Y-66250400D01*
X134320067Y-65000000D01*
X135570000Y-65000000D01*
X135570000Y-66250400D01*
G37*
X135570000Y-64499822D02*
X134320178Y-64499822D01*
X134320178Y-63250000D01*
X135570000Y-63250000D01*
X135570000Y-64499822D01*
G36*
X135570000Y-64499822D02*
G01*
X134320178Y-64499822D01*
X134320178Y-63250000D01*
X135570000Y-63250000D01*
X135570000Y-64499822D01*
G37*
%TD*%
D11*
%TO.C,U15*%
X104610000Y-63490000D03*
X104610000Y-63990000D03*
X104610000Y-64490000D03*
X104610000Y-64990000D03*
X104610000Y-65490000D03*
X104610000Y-65990000D03*
X104610000Y-66490000D03*
D12*
X105700000Y-67580000D03*
X106200000Y-67580000D03*
X106700000Y-67580000D03*
X107200000Y-67580000D03*
X107700000Y-67580000D03*
X108200000Y-67580000D03*
X108700000Y-67580000D03*
D11*
X109790000Y-66490000D03*
X109790000Y-65990000D03*
X109790000Y-65490000D03*
X109790000Y-64990000D03*
X109790000Y-64490000D03*
X109790000Y-63990000D03*
X109790000Y-63490000D03*
D12*
X108700000Y-62400000D03*
X108200000Y-62400000D03*
X107700000Y-62400000D03*
X107200000Y-62400000D03*
X106700000Y-62400000D03*
X106200000Y-62400000D03*
X105700000Y-62400000D03*
%TD*%
D11*
%TO.C,U9*%
X233340000Y-117651000D03*
X233340000Y-117151000D03*
X233340000Y-116651000D03*
X233340000Y-116151000D03*
X233340000Y-115651000D03*
X233340000Y-115151000D03*
X233340000Y-114651000D03*
D12*
X232250000Y-113561000D03*
X231750000Y-113561000D03*
X231250000Y-113561000D03*
X230750000Y-113561000D03*
X230250000Y-113561000D03*
X229750000Y-113561000D03*
X229250000Y-113561000D03*
D11*
X228160000Y-114651000D03*
X228160000Y-115151000D03*
X228160000Y-115651000D03*
X228160000Y-116151000D03*
X228160000Y-116651000D03*
X228160000Y-117151000D03*
X228160000Y-117651000D03*
D12*
X229250000Y-118741000D03*
X229750000Y-118741000D03*
X230250000Y-118741000D03*
X230750000Y-118741000D03*
X231250000Y-118741000D03*
X231750000Y-118741000D03*
X232250000Y-118741000D03*
%TD*%
D11*
%TO.C,U8*%
X210045000Y-117500000D03*
X210045000Y-117000000D03*
X210045000Y-116500000D03*
X210045000Y-116000000D03*
X210045000Y-115500000D03*
X210045000Y-115000000D03*
X210045000Y-114500000D03*
D12*
X208955000Y-113410000D03*
X208455000Y-113410000D03*
X207955000Y-113410000D03*
X207455000Y-113410000D03*
X206955000Y-113410000D03*
X206455000Y-113410000D03*
X205955000Y-113410000D03*
D11*
X204865000Y-114500000D03*
X204865000Y-115000000D03*
X204865000Y-115500000D03*
X204865000Y-116000000D03*
X204865000Y-116500000D03*
X204865000Y-117000000D03*
X204865000Y-117500000D03*
D12*
X205955000Y-118590000D03*
X206455000Y-118590000D03*
X206955000Y-118590000D03*
X207455000Y-118590000D03*
X207955000Y-118590000D03*
X208455000Y-118590000D03*
X208955000Y-118590000D03*
%TD*%
D11*
%TO.C,U5*%
X141385000Y-117250000D03*
X141385000Y-116750000D03*
X141385000Y-116250000D03*
X141385000Y-115750000D03*
X141385000Y-115250000D03*
X141385000Y-114750000D03*
X141385000Y-114250000D03*
D12*
X140295000Y-113160000D03*
X139795000Y-113160000D03*
X139295000Y-113160000D03*
X138795000Y-113160000D03*
X138295000Y-113160000D03*
X137795000Y-113160000D03*
X137295000Y-113160000D03*
D11*
X136205000Y-114250000D03*
X136205000Y-114750000D03*
X136205000Y-115250000D03*
X136205000Y-115750000D03*
X136205000Y-116250000D03*
X136205000Y-116750000D03*
X136205000Y-117250000D03*
D12*
X137295000Y-118340000D03*
X137795000Y-118340000D03*
X138295000Y-118340000D03*
X138795000Y-118340000D03*
X139295000Y-118340000D03*
X139795000Y-118340000D03*
X140295000Y-118340000D03*
%TD*%
D11*
%TO.C,U7*%
X188090000Y-116750000D03*
X188090000Y-116250000D03*
X188090000Y-115750000D03*
X188090000Y-115250000D03*
X188090000Y-114750000D03*
X188090000Y-114250000D03*
X188090000Y-113750000D03*
D12*
X187000000Y-112660000D03*
X186500000Y-112660000D03*
X186000000Y-112660000D03*
X185500000Y-112660000D03*
X185000000Y-112660000D03*
X184500000Y-112660000D03*
X184000000Y-112660000D03*
D11*
X182910000Y-113750000D03*
X182910000Y-114250000D03*
X182910000Y-114750000D03*
X182910000Y-115250000D03*
X182910000Y-115750000D03*
X182910000Y-116250000D03*
X182910000Y-116750000D03*
D12*
X184000000Y-117840000D03*
X184500000Y-117840000D03*
X185000000Y-117840000D03*
X185500000Y-117840000D03*
X186000000Y-117840000D03*
X186500000Y-117840000D03*
X187000000Y-117840000D03*
%TD*%
D11*
%TO.C,U4*%
X117840000Y-117750000D03*
X117840000Y-117250000D03*
X117840000Y-116750000D03*
X117840000Y-116250000D03*
X117840000Y-115750000D03*
X117840000Y-115250000D03*
X117840000Y-114750000D03*
D12*
X116750000Y-113660000D03*
X116250000Y-113660000D03*
X115750000Y-113660000D03*
X115250000Y-113660000D03*
X114750000Y-113660000D03*
X114250000Y-113660000D03*
X113750000Y-113660000D03*
D11*
X112660000Y-114750000D03*
X112660000Y-115250000D03*
X112660000Y-115750000D03*
X112660000Y-116250000D03*
X112660000Y-116750000D03*
X112660000Y-117250000D03*
X112660000Y-117750000D03*
D12*
X113750000Y-118840000D03*
X114250000Y-118840000D03*
X114750000Y-118840000D03*
X115250000Y-118840000D03*
X115750000Y-118840000D03*
X116250000Y-118840000D03*
X116750000Y-118840000D03*
%TD*%
D11*
%TO.C,U6*%
X165590000Y-117250000D03*
X165590000Y-116750000D03*
X165590000Y-116250000D03*
X165590000Y-115750000D03*
X165590000Y-115250000D03*
X165590000Y-114750000D03*
X165590000Y-114250000D03*
D12*
X164500000Y-113160000D03*
X164000000Y-113160000D03*
X163500000Y-113160000D03*
X163000000Y-113160000D03*
X162500000Y-113160000D03*
X162000000Y-113160000D03*
X161500000Y-113160000D03*
D11*
X160410000Y-114250000D03*
X160410000Y-114750000D03*
X160410000Y-115250000D03*
X160410000Y-115750000D03*
X160410000Y-116250000D03*
X160410000Y-116750000D03*
X160410000Y-117250000D03*
D12*
X161500000Y-118340000D03*
X162000000Y-118340000D03*
X162500000Y-118340000D03*
X163000000Y-118340000D03*
X163500000Y-118340000D03*
X164000000Y-118340000D03*
X164500000Y-118340000D03*
%TD*%
D11*
%TO.C,U10*%
X224775000Y-63250000D03*
X224775000Y-63750000D03*
X224775000Y-64250000D03*
X224775000Y-64750000D03*
X224775000Y-65250000D03*
X224775000Y-65750000D03*
X224775000Y-66250000D03*
D12*
X225865000Y-67340000D03*
X226365000Y-67340000D03*
X226865000Y-67340000D03*
X227365000Y-67340000D03*
X227865000Y-67340000D03*
X228365000Y-67340000D03*
X228865000Y-67340000D03*
D11*
X229955000Y-66250000D03*
X229955000Y-65750000D03*
X229955000Y-65250000D03*
X229955000Y-64750000D03*
X229955000Y-64250000D03*
X229955000Y-63750000D03*
X229955000Y-63250000D03*
D12*
X228865000Y-62160000D03*
X228365000Y-62160000D03*
X227865000Y-62160000D03*
X227365000Y-62160000D03*
X226865000Y-62160000D03*
X226365000Y-62160000D03*
X225865000Y-62160000D03*
%TD*%
D11*
%TO.C,U13*%
X154775000Y-63250000D03*
X154775000Y-63750000D03*
X154775000Y-64250000D03*
X154775000Y-64750000D03*
X154775000Y-65250000D03*
X154775000Y-65750000D03*
X154775000Y-66250000D03*
D12*
X155865000Y-67340000D03*
X156365000Y-67340000D03*
X156865000Y-67340000D03*
X157365000Y-67340000D03*
X157865000Y-67340000D03*
X158365000Y-67340000D03*
X158865000Y-67340000D03*
D11*
X159955000Y-66250000D03*
X159955000Y-65750000D03*
X159955000Y-65250000D03*
X159955000Y-64750000D03*
X159955000Y-64250000D03*
X159955000Y-63750000D03*
X159955000Y-63250000D03*
D12*
X158865000Y-62160000D03*
X158365000Y-62160000D03*
X157865000Y-62160000D03*
X157365000Y-62160000D03*
X156865000Y-62160000D03*
X156365000Y-62160000D03*
X155865000Y-62160000D03*
%TD*%
D11*
%TO.C,U12*%
X177570000Y-63250000D03*
X177570000Y-63750000D03*
X177570000Y-64250000D03*
X177570000Y-64750000D03*
X177570000Y-65250000D03*
X177570000Y-65750000D03*
X177570000Y-66250000D03*
D12*
X178660000Y-67340000D03*
X179160000Y-67340000D03*
X179660000Y-67340000D03*
X180160000Y-67340000D03*
X180660000Y-67340000D03*
X181160000Y-67340000D03*
X181660000Y-67340000D03*
D11*
X182750000Y-66250000D03*
X182750000Y-65750000D03*
X182750000Y-65250000D03*
X182750000Y-64750000D03*
X182750000Y-64250000D03*
X182750000Y-63750000D03*
X182750000Y-63250000D03*
D12*
X181660000Y-62160000D03*
X181160000Y-62160000D03*
X180660000Y-62160000D03*
X180160000Y-62160000D03*
X179660000Y-62160000D03*
X179160000Y-62160000D03*
X178660000Y-62160000D03*
%TD*%
D11*
%TO.C,U11*%
X200525000Y-63225000D03*
X200525000Y-63725000D03*
X200525000Y-64225000D03*
X200525000Y-64725000D03*
X200525000Y-65225000D03*
X200525000Y-65725000D03*
X200525000Y-66225000D03*
D12*
X201615000Y-67315000D03*
X202115000Y-67315000D03*
X202615000Y-67315000D03*
X203115000Y-67315000D03*
X203615000Y-67315000D03*
X204115000Y-67315000D03*
X204615000Y-67315000D03*
D11*
X205705000Y-66225000D03*
X205705000Y-65725000D03*
X205705000Y-65225000D03*
X205705000Y-64725000D03*
X205705000Y-64225000D03*
X205705000Y-63725000D03*
X205705000Y-63225000D03*
D12*
X204615000Y-62135000D03*
X204115000Y-62135000D03*
X203615000Y-62135000D03*
X203115000Y-62135000D03*
X202615000Y-62135000D03*
X202115000Y-62135000D03*
X201615000Y-62135000D03*
%TD*%
D11*
%TO.C,U14*%
X131480000Y-63250000D03*
X131480000Y-63750000D03*
X131480000Y-64250000D03*
X131480000Y-64750000D03*
X131480000Y-65250000D03*
X131480000Y-65750000D03*
X131480000Y-66250000D03*
D12*
X132570000Y-67340000D03*
X133070000Y-67340000D03*
X133570000Y-67340000D03*
X134070000Y-67340000D03*
X134570000Y-67340000D03*
X135070000Y-67340000D03*
X135570000Y-67340000D03*
D11*
X136660000Y-66250000D03*
X136660000Y-65750000D03*
X136660000Y-65250000D03*
X136660000Y-64750000D03*
X136660000Y-64250000D03*
X136660000Y-63750000D03*
X136660000Y-63250000D03*
D12*
X135570000Y-62160000D03*
X135070000Y-62160000D03*
X134570000Y-62160000D03*
X134070000Y-62160000D03*
X133570000Y-62160000D03*
X133070000Y-62160000D03*
X132570000Y-62160000D03*
%TD*%
D13*
%TO.C,C67*%
X210615000Y-59450000D03*
X210615000Y-61000000D03*
%TD*%
D14*
%TO.C,R54*%
X219865000Y-65662500D03*
X219865000Y-63837500D03*
%TD*%
D15*
%TO.C,R112*%
X115200000Y-63577500D03*
X115200000Y-65402500D03*
%TD*%
%TO.C,R55*%
X226615000Y-57337500D03*
X226615000Y-59162500D03*
%TD*%
%TO.C,R96*%
X165365000Y-63337500D03*
X165365000Y-65162500D03*
%TD*%
D16*
%TO.C,R58*%
X111612500Y-72490000D03*
X109787500Y-72490000D03*
%TD*%
D17*
%TO.C,C107*%
X131880000Y-82000000D03*
X130920000Y-82000000D03*
%TD*%
D15*
%TO.C,R86*%
X186500000Y-108837500D03*
X186500000Y-110662500D03*
%TD*%
D13*
%TO.C,C6*%
X117750000Y-119725000D03*
X117750000Y-121275000D03*
%TD*%
D18*
%TO.C,R67*%
X126900000Y-98390000D03*
X126900000Y-99410000D03*
%TD*%
D19*
%TO.C,C79*%
X154640000Y-68250000D03*
X153090000Y-68250000D03*
%TD*%
D14*
%TO.C,R52*%
X222750000Y-117563500D03*
X222750000Y-115738500D03*
%TD*%
D15*
%TO.C,R10*%
X109250000Y-115837500D03*
X109250000Y-117662500D03*
%TD*%
D20*
%TO.C,C26*%
X153000000Y-113525000D03*
X153000000Y-111975000D03*
%TD*%
D19*
%TO.C,C17*%
X135570000Y-119250000D03*
X134020000Y-119250000D03*
%TD*%
D20*
%TO.C,C11*%
X105250000Y-114025000D03*
X105250000Y-112475000D03*
%TD*%
D21*
%TO.C,D7*%
X246800000Y-107337500D03*
X246800000Y-105537500D03*
%TD*%
D22*
%TO.C,D1*%
X231750000Y-103950000D03*
X231750000Y-99550000D03*
%TD*%
D20*
%TO.C,C19*%
X131295000Y-121025000D03*
X131295000Y-119475000D03*
%TD*%
D13*
%TO.C,C98*%
X117200000Y-67215000D03*
X117200000Y-68765000D03*
%TD*%
D23*
%TO.C,C73*%
X183385000Y-61250000D03*
X184935000Y-61250000D03*
%TD*%
D24*
%TO.C,U1*%
X128600000Y-90375000D03*
D25*
X128600000Y-89650000D03*
D24*
X128600000Y-88925000D03*
D25*
X128600000Y-88200000D03*
D26*
X127875000Y-90375000D03*
D27*
X127875000Y-89650000D03*
D26*
X127875000Y-88925000D03*
D27*
X127875000Y-88200000D03*
D24*
X127150000Y-90375000D03*
D25*
X127150000Y-89650000D03*
D24*
X127150000Y-88925000D03*
D25*
X127150000Y-88200000D03*
D26*
X126425000Y-90375000D03*
D27*
X126425000Y-89650000D03*
D26*
X126425000Y-88925000D03*
D27*
X126425000Y-88200000D03*
D28*
X132462500Y-93087500D03*
X132462500Y-92687500D03*
X132462500Y-92287500D03*
X132462500Y-91887500D03*
X132462500Y-91487500D03*
X132462500Y-91087500D03*
X132462500Y-90687500D03*
X132462500Y-90287500D03*
X132462500Y-89887500D03*
X132462500Y-89487500D03*
X132462500Y-89087500D03*
X132462500Y-88687500D03*
X132462500Y-88287500D03*
X132462500Y-87887500D03*
X132462500Y-87487500D03*
X132462500Y-87087500D03*
X132462500Y-86687500D03*
X132462500Y-86287500D03*
X132462500Y-85887500D03*
X132462500Y-85487500D03*
D29*
X131312500Y-84337500D03*
X130912500Y-84337500D03*
X130512500Y-84337500D03*
X130112500Y-84337500D03*
X129712500Y-84337500D03*
X129312500Y-84337500D03*
X128912500Y-84337500D03*
X128512500Y-84337500D03*
X128112500Y-84337500D03*
X127712500Y-84337500D03*
X127312500Y-84337500D03*
X126912500Y-84337500D03*
X126512500Y-84337500D03*
X126112500Y-84337500D03*
X125712500Y-84337500D03*
X125312500Y-84337500D03*
X124912500Y-84337500D03*
X124512500Y-84337500D03*
X124112500Y-84337500D03*
X123712500Y-84337500D03*
D28*
X122562500Y-85487500D03*
X122562500Y-85887500D03*
X122562500Y-86287500D03*
X122562500Y-86687500D03*
X122562500Y-87087500D03*
X122562500Y-87487500D03*
X122562500Y-87887500D03*
X122562500Y-88287500D03*
X122562500Y-88687500D03*
X122562500Y-89087500D03*
X122562500Y-89487500D03*
X122562500Y-89887500D03*
X122562500Y-90287500D03*
X122562500Y-90687500D03*
X122562500Y-91087500D03*
X122562500Y-91487500D03*
X122562500Y-91887500D03*
X122562500Y-92287500D03*
X122562500Y-92687500D03*
X122562500Y-93087500D03*
D29*
X123712500Y-94237500D03*
X124112500Y-94237500D03*
X124512500Y-94237500D03*
X124912500Y-94237500D03*
X125312500Y-94237500D03*
X125712500Y-94237500D03*
X126112500Y-94237500D03*
X126512500Y-94237500D03*
X126912500Y-94237500D03*
X127312500Y-94237500D03*
X127712500Y-94237500D03*
X128112500Y-94237500D03*
X128512500Y-94237500D03*
X128912500Y-94237500D03*
X129312500Y-94237500D03*
X129712500Y-94237500D03*
X130112500Y-94237500D03*
X130512500Y-94237500D03*
X130912500Y-94237500D03*
X131312500Y-94237500D03*
%TD*%
D30*
%TO.C,C3*%
X137200000Y-103240000D03*
X137200000Y-104200000D03*
%TD*%
D14*
%TO.C,R25*%
X161250000Y-123162500D03*
X161250000Y-121337500D03*
%TD*%
D15*
%TO.C,R92*%
X208455000Y-109587500D03*
X208455000Y-111412500D03*
%TD*%
D16*
%TO.C,R40*%
X231777500Y-72250000D03*
X229952500Y-72250000D03*
%TD*%
%TO.C,R42*%
X207527500Y-72225000D03*
X205702500Y-72225000D03*
%TD*%
%TO.C,R56*%
X138482500Y-72250000D03*
X136657500Y-72250000D03*
%TD*%
D19*
%TO.C,C76*%
X153365000Y-66500000D03*
X151815000Y-66500000D03*
%TD*%
D14*
%TO.C,R102*%
X202115000Y-71137500D03*
X202115000Y-69312500D03*
%TD*%
%TO.C,R114*%
X133070000Y-71162500D03*
X133070000Y-69337500D03*
%TD*%
D23*
%TO.C,C44*%
X234750000Y-114401000D03*
X236300000Y-114401000D03*
%TD*%
D15*
%TO.C,R29*%
X157000000Y-115337500D03*
X157000000Y-117162500D03*
%TD*%
D14*
%TO.C,R11*%
X107250000Y-117662500D03*
X107250000Y-115837500D03*
%TD*%
D13*
%TO.C,C66*%
X213115000Y-66950000D03*
X213115000Y-68500000D03*
%TD*%
D14*
%TO.C,R20*%
X130795000Y-117162500D03*
X130795000Y-115337500D03*
%TD*%
D31*
%TO.C,C101*%
X128000000Y-99380000D03*
X128000000Y-98420000D03*
%TD*%
D13*
%TO.C,C59*%
X234865000Y-59475000D03*
X234865000Y-61025000D03*
%TD*%
D32*
%TO.C,L2*%
X237687500Y-106000000D03*
X239812500Y-106000000D03*
%TD*%
D30*
%TO.C,C111*%
X126300000Y-80740000D03*
X126300000Y-81700000D03*
%TD*%
D33*
%TO.C,C109*%
X118440000Y-89700000D03*
X119400000Y-89700000D03*
%TD*%
D19*
%TO.C,C55*%
X224640000Y-68250000D03*
X223090000Y-68250000D03*
%TD*%
D15*
%TO.C,R22*%
X170500000Y-114837500D03*
X170500000Y-116662500D03*
%TD*%
%TO.C,R37*%
X179500000Y-114837500D03*
X179500000Y-116662500D03*
%TD*%
D34*
%TO.C,R73*%
X142500000Y-84700000D03*
X143520000Y-84700000D03*
%TD*%
D13*
%TO.C,C88*%
X138070000Y-66975000D03*
X138070000Y-68525000D03*
%TD*%
D16*
%TO.C,R51*%
X228162500Y-110651000D03*
X226337500Y-110651000D03*
%TD*%
D35*
%TO.C,U3*%
X147105000Y-102905000D03*
X147105000Y-101635000D03*
X147105000Y-100365000D03*
X147105000Y-99095000D03*
X139895000Y-99095000D03*
X139895000Y-100365000D03*
X139895000Y-101635000D03*
X139895000Y-102905000D03*
%TD*%
D16*
%TO.C,R76*%
X155812500Y-102400000D03*
X153987500Y-102400000D03*
%TD*%
D13*
%TO.C,C75*%
X187660000Y-59475000D03*
X187660000Y-61025000D03*
%TD*%
D14*
%TO.C,R98*%
X126570000Y-65662500D03*
X126570000Y-63837500D03*
%TD*%
D20*
%TO.C,C10*%
X111250000Y-114025000D03*
X111250000Y-112475000D03*
%TD*%
D16*
%TO.C,R27*%
X160412500Y-110250000D03*
X158587500Y-110250000D03*
%TD*%
D23*
%TO.C,C89*%
X137295000Y-61250000D03*
X138845000Y-61250000D03*
%TD*%
%TO.C,C93*%
X101650000Y-64990000D03*
X103200000Y-64990000D03*
%TD*%
%TO.C,C97*%
X110425000Y-61490000D03*
X111975000Y-61490000D03*
%TD*%
D36*
%TO.C,R80*%
X115710000Y-82800000D03*
X114690000Y-82800000D03*
%TD*%
D19*
%TO.C,C25*%
X159775000Y-119250000D03*
X158225000Y-119250000D03*
%TD*%
D20*
%TO.C,C35*%
X178000000Y-120525000D03*
X178000000Y-118975000D03*
%TD*%
D19*
%TO.C,C63*%
X200390000Y-68225000D03*
X198840000Y-68225000D03*
%TD*%
D23*
%TO.C,C12*%
X142795000Y-114000000D03*
X144345000Y-114000000D03*
%TD*%
D20*
%TO.C,C34*%
X175500000Y-113025000D03*
X175500000Y-111475000D03*
%TD*%
D37*
%TO.C,R77*%
X153475000Y-96400000D03*
X155300000Y-96400000D03*
%TD*%
D38*
%TO.C,SW3*%
X140500000Y-75320000D03*
X149110000Y-75320000D03*
X140500000Y-77860000D03*
X149110000Y-77860000D03*
X140500000Y-80400000D03*
X149110000Y-80400000D03*
%TD*%
D23*
%TO.C,C61*%
X197565000Y-64725000D03*
X199115000Y-64725000D03*
%TD*%
D39*
%TO.C,SW2*%
X106500000Y-78100000D03*
X112500000Y-78100000D03*
%TD*%
D31*
%TO.C,C112*%
X123600000Y-99380000D03*
X123600000Y-98420000D03*
%TD*%
D19*
%TO.C,C8*%
X112025000Y-119750000D03*
X110475000Y-119750000D03*
%TD*%
%TO.C,C52*%
X223365000Y-66500000D03*
X221815000Y-66500000D03*
%TD*%
D14*
%TO.C,R17*%
X137045000Y-123162500D03*
X137045000Y-121337500D03*
%TD*%
D33*
%TO.C,C103*%
X120220000Y-84400000D03*
X121180000Y-84400000D03*
%TD*%
D19*
%TO.C,C49*%
X227525000Y-119651000D03*
X225975000Y-119651000D03*
%TD*%
D23*
%TO.C,C1*%
X117975000Y-112750000D03*
X119525000Y-112750000D03*
%TD*%
D20*
%TO.C,C43*%
X199955000Y-121275000D03*
X199955000Y-119725000D03*
%TD*%
%TO.C,C50*%
X220750000Y-113926000D03*
X220750000Y-112376000D03*
%TD*%
D19*
%TO.C,C68*%
X176160000Y-66500000D03*
X174610000Y-66500000D03*
%TD*%
D37*
%TO.C,R26*%
X181087500Y-107750000D03*
X182912500Y-107750000D03*
%TD*%
D20*
%TO.C,C86*%
X131570000Y-61275000D03*
X131570000Y-59725000D03*
%TD*%
D22*
%TO.C,D2*%
X227000000Y-87150000D03*
X227000000Y-82750000D03*
%TD*%
D16*
%TO.C,R48*%
X184572500Y-72250000D03*
X182747500Y-72250000D03*
%TD*%
D13*
%TO.C,C56*%
X231365000Y-66975000D03*
X231365000Y-68525000D03*
%TD*%
D33*
%TO.C,C114*%
X121740000Y-95400000D03*
X122700000Y-95400000D03*
%TD*%
D15*
%TO.C,R45*%
X201455000Y-115587500D03*
X201455000Y-117412500D03*
%TD*%
D16*
%TO.C,R43*%
X204867500Y-110500000D03*
X203042500Y-110500000D03*
%TD*%
D23*
%TO.C,C36*%
X211455000Y-114250000D03*
X213005000Y-114250000D03*
%TD*%
D20*
%TO.C,C16*%
X134795000Y-113525000D03*
X134795000Y-111975000D03*
%TD*%
D14*
%TO.C,R110*%
X156365000Y-71162500D03*
X156365000Y-69337500D03*
%TD*%
%TO.C,R70*%
X121300000Y-99025000D03*
X121300000Y-97200000D03*
%TD*%
D40*
%TO.C,U2*%
X129100000Y-73500000D03*
X129100000Y-71900000D03*
X126900000Y-71900000D03*
X126900000Y-73500000D03*
%TD*%
D31*
%TO.C,C113*%
X124600000Y-99380000D03*
X124600000Y-98420000D03*
%TD*%
D41*
%TO.C,D3*%
X101800000Y-97800000D03*
X101800000Y-97100000D03*
%TD*%
D15*
%TO.C,R72*%
X211115000Y-63312500D03*
X211115000Y-65137500D03*
%TD*%
D20*
%TO.C,C116*%
X242750000Y-106800000D03*
X242750000Y-105250000D03*
%TD*%
%TO.C,C27*%
X155500000Y-121025000D03*
X155500000Y-119475000D03*
%TD*%
D13*
%TO.C,C22*%
X165500000Y-119225000D03*
X165500000Y-120775000D03*
%TD*%
D20*
%TO.C,C70*%
X177660000Y-61275000D03*
X177660000Y-59725000D03*
%TD*%
D14*
%TO.C,R90*%
X149865000Y-65662500D03*
X149865000Y-63837500D03*
%TD*%
D13*
%TO.C,C14*%
X141295000Y-119225000D03*
X141295000Y-120775000D03*
%TD*%
D15*
%TO.C,R107*%
X106450000Y-57577500D03*
X106450000Y-59402500D03*
%TD*%
D23*
%TO.C,C81*%
X160590000Y-61250000D03*
X162140000Y-61250000D03*
%TD*%
D13*
%TO.C,C96*%
X111200000Y-67215000D03*
X111200000Y-68765000D03*
%TD*%
D15*
%TO.C,R85*%
X181910000Y-57337500D03*
X181910000Y-59162500D03*
%TD*%
D37*
%TO.C,R87*%
X182747500Y-70250000D03*
X184572500Y-70250000D03*
%TD*%
D20*
%TO.C,C78*%
X154865000Y-61275000D03*
X154865000Y-59725000D03*
%TD*%
D37*
%TO.C,R32*%
X203042500Y-108500000D03*
X204867500Y-108500000D03*
%TD*%
D39*
%TO.C,SW1*%
X154400000Y-89400000D03*
X148400000Y-89400000D03*
%TD*%
D14*
%TO.C,R89*%
X186160000Y-65162500D03*
X186160000Y-63337500D03*
%TD*%
D20*
%TO.C,C40*%
X203455000Y-113775000D03*
X203455000Y-112225000D03*
%TD*%
D15*
%TO.C,R101*%
X135820000Y-57337500D03*
X135820000Y-59162500D03*
%TD*%
D14*
%TO.C,R9*%
X113500000Y-123662500D03*
X113500000Y-121837500D03*
%TD*%
D19*
%TO.C,C37*%
X213005000Y-116000000D03*
X211455000Y-116000000D03*
%TD*%
D37*
%TO.C,R71*%
X205702500Y-70225000D03*
X207527500Y-70225000D03*
%TD*%
D33*
%TO.C,C104*%
X118440000Y-88700000D03*
X119400000Y-88700000D03*
%TD*%
D20*
%TO.C,C24*%
X159000000Y-113525000D03*
X159000000Y-111975000D03*
%TD*%
D14*
%TO.C,R97*%
X163365000Y-65162500D03*
X163365000Y-63337500D03*
%TD*%
D23*
%TO.C,C69*%
X174610000Y-64750000D03*
X176160000Y-64750000D03*
%TD*%
D15*
%TO.C,R94*%
X231750000Y-109738500D03*
X231750000Y-111563500D03*
%TD*%
D14*
%TO.C,R62*%
X195615000Y-65637500D03*
X195615000Y-63812500D03*
%TD*%
D19*
%TO.C,C60*%
X199115000Y-66475000D03*
X197565000Y-66475000D03*
%TD*%
D42*
%TO.C,C106*%
X131478822Y-97278822D03*
X130800000Y-96600000D03*
%TD*%
D20*
%TO.C,C7*%
X107750000Y-121525000D03*
X107750000Y-119975000D03*
%TD*%
D15*
%TO.C,R53*%
X224750000Y-115738500D03*
X224750000Y-117563500D03*
%TD*%
D14*
%TO.C,R33*%
X183750000Y-122662500D03*
X183750000Y-120837500D03*
%TD*%
D37*
%TO.C,R111*%
X109787500Y-70490000D03*
X111612500Y-70490000D03*
%TD*%
D15*
%TO.C,R93*%
X159115000Y-57337500D03*
X159115000Y-59162500D03*
%TD*%
D17*
%TO.C,C2*%
X126905000Y-78825000D03*
X125945000Y-78825000D03*
%TD*%
D14*
%TO.C,R44*%
X199455000Y-117412500D03*
X199455000Y-115587500D03*
%TD*%
D43*
%TO.C,D5*%
X111400000Y-83500000D03*
X109600000Y-83500000D03*
%TD*%
D18*
%TO.C,R68*%
X125900000Y-98400000D03*
X125900000Y-99420000D03*
%TD*%
D23*
%TO.C,C28*%
X189500000Y-113500000D03*
X191050000Y-113500000D03*
%TD*%
D14*
%TO.C,R39*%
X208205000Y-123412500D03*
X208205000Y-121587500D03*
%TD*%
D13*
%TO.C,C80*%
X161365000Y-66975000D03*
X161365000Y-68525000D03*
%TD*%
D37*
%TO.C,R79*%
X242750000Y-109250000D03*
X244575000Y-109250000D03*
%TD*%
D19*
%TO.C,C45*%
X236300000Y-116151000D03*
X234750000Y-116151000D03*
%TD*%
D37*
%TO.C,R34*%
X226337500Y-108651000D03*
X228162500Y-108651000D03*
%TD*%
D41*
%TO.C,D4*%
X101800000Y-99300000D03*
X101800000Y-100000000D03*
%TD*%
D14*
%TO.C,R113*%
X113200000Y-65402500D03*
X113200000Y-63577500D03*
%TD*%
D13*
%TO.C,C90*%
X144070000Y-66975000D03*
X144070000Y-68525000D03*
%TD*%
D15*
%TO.C,R57*%
X229115000Y-57337500D03*
X229115000Y-59162500D03*
%TD*%
D20*
%TO.C,C32*%
X181500000Y-113025000D03*
X181500000Y-111475000D03*
%TD*%
D14*
%TO.C,R78*%
X209115000Y-65137500D03*
X209115000Y-63312500D03*
%TD*%
D23*
%TO.C,C57*%
X230590000Y-61250000D03*
X232140000Y-61250000D03*
%TD*%
D20*
%TO.C,C54*%
X224865000Y-61275000D03*
X224865000Y-59725000D03*
%TD*%
D14*
%TO.C,R100*%
X226365000Y-71162500D03*
X226365000Y-69337500D03*
%TD*%
D20*
%TO.C,C94*%
X104700000Y-61515000D03*
X104700000Y-59965000D03*
%TD*%
D19*
%TO.C,C21*%
X168550000Y-115750000D03*
X167000000Y-115750000D03*
%TD*%
D23*
%TO.C,C47*%
X233475000Y-112651000D03*
X235025000Y-112651000D03*
%TD*%
D14*
%TO.C,R36*%
X177500000Y-116662500D03*
X177500000Y-114837500D03*
%TD*%
D23*
%TO.C,C31*%
X188225000Y-111750000D03*
X189775000Y-111750000D03*
%TD*%
D19*
%TO.C,C33*%
X182275000Y-118750000D03*
X180725000Y-118750000D03*
%TD*%
D23*
%TO.C,C20*%
X167000000Y-114000000D03*
X168550000Y-114000000D03*
%TD*%
D37*
%TO.C,R59*%
X229952500Y-70250000D03*
X231777500Y-70250000D03*
%TD*%
D30*
%TO.C,C108*%
X128200000Y-79620000D03*
X128200000Y-80580000D03*
%TD*%
D19*
%TO.C,C87*%
X131345000Y-68250000D03*
X129795000Y-68250000D03*
%TD*%
D16*
%TO.C,R19*%
X136207500Y-110250000D03*
X134382500Y-110250000D03*
%TD*%
%TO.C,R6*%
X112662500Y-110750000D03*
X110837500Y-110750000D03*
%TD*%
D13*
%TO.C,C46*%
X233250000Y-119626000D03*
X233250000Y-121176000D03*
%TD*%
D19*
%TO.C,C5*%
X120800000Y-116250000D03*
X119250000Y-116250000D03*
%TD*%
D17*
%TO.C,C102*%
X135960000Y-92100000D03*
X135000000Y-92100000D03*
%TD*%
D14*
%TO.C,R8*%
X116000000Y-123662500D03*
X116000000Y-121837500D03*
%TD*%
D13*
%TO.C,C72*%
X184160000Y-66975000D03*
X184160000Y-68525000D03*
%TD*%
D14*
%TO.C,R108*%
X179160000Y-71162500D03*
X179160000Y-69337500D03*
%TD*%
D37*
%TO.C,R103*%
X136657500Y-70250000D03*
X138482500Y-70250000D03*
%TD*%
%TO.C,R16*%
X110837500Y-108750000D03*
X112662500Y-108750000D03*
%TD*%
D23*
%TO.C,C9*%
X119250000Y-114500000D03*
X120800000Y-114500000D03*
%TD*%
D44*
%TO.C,L1*%
X123700000Y-96685000D03*
X123700000Y-95715000D03*
%TD*%
D15*
%TO.C,R63*%
X202365000Y-57312500D03*
X202365000Y-59137500D03*
%TD*%
%TO.C,R64*%
X116250000Y-109837500D03*
X116250000Y-111662500D03*
%TD*%
D23*
%TO.C,C15*%
X141520000Y-112250000D03*
X143070000Y-112250000D03*
%TD*%
D15*
%TO.C,R83*%
X179410000Y-57337500D03*
X179410000Y-59162500D03*
%TD*%
D13*
%TO.C,C64*%
X207115000Y-66950000D03*
X207115000Y-68500000D03*
%TD*%
D23*
%TO.C,C77*%
X151815000Y-64750000D03*
X153365000Y-64750000D03*
%TD*%
D15*
%TO.C,R69*%
X123902000Y-72012500D03*
X123902000Y-73837500D03*
%TD*%
D20*
%TO.C,C48*%
X226750000Y-113926000D03*
X226750000Y-112376000D03*
%TD*%
D19*
%TO.C,C29*%
X191050000Y-115250000D03*
X189500000Y-115250000D03*
%TD*%
D31*
%TO.C,C4*%
X125377000Y-73180000D03*
X125377000Y-72220000D03*
%TD*%
D19*
%TO.C,C92*%
X103200000Y-66740000D03*
X101650000Y-66740000D03*
%TD*%
D20*
%TO.C,C51*%
X223250000Y-121426000D03*
X223250000Y-119876000D03*
%TD*%
D15*
%TO.C,R109*%
X108950000Y-57577500D03*
X108950000Y-59402500D03*
%TD*%
D13*
%TO.C,C82*%
X167365000Y-66975000D03*
X167365000Y-68525000D03*
%TD*%
D16*
%TO.C,R50*%
X161777500Y-72250000D03*
X159952500Y-72250000D03*
%TD*%
D13*
%TO.C,C58*%
X237365000Y-66975000D03*
X237365000Y-68525000D03*
%TD*%
D45*
%TO.C,J3*%
X96600000Y-81772500D03*
X100500000Y-81772500D03*
X96600000Y-83042500D03*
X100500000Y-83042500D03*
X96600000Y-84312500D03*
X100500000Y-84312500D03*
X96600000Y-85582500D03*
X100500000Y-85582500D03*
X96600000Y-86852500D03*
X100500000Y-86852500D03*
X96600000Y-88122500D03*
X100500000Y-88122500D03*
X96600000Y-89392500D03*
X100500000Y-89392500D03*
X96600000Y-90662500D03*
X100500000Y-90662500D03*
X96600000Y-91932500D03*
X100500000Y-91932500D03*
X96600000Y-93202500D03*
X100500000Y-93202500D03*
%TD*%
D14*
%TO.C,R49*%
X229000000Y-123563500D03*
X229000000Y-121738500D03*
%TD*%
D37*
%TO.C,R24*%
X158587500Y-108250000D03*
X160412500Y-108250000D03*
%TD*%
D15*
%TO.C,R30*%
X193000000Y-114337500D03*
X193000000Y-116162500D03*
%TD*%
D46*
%TO.C,J14*%
X98400000Y-97600000D03*
X98400000Y-98250000D03*
X98400000Y-98900000D03*
X98400000Y-99550000D03*
X98400000Y-100200000D03*
D47*
X98175000Y-95700000D03*
X98175000Y-102100000D03*
D48*
X95725000Y-102325000D03*
D49*
X95725000Y-100100000D03*
X95725000Y-97700000D03*
D48*
X95725000Y-95475000D03*
%TD*%
D17*
%TO.C,C100*%
X136180000Y-87000000D03*
X135220000Y-87000000D03*
%TD*%
D13*
%TO.C,C99*%
X114700000Y-59715000D03*
X114700000Y-61265000D03*
%TD*%
D20*
%TO.C,C18*%
X128795000Y-113525000D03*
X128795000Y-111975000D03*
%TD*%
D14*
%TO.C,R23*%
X163750000Y-123162500D03*
X163750000Y-121337500D03*
%TD*%
D15*
%TO.C,R21*%
X132795000Y-115337500D03*
X132795000Y-117162500D03*
%TD*%
D14*
%TO.C,R81*%
X172660000Y-65662500D03*
X172660000Y-63837500D03*
%TD*%
D15*
%TO.C,R46*%
X238250000Y-115238500D03*
X238250000Y-117063500D03*
%TD*%
D36*
%TO.C,R82*%
X115710000Y-83900000D03*
X114690000Y-83900000D03*
%TD*%
D13*
%TO.C,C38*%
X209955000Y-119475000D03*
X209955000Y-121025000D03*
%TD*%
D14*
%TO.C,R61*%
X233365000Y-65162500D03*
X233365000Y-63337500D03*
%TD*%
D15*
%TO.C,R84*%
X164000000Y-109337500D03*
X164000000Y-111162500D03*
%TD*%
D17*
%TO.C,C110*%
X135660000Y-89800000D03*
X134700000Y-89800000D03*
%TD*%
D20*
%TO.C,C115*%
X235500000Y-100050000D03*
X235500000Y-98500000D03*
%TD*%
D19*
%TO.C,C71*%
X177435000Y-68250000D03*
X175885000Y-68250000D03*
%TD*%
D14*
%TO.C,R105*%
X140070000Y-65162500D03*
X140070000Y-63337500D03*
%TD*%
D37*
%TO.C,R5*%
X116987500Y-80900000D03*
X118812500Y-80900000D03*
%TD*%
D23*
%TO.C,C39*%
X210180000Y-112500000D03*
X211730000Y-112500000D03*
%TD*%
D15*
%TO.C,R65*%
X204865000Y-57312500D03*
X204865000Y-59137500D03*
%TD*%
%TO.C,R104*%
X142070000Y-63337500D03*
X142070000Y-65162500D03*
%TD*%
D19*
%TO.C,C13*%
X144345000Y-115750000D03*
X142795000Y-115750000D03*
%TD*%
D37*
%TO.C,R95*%
X159952500Y-70250000D03*
X161777500Y-70250000D03*
%TD*%
D13*
%TO.C,C30*%
X188000000Y-118725000D03*
X188000000Y-120275000D03*
%TD*%
D50*
%TO.C,D6*%
X111350000Y-85400000D03*
X109850000Y-85400000D03*
%TD*%
D23*
%TO.C,C53*%
X221815000Y-64750000D03*
X223365000Y-64750000D03*
%TD*%
D15*
%TO.C,R60*%
X235365000Y-63337500D03*
X235365000Y-65162500D03*
%TD*%
D14*
%TO.C,R106*%
X99700000Y-65902500D03*
X99700000Y-64077500D03*
%TD*%
D34*
%TO.C,R74*%
X142490000Y-83300000D03*
X143510000Y-83300000D03*
%TD*%
D15*
%TO.C,R14*%
X146295000Y-114837500D03*
X146295000Y-116662500D03*
%TD*%
D14*
%TO.C,R15*%
X139545000Y-123162500D03*
X139545000Y-121337500D03*
%TD*%
D33*
%TO.C,C105*%
X119740000Y-93000000D03*
X120700000Y-93000000D03*
%TD*%
D14*
%TO.C,R28*%
X155000000Y-117162500D03*
X155000000Y-115337500D03*
%TD*%
D16*
%TO.C,R35*%
X182912500Y-109750000D03*
X181087500Y-109750000D03*
%TD*%
D51*
%TO.C,U16*%
X237345000Y-103700000D03*
X238615000Y-103700000D03*
X239885000Y-103700000D03*
X241155000Y-103700000D03*
X241155000Y-98300000D03*
X239885000Y-98300000D03*
X238615000Y-98300000D03*
X237345000Y-98300000D03*
%TD*%
D16*
%TO.C,R4*%
X145600000Y-91900000D03*
X143775000Y-91900000D03*
%TD*%
D14*
%TO.C,R41*%
X205705000Y-123412500D03*
X205705000Y-121587500D03*
%TD*%
D15*
%TO.C,R91*%
X156615000Y-57337500D03*
X156615000Y-59162500D03*
%TD*%
%TO.C,R99*%
X133320000Y-57337500D03*
X133320000Y-59162500D03*
%TD*%
D13*
%TO.C,C91*%
X141570000Y-59475000D03*
X141570000Y-61025000D03*
%TD*%
D19*
%TO.C,C84*%
X130070000Y-66500000D03*
X128520000Y-66500000D03*
%TD*%
D37*
%TO.C,R3*%
X142975000Y-95700000D03*
X144800000Y-95700000D03*
%TD*%
D15*
%TO.C,R66*%
X139795000Y-109337500D03*
X139795000Y-111162500D03*
%TD*%
D14*
%TO.C,R115*%
X106200000Y-71402500D03*
X106200000Y-69577500D03*
%TD*%
D20*
%TO.C,C62*%
X200615000Y-61250000D03*
X200615000Y-59700000D03*
%TD*%
D23*
%TO.C,C65*%
X206340000Y-61225000D03*
X207890000Y-61225000D03*
%TD*%
D14*
%TO.C,R47*%
X231500000Y-123563500D03*
X231500000Y-121738500D03*
%TD*%
D13*
%TO.C,C74*%
X190160000Y-66975000D03*
X190160000Y-68525000D03*
%TD*%
D23*
%TO.C,C85*%
X128520000Y-64750000D03*
X130070000Y-64750000D03*
%TD*%
D15*
%TO.C,R13*%
X122750000Y-115337500D03*
X122750000Y-117162500D03*
%TD*%
D19*
%TO.C,C41*%
X204230000Y-119500000D03*
X202680000Y-119500000D03*
%TD*%
D15*
%TO.C,R38*%
X214955000Y-115087500D03*
X214955000Y-116912500D03*
%TD*%
D23*
%TO.C,C23*%
X165725000Y-112250000D03*
X167275000Y-112250000D03*
%TD*%
D37*
%TO.C,R18*%
X134382500Y-108250000D03*
X136207500Y-108250000D03*
%TD*%
D20*
%TO.C,C42*%
X197455000Y-113775000D03*
X197455000Y-112225000D03*
%TD*%
D13*
%TO.C,C83*%
X164865000Y-59475000D03*
X164865000Y-61025000D03*
%TD*%
D14*
%TO.C,R31*%
X186250000Y-122662500D03*
X186250000Y-120837500D03*
%TD*%
D15*
%TO.C,R88*%
X188160000Y-63337500D03*
X188160000Y-65162500D03*
%TD*%
D52*
%TO.C,R75*%
X136245000Y-80420000D03*
X136245000Y-79400000D03*
%TD*%
D19*
%TO.C,C95*%
X104475000Y-68490000D03*
X102925000Y-68490000D03*
%TD*%
M02*
