%TF.GenerationSoftware,KiCad,Pcbnew,9.0.0*%
%TF.CreationDate,2025-04-24T16:42:49+01:00*%
%TF.ProjectId,DST,4453542e-6b69-4636-9164-5f7063625858,rev?*%
%TF.SameCoordinates,Original*%
%TF.FileFunction,Copper,L1,Top*%
%TF.FilePolarity,Positive*%
%FSLAX46Y46*%
G04 Gerber Fmt 4.6, Leading zero omitted, Abs format (unit mm)*
G04 Created by KiCad (PCBNEW 9.0.0) date 2025-04-24 16:42:49*
%MOMM*%
%LPD*%
G01*
G04 APERTURE LIST*
G04 Aperture macros list*
%AMRoundRect*
0 Rectangle with rounded corners*
0 $1 Rounding radius*
0 $2 $3 $4 $5 $6 $7 $8 $9 X,Y pos of 4 corners*
0 Add a 4 corners polygon primitive as box body*
4,1,4,$2,$3,$4,$5,$6,$7,$8,$9,$2,$3,0*
0 Add four circle primitives for the rounded corners*
1,1,$1+$1,$2,$3*
1,1,$1+$1,$4,$5*
1,1,$1+$1,$6,$7*
1,1,$1+$1,$8,$9*
0 Add four rect primitives between the rounded corners*
20,1,$1+$1,$2,$3,$4,$5,0*
20,1,$1+$1,$4,$5,$6,$7,0*
20,1,$1+$1,$6,$7,$8,$9,0*
20,1,$1+$1,$8,$9,$2,$3,0*%
G04 Aperture macros list end*
%TA.AperFunction,SMDPad,CuDef*%
%ADD10R,0.900000X0.254000*%
%TD*%
%TA.AperFunction,SMDPad,CuDef*%
%ADD11R,0.254000X0.900000*%
%TD*%
%TA.AperFunction,SMDPad,CuDef*%
%ADD12R,3.100000X3.100000*%
%TD*%
%TA.AperFunction,ComponentPad*%
%ADD13R,1.398000X1.398000*%
%TD*%
%TA.AperFunction,ComponentPad*%
%ADD14C,1.398000*%
%TD*%
%TA.AperFunction,SMDPad,CuDef*%
%ADD15RoundRect,0.225000X-0.250000X0.225000X-0.250000X-0.225000X0.250000X-0.225000X0.250000X0.225000X0*%
%TD*%
%TA.AperFunction,SMDPad,CuDef*%
%ADD16RoundRect,0.250000X0.450000X-0.262500X0.450000X0.262500X-0.450000X0.262500X-0.450000X-0.262500X0*%
%TD*%
%TA.AperFunction,SMDPad,CuDef*%
%ADD17RoundRect,0.250000X-0.450000X0.262500X-0.450000X-0.262500X0.450000X-0.262500X0.450000X0.262500X0*%
%TD*%
%TA.AperFunction,SMDPad,CuDef*%
%ADD18RoundRect,0.250000X0.262500X0.450000X-0.262500X0.450000X-0.262500X-0.450000X0.262500X-0.450000X0*%
%TD*%
%TA.AperFunction,SMDPad,CuDef*%
%ADD19RoundRect,0.140000X0.140000X0.170000X-0.140000X0.170000X-0.140000X-0.170000X0.140000X-0.170000X0*%
%TD*%
%TA.AperFunction,SMDPad,CuDef*%
%ADD20RoundRect,0.135000X-0.185000X0.135000X-0.185000X-0.135000X0.185000X-0.135000X0.185000X0.135000X0*%
%TD*%
%TA.AperFunction,SMDPad,CuDef*%
%ADD21RoundRect,0.225000X0.225000X0.250000X-0.225000X0.250000X-0.225000X-0.250000X0.225000X-0.250000X0*%
%TD*%
%TA.AperFunction,SMDPad,CuDef*%
%ADD22RoundRect,0.225000X0.250000X-0.225000X0.250000X0.225000X-0.250000X0.225000X-0.250000X-0.225000X0*%
%TD*%
%TA.AperFunction,SMDPad,CuDef*%
%ADD23R,1.450000X1.100000*%
%TD*%
%TA.AperFunction,SMDPad,CuDef*%
%ADD24R,2.150000X2.200000*%
%TD*%
%TA.AperFunction,SMDPad,CuDef*%
%ADD25RoundRect,0.225000X-0.225000X-0.250000X0.225000X-0.250000X0.225000X0.250000X-0.225000X0.250000X0*%
%TD*%
%TA.AperFunction,SMDPad,CuDef*%
%ADD26RoundRect,0.050000X0.350000X0.050000X-0.350000X0.050000X-0.350000X-0.050000X0.350000X-0.050000X0*%
%TD*%
%TA.AperFunction,SMDPad,CuDef*%
%ADD27RoundRect,0.050000X0.050000X0.350000X-0.050000X0.350000X-0.050000X-0.350000X0.050000X-0.350000X0*%
%TD*%
%TA.AperFunction,HeatsinkPad*%
%ADD28C,0.500000*%
%TD*%
%TA.AperFunction,HeatsinkPad*%
%ADD29R,3.400000X3.400000*%
%TD*%
%TA.AperFunction,SMDPad,CuDef*%
%ADD30RoundRect,0.140000X-0.170000X0.140000X-0.170000X-0.140000X0.170000X-0.140000X0.170000X0.140000X0*%
%TD*%
%TA.AperFunction,SMDPad,CuDef*%
%ADD31RoundRect,0.140000X0.170000X-0.140000X0.170000X0.140000X-0.170000X0.140000X-0.170000X-0.140000X0*%
%TD*%
%TA.AperFunction,SMDPad,CuDef*%
%ADD32RoundRect,0.218750X-0.218750X-0.381250X0.218750X-0.381250X0.218750X0.381250X-0.218750X0.381250X0*%
%TD*%
%TA.AperFunction,SMDPad,CuDef*%
%ADD33RoundRect,0.140000X-0.140000X-0.170000X0.140000X-0.170000X0.140000X0.170000X-0.140000X0.170000X0*%
%TD*%
%TA.AperFunction,SMDPad,CuDef*%
%ADD34RoundRect,0.135000X-0.135000X-0.185000X0.135000X-0.185000X0.135000X0.185000X-0.135000X0.185000X0*%
%TD*%
%TA.AperFunction,SMDPad,CuDef*%
%ADD35RoundRect,0.072500X0.732500X0.217500X-0.732500X0.217500X-0.732500X-0.217500X0.732500X-0.217500X0*%
%TD*%
%TA.AperFunction,ComponentPad*%
%ADD36O,2.200000X4.400000*%
%TD*%
%TA.AperFunction,ComponentPad*%
%ADD37O,2.000000X4.000000*%
%TD*%
%TA.AperFunction,ComponentPad*%
%ADD38O,4.000000X2.000000*%
%TD*%
%TA.AperFunction,SMDPad,CuDef*%
%ADD39RoundRect,0.135000X0.135000X0.185000X-0.135000X0.185000X-0.135000X-0.185000X0.135000X-0.185000X0*%
%TD*%
%TA.AperFunction,SMDPad,CuDef*%
%ADD40RoundRect,0.250000X-0.262500X-0.450000X0.262500X-0.450000X0.262500X0.450000X-0.262500X0.450000X0*%
%TD*%
%TA.AperFunction,SMDPad,CuDef*%
%ADD41R,2.440000X1.130000*%
%TD*%
%TA.AperFunction,SMDPad,CuDef*%
%ADD42R,2.000000X2.000000*%
%TD*%
%TA.AperFunction,SMDPad,CuDef*%
%ADD43R,1.400000X1.100000*%
%TD*%
%TA.AperFunction,SMDPad,CuDef*%
%ADD44R,0.700000X0.400000*%
%TD*%
%TA.AperFunction,ComponentPad*%
%ADD45R,2.775000X2.775000*%
%TD*%
%TA.AperFunction,ComponentPad*%
%ADD46C,2.775000*%
%TD*%
%TA.AperFunction,SMDPad,CuDef*%
%ADD47RoundRect,0.140000X0.219203X0.021213X0.021213X0.219203X-0.219203X-0.021213X-0.021213X-0.219203X0*%
%TD*%
%TA.AperFunction,SMDPad,CuDef*%
%ADD48R,1.100000X1.450000*%
%TD*%
%TA.AperFunction,SMDPad,CuDef*%
%ADD49RoundRect,0.147500X0.172500X-0.147500X0.172500X0.147500X-0.172500X0.147500X-0.172500X-0.147500X0*%
%TD*%
%TA.AperFunction,SMDPad,CuDef*%
%ADD50R,2.400000X0.760000*%
%TD*%
%TA.AperFunction,SMDPad,CuDef*%
%ADD51R,1.350000X0.400000*%
%TD*%
%TA.AperFunction,SMDPad,CuDef*%
%ADD52R,1.400000X1.600000*%
%TD*%
%TA.AperFunction,SMDPad,CuDef*%
%ADD53R,1.300000X1.450000*%
%TD*%
%TA.AperFunction,SMDPad,CuDef*%
%ADD54R,1.900000X1.900000*%
%TD*%
%TA.AperFunction,SMDPad,CuDef*%
%ADD55R,0.800000X0.800000*%
%TD*%
%TA.AperFunction,ComponentPad*%
%ADD56R,1.650000X1.650000*%
%TD*%
%TA.AperFunction,ComponentPad*%
%ADD57C,1.650000*%
%TD*%
%TA.AperFunction,SMDPad,CuDef*%
%ADD58R,0.600000X1.400000*%
%TD*%
%TA.AperFunction,SMDPad,CuDef*%
%ADD59RoundRect,0.135000X0.185000X-0.135000X0.185000X0.135000X-0.185000X0.135000X-0.185000X-0.135000X0*%
%TD*%
%TA.AperFunction,ViaPad*%
%ADD60C,0.600000*%
%TD*%
%TA.AperFunction,Conductor*%
%ADD61C,0.200000*%
%TD*%
%TA.AperFunction,Conductor*%
%ADD62C,0.400000*%
%TD*%
%TA.AperFunction,Conductor*%
%ADD63C,0.300000*%
%TD*%
%TA.AperFunction,Conductor*%
%ADD64C,0.500000*%
%TD*%
G04 APERTURE END LIST*
D10*
%TO.P,U15,1,OUT2B*%
%TO.N,/OUT2B12*%
X104610000Y-63490000D03*
%TO.P,U15,2,~{ENABLE}*%
%TO.N,Net-(U15-~{ENABLE})*%
X104610000Y-63990000D03*
%TO.P,U15,3,GND*%
%TO.N,GND*%
X104610000Y-64490000D03*
%TO.P,U15,4,CP1*%
%TO.N,Net-(U15-CP1)*%
X104610000Y-64990000D03*
%TO.P,U15,5,CP2*%
%TO.N,Net-(U15-CP2)*%
X104610000Y-65490000D03*
%TO.P,U15,6,VCP*%
%TO.N,Net-(U15-VCP)*%
X104610000Y-65990000D03*
%TO.P,U15,7,NC*%
%TO.N,unconnected-(U15-NC-Pad7)*%
X104610000Y-66490000D03*
D11*
%TO.P,U15,8,VREG*%
%TO.N,Net-(U15-VREG)*%
X105700000Y-67580000D03*
%TO.P,U15,9,MS1*%
%TO.N,Net-(U15-MS1)*%
X106200000Y-67580000D03*
%TO.P,U15,10,MS2*%
X106700000Y-67580000D03*
%TO.P,U15,11,MS3*%
X107200000Y-67580000D03*
%TO.P,U15,12,~{RESET}*%
%TO.N,/RESET_N*%
X107700000Y-67580000D03*
%TO.P,U15,13,ROSC*%
%TO.N,Net-(U15-ROSC)*%
X108200000Y-67580000D03*
%TO.P,U15,14,~{SLEEP}*%
%TO.N,Net-(U15-~{SLEEP})*%
X108700000Y-67580000D03*
D10*
%TO.P,U15,15,VDD*%
%TO.N,+3V3*%
X109790000Y-66490000D03*
%TO.P,U15,16,STEP*%
%TO.N,/STEP12*%
X109790000Y-65990000D03*
%TO.P,U15,17,REF*%
%TO.N,Net-(U15-REF)*%
X109790000Y-65490000D03*
%TO.P,U15,18,GND@1*%
%TO.N,GND*%
X109790000Y-64990000D03*
%TO.P,U15,19,DIR*%
%TO.N,/DIR12*%
X109790000Y-64490000D03*
%TO.P,U15,20,NC@1*%
%TO.N,unconnected-(U15-NC@1-Pad20)*%
X109790000Y-63990000D03*
%TO.P,U15,21,OUT1B*%
%TO.N,/OUT1B12*%
X109790000Y-63490000D03*
D11*
%TO.P,U15,22,VBB1*%
%TO.N,+12V*%
X108700000Y-62400000D03*
%TO.P,U15,23,SENSE1*%
%TO.N,Net-(U15-SENSE1)*%
X108200000Y-62400000D03*
%TO.P,U15,24,OUT1A*%
%TO.N,/OUT1A12*%
X107700000Y-62400000D03*
%TO.P,U15,25,NC@2*%
%TO.N,unconnected-(U15-NC@2-Pad25)*%
X107200000Y-62400000D03*
%TO.P,U15,26,OUT2A*%
%TO.N,/OUT2A12*%
X106700000Y-62400000D03*
%TO.P,U15,27,SENSE2*%
%TO.N,Net-(U15-SENSE2)*%
X106200000Y-62400000D03*
%TO.P,U15,28,VBB2*%
%TO.N,+12V*%
X105700000Y-62400000D03*
D12*
%TO.P,U15,29,PAD*%
%TO.N,GND*%
X107200000Y-64990000D03*
%TD*%
D10*
%TO.P,U9,1,OUT2B*%
%TO.N,/OUT2B6*%
X233340000Y-117651000D03*
%TO.P,U9,2,~{ENABLE}*%
%TO.N,Net-(U9-~{ENABLE})*%
X233340000Y-117151000D03*
%TO.P,U9,3,GND*%
%TO.N,GND*%
X233340000Y-116651000D03*
%TO.P,U9,4,CP1*%
%TO.N,Net-(U9-CP1)*%
X233340000Y-116151000D03*
%TO.P,U9,5,CP2*%
%TO.N,Net-(U9-CP2)*%
X233340000Y-115651000D03*
%TO.P,U9,6,VCP*%
%TO.N,Net-(U9-VCP)*%
X233340000Y-115151000D03*
%TO.P,U9,7,NC*%
%TO.N,unconnected-(U9-NC-Pad7)*%
X233340000Y-114651000D03*
D11*
%TO.P,U9,8,VREG*%
%TO.N,Net-(U9-VREG)*%
X232250000Y-113561000D03*
%TO.P,U9,9,MS1*%
%TO.N,Net-(U9-MS1)*%
X231750000Y-113561000D03*
%TO.P,U9,10,MS2*%
X231250000Y-113561000D03*
%TO.P,U9,11,MS3*%
X230750000Y-113561000D03*
%TO.P,U9,12,~{RESET}*%
%TO.N,/RESET_N*%
X230250000Y-113561000D03*
%TO.P,U9,13,ROSC*%
%TO.N,Net-(U9-ROSC)*%
X229750000Y-113561000D03*
%TO.P,U9,14,~{SLEEP}*%
%TO.N,Net-(U9-~{SLEEP})*%
X229250000Y-113561000D03*
D10*
%TO.P,U9,15,VDD*%
%TO.N,+3V3*%
X228160000Y-114651000D03*
%TO.P,U9,16,STEP*%
%TO.N,/STEP6*%
X228160000Y-115151000D03*
%TO.P,U9,17,REF*%
%TO.N,Net-(U9-REF)*%
X228160000Y-115651000D03*
%TO.P,U9,18,GND@1*%
%TO.N,GND*%
X228160000Y-116151000D03*
%TO.P,U9,19,DIR*%
%TO.N,/DIR6*%
X228160000Y-116651000D03*
%TO.P,U9,20,NC@1*%
%TO.N,unconnected-(U9-NC@1-Pad20)*%
X228160000Y-117151000D03*
%TO.P,U9,21,OUT1B*%
%TO.N,/OUT1B6*%
X228160000Y-117651000D03*
D11*
%TO.P,U9,22,VBB1*%
%TO.N,+12V*%
X229250000Y-118741000D03*
%TO.P,U9,23,SENSE1*%
%TO.N,Net-(U9-SENSE1)*%
X229750000Y-118741000D03*
%TO.P,U9,24,OUT1A*%
%TO.N,/OUT1A6*%
X230250000Y-118741000D03*
%TO.P,U9,25,NC@2*%
%TO.N,unconnected-(U9-NC@2-Pad25)*%
X230750000Y-118741000D03*
%TO.P,U9,26,OUT2A*%
%TO.N,/OUT2A6*%
X231250000Y-118741000D03*
%TO.P,U9,27,SENSE2*%
%TO.N,Net-(U9-SENSE2)*%
X231750000Y-118741000D03*
%TO.P,U9,28,VBB2*%
%TO.N,+12V*%
X232250000Y-118741000D03*
D12*
%TO.P,U9,29,PAD*%
%TO.N,GND*%
X230750000Y-116151000D03*
%TD*%
D10*
%TO.P,U8,1,OUT2B*%
%TO.N,/OUT2B5*%
X210045000Y-117500000D03*
%TO.P,U8,2,~{ENABLE}*%
%TO.N,Net-(U8-~{ENABLE})*%
X210045000Y-117000000D03*
%TO.P,U8,3,GND*%
%TO.N,GND*%
X210045000Y-116500000D03*
%TO.P,U8,4,CP1*%
%TO.N,Net-(U8-CP1)*%
X210045000Y-116000000D03*
%TO.P,U8,5,CP2*%
%TO.N,Net-(U8-CP2)*%
X210045000Y-115500000D03*
%TO.P,U8,6,VCP*%
%TO.N,Net-(U8-VCP)*%
X210045000Y-115000000D03*
%TO.P,U8,7,NC*%
%TO.N,unconnected-(U8-NC-Pad7)*%
X210045000Y-114500000D03*
D11*
%TO.P,U8,8,VREG*%
%TO.N,Net-(U8-VREG)*%
X208955000Y-113410000D03*
%TO.P,U8,9,MS1*%
%TO.N,Net-(U8-MS1)*%
X208455000Y-113410000D03*
%TO.P,U8,10,MS2*%
X207955000Y-113410000D03*
%TO.P,U8,11,MS3*%
X207455000Y-113410000D03*
%TO.P,U8,12,~{RESET}*%
%TO.N,/RESET_N*%
X206955000Y-113410000D03*
%TO.P,U8,13,ROSC*%
%TO.N,Net-(U8-ROSC)*%
X206455000Y-113410000D03*
%TO.P,U8,14,~{SLEEP}*%
%TO.N,Net-(U8-~{SLEEP})*%
X205955000Y-113410000D03*
D10*
%TO.P,U8,15,VDD*%
%TO.N,+3V3*%
X204865000Y-114500000D03*
%TO.P,U8,16,STEP*%
%TO.N,/STEP5*%
X204865000Y-115000000D03*
%TO.P,U8,17,REF*%
%TO.N,Net-(U8-REF)*%
X204865000Y-115500000D03*
%TO.P,U8,18,GND@1*%
%TO.N,GND*%
X204865000Y-116000000D03*
%TO.P,U8,19,DIR*%
%TO.N,/DIR5*%
X204865000Y-116500000D03*
%TO.P,U8,20,NC@1*%
%TO.N,unconnected-(U8-NC@1-Pad20)*%
X204865000Y-117000000D03*
%TO.P,U8,21,OUT1B*%
%TO.N,/OUT1B5*%
X204865000Y-117500000D03*
D11*
%TO.P,U8,22,VBB1*%
%TO.N,+12V*%
X205955000Y-118590000D03*
%TO.P,U8,23,SENSE1*%
%TO.N,Net-(U8-SENSE1)*%
X206455000Y-118590000D03*
%TO.P,U8,24,OUT1A*%
%TO.N,/OUT1A5*%
X206955000Y-118590000D03*
%TO.P,U8,25,NC@2*%
%TO.N,unconnected-(U8-NC@2-Pad25)*%
X207455000Y-118590000D03*
%TO.P,U8,26,OUT2A*%
%TO.N,/OUT2A5*%
X207955000Y-118590000D03*
%TO.P,U8,27,SENSE2*%
%TO.N,Net-(U8-SENSE2)*%
X208455000Y-118590000D03*
%TO.P,U8,28,VBB2*%
%TO.N,+12V*%
X208955000Y-118590000D03*
D12*
%TO.P,U8,29,PAD*%
%TO.N,GND*%
X207455000Y-116000000D03*
%TD*%
D10*
%TO.P,U5,1,OUT2B*%
%TO.N,/OUT2B2*%
X141385000Y-117250000D03*
%TO.P,U5,2,~{ENABLE}*%
%TO.N,Net-(U5-~{ENABLE})*%
X141385000Y-116750000D03*
%TO.P,U5,3,GND*%
%TO.N,GND*%
X141385000Y-116250000D03*
%TO.P,U5,4,CP1*%
%TO.N,Net-(U5-CP1)*%
X141385000Y-115750000D03*
%TO.P,U5,5,CP2*%
%TO.N,Net-(U5-CP2)*%
X141385000Y-115250000D03*
%TO.P,U5,6,VCP*%
%TO.N,Net-(U5-VCP)*%
X141385000Y-114750000D03*
%TO.P,U5,7,NC*%
%TO.N,unconnected-(U5-NC-Pad7)*%
X141385000Y-114250000D03*
D11*
%TO.P,U5,8,VREG*%
%TO.N,Net-(U5-VREG)*%
X140295000Y-113160000D03*
%TO.P,U5,9,MS1*%
%TO.N,Net-(U5-MS1)*%
X139795000Y-113160000D03*
%TO.P,U5,10,MS2*%
X139295000Y-113160000D03*
%TO.P,U5,11,MS3*%
X138795000Y-113160000D03*
%TO.P,U5,12,~{RESET}*%
%TO.N,/RESET_N*%
X138295000Y-113160000D03*
%TO.P,U5,13,ROSC*%
%TO.N,Net-(U5-ROSC)*%
X137795000Y-113160000D03*
%TO.P,U5,14,~{SLEEP}*%
%TO.N,Net-(U5-~{SLEEP})*%
X137295000Y-113160000D03*
D10*
%TO.P,U5,15,VDD*%
%TO.N,+3V3*%
X136205000Y-114250000D03*
%TO.P,U5,16,STEP*%
%TO.N,/STEP2*%
X136205000Y-114750000D03*
%TO.P,U5,17,REF*%
%TO.N,Net-(U5-REF)*%
X136205000Y-115250000D03*
%TO.P,U5,18,GND@1*%
%TO.N,GND*%
X136205000Y-115750000D03*
%TO.P,U5,19,DIR*%
%TO.N,/DIR2*%
X136205000Y-116250000D03*
%TO.P,U5,20,NC@1*%
%TO.N,unconnected-(U5-NC@1-Pad20)*%
X136205000Y-116750000D03*
%TO.P,U5,21,OUT1B*%
%TO.N,/OUT1B2*%
X136205000Y-117250000D03*
D11*
%TO.P,U5,22,VBB1*%
%TO.N,+12V*%
X137295000Y-118340000D03*
%TO.P,U5,23,SENSE1*%
%TO.N,Net-(U5-SENSE1)*%
X137795000Y-118340000D03*
%TO.P,U5,24,OUT1A*%
%TO.N,/OUT1A2*%
X138295000Y-118340000D03*
%TO.P,U5,25,NC@2*%
%TO.N,unconnected-(U5-NC@2-Pad25)*%
X138795000Y-118340000D03*
%TO.P,U5,26,OUT2A*%
%TO.N,/OUT2A2*%
X139295000Y-118340000D03*
%TO.P,U5,27,SENSE2*%
%TO.N,Net-(U5-SENSE2)*%
X139795000Y-118340000D03*
%TO.P,U5,28,VBB2*%
%TO.N,+12V*%
X140295000Y-118340000D03*
D12*
%TO.P,U5,29,PAD*%
%TO.N,GND*%
X138795000Y-115750000D03*
%TD*%
D10*
%TO.P,U7,1,OUT2B*%
%TO.N,/OUT2B4*%
X188090000Y-116750000D03*
%TO.P,U7,2,~{ENABLE}*%
%TO.N,Net-(U7-~{ENABLE})*%
X188090000Y-116250000D03*
%TO.P,U7,3,GND*%
%TO.N,GND*%
X188090000Y-115750000D03*
%TO.P,U7,4,CP1*%
%TO.N,Net-(U7-CP1)*%
X188090000Y-115250000D03*
%TO.P,U7,5,CP2*%
%TO.N,Net-(U7-CP2)*%
X188090000Y-114750000D03*
%TO.P,U7,6,VCP*%
%TO.N,Net-(U7-VCP)*%
X188090000Y-114250000D03*
%TO.P,U7,7,NC*%
%TO.N,unconnected-(U7-NC-Pad7)*%
X188090000Y-113750000D03*
D11*
%TO.P,U7,8,VREG*%
%TO.N,Net-(U7-VREG)*%
X187000000Y-112660000D03*
%TO.P,U7,9,MS1*%
%TO.N,Net-(U7-MS1)*%
X186500000Y-112660000D03*
%TO.P,U7,10,MS2*%
X186000000Y-112660000D03*
%TO.P,U7,11,MS3*%
X185500000Y-112660000D03*
%TO.P,U7,12,~{RESET}*%
%TO.N,/RESET_N*%
X185000000Y-112660000D03*
%TO.P,U7,13,ROSC*%
%TO.N,Net-(U7-ROSC)*%
X184500000Y-112660000D03*
%TO.P,U7,14,~{SLEEP}*%
%TO.N,Net-(U7-~{SLEEP})*%
X184000000Y-112660000D03*
D10*
%TO.P,U7,15,VDD*%
%TO.N,+3V3*%
X182910000Y-113750000D03*
%TO.P,U7,16,STEP*%
%TO.N,/STEP4*%
X182910000Y-114250000D03*
%TO.P,U7,17,REF*%
%TO.N,Net-(U7-REF)*%
X182910000Y-114750000D03*
%TO.P,U7,18,GND@1*%
%TO.N,GND*%
X182910000Y-115250000D03*
%TO.P,U7,19,DIR*%
%TO.N,/DIR4*%
X182910000Y-115750000D03*
%TO.P,U7,20,NC@1*%
%TO.N,unconnected-(U7-NC@1-Pad20)*%
X182910000Y-116250000D03*
%TO.P,U7,21,OUT1B*%
%TO.N,/OUT1B4*%
X182910000Y-116750000D03*
D11*
%TO.P,U7,22,VBB1*%
%TO.N,+12V*%
X184000000Y-117840000D03*
%TO.P,U7,23,SENSE1*%
%TO.N,Net-(U7-SENSE1)*%
X184500000Y-117840000D03*
%TO.P,U7,24,OUT1A*%
%TO.N,/OUT1A4*%
X185000000Y-117840000D03*
%TO.P,U7,25,NC@2*%
%TO.N,unconnected-(U7-NC@2-Pad25)*%
X185500000Y-117840000D03*
%TO.P,U7,26,OUT2A*%
%TO.N,/OUT2A4*%
X186000000Y-117840000D03*
%TO.P,U7,27,SENSE2*%
%TO.N,Net-(U7-SENSE2)*%
X186500000Y-117840000D03*
%TO.P,U7,28,VBB2*%
%TO.N,+12V*%
X187000000Y-117840000D03*
D12*
%TO.P,U7,29,PAD*%
%TO.N,GND*%
X185500000Y-115250000D03*
%TD*%
D10*
%TO.P,U4,1,OUT2B*%
%TO.N,/OUT2B1*%
X117840000Y-117750000D03*
%TO.P,U4,2,~{ENABLE}*%
%TO.N,Net-(U4-~{ENABLE})*%
X117840000Y-117250000D03*
%TO.P,U4,3,GND*%
%TO.N,GND*%
X117840000Y-116750000D03*
%TO.P,U4,4,CP1*%
%TO.N,Net-(U4-CP1)*%
X117840000Y-116250000D03*
%TO.P,U4,5,CP2*%
%TO.N,Net-(U4-CP2)*%
X117840000Y-115750000D03*
%TO.P,U4,6,VCP*%
%TO.N,Net-(U4-VCP)*%
X117840000Y-115250000D03*
%TO.P,U4,7,NC*%
%TO.N,unconnected-(U4-NC-Pad7)*%
X117840000Y-114750000D03*
D11*
%TO.P,U4,8,VREG*%
%TO.N,Net-(U4-VREG)*%
X116750000Y-113660000D03*
%TO.P,U4,9,MS1*%
%TO.N,Net-(U4-MS1)*%
X116250000Y-113660000D03*
%TO.P,U4,10,MS2*%
X115750000Y-113660000D03*
%TO.P,U4,11,MS3*%
X115250000Y-113660000D03*
%TO.P,U4,12,~{RESET}*%
%TO.N,/RESET_N*%
X114750000Y-113660000D03*
%TO.P,U4,13,ROSC*%
%TO.N,Net-(U4-ROSC)*%
X114250000Y-113660000D03*
%TO.P,U4,14,~{SLEEP}*%
%TO.N,Net-(U4-~{SLEEP})*%
X113750000Y-113660000D03*
D10*
%TO.P,U4,15,VDD*%
%TO.N,+3V3*%
X112660000Y-114750000D03*
%TO.P,U4,16,STEP*%
%TO.N,/STEP1*%
X112660000Y-115250000D03*
%TO.P,U4,17,REF*%
%TO.N,Net-(U4-REF)*%
X112660000Y-115750000D03*
%TO.P,U4,18,GND@1*%
%TO.N,GND*%
X112660000Y-116250000D03*
%TO.P,U4,19,DIR*%
%TO.N,/DIR1*%
X112660000Y-116750000D03*
%TO.P,U4,20,NC@1*%
%TO.N,unconnected-(U4-NC@1-Pad20)*%
X112660000Y-117250000D03*
%TO.P,U4,21,OUT1B*%
%TO.N,/OUT1B1*%
X112660000Y-117750000D03*
D11*
%TO.P,U4,22,VBB1*%
%TO.N,+12V*%
X113750000Y-118840000D03*
%TO.P,U4,23,SENSE1*%
%TO.N,Net-(U4-SENSE1)*%
X114250000Y-118840000D03*
%TO.P,U4,24,OUT1A*%
%TO.N,/OUT1A1*%
X114750000Y-118840000D03*
%TO.P,U4,25,NC@2*%
%TO.N,unconnected-(U4-NC@2-Pad25)*%
X115250000Y-118840000D03*
%TO.P,U4,26,OUT2A*%
%TO.N,/OUT2A1*%
X115750000Y-118840000D03*
%TO.P,U4,27,SENSE2*%
%TO.N,Net-(U4-SENSE2)*%
X116250000Y-118840000D03*
%TO.P,U4,28,VBB2*%
%TO.N,+12V*%
X116750000Y-118840000D03*
D12*
%TO.P,U4,29,PAD*%
%TO.N,GND*%
X115250000Y-116250000D03*
%TD*%
D10*
%TO.P,U6,1,OUT2B*%
%TO.N,/OUT2B3*%
X165590000Y-117250000D03*
%TO.P,U6,2,~{ENABLE}*%
%TO.N,Net-(U6-~{ENABLE})*%
X165590000Y-116750000D03*
%TO.P,U6,3,GND*%
%TO.N,GND*%
X165590000Y-116250000D03*
%TO.P,U6,4,CP1*%
%TO.N,Net-(U6-CP1)*%
X165590000Y-115750000D03*
%TO.P,U6,5,CP2*%
%TO.N,Net-(U6-CP2)*%
X165590000Y-115250000D03*
%TO.P,U6,6,VCP*%
%TO.N,Net-(U6-VCP)*%
X165590000Y-114750000D03*
%TO.P,U6,7,NC*%
%TO.N,unconnected-(U6-NC-Pad7)*%
X165590000Y-114250000D03*
D11*
%TO.P,U6,8,VREG*%
%TO.N,Net-(U6-VREG)*%
X164500000Y-113160000D03*
%TO.P,U6,9,MS1*%
%TO.N,Net-(U6-MS1)*%
X164000000Y-113160000D03*
%TO.P,U6,10,MS2*%
X163500000Y-113160000D03*
%TO.P,U6,11,MS3*%
X163000000Y-113160000D03*
%TO.P,U6,12,~{RESET}*%
%TO.N,/RESET_N*%
X162500000Y-113160000D03*
%TO.P,U6,13,ROSC*%
%TO.N,Net-(U6-ROSC)*%
X162000000Y-113160000D03*
%TO.P,U6,14,~{SLEEP}*%
%TO.N,Net-(U6-~{SLEEP})*%
X161500000Y-113160000D03*
D10*
%TO.P,U6,15,VDD*%
%TO.N,+3V3*%
X160410000Y-114250000D03*
%TO.P,U6,16,STEP*%
%TO.N,/STEP3*%
X160410000Y-114750000D03*
%TO.P,U6,17,REF*%
%TO.N,Net-(U6-REF)*%
X160410000Y-115250000D03*
%TO.P,U6,18,GND@1*%
%TO.N,GND*%
X160410000Y-115750000D03*
%TO.P,U6,19,DIR*%
%TO.N,/DIR3*%
X160410000Y-116250000D03*
%TO.P,U6,20,NC@1*%
%TO.N,unconnected-(U6-NC@1-Pad20)*%
X160410000Y-116750000D03*
%TO.P,U6,21,OUT1B*%
%TO.N,/OUT1B3*%
X160410000Y-117250000D03*
D11*
%TO.P,U6,22,VBB1*%
%TO.N,+12V*%
X161500000Y-118340000D03*
%TO.P,U6,23,SENSE1*%
%TO.N,Net-(U6-SENSE1)*%
X162000000Y-118340000D03*
%TO.P,U6,24,OUT1A*%
%TO.N,/OUT1A3*%
X162500000Y-118340000D03*
%TO.P,U6,25,NC@2*%
%TO.N,unconnected-(U6-NC@2-Pad25)*%
X163000000Y-118340000D03*
%TO.P,U6,26,OUT2A*%
%TO.N,/OUT2A3*%
X163500000Y-118340000D03*
%TO.P,U6,27,SENSE2*%
%TO.N,Net-(U6-SENSE2)*%
X164000000Y-118340000D03*
%TO.P,U6,28,VBB2*%
%TO.N,+12V*%
X164500000Y-118340000D03*
D12*
%TO.P,U6,29,PAD*%
%TO.N,GND*%
X163000000Y-115750000D03*
%TD*%
D10*
%TO.P,U10,1,OUT2B*%
%TO.N,/OUT2B7*%
X224775000Y-63250000D03*
%TO.P,U10,2,~{ENABLE}*%
%TO.N,Net-(U10-~{ENABLE})*%
X224775000Y-63750000D03*
%TO.P,U10,3,GND*%
%TO.N,GND*%
X224775000Y-64250000D03*
%TO.P,U10,4,CP1*%
%TO.N,Net-(U10-CP1)*%
X224775000Y-64750000D03*
%TO.P,U10,5,CP2*%
%TO.N,Net-(U10-CP2)*%
X224775000Y-65250000D03*
%TO.P,U10,6,VCP*%
%TO.N,Net-(U10-VCP)*%
X224775000Y-65750000D03*
%TO.P,U10,7,NC*%
%TO.N,unconnected-(U10-NC-Pad7)*%
X224775000Y-66250000D03*
D11*
%TO.P,U10,8,VREG*%
%TO.N,Net-(U10-VREG)*%
X225865000Y-67340000D03*
%TO.P,U10,9,MS1*%
%TO.N,Net-(U10-MS1)*%
X226365000Y-67340000D03*
%TO.P,U10,10,MS2*%
X226865000Y-67340000D03*
%TO.P,U10,11,MS3*%
X227365000Y-67340000D03*
%TO.P,U10,12,~{RESET}*%
%TO.N,/RESET_N*%
X227865000Y-67340000D03*
%TO.P,U10,13,ROSC*%
%TO.N,Net-(U10-ROSC)*%
X228365000Y-67340000D03*
%TO.P,U10,14,~{SLEEP}*%
%TO.N,Net-(U10-~{SLEEP})*%
X228865000Y-67340000D03*
D10*
%TO.P,U10,15,VDD*%
%TO.N,+3V3*%
X229955000Y-66250000D03*
%TO.P,U10,16,STEP*%
%TO.N,/STEP7*%
X229955000Y-65750000D03*
%TO.P,U10,17,REF*%
%TO.N,Net-(U10-REF)*%
X229955000Y-65250000D03*
%TO.P,U10,18,GND@1*%
%TO.N,GND*%
X229955000Y-64750000D03*
%TO.P,U10,19,DIR*%
%TO.N,/DIR7*%
X229955000Y-64250000D03*
%TO.P,U10,20,NC@1*%
%TO.N,unconnected-(U10-NC@1-Pad20)*%
X229955000Y-63750000D03*
%TO.P,U10,21,OUT1B*%
%TO.N,/OUT1B7*%
X229955000Y-63250000D03*
D11*
%TO.P,U10,22,VBB1*%
%TO.N,+12V*%
X228865000Y-62160000D03*
%TO.P,U10,23,SENSE1*%
%TO.N,Net-(U10-SENSE1)*%
X228365000Y-62160000D03*
%TO.P,U10,24,OUT1A*%
%TO.N,/OUT1A7*%
X227865000Y-62160000D03*
%TO.P,U10,25,NC@2*%
%TO.N,unconnected-(U10-NC@2-Pad25)*%
X227365000Y-62160000D03*
%TO.P,U10,26,OUT2A*%
%TO.N,/OUT2A7*%
X226865000Y-62160000D03*
%TO.P,U10,27,SENSE2*%
%TO.N,Net-(U10-SENSE2)*%
X226365000Y-62160000D03*
%TO.P,U10,28,VBB2*%
%TO.N,+12V*%
X225865000Y-62160000D03*
D12*
%TO.P,U10,29,PAD*%
%TO.N,GND*%
X227365000Y-64750000D03*
%TD*%
D10*
%TO.P,U13,1,OUT2B*%
%TO.N,/OUT2B10*%
X154775000Y-63250000D03*
%TO.P,U13,2,~{ENABLE}*%
%TO.N,Net-(U13-~{ENABLE})*%
X154775000Y-63750000D03*
%TO.P,U13,3,GND*%
%TO.N,GND*%
X154775000Y-64250000D03*
%TO.P,U13,4,CP1*%
%TO.N,Net-(U13-CP1)*%
X154775000Y-64750000D03*
%TO.P,U13,5,CP2*%
%TO.N,Net-(U13-CP2)*%
X154775000Y-65250000D03*
%TO.P,U13,6,VCP*%
%TO.N,Net-(U13-VCP)*%
X154775000Y-65750000D03*
%TO.P,U13,7,NC*%
%TO.N,unconnected-(U13-NC-Pad7)*%
X154775000Y-66250000D03*
D11*
%TO.P,U13,8,VREG*%
%TO.N,Net-(U13-VREG)*%
X155865000Y-67340000D03*
%TO.P,U13,9,MS1*%
%TO.N,Net-(U13-MS1)*%
X156365000Y-67340000D03*
%TO.P,U13,10,MS2*%
X156865000Y-67340000D03*
%TO.P,U13,11,MS3*%
X157365000Y-67340000D03*
%TO.P,U13,12,~{RESET}*%
%TO.N,/RESET_N*%
X157865000Y-67340000D03*
%TO.P,U13,13,ROSC*%
%TO.N,Net-(U13-ROSC)*%
X158365000Y-67340000D03*
%TO.P,U13,14,~{SLEEP}*%
%TO.N,Net-(U13-~{SLEEP})*%
X158865000Y-67340000D03*
D10*
%TO.P,U13,15,VDD*%
%TO.N,+3V3*%
X159955000Y-66250000D03*
%TO.P,U13,16,STEP*%
%TO.N,/STEP10*%
X159955000Y-65750000D03*
%TO.P,U13,17,REF*%
%TO.N,Net-(U13-REF)*%
X159955000Y-65250000D03*
%TO.P,U13,18,GND@1*%
%TO.N,GND*%
X159955000Y-64750000D03*
%TO.P,U13,19,DIR*%
%TO.N,/DIR10*%
X159955000Y-64250000D03*
%TO.P,U13,20,NC@1*%
%TO.N,unconnected-(U13-NC@1-Pad20)*%
X159955000Y-63750000D03*
%TO.P,U13,21,OUT1B*%
%TO.N,/OUT1B10*%
X159955000Y-63250000D03*
D11*
%TO.P,U13,22,VBB1*%
%TO.N,+12V*%
X158865000Y-62160000D03*
%TO.P,U13,23,SENSE1*%
%TO.N,Net-(U13-SENSE1)*%
X158365000Y-62160000D03*
%TO.P,U13,24,OUT1A*%
%TO.N,/OUT1A10*%
X157865000Y-62160000D03*
%TO.P,U13,25,NC@2*%
%TO.N,unconnected-(U13-NC@2-Pad25)*%
X157365000Y-62160000D03*
%TO.P,U13,26,OUT2A*%
%TO.N,/OUT2A10*%
X156865000Y-62160000D03*
%TO.P,U13,27,SENSE2*%
%TO.N,Net-(U13-SENSE2)*%
X156365000Y-62160000D03*
%TO.P,U13,28,VBB2*%
%TO.N,+12V*%
X155865000Y-62160000D03*
D12*
%TO.P,U13,29,PAD*%
%TO.N,GND*%
X157365000Y-64750000D03*
%TD*%
D10*
%TO.P,U12,1,OUT2B*%
%TO.N,/OUT2B9*%
X177570000Y-63250000D03*
%TO.P,U12,2,~{ENABLE}*%
%TO.N,Net-(U12-~{ENABLE})*%
X177570000Y-63750000D03*
%TO.P,U12,3,GND*%
%TO.N,GND*%
X177570000Y-64250000D03*
%TO.P,U12,4,CP1*%
%TO.N,Net-(U12-CP1)*%
X177570000Y-64750000D03*
%TO.P,U12,5,CP2*%
%TO.N,Net-(U12-CP2)*%
X177570000Y-65250000D03*
%TO.P,U12,6,VCP*%
%TO.N,Net-(U12-VCP)*%
X177570000Y-65750000D03*
%TO.P,U12,7,NC*%
%TO.N,unconnected-(U12-NC-Pad7)*%
X177570000Y-66250000D03*
D11*
%TO.P,U12,8,VREG*%
%TO.N,Net-(U12-VREG)*%
X178660000Y-67340000D03*
%TO.P,U12,9,MS1*%
%TO.N,Net-(U12-MS1)*%
X179160000Y-67340000D03*
%TO.P,U12,10,MS2*%
X179660000Y-67340000D03*
%TO.P,U12,11,MS3*%
X180160000Y-67340000D03*
%TO.P,U12,12,~{RESET}*%
%TO.N,/RESET_N*%
X180660000Y-67340000D03*
%TO.P,U12,13,ROSC*%
%TO.N,Net-(U12-ROSC)*%
X181160000Y-67340000D03*
%TO.P,U12,14,~{SLEEP}*%
%TO.N,Net-(U12-~{SLEEP})*%
X181660000Y-67340000D03*
D10*
%TO.P,U12,15,VDD*%
%TO.N,+3V3*%
X182750000Y-66250000D03*
%TO.P,U12,16,STEP*%
%TO.N,/STEP9*%
X182750000Y-65750000D03*
%TO.P,U12,17,REF*%
%TO.N,Net-(U12-REF)*%
X182750000Y-65250000D03*
%TO.P,U12,18,GND@1*%
%TO.N,GND*%
X182750000Y-64750000D03*
%TO.P,U12,19,DIR*%
%TO.N,/DIR9*%
X182750000Y-64250000D03*
%TO.P,U12,20,NC@1*%
%TO.N,unconnected-(U12-NC@1-Pad20)*%
X182750000Y-63750000D03*
%TO.P,U12,21,OUT1B*%
%TO.N,/OUT1B9*%
X182750000Y-63250000D03*
D11*
%TO.P,U12,22,VBB1*%
%TO.N,+12V*%
X181660000Y-62160000D03*
%TO.P,U12,23,SENSE1*%
%TO.N,Net-(U12-SENSE1)*%
X181160000Y-62160000D03*
%TO.P,U12,24,OUT1A*%
%TO.N,/OUT1A9*%
X180660000Y-62160000D03*
%TO.P,U12,25,NC@2*%
%TO.N,unconnected-(U12-NC@2-Pad25)*%
X180160000Y-62160000D03*
%TO.P,U12,26,OUT2A*%
%TO.N,/OUT2A9*%
X179660000Y-62160000D03*
%TO.P,U12,27,SENSE2*%
%TO.N,Net-(U12-SENSE2)*%
X179160000Y-62160000D03*
%TO.P,U12,28,VBB2*%
%TO.N,+12V*%
X178660000Y-62160000D03*
D12*
%TO.P,U12,29,PAD*%
%TO.N,GND*%
X180160000Y-64750000D03*
%TD*%
D10*
%TO.P,U11,1,OUT2B*%
%TO.N,/OUT2B8*%
X200525000Y-63225000D03*
%TO.P,U11,2,~{ENABLE}*%
%TO.N,Net-(U11-~{ENABLE})*%
X200525000Y-63725000D03*
%TO.P,U11,3,GND*%
%TO.N,GND*%
X200525000Y-64225000D03*
%TO.P,U11,4,CP1*%
%TO.N,Net-(U11-CP1)*%
X200525000Y-64725000D03*
%TO.P,U11,5,CP2*%
%TO.N,Net-(U11-CP2)*%
X200525000Y-65225000D03*
%TO.P,U11,6,VCP*%
%TO.N,Net-(U11-VCP)*%
X200525000Y-65725000D03*
%TO.P,U11,7,NC*%
%TO.N,unconnected-(U11-NC-Pad7)*%
X200525000Y-66225000D03*
D11*
%TO.P,U11,8,VREG*%
%TO.N,Net-(U11-VREG)*%
X201615000Y-67315000D03*
%TO.P,U11,9,MS1*%
%TO.N,Net-(U11-MS1)*%
X202115000Y-67315000D03*
%TO.P,U11,10,MS2*%
X202615000Y-67315000D03*
%TO.P,U11,11,MS3*%
X203115000Y-67315000D03*
%TO.P,U11,12,~{RESET}*%
%TO.N,/RESET_N*%
X203615000Y-67315000D03*
%TO.P,U11,13,ROSC*%
%TO.N,Net-(U11-ROSC)*%
X204115000Y-67315000D03*
%TO.P,U11,14,~{SLEEP}*%
%TO.N,Net-(U11-~{SLEEP})*%
X204615000Y-67315000D03*
D10*
%TO.P,U11,15,VDD*%
%TO.N,+3V3*%
X205705000Y-66225000D03*
%TO.P,U11,16,STEP*%
%TO.N,/STEP8*%
X205705000Y-65725000D03*
%TO.P,U11,17,REF*%
%TO.N,Net-(U11-REF)*%
X205705000Y-65225000D03*
%TO.P,U11,18,GND@1*%
%TO.N,GND*%
X205705000Y-64725000D03*
%TO.P,U11,19,DIR*%
%TO.N,/DIR8*%
X205705000Y-64225000D03*
%TO.P,U11,20,NC@1*%
%TO.N,unconnected-(U11-NC@1-Pad20)*%
X205705000Y-63725000D03*
%TO.P,U11,21,OUT1B*%
%TO.N,/OUT1B8*%
X205705000Y-63225000D03*
D11*
%TO.P,U11,22,VBB1*%
%TO.N,+12V*%
X204615000Y-62135000D03*
%TO.P,U11,23,SENSE1*%
%TO.N,Net-(U11-SENSE1)*%
X204115000Y-62135000D03*
%TO.P,U11,24,OUT1A*%
%TO.N,/OUT1A8*%
X203615000Y-62135000D03*
%TO.P,U11,25,NC@2*%
%TO.N,unconnected-(U11-NC@2-Pad25)*%
X203115000Y-62135000D03*
%TO.P,U11,26,OUT2A*%
%TO.N,/OUT2A8*%
X202615000Y-62135000D03*
%TO.P,U11,27,SENSE2*%
%TO.N,Net-(U11-SENSE2)*%
X202115000Y-62135000D03*
%TO.P,U11,28,VBB2*%
%TO.N,+12V*%
X201615000Y-62135000D03*
D12*
%TO.P,U11,29,PAD*%
%TO.N,GND*%
X203115000Y-64725000D03*
%TD*%
D10*
%TO.P,U14,1,OUT2B*%
%TO.N,/OUT2B11*%
X131480000Y-63250000D03*
%TO.P,U14,2,~{ENABLE}*%
%TO.N,Net-(U14-~{ENABLE})*%
X131480000Y-63750000D03*
%TO.P,U14,3,GND*%
%TO.N,GND*%
X131480000Y-64250000D03*
%TO.P,U14,4,CP1*%
%TO.N,Net-(U14-CP1)*%
X131480000Y-64750000D03*
%TO.P,U14,5,CP2*%
%TO.N,Net-(U14-CP2)*%
X131480000Y-65250000D03*
%TO.P,U14,6,VCP*%
%TO.N,Net-(U14-VCP)*%
X131480000Y-65750000D03*
%TO.P,U14,7,NC*%
%TO.N,unconnected-(U14-NC-Pad7)*%
X131480000Y-66250000D03*
D11*
%TO.P,U14,8,VREG*%
%TO.N,Net-(U14-VREG)*%
X132570000Y-67340000D03*
%TO.P,U14,9,MS1*%
%TO.N,Net-(U14-MS1)*%
X133070000Y-67340000D03*
%TO.P,U14,10,MS2*%
X133570000Y-67340000D03*
%TO.P,U14,11,MS3*%
X134070000Y-67340000D03*
%TO.P,U14,12,~{RESET}*%
%TO.N,/RESET_N*%
X134570000Y-67340000D03*
%TO.P,U14,13,ROSC*%
%TO.N,Net-(U14-ROSC)*%
X135070000Y-67340000D03*
%TO.P,U14,14,~{SLEEP}*%
%TO.N,Net-(U14-~{SLEEP})*%
X135570000Y-67340000D03*
D10*
%TO.P,U14,15,VDD*%
%TO.N,+3V3*%
X136660000Y-66250000D03*
%TO.P,U14,16,STEP*%
%TO.N,/STEP11*%
X136660000Y-65750000D03*
%TO.P,U14,17,REF*%
%TO.N,Net-(U14-REF)*%
X136660000Y-65250000D03*
%TO.P,U14,18,GND@1*%
%TO.N,GND*%
X136660000Y-64750000D03*
%TO.P,U14,19,DIR*%
%TO.N,/DIR11*%
X136660000Y-64250000D03*
%TO.P,U14,20,NC@1*%
%TO.N,unconnected-(U14-NC@1-Pad20)*%
X136660000Y-63750000D03*
%TO.P,U14,21,OUT1B*%
%TO.N,/OUT1B11*%
X136660000Y-63250000D03*
D11*
%TO.P,U14,22,VBB1*%
%TO.N,+12V*%
X135570000Y-62160000D03*
%TO.P,U14,23,SENSE1*%
%TO.N,Net-(U14-SENSE1)*%
X135070000Y-62160000D03*
%TO.P,U14,24,OUT1A*%
%TO.N,/OUT1A11*%
X134570000Y-62160000D03*
%TO.P,U14,25,NC@2*%
%TO.N,unconnected-(U14-NC@2-Pad25)*%
X134070000Y-62160000D03*
%TO.P,U14,26,OUT2A*%
%TO.N,/OUT2A11*%
X133570000Y-62160000D03*
%TO.P,U14,27,SENSE2*%
%TO.N,Net-(U14-SENSE2)*%
X133070000Y-62160000D03*
%TO.P,U14,28,VBB2*%
%TO.N,+12V*%
X132570000Y-62160000D03*
D12*
%TO.P,U14,29,PAD*%
%TO.N,GND*%
X134070000Y-64750000D03*
%TD*%
D13*
%TO.P,J2,1,1*%
%TO.N,/SWCLK*%
X121137500Y-52160000D03*
D14*
%TO.P,J2,2,2*%
%TO.N,GND*%
X121137500Y-54700000D03*
%TO.P,J2,3,3*%
%TO.N,/SWD*%
X121137500Y-57240000D03*
%TD*%
D15*
%TO.P,C67,1*%
%TO.N,+12V*%
X210615000Y-59450000D03*
%TO.P,C67,2*%
%TO.N,GND*%
X210615000Y-61000000D03*
%TD*%
D16*
%TO.P,R54,1*%
%TO.N,GND*%
X219865000Y-65662500D03*
%TO.P,R54,2*%
%TO.N,Net-(U10-~{ENABLE})*%
X219865000Y-63837500D03*
%TD*%
D17*
%TO.P,R112,1*%
%TO.N,+3V3*%
X115200000Y-63577500D03*
%TO.P,R112,2*%
%TO.N,Net-(U15-REF)*%
X115200000Y-65402500D03*
%TD*%
%TO.P,R55,1*%
%TO.N,GND*%
X226615000Y-57337500D03*
%TO.P,R55,2*%
%TO.N,Net-(U10-SENSE2)*%
X226615000Y-59162500D03*
%TD*%
%TO.P,R96,1*%
%TO.N,+3V3*%
X165365000Y-63337500D03*
%TO.P,R96,2*%
%TO.N,Net-(U13-REF)*%
X165365000Y-65162500D03*
%TD*%
D18*
%TO.P,R58,1*%
%TO.N,GND*%
X111612500Y-72490000D03*
%TO.P,R58,2*%
%TO.N,Net-(U15-ROSC)*%
X109787500Y-72490000D03*
%TD*%
D19*
%TO.P,C107,1*%
%TO.N,GND*%
X131880000Y-82000000D03*
%TO.P,C107,2*%
%TO.N,+3V3*%
X130920000Y-82000000D03*
%TD*%
D17*
%TO.P,R86,1*%
%TO.N,GND*%
X186500000Y-108837500D03*
%TO.P,R86,2*%
%TO.N,Net-(U7-MS1)*%
X186500000Y-110662500D03*
%TD*%
D15*
%TO.P,C6,1*%
%TO.N,+12V*%
X117750000Y-119725000D03*
%TO.P,C6,2*%
%TO.N,GND*%
X117750000Y-121275000D03*
%TD*%
D20*
%TO.P,R67,1*%
%TO.N,Net-(U1-USB_DP)*%
X126900000Y-98390000D03*
%TO.P,R67,2*%
%TO.N,/USB_D+*%
X126900000Y-99410000D03*
%TD*%
D21*
%TO.P,C79,1*%
%TO.N,Net-(U13-VREG)*%
X154640000Y-68250000D03*
%TO.P,C79,2*%
%TO.N,GND*%
X153090000Y-68250000D03*
%TD*%
D13*
%TO.P,J29,1,1*%
%TO.N,/OUT1A12*%
X112940000Y-51300000D03*
D14*
%TO.P,J29,2,2*%
%TO.N,/OUT1B12*%
X110400000Y-51300000D03*
%TO.P,J29,3,3*%
%TO.N,/OUT2A12*%
X107860000Y-51300000D03*
%TO.P,J29,4,4*%
%TO.N,/OUT2B12*%
X105320000Y-51300000D03*
%TO.P,J29,5,5*%
%TO.N,+3V3*%
X102780000Y-51300000D03*
%TD*%
D16*
%TO.P,R52,1*%
%TO.N,+3V3*%
X222750000Y-117563500D03*
%TO.P,R52,2*%
%TO.N,Net-(U9-REF)*%
X222750000Y-115738500D03*
%TD*%
D17*
%TO.P,R10,1*%
%TO.N,Net-(U4-REF)*%
X109250000Y-115837500D03*
%TO.P,R10,2*%
%TO.N,GND*%
X109250000Y-117662500D03*
%TD*%
D22*
%TO.P,C26,1*%
%TO.N,+3V3*%
X153000000Y-113525000D03*
%TO.P,C26,2*%
%TO.N,GND*%
X153000000Y-111975000D03*
%TD*%
D21*
%TO.P,C17,1*%
%TO.N,+12V*%
X135570000Y-119250000D03*
%TO.P,C17,2*%
%TO.N,GND*%
X134020000Y-119250000D03*
%TD*%
D22*
%TO.P,C11,1*%
%TO.N,+3V3*%
X105250000Y-114025000D03*
%TO.P,C11,2*%
%TO.N,GND*%
X105250000Y-112475000D03*
%TD*%
D23*
%TO.P,D7,A*%
%TO.N,Net-(D7-PadA)*%
X246800000Y-107337500D03*
%TO.P,D7,C*%
%TO.N,GND*%
X246800000Y-105537500D03*
%TD*%
D24*
%TO.P,D1,1,K*%
%TO.N,Net-(D1-K)*%
X231750000Y-103950000D03*
%TO.P,D1,2,A*%
%TO.N,GND*%
X231750000Y-99550000D03*
%TD*%
D22*
%TO.P,C19,1*%
%TO.N,+12V*%
X131295000Y-121025000D03*
%TO.P,C19,2*%
%TO.N,GND*%
X131295000Y-119475000D03*
%TD*%
D15*
%TO.P,C98,1*%
%TO.N,+3V3*%
X117200000Y-67215000D03*
%TO.P,C98,2*%
%TO.N,GND*%
X117200000Y-68765000D03*
%TD*%
D25*
%TO.P,C73,1*%
%TO.N,+12V*%
X183385000Y-61250000D03*
%TO.P,C73,2*%
%TO.N,GND*%
X184935000Y-61250000D03*
%TD*%
D26*
%TO.P,U1,1,GPIO4*%
%TO.N,/DIR2*%
X132462500Y-93087500D03*
%TO.P,U1,2,GPIO5*%
%TO.N,/STEP3*%
X132462500Y-92687500D03*
%TO.P,U1,3,GPIO6*%
%TO.N,/DIR3*%
X132462500Y-92287500D03*
%TO.P,U1,4,GPIO7*%
%TO.N,/STEP4*%
X132462500Y-91887500D03*
%TO.P,U1,5,IOVDD*%
%TO.N,+3V3*%
X132462500Y-91487500D03*
%TO.P,U1,6,GPIO8*%
%TO.N,/DIR4*%
X132462500Y-91087500D03*
%TO.P,U1,7,GPIO9*%
%TO.N,/STEP5*%
X132462500Y-90687500D03*
%TO.P,U1,8,GPIO10*%
%TO.N,/DIR5*%
X132462500Y-90287500D03*
%TO.P,U1,9,GPIO11*%
%TO.N,/STEP6*%
X132462500Y-89887500D03*
%TO.P,U1,10,DVDD*%
%TO.N,+1V1*%
X132462500Y-89487500D03*
%TO.P,U1,11,GPIO12*%
%TO.N,/DIR6*%
X132462500Y-89087500D03*
%TO.P,U1,12,GPIO13*%
%TO.N,/STEP7*%
X132462500Y-88687500D03*
%TO.P,U1,13,GPIO14*%
%TO.N,/DIR7*%
X132462500Y-88287500D03*
%TO.P,U1,14,GPIO15*%
%TO.N,/STEP8*%
X132462500Y-87887500D03*
%TO.P,U1,15,IOVDD*%
%TO.N,+3V3*%
X132462500Y-87487500D03*
%TO.P,U1,16,GPIO16*%
%TO.N,/DIR8*%
X132462500Y-87087500D03*
%TO.P,U1,17,GPIO17*%
%TO.N,/STEP9*%
X132462500Y-86687500D03*
%TO.P,U1,18,GPIO18*%
%TO.N,/DIR9*%
X132462500Y-86287500D03*
%TO.P,U1,19,GPIO19*%
%TO.N,/STEP10*%
X132462500Y-85887500D03*
%TO.P,U1,20,GPIO20*%
%TO.N,/DIR10*%
X132462500Y-85487500D03*
D27*
%TO.P,U1,21,GPIO21*%
%TO.N,/STEP11*%
X131312500Y-84337500D03*
%TO.P,U1,22,GPIO22*%
%TO.N,/DIR11*%
X130912500Y-84337500D03*
%TO.P,U1,23,GPIO23*%
%TO.N,/STEP12*%
X130512500Y-84337500D03*
%TO.P,U1,24,IOVDD*%
%TO.N,+3V3*%
X130112500Y-84337500D03*
%TO.P,U1,25,GPIO24*%
%TO.N,/DIR12*%
X129712500Y-84337500D03*
%TO.P,U1,26,GPIO25*%
%TO.N,/In1*%
X129312500Y-84337500D03*
%TO.P,U1,27,GPIO26*%
%TO.N,/In2*%
X128912500Y-84337500D03*
%TO.P,U1,28,GPIO27*%
%TO.N,/In3*%
X128512500Y-84337500D03*
%TO.P,U1,29,IOVDD*%
%TO.N,+3V3*%
X128112500Y-84337500D03*
%TO.P,U1,30,XIN*%
%TO.N,/XIN*%
X127712500Y-84337500D03*
%TO.P,U1,31,XOUT*%
%TO.N,/XOUT*%
X127312500Y-84337500D03*
%TO.P,U1,32,DVDD*%
%TO.N,+1V1*%
X126912500Y-84337500D03*
%TO.P,U1,33,SWCLK*%
%TO.N,/SWCLK*%
X126512500Y-84337500D03*
%TO.P,U1,34,SWDIO*%
%TO.N,/SWD*%
X126112500Y-84337500D03*
%TO.P,U1,35,RUN*%
%TO.N,Net-(U1-RUN)*%
X125712500Y-84337500D03*
%TO.P,U1,36,GPIO28*%
%TO.N,Net-(U1-GPIO28)*%
X125312500Y-84337500D03*
%TO.P,U1,37,GPIO29*%
%TO.N,Net-(U1-GPIO29)*%
X124912500Y-84337500D03*
%TO.P,U1,38,GPIO30*%
%TO.N,/RESET_N*%
X124512500Y-84337500D03*
%TO.P,U1,39,GPIO31*%
%TO.N,/EXT_GPIO1*%
X124112500Y-84337500D03*
%TO.P,U1,40,GPIO32*%
%TO.N,/EXT_GPIO2*%
X123712500Y-84337500D03*
D26*
%TO.P,U1,41,IOVDD*%
%TO.N,+3V3*%
X122562500Y-85487500D03*
%TO.P,U1,42,GPIO33*%
%TO.N,/EXT_GPIO3*%
X122562500Y-85887500D03*
%TO.P,U1,43,GPIO34*%
%TO.N,/EXT_GPIO4*%
X122562500Y-86287500D03*
%TO.P,U1,44,GPIO35*%
%TO.N,/EXT_GPIO5*%
X122562500Y-86687500D03*
%TO.P,U1,45,GPIO36*%
%TO.N,/EXT_GPIO6*%
X122562500Y-87087500D03*
%TO.P,U1,46,GPIO37*%
%TO.N,/EXT_GPIO7*%
X122562500Y-87487500D03*
%TO.P,U1,47,GPIO38*%
%TO.N,/EXT_GPIO8*%
X122562500Y-87887500D03*
%TO.P,U1,48,GPIO39*%
%TO.N,/EXT_GPIO9*%
X122562500Y-88287500D03*
%TO.P,U1,49,GPIO40_ADC0*%
%TO.N,/EXT_GPIO10*%
X122562500Y-88687500D03*
%TO.P,U1,50,IOVDD*%
%TO.N,+3V3*%
X122562500Y-89087500D03*
%TO.P,U1,51,DVDD*%
%TO.N,+1V1*%
X122562500Y-89487500D03*
%TO.P,U1,52,GPIO41_ADC1*%
%TO.N,/EXT_GPIO11*%
X122562500Y-89887500D03*
%TO.P,U1,53,GPIO42_ADC2*%
%TO.N,/EXT_GPIO12*%
X122562500Y-90287500D03*
%TO.P,U1,54,GPIO43_ADC3*%
%TO.N,/EXT_GPIO13*%
X122562500Y-90687500D03*
%TO.P,U1,55,GPIO44_ADC4*%
%TO.N,/EXT_GPIO14*%
X122562500Y-91087500D03*
%TO.P,U1,56,GPIO45_ADC5*%
%TO.N,/EXT_GPIO15*%
X122562500Y-91487500D03*
%TO.P,U1,57,GPIO46_ADC6*%
%TO.N,/EXT_GPIO16*%
X122562500Y-91887500D03*
%TO.P,U1,58,GPIO47_ADC7*%
%TO.N,/EXT_GPIO17*%
X122562500Y-92287500D03*
%TO.P,U1,59,ADC_AVDD*%
%TO.N,+3V3*%
X122562500Y-92687500D03*
%TO.P,U1,60,IOVDD*%
X122562500Y-93087500D03*
D27*
%TO.P,U1,61,VREG_AVDD*%
%TO.N,Net-(U1-VREG_AVDD)*%
X123712500Y-94237500D03*
%TO.P,U1,62,VREG_PGND*%
%TO.N,GND*%
X124112500Y-94237500D03*
%TO.P,U1,63,VREG_LX*%
%TO.N,Net-(U1-VREG_LX)*%
X124512500Y-94237500D03*
%TO.P,U1,64,VREG_VIN*%
%TO.N,+3V3*%
X124912500Y-94237500D03*
%TO.P,U1,65,VREG_FB*%
%TO.N,+1V1*%
X125312500Y-94237500D03*
%TO.P,U1,66,USB_DM*%
%TO.N,Net-(U1-USB_DM)*%
X125712500Y-94237500D03*
%TO.P,U1,67,USB_DP*%
%TO.N,Net-(U1-USB_DP)*%
X126112500Y-94237500D03*
%TO.P,U1,68,USB_OTP_VDD*%
%TO.N,+3V3*%
X126512500Y-94237500D03*
%TO.P,U1,69,QSPI_IOVDD*%
X126912500Y-94237500D03*
%TO.P,U1,70,QSPI_SD3*%
%TO.N,/QSPI_SD3*%
X127312500Y-94237500D03*
%TO.P,U1,71,QSPI_SCLK*%
%TO.N,/QSPI_SCLK*%
X127712500Y-94237500D03*
%TO.P,U1,72,QSPI_SD0*%
%TO.N,/QSPI_SD0*%
X128112500Y-94237500D03*
%TO.P,U1,73,QSPI_SD2*%
%TO.N,/QSPI_SD2*%
X128512500Y-94237500D03*
%TO.P,U1,74,QSPI_SD1*%
%TO.N,/QSPI_SD1*%
X128912500Y-94237500D03*
%TO.P,U1,75,QSPI_SS*%
%TO.N,/QSPI_SS*%
X129312500Y-94237500D03*
%TO.P,U1,76,IOVDD*%
%TO.N,+3V3*%
X129712500Y-94237500D03*
%TO.P,U1,77,GPIO0*%
%TO.N,/GPIO0*%
X130112500Y-94237500D03*
%TO.P,U1,78,GPIO1*%
%TO.N,/STEP1*%
X130512500Y-94237500D03*
%TO.P,U1,79,GPIO2*%
%TO.N,/DIR1*%
X130912500Y-94237500D03*
%TO.P,U1,80,GPIO3*%
%TO.N,/STEP2*%
X131312500Y-94237500D03*
D28*
%TO.P,U1,81,GND*%
%TO.N,GND*%
X128962500Y-90737500D03*
X128962500Y-89287500D03*
X128962500Y-87837500D03*
X127512500Y-90737500D03*
X127512500Y-89287500D03*
D29*
X127512500Y-89287500D03*
D28*
X127512500Y-87837500D03*
X126062500Y-90737500D03*
X126062500Y-89287500D03*
X126062500Y-87837500D03*
%TD*%
D30*
%TO.P,C3,1*%
%TO.N,+3V3*%
X137200000Y-103240000D03*
%TO.P,C3,2*%
%TO.N,GND*%
X137200000Y-104200000D03*
%TD*%
D16*
%TO.P,R25,1*%
%TO.N,GND*%
X161250000Y-123162500D03*
%TO.P,R25,2*%
%TO.N,Net-(U6-SENSE1)*%
X161250000Y-121337500D03*
%TD*%
D17*
%TO.P,R92,1*%
%TO.N,GND*%
X208455000Y-109587500D03*
%TO.P,R92,2*%
%TO.N,Net-(U8-MS1)*%
X208455000Y-111412500D03*
%TD*%
D18*
%TO.P,R40,1*%
%TO.N,GND*%
X231777500Y-72250000D03*
%TO.P,R40,2*%
%TO.N,Net-(U10-ROSC)*%
X229952500Y-72250000D03*
%TD*%
%TO.P,R42,1*%
%TO.N,GND*%
X207527500Y-72225000D03*
%TO.P,R42,2*%
%TO.N,Net-(U11-ROSC)*%
X205702500Y-72225000D03*
%TD*%
%TO.P,R56,1*%
%TO.N,GND*%
X138482500Y-72250000D03*
%TO.P,R56,2*%
%TO.N,Net-(U14-ROSC)*%
X136657500Y-72250000D03*
%TD*%
D21*
%TO.P,C76,1*%
%TO.N,Net-(U13-VCP)*%
X153365000Y-66500000D03*
%TO.P,C76,2*%
%TO.N,+12V*%
X151815000Y-66500000D03*
%TD*%
D16*
%TO.P,R102,1*%
%TO.N,GND*%
X202115000Y-71137500D03*
%TO.P,R102,2*%
%TO.N,Net-(U11-MS1)*%
X202115000Y-69312500D03*
%TD*%
%TO.P,R114,1*%
%TO.N,GND*%
X133070000Y-71162500D03*
%TO.P,R114,2*%
%TO.N,Net-(U14-MS1)*%
X133070000Y-69337500D03*
%TD*%
D25*
%TO.P,C44,1*%
%TO.N,Net-(U9-VCP)*%
X234750000Y-114401000D03*
%TO.P,C44,2*%
%TO.N,+12V*%
X236300000Y-114401000D03*
%TD*%
D17*
%TO.P,R29,1*%
%TO.N,Net-(U6-REF)*%
X157000000Y-115337500D03*
%TO.P,R29,2*%
%TO.N,GND*%
X157000000Y-117162500D03*
%TD*%
D16*
%TO.P,R11,1*%
%TO.N,+3V3*%
X107250000Y-117662500D03*
%TO.P,R11,2*%
%TO.N,Net-(U4-REF)*%
X107250000Y-115837500D03*
%TD*%
D15*
%TO.P,C66,1*%
%TO.N,+3V3*%
X213115000Y-66950000D03*
%TO.P,C66,2*%
%TO.N,GND*%
X213115000Y-68500000D03*
%TD*%
D16*
%TO.P,R20,1*%
%TO.N,+3V3*%
X130795000Y-117162500D03*
%TO.P,R20,2*%
%TO.N,Net-(U5-REF)*%
X130795000Y-115337500D03*
%TD*%
D31*
%TO.P,C101,1*%
%TO.N,GND*%
X128000000Y-99380000D03*
%TO.P,C101,2*%
%TO.N,+3V3*%
X128000000Y-98420000D03*
%TD*%
D15*
%TO.P,C59,1*%
%TO.N,+12V*%
X234865000Y-59475000D03*
%TO.P,C59,2*%
%TO.N,GND*%
X234865000Y-61025000D03*
%TD*%
D32*
%TO.P,L2,1,1*%
%TO.N,Net-(D1-K)*%
X237687500Y-106000000D03*
%TO.P,L2,2,2*%
%TO.N,Net-(U16-FB)*%
X239812500Y-106000000D03*
%TD*%
D30*
%TO.P,C111,1*%
%TO.N,GND*%
X126300000Y-80740000D03*
%TO.P,C111,2*%
%TO.N,+1V1*%
X126300000Y-81700000D03*
%TD*%
D33*
%TO.P,C109,1*%
%TO.N,GND*%
X118440000Y-89700000D03*
%TO.P,C109,2*%
%TO.N,+1V1*%
X119400000Y-89700000D03*
%TD*%
D13*
%TO.P,J24,1,1*%
%TO.N,/OUT1A4*%
X181640000Y-131500000D03*
D14*
%TO.P,J24,2,2*%
%TO.N,/OUT1B4*%
X184180000Y-131500000D03*
%TO.P,J24,3,3*%
%TO.N,/OUT2A4*%
X186720000Y-131500000D03*
%TO.P,J24,4,4*%
%TO.N,/OUT2B4*%
X189260000Y-131500000D03*
%TO.P,J24,5,5*%
%TO.N,+3V3*%
X191800000Y-131500000D03*
%TD*%
D13*
%TO.P,J26,1,1*%
%TO.N,/OUT1A5*%
X202820000Y-131437500D03*
D14*
%TO.P,J26,2,2*%
%TO.N,/OUT1B5*%
X205360000Y-131437500D03*
%TO.P,J26,3,3*%
%TO.N,/OUT2A5*%
X207900000Y-131437500D03*
%TO.P,J26,4,4*%
%TO.N,/OUT2B5*%
X210440000Y-131437500D03*
%TO.P,J26,5,5*%
%TO.N,+3V3*%
X212980000Y-131437500D03*
%TD*%
D21*
%TO.P,C55,1*%
%TO.N,Net-(U10-VREG)*%
X224640000Y-68250000D03*
%TO.P,C55,2*%
%TO.N,GND*%
X223090000Y-68250000D03*
%TD*%
D17*
%TO.P,R22,1*%
%TO.N,GND*%
X170500000Y-114837500D03*
%TO.P,R22,2*%
%TO.N,Net-(U6-~{ENABLE})*%
X170500000Y-116662500D03*
%TD*%
%TO.P,R37,1*%
%TO.N,Net-(U7-REF)*%
X179500000Y-114837500D03*
%TO.P,R37,2*%
%TO.N,GND*%
X179500000Y-116662500D03*
%TD*%
D34*
%TO.P,R73,1*%
%TO.N,/In1*%
X142500000Y-84700000D03*
%TO.P,R73,2*%
%TO.N,+3V3*%
X143520000Y-84700000D03*
%TD*%
D15*
%TO.P,C88,1*%
%TO.N,+3V3*%
X138070000Y-66975000D03*
%TO.P,C88,2*%
%TO.N,GND*%
X138070000Y-68525000D03*
%TD*%
D18*
%TO.P,R51,1*%
%TO.N,Net-(U9-~{SLEEP})*%
X228162500Y-110651000D03*
%TO.P,R51,2*%
%TO.N,+3V3*%
X226337500Y-110651000D03*
%TD*%
D13*
%TO.P,J22,1,1*%
%TO.N,/OUT1A3*%
X159180000Y-131400000D03*
D14*
%TO.P,J22,2,2*%
%TO.N,/OUT1B3*%
X161720000Y-131400000D03*
%TO.P,J22,3,3*%
%TO.N,/OUT2A3*%
X164260000Y-131400000D03*
%TO.P,J22,4,4*%
%TO.N,/OUT2B3*%
X166800000Y-131400000D03*
%TO.P,J22,5,5*%
%TO.N,+3V3*%
X169340000Y-131400000D03*
%TD*%
D35*
%TO.P,U3,1,/CS*%
%TO.N,Net-(U3-{slash}CS)*%
X147105000Y-102905000D03*
%TO.P,U3,2,DO(IO1)*%
%TO.N,/QSPI_SD1*%
X147105000Y-101635000D03*
%TO.P,U3,3,/WP(IO2)*%
%TO.N,/QSPI_SD2*%
X147105000Y-100365000D03*
%TO.P,U3,4,GND*%
%TO.N,GND*%
X147105000Y-99095000D03*
%TO.P,U3,5,DI(IO0)*%
%TO.N,/QSPI_SD0*%
X139895000Y-99095000D03*
%TO.P,U3,6,CLK*%
%TO.N,/QSPI_SCLK*%
X139895000Y-100365000D03*
%TO.P,U3,7,/HOLD/RESET(IO3)*%
%TO.N,/QSPI_SD3*%
X139895000Y-101635000D03*
%TO.P,U3,8,VCC*%
%TO.N,+3V3*%
X139895000Y-102905000D03*
%TD*%
D18*
%TO.P,R76,1*%
%TO.N,/GPIO0*%
X155812500Y-102400000D03*
%TO.P,R76,2*%
%TO.N,Net-(U3-{slash}CS)*%
X153987500Y-102400000D03*
%TD*%
D15*
%TO.P,C75,1*%
%TO.N,+12V*%
X187660000Y-59475000D03*
%TO.P,C75,2*%
%TO.N,GND*%
X187660000Y-61025000D03*
%TD*%
D16*
%TO.P,R98,1*%
%TO.N,GND*%
X126570000Y-65662500D03*
%TO.P,R98,2*%
%TO.N,Net-(U14-~{ENABLE})*%
X126570000Y-63837500D03*
%TD*%
D22*
%TO.P,C10,1*%
%TO.N,+3V3*%
X111250000Y-114025000D03*
%TO.P,C10,2*%
%TO.N,GND*%
X111250000Y-112475000D03*
%TD*%
D36*
%TO.P,J13,1*%
%TO.N,/12V_IN*%
X233900000Y-83100000D03*
D37*
%TO.P,J13,2*%
%TO.N,GND*%
X239900000Y-83100000D03*
D38*
%TO.P,J13,3*%
%TO.N,unconnected-(J13-Pad3)*%
X236900000Y-78400000D03*
%TD*%
D18*
%TO.P,R27,1*%
%TO.N,Net-(U6-~{SLEEP})*%
X160412500Y-110250000D03*
%TO.P,R27,2*%
%TO.N,+3V3*%
X158587500Y-110250000D03*
%TD*%
D25*
%TO.P,C89,1*%
%TO.N,+12V*%
X137295000Y-61250000D03*
%TO.P,C89,2*%
%TO.N,GND*%
X138845000Y-61250000D03*
%TD*%
%TO.P,C93,1*%
%TO.N,Net-(U15-CP2)*%
X101650000Y-64990000D03*
%TO.P,C93,2*%
%TO.N,Net-(U15-CP1)*%
X103200000Y-64990000D03*
%TD*%
D13*
%TO.P,J20,1,1*%
%TO.N,/OUT1A2*%
X134220000Y-131337500D03*
D14*
%TO.P,J20,2,2*%
%TO.N,/OUT1B2*%
X136760000Y-131337500D03*
%TO.P,J20,3,3*%
%TO.N,/OUT2A2*%
X139300000Y-131337500D03*
%TO.P,J20,4,4*%
%TO.N,/OUT2B2*%
X141840000Y-131337500D03*
%TO.P,J20,5,5*%
%TO.N,+3V3*%
X144380000Y-131337500D03*
%TD*%
D25*
%TO.P,C97,1*%
%TO.N,+12V*%
X110425000Y-61490000D03*
%TO.P,C97,2*%
%TO.N,GND*%
X111975000Y-61490000D03*
%TD*%
D39*
%TO.P,R80,1*%
%TO.N,Net-(U1-GPIO28)*%
X115710000Y-82800000D03*
%TO.P,R80,2*%
%TO.N,Net-(D5-PadA)*%
X114690000Y-82800000D03*
%TD*%
D21*
%TO.P,C25,1*%
%TO.N,+12V*%
X159775000Y-119250000D03*
%TO.P,C25,2*%
%TO.N,GND*%
X158225000Y-119250000D03*
%TD*%
D22*
%TO.P,C35,1*%
%TO.N,+12V*%
X178000000Y-120525000D03*
%TO.P,C35,2*%
%TO.N,GND*%
X178000000Y-118975000D03*
%TD*%
D21*
%TO.P,C63,1*%
%TO.N,Net-(U11-VREG)*%
X200390000Y-68225000D03*
%TO.P,C63,2*%
%TO.N,GND*%
X198840000Y-68225000D03*
%TD*%
D25*
%TO.P,C12,1*%
%TO.N,Net-(U5-VCP)*%
X142795000Y-114000000D03*
%TO.P,C12,2*%
%TO.N,+12V*%
X144345000Y-114000000D03*
%TD*%
D22*
%TO.P,C34,1*%
%TO.N,+3V3*%
X175500000Y-113025000D03*
%TO.P,C34,2*%
%TO.N,GND*%
X175500000Y-111475000D03*
%TD*%
D40*
%TO.P,R77,1*%
%TO.N,Net-(U3-{slash}CS)*%
X153475000Y-96400000D03*
%TO.P,R77,2*%
%TO.N,+3V3*%
X155300000Y-96400000D03*
%TD*%
D41*
%TO.P,SW3,1*%
%TO.N,/In1*%
X140500000Y-75320000D03*
%TO.P,SW3,1_1*%
%TO.N,GND*%
X149110000Y-75320000D03*
%TO.P,SW3,2*%
%TO.N,/In2*%
X140500000Y-77860000D03*
%TO.P,SW3,2_1*%
%TO.N,GND*%
X149110000Y-77860000D03*
%TO.P,SW3,3*%
%TO.N,/In3*%
X140500000Y-80400000D03*
%TO.P,SW3,3_1*%
%TO.N,GND*%
X149110000Y-80400000D03*
%TD*%
D25*
%TO.P,C61,1*%
%TO.N,Net-(U11-CP2)*%
X197565000Y-64725000D03*
%TO.P,C61,2*%
%TO.N,Net-(U11-CP1)*%
X199115000Y-64725000D03*
%TD*%
D42*
%TO.P,TP11,1,1*%
%TO.N,/OUT2A1*%
X126900000Y-127600000D03*
%TD*%
%TO.P,SW2,1,1*%
%TO.N,GND*%
X106500000Y-78100000D03*
%TO.P,SW2,2,2*%
%TO.N,Net-(R5-Pad1)*%
X112500000Y-78100000D03*
%TD*%
D31*
%TO.P,C112,1*%
%TO.N,GND*%
X123600000Y-99380000D03*
%TO.P,C112,2*%
%TO.N,+1V1*%
X123600000Y-98420000D03*
%TD*%
D21*
%TO.P,C8,1*%
%TO.N,+12V*%
X112025000Y-119750000D03*
%TO.P,C8,2*%
%TO.N,GND*%
X110475000Y-119750000D03*
%TD*%
%TO.P,C52,1*%
%TO.N,Net-(U10-VCP)*%
X223365000Y-66500000D03*
%TO.P,C52,2*%
%TO.N,+12V*%
X221815000Y-66500000D03*
%TD*%
D16*
%TO.P,R17,1*%
%TO.N,GND*%
X137045000Y-123162500D03*
%TO.P,R17,2*%
%TO.N,Net-(U5-SENSE1)*%
X137045000Y-121337500D03*
%TD*%
D33*
%TO.P,C103,1*%
%TO.N,GND*%
X120220000Y-84400000D03*
%TO.P,C103,2*%
%TO.N,+3V3*%
X121180000Y-84400000D03*
%TD*%
D21*
%TO.P,C49,1*%
%TO.N,+12V*%
X227525000Y-119651000D03*
%TO.P,C49,2*%
%TO.N,GND*%
X225975000Y-119651000D03*
%TD*%
D25*
%TO.P,C1,1*%
%TO.N,Net-(U4-VREG)*%
X117975000Y-112750000D03*
%TO.P,C1,2*%
%TO.N,GND*%
X119525000Y-112750000D03*
%TD*%
D22*
%TO.P,C43,1*%
%TO.N,+12V*%
X199955000Y-121275000D03*
%TO.P,C43,2*%
%TO.N,GND*%
X199955000Y-119725000D03*
%TD*%
%TO.P,C50,1*%
%TO.N,+3V3*%
X220750000Y-113926000D03*
%TO.P,C50,2*%
%TO.N,GND*%
X220750000Y-112376000D03*
%TD*%
D21*
%TO.P,C68,1*%
%TO.N,Net-(U12-VCP)*%
X176160000Y-66500000D03*
%TO.P,C68,2*%
%TO.N,+12V*%
X174610000Y-66500000D03*
%TD*%
D40*
%TO.P,R26,1*%
%TO.N,GND*%
X181087500Y-107750000D03*
%TO.P,R26,2*%
%TO.N,Net-(U7-ROSC)*%
X182912500Y-107750000D03*
%TD*%
D22*
%TO.P,C86,1*%
%TO.N,+12V*%
X131570000Y-61275000D03*
%TO.P,C86,2*%
%TO.N,GND*%
X131570000Y-59725000D03*
%TD*%
D24*
%TO.P,D2,1,K*%
%TO.N,Net-(D2-K)*%
X227000000Y-87150000D03*
%TO.P,D2,2,A*%
%TO.N,/12V_IN*%
X227000000Y-82750000D03*
%TD*%
D18*
%TO.P,R48,1*%
%TO.N,GND*%
X184572500Y-72250000D03*
%TO.P,R48,2*%
%TO.N,Net-(U12-ROSC)*%
X182747500Y-72250000D03*
%TD*%
D15*
%TO.P,C56,1*%
%TO.N,+3V3*%
X231365000Y-66975000D03*
%TO.P,C56,2*%
%TO.N,GND*%
X231365000Y-68525000D03*
%TD*%
D33*
%TO.P,C114,1*%
%TO.N,GND*%
X121740000Y-95400000D03*
%TO.P,C114,2*%
%TO.N,Net-(U1-VREG_AVDD)*%
X122700000Y-95400000D03*
%TD*%
D17*
%TO.P,R45,1*%
%TO.N,Net-(U8-REF)*%
X201455000Y-115587500D03*
%TO.P,R45,2*%
%TO.N,GND*%
X201455000Y-117412500D03*
%TD*%
D18*
%TO.P,R43,1*%
%TO.N,Net-(U8-~{SLEEP})*%
X204867500Y-110500000D03*
%TO.P,R43,2*%
%TO.N,+3V3*%
X203042500Y-110500000D03*
%TD*%
D25*
%TO.P,C36,1*%
%TO.N,Net-(U8-VCP)*%
X211455000Y-114250000D03*
%TO.P,C36,2*%
%TO.N,+12V*%
X213005000Y-114250000D03*
%TD*%
D22*
%TO.P,C16,1*%
%TO.N,+3V3*%
X134795000Y-113525000D03*
%TO.P,C16,2*%
%TO.N,GND*%
X134795000Y-111975000D03*
%TD*%
D16*
%TO.P,R110,1*%
%TO.N,GND*%
X156365000Y-71162500D03*
%TO.P,R110,2*%
%TO.N,Net-(U13-MS1)*%
X156365000Y-69337500D03*
%TD*%
%TO.P,R70,1*%
%TO.N,+3V3*%
X121300000Y-99025000D03*
%TO.P,R70,2*%
%TO.N,Net-(U1-VREG_AVDD)*%
X121300000Y-97200000D03*
%TD*%
D43*
%TO.P,U2,1,1*%
%TO.N,/XIN*%
X129100000Y-73500000D03*
%TO.P,U2,2,2*%
%TO.N,GND*%
X129100000Y-71900000D03*
%TO.P,U2,3,3*%
%TO.N,Net-(C4-Pad2)*%
X126900000Y-71900000D03*
%TO.P,U2,4,4*%
%TO.N,GND*%
X126900000Y-73500000D03*
%TD*%
D31*
%TO.P,C113,1*%
%TO.N,GND*%
X124600000Y-99380000D03*
%TO.P,C113,2*%
%TO.N,+3V3*%
X124600000Y-98420000D03*
%TD*%
D44*
%TO.P,D3,1,K1*%
%TO.N,/USB_D-*%
X101800000Y-97800000D03*
%TO.P,D3,2,K2*%
%TO.N,GND*%
X101800000Y-97100000D03*
%TD*%
D17*
%TO.P,R72,1*%
%TO.N,+3V3*%
X211115000Y-63312500D03*
%TO.P,R72,2*%
%TO.N,Net-(U11-REF)*%
X211115000Y-65137500D03*
%TD*%
D22*
%TO.P,C116,1*%
%TO.N,Net-(U16-FB)*%
X242750000Y-106800000D03*
%TO.P,C116,2*%
%TO.N,GND*%
X242750000Y-105250000D03*
%TD*%
%TO.P,C27,1*%
%TO.N,+12V*%
X155500000Y-121025000D03*
%TO.P,C27,2*%
%TO.N,GND*%
X155500000Y-119475000D03*
%TD*%
D15*
%TO.P,C22,1*%
%TO.N,+12V*%
X165500000Y-119225000D03*
%TO.P,C22,2*%
%TO.N,GND*%
X165500000Y-120775000D03*
%TD*%
D22*
%TO.P,C70,1*%
%TO.N,+12V*%
X177660000Y-61275000D03*
%TO.P,C70,2*%
%TO.N,GND*%
X177660000Y-59725000D03*
%TD*%
D16*
%TO.P,R90,1*%
%TO.N,GND*%
X149865000Y-65662500D03*
%TO.P,R90,2*%
%TO.N,Net-(U13-~{ENABLE})*%
X149865000Y-63837500D03*
%TD*%
D15*
%TO.P,C14,1*%
%TO.N,+12V*%
X141295000Y-119225000D03*
%TO.P,C14,2*%
%TO.N,GND*%
X141295000Y-120775000D03*
%TD*%
D17*
%TO.P,R107,1*%
%TO.N,GND*%
X106450000Y-57577500D03*
%TO.P,R107,2*%
%TO.N,Net-(U15-SENSE2)*%
X106450000Y-59402500D03*
%TD*%
D42*
%TO.P,TP12,1,1*%
%TO.N,/OUT2B1*%
X122700000Y-123800000D03*
%TD*%
%TO.P,TP2,1,1*%
%TO.N,/STEP1*%
X110200000Y-102700000D03*
%TD*%
D13*
%TO.P,J19,1,1*%
%TO.N,/OUT1A7*%
X233440000Y-51400000D03*
D14*
%TO.P,J19,2,2*%
%TO.N,/OUT1B7*%
X230900000Y-51400000D03*
%TO.P,J19,3,3*%
%TO.N,/OUT2A7*%
X228360000Y-51400000D03*
%TO.P,J19,4,4*%
%TO.N,/OUT2B7*%
X225820000Y-51400000D03*
%TO.P,J19,5,5*%
%TO.N,+3V3*%
X223280000Y-51400000D03*
%TD*%
D13*
%TO.P,J25,1,1*%
%TO.N,/OUT1A10*%
X162320000Y-51400000D03*
D14*
%TO.P,J25,2,2*%
%TO.N,/OUT1B10*%
X159780000Y-51400000D03*
%TO.P,J25,3,3*%
%TO.N,/OUT2A10*%
X157240000Y-51400000D03*
%TO.P,J25,4,4*%
%TO.N,/OUT2B10*%
X154700000Y-51400000D03*
%TO.P,J25,5,5*%
%TO.N,+3V3*%
X152160000Y-51400000D03*
%TD*%
D25*
%TO.P,C81,1*%
%TO.N,+12V*%
X160590000Y-61250000D03*
%TO.P,C81,2*%
%TO.N,GND*%
X162140000Y-61250000D03*
%TD*%
D15*
%TO.P,C96,1*%
%TO.N,+3V3*%
X111200000Y-67215000D03*
%TO.P,C96,2*%
%TO.N,GND*%
X111200000Y-68765000D03*
%TD*%
D17*
%TO.P,R85,1*%
%TO.N,GND*%
X181910000Y-57337500D03*
%TO.P,R85,2*%
%TO.N,Net-(U12-SENSE1)*%
X181910000Y-59162500D03*
%TD*%
D40*
%TO.P,R87,1*%
%TO.N,Net-(U12-~{SLEEP})*%
X182747500Y-70250000D03*
%TO.P,R87,2*%
%TO.N,+3V3*%
X184572500Y-70250000D03*
%TD*%
D22*
%TO.P,C78,1*%
%TO.N,+12V*%
X154865000Y-61275000D03*
%TO.P,C78,2*%
%TO.N,GND*%
X154865000Y-59725000D03*
%TD*%
D40*
%TO.P,R32,1*%
%TO.N,GND*%
X203042500Y-108500000D03*
%TO.P,R32,2*%
%TO.N,Net-(U8-ROSC)*%
X204867500Y-108500000D03*
%TD*%
D42*
%TO.P,SW1,1,1*%
%TO.N,GND*%
X154400000Y-89400000D03*
%TO.P,SW1,2,2*%
%TO.N,Net-(R4-Pad1)*%
X148400000Y-89400000D03*
%TD*%
D45*
%TO.P,S1,1*%
%TO.N,+12V*%
X223250000Y-93250000D03*
D46*
%TO.P,S1,2*%
%TO.N,Net-(D2-K)*%
X227060000Y-93250000D03*
%TO.P,S1,3*%
%TO.N,unconnected-(S1-Pad3)*%
X230870000Y-93250000D03*
%TO.P,S1,S1*%
%TO.N,N/C*%
X210550000Y-95790000D03*
%TO.P,S1,S2*%
X210550000Y-90710000D03*
%TD*%
D16*
%TO.P,R89,1*%
%TO.N,Net-(U12-REF)*%
X186160000Y-65162500D03*
%TO.P,R89,2*%
%TO.N,GND*%
X186160000Y-63337500D03*
%TD*%
D22*
%TO.P,C40,1*%
%TO.N,+3V3*%
X203455000Y-113775000D03*
%TO.P,C40,2*%
%TO.N,GND*%
X203455000Y-112225000D03*
%TD*%
D17*
%TO.P,R101,1*%
%TO.N,GND*%
X135820000Y-57337500D03*
%TO.P,R101,2*%
%TO.N,Net-(U14-SENSE1)*%
X135820000Y-59162500D03*
%TD*%
D16*
%TO.P,R9,1*%
%TO.N,GND*%
X113500000Y-123662500D03*
%TO.P,R9,2*%
%TO.N,Net-(U4-SENSE1)*%
X113500000Y-121837500D03*
%TD*%
D21*
%TO.P,C37,1*%
%TO.N,Net-(U8-CP2)*%
X213005000Y-116000000D03*
%TO.P,C37,2*%
%TO.N,Net-(U8-CP1)*%
X211455000Y-116000000D03*
%TD*%
D40*
%TO.P,R71,1*%
%TO.N,Net-(U11-~{SLEEP})*%
X205702500Y-70225000D03*
%TO.P,R71,2*%
%TO.N,+3V3*%
X207527500Y-70225000D03*
%TD*%
D33*
%TO.P,C104,1*%
%TO.N,GND*%
X118440000Y-88700000D03*
%TO.P,C104,2*%
%TO.N,+3V3*%
X119400000Y-88700000D03*
%TD*%
D22*
%TO.P,C24,1*%
%TO.N,+3V3*%
X159000000Y-113525000D03*
%TO.P,C24,2*%
%TO.N,GND*%
X159000000Y-111975000D03*
%TD*%
D16*
%TO.P,R97,1*%
%TO.N,Net-(U13-REF)*%
X163365000Y-65162500D03*
%TO.P,R97,2*%
%TO.N,GND*%
X163365000Y-63337500D03*
%TD*%
D42*
%TO.P,TP10,1,1*%
%TO.N,/OUT1B1*%
X102100000Y-123500000D03*
%TD*%
D13*
%TO.P,J18,1,1*%
%TO.N,/OUT1A1*%
X110520000Y-131437500D03*
D14*
%TO.P,J18,2,2*%
%TO.N,/OUT1B1*%
X113060000Y-131437500D03*
%TO.P,J18,3,3*%
%TO.N,/OUT2A1*%
X115600000Y-131437500D03*
%TO.P,J18,4,4*%
%TO.N,/OUT2B1*%
X118140000Y-131437500D03*
%TO.P,J18,5,5*%
%TO.N,+3V3*%
X120680000Y-131437500D03*
%TD*%
D25*
%TO.P,C69,1*%
%TO.N,Net-(U12-CP2)*%
X174610000Y-64750000D03*
%TO.P,C69,2*%
%TO.N,Net-(U12-CP1)*%
X176160000Y-64750000D03*
%TD*%
D17*
%TO.P,R94,1*%
%TO.N,GND*%
X231750000Y-109738500D03*
%TO.P,R94,2*%
%TO.N,Net-(U9-MS1)*%
X231750000Y-111563500D03*
%TD*%
D16*
%TO.P,R62,1*%
%TO.N,GND*%
X195615000Y-65637500D03*
%TO.P,R62,2*%
%TO.N,Net-(U11-~{ENABLE})*%
X195615000Y-63812500D03*
%TD*%
D42*
%TO.P,TP3,1,1*%
%TO.N,/DIR1*%
X103200000Y-106500000D03*
%TD*%
D21*
%TO.P,C60,1*%
%TO.N,Net-(U11-VCP)*%
X199115000Y-66475000D03*
%TO.P,C60,2*%
%TO.N,+12V*%
X197565000Y-66475000D03*
%TD*%
D47*
%TO.P,C106,1*%
%TO.N,GND*%
X131478822Y-97278822D03*
%TO.P,C106,2*%
%TO.N,+3V3*%
X130800000Y-96600000D03*
%TD*%
D22*
%TO.P,C7,1*%
%TO.N,+12V*%
X107750000Y-121525000D03*
%TO.P,C7,2*%
%TO.N,GND*%
X107750000Y-119975000D03*
%TD*%
D17*
%TO.P,R53,1*%
%TO.N,Net-(U9-REF)*%
X224750000Y-115738500D03*
%TO.P,R53,2*%
%TO.N,GND*%
X224750000Y-117563500D03*
%TD*%
D16*
%TO.P,R33,1*%
%TO.N,GND*%
X183750000Y-122662500D03*
%TO.P,R33,2*%
%TO.N,Net-(U7-SENSE1)*%
X183750000Y-120837500D03*
%TD*%
D40*
%TO.P,R111,1*%
%TO.N,Net-(U15-~{SLEEP})*%
X109787500Y-70490000D03*
%TO.P,R111,2*%
%TO.N,+3V3*%
X111612500Y-70490000D03*
%TD*%
D17*
%TO.P,R93,1*%
%TO.N,GND*%
X159115000Y-57337500D03*
%TO.P,R93,2*%
%TO.N,Net-(U13-SENSE1)*%
X159115000Y-59162500D03*
%TD*%
D19*
%TO.P,C2,1*%
%TO.N,GND*%
X126905000Y-78825000D03*
%TO.P,C2,2*%
%TO.N,/XIN*%
X125945000Y-78825000D03*
%TD*%
D42*
%TO.P,TP8,1,1*%
%TO.N,/RESET_N*%
X178500000Y-77500000D03*
%TD*%
D16*
%TO.P,R44,1*%
%TO.N,+3V3*%
X199455000Y-117412500D03*
%TO.P,R44,2*%
%TO.N,Net-(U8-REF)*%
X199455000Y-115587500D03*
%TD*%
D48*
%TO.P,D5,A*%
%TO.N,Net-(D5-PadA)*%
X111400000Y-83500000D03*
%TO.P,D5,C*%
%TO.N,GND*%
X109600000Y-83500000D03*
%TD*%
D20*
%TO.P,R68,1*%
%TO.N,Net-(U1-USB_DM)*%
X125900000Y-98400000D03*
%TO.P,R68,2*%
%TO.N,/USB_D-*%
X125900000Y-99420000D03*
%TD*%
D25*
%TO.P,C28,1*%
%TO.N,Net-(U7-VCP)*%
X189500000Y-113500000D03*
%TO.P,C28,2*%
%TO.N,+12V*%
X191050000Y-113500000D03*
%TD*%
D16*
%TO.P,R39,1*%
%TO.N,GND*%
X208205000Y-123412500D03*
%TO.P,R39,2*%
%TO.N,Net-(U8-SENSE2)*%
X208205000Y-121587500D03*
%TD*%
D15*
%TO.P,C80,1*%
%TO.N,+3V3*%
X161365000Y-66975000D03*
%TO.P,C80,2*%
%TO.N,GND*%
X161365000Y-68525000D03*
%TD*%
D40*
%TO.P,R79,1*%
%TO.N,Net-(U16-FB)*%
X242750000Y-109250000D03*
%TO.P,R79,2*%
%TO.N,Net-(D7-PadA)*%
X244575000Y-109250000D03*
%TD*%
D21*
%TO.P,C45,1*%
%TO.N,Net-(U9-CP2)*%
X236300000Y-116151000D03*
%TO.P,C45,2*%
%TO.N,Net-(U9-CP1)*%
X234750000Y-116151000D03*
%TD*%
D40*
%TO.P,R34,1*%
%TO.N,GND*%
X226337500Y-108651000D03*
%TO.P,R34,2*%
%TO.N,Net-(U9-ROSC)*%
X228162500Y-108651000D03*
%TD*%
D44*
%TO.P,D4,1,K1*%
%TO.N,/USB_D+*%
X101800000Y-99300000D03*
%TO.P,D4,2,K2*%
%TO.N,GND*%
X101800000Y-100000000D03*
%TD*%
D16*
%TO.P,R113,1*%
%TO.N,Net-(U15-REF)*%
X113200000Y-65402500D03*
%TO.P,R113,2*%
%TO.N,GND*%
X113200000Y-63577500D03*
%TD*%
D15*
%TO.P,C90,1*%
%TO.N,+3V3*%
X144070000Y-66975000D03*
%TO.P,C90,2*%
%TO.N,GND*%
X144070000Y-68525000D03*
%TD*%
D42*
%TO.P,TP9,1,1*%
%TO.N,/OUT1A1*%
X106200000Y-127500000D03*
%TD*%
D17*
%TO.P,R57,1*%
%TO.N,GND*%
X229115000Y-57337500D03*
%TO.P,R57,2*%
%TO.N,Net-(U10-SENSE1)*%
X229115000Y-59162500D03*
%TD*%
D22*
%TO.P,C32,1*%
%TO.N,+3V3*%
X181500000Y-113025000D03*
%TO.P,C32,2*%
%TO.N,GND*%
X181500000Y-111475000D03*
%TD*%
D16*
%TO.P,R78,1*%
%TO.N,Net-(U11-REF)*%
X209115000Y-65137500D03*
%TO.P,R78,2*%
%TO.N,GND*%
X209115000Y-63312500D03*
%TD*%
D25*
%TO.P,C57,1*%
%TO.N,+12V*%
X230590000Y-61250000D03*
%TO.P,C57,2*%
%TO.N,GND*%
X232140000Y-61250000D03*
%TD*%
D22*
%TO.P,C54,1*%
%TO.N,+12V*%
X224865000Y-61275000D03*
%TO.P,C54,2*%
%TO.N,GND*%
X224865000Y-59725000D03*
%TD*%
D16*
%TO.P,R100,1*%
%TO.N,GND*%
X226365000Y-71162500D03*
%TO.P,R100,2*%
%TO.N,Net-(U10-MS1)*%
X226365000Y-69337500D03*
%TD*%
D22*
%TO.P,C94,1*%
%TO.N,+12V*%
X104700000Y-61515000D03*
%TO.P,C94,2*%
%TO.N,GND*%
X104700000Y-59965000D03*
%TD*%
D21*
%TO.P,C21,1*%
%TO.N,Net-(U6-CP2)*%
X168550000Y-115750000D03*
%TO.P,C21,2*%
%TO.N,Net-(U6-CP1)*%
X167000000Y-115750000D03*
%TD*%
D25*
%TO.P,C47,1*%
%TO.N,Net-(U9-VREG)*%
X233475000Y-112651000D03*
%TO.P,C47,2*%
%TO.N,GND*%
X235025000Y-112651000D03*
%TD*%
D16*
%TO.P,R36,1*%
%TO.N,+3V3*%
X177500000Y-116662500D03*
%TO.P,R36,2*%
%TO.N,Net-(U7-REF)*%
X177500000Y-114837500D03*
%TD*%
D25*
%TO.P,C31,1*%
%TO.N,Net-(U7-VREG)*%
X188225000Y-111750000D03*
%TO.P,C31,2*%
%TO.N,GND*%
X189775000Y-111750000D03*
%TD*%
D21*
%TO.P,C33,1*%
%TO.N,+12V*%
X182275000Y-118750000D03*
%TO.P,C33,2*%
%TO.N,GND*%
X180725000Y-118750000D03*
%TD*%
D25*
%TO.P,C20,1*%
%TO.N,Net-(U6-VCP)*%
X167000000Y-114000000D03*
%TO.P,C20,2*%
%TO.N,+12V*%
X168550000Y-114000000D03*
%TD*%
D40*
%TO.P,R59,1*%
%TO.N,Net-(U10-~{SLEEP})*%
X229952500Y-70250000D03*
%TO.P,R59,2*%
%TO.N,+3V3*%
X231777500Y-70250000D03*
%TD*%
D30*
%TO.P,C108,1*%
%TO.N,GND*%
X128200000Y-79620000D03*
%TO.P,C108,2*%
%TO.N,+3V3*%
X128200000Y-80580000D03*
%TD*%
D21*
%TO.P,C87,1*%
%TO.N,Net-(U14-VREG)*%
X131345000Y-68250000D03*
%TO.P,C87,2*%
%TO.N,GND*%
X129795000Y-68250000D03*
%TD*%
D18*
%TO.P,R19,1*%
%TO.N,Net-(U5-~{SLEEP})*%
X136207500Y-110250000D03*
%TO.P,R19,2*%
%TO.N,+3V3*%
X134382500Y-110250000D03*
%TD*%
%TO.P,R6,1*%
%TO.N,Net-(U4-~{SLEEP})*%
X112662500Y-110750000D03*
%TO.P,R6,2*%
%TO.N,+3V3*%
X110837500Y-110750000D03*
%TD*%
D15*
%TO.P,C46,1*%
%TO.N,+12V*%
X233250000Y-119626000D03*
%TO.P,C46,2*%
%TO.N,GND*%
X233250000Y-121176000D03*
%TD*%
D21*
%TO.P,C5,1*%
%TO.N,Net-(U4-CP2)*%
X120800000Y-116250000D03*
%TO.P,C5,2*%
%TO.N,Net-(U4-CP1)*%
X119250000Y-116250000D03*
%TD*%
D19*
%TO.P,C102,1*%
%TO.N,GND*%
X135960000Y-92100000D03*
%TO.P,C102,2*%
%TO.N,+3V3*%
X135000000Y-92100000D03*
%TD*%
D16*
%TO.P,R8,1*%
%TO.N,GND*%
X116000000Y-123662500D03*
%TO.P,R8,2*%
%TO.N,Net-(U4-SENSE2)*%
X116000000Y-121837500D03*
%TD*%
D15*
%TO.P,C72,1*%
%TO.N,+3V3*%
X184160000Y-66975000D03*
%TO.P,C72,2*%
%TO.N,GND*%
X184160000Y-68525000D03*
%TD*%
D16*
%TO.P,R108,1*%
%TO.N,GND*%
X179160000Y-71162500D03*
%TO.P,R108,2*%
%TO.N,Net-(U12-MS1)*%
X179160000Y-69337500D03*
%TD*%
D40*
%TO.P,R103,1*%
%TO.N,Net-(U14-~{SLEEP})*%
X136657500Y-70250000D03*
%TO.P,R103,2*%
%TO.N,+3V3*%
X138482500Y-70250000D03*
%TD*%
%TO.P,R16,1*%
%TO.N,GND*%
X110837500Y-108750000D03*
%TO.P,R16,2*%
%TO.N,Net-(U4-ROSC)*%
X112662500Y-108750000D03*
%TD*%
D25*
%TO.P,C9,1*%
%TO.N,Net-(U4-VCP)*%
X119250000Y-114500000D03*
%TO.P,C9,2*%
%TO.N,+12V*%
X120800000Y-114500000D03*
%TD*%
D13*
%TO.P,J27,1,1*%
%TO.N,/OUT1A11*%
X138980000Y-51362500D03*
D14*
%TO.P,J27,2,2*%
%TO.N,/OUT1B11*%
X136440000Y-51362500D03*
%TO.P,J27,3,3*%
%TO.N,/OUT2A11*%
X133900000Y-51362500D03*
%TO.P,J27,4,4*%
%TO.N,/OUT2B11*%
X131360000Y-51362500D03*
%TO.P,J27,5,5*%
%TO.N,+3V3*%
X128820000Y-51362500D03*
%TD*%
D49*
%TO.P,L1,1,1*%
%TO.N,+1V1*%
X123700000Y-96685000D03*
%TO.P,L1,2,2*%
%TO.N,Net-(U1-VREG_LX)*%
X123700000Y-95715000D03*
%TD*%
D17*
%TO.P,R63,1*%
%TO.N,GND*%
X202365000Y-57312500D03*
%TO.P,R63,2*%
%TO.N,Net-(U11-SENSE2)*%
X202365000Y-59137500D03*
%TD*%
%TO.P,R64,1*%
%TO.N,GND*%
X116250000Y-109837500D03*
%TO.P,R64,2*%
%TO.N,Net-(U4-MS1)*%
X116250000Y-111662500D03*
%TD*%
D42*
%TO.P,TP1,1,1*%
%TO.N,Net-(U16-FB)*%
X243250000Y-112250000D03*
%TD*%
D25*
%TO.P,C15,1*%
%TO.N,Net-(U5-VREG)*%
X141520000Y-112250000D03*
%TO.P,C15,2*%
%TO.N,GND*%
X143070000Y-112250000D03*
%TD*%
D17*
%TO.P,R83,1*%
%TO.N,GND*%
X179410000Y-57337500D03*
%TO.P,R83,2*%
%TO.N,Net-(U12-SENSE2)*%
X179410000Y-59162500D03*
%TD*%
D15*
%TO.P,C64,1*%
%TO.N,+3V3*%
X207115000Y-66950000D03*
%TO.P,C64,2*%
%TO.N,GND*%
X207115000Y-68500000D03*
%TD*%
D25*
%TO.P,C77,1*%
%TO.N,Net-(U13-CP2)*%
X151815000Y-64750000D03*
%TO.P,C77,2*%
%TO.N,Net-(U13-CP1)*%
X153365000Y-64750000D03*
%TD*%
D17*
%TO.P,R69,1*%
%TO.N,Net-(C4-Pad2)*%
X123902000Y-72012500D03*
%TO.P,R69,2*%
%TO.N,/XOUT*%
X123902000Y-73837500D03*
%TD*%
D13*
%TO.P,J28,1,1*%
%TO.N,/OUT1A6*%
X226280000Y-131300000D03*
D14*
%TO.P,J28,2,2*%
%TO.N,/OUT1B6*%
X228820000Y-131300000D03*
%TO.P,J28,3,3*%
%TO.N,/OUT2A6*%
X231360000Y-131300000D03*
%TO.P,J28,4,4*%
%TO.N,/OUT2B6*%
X233900000Y-131300000D03*
%TO.P,J28,5,5*%
%TO.N,+3V3*%
X236440000Y-131300000D03*
%TD*%
D22*
%TO.P,C48,1*%
%TO.N,+3V3*%
X226750000Y-113926000D03*
%TO.P,C48,2*%
%TO.N,GND*%
X226750000Y-112376000D03*
%TD*%
D21*
%TO.P,C29,1*%
%TO.N,Net-(U7-CP2)*%
X191050000Y-115250000D03*
%TO.P,C29,2*%
%TO.N,Net-(U7-CP1)*%
X189500000Y-115250000D03*
%TD*%
D31*
%TO.P,C4,1*%
%TO.N,GND*%
X125377000Y-73180000D03*
%TO.P,C4,2*%
%TO.N,Net-(C4-Pad2)*%
X125377000Y-72220000D03*
%TD*%
D21*
%TO.P,C92,1*%
%TO.N,Net-(U15-VCP)*%
X103200000Y-66740000D03*
%TO.P,C92,2*%
%TO.N,+12V*%
X101650000Y-66740000D03*
%TD*%
D22*
%TO.P,C51,1*%
%TO.N,+12V*%
X223250000Y-121426000D03*
%TO.P,C51,2*%
%TO.N,GND*%
X223250000Y-119876000D03*
%TD*%
D17*
%TO.P,R109,1*%
%TO.N,GND*%
X108950000Y-57577500D03*
%TO.P,R109,2*%
%TO.N,Net-(U15-SENSE1)*%
X108950000Y-59402500D03*
%TD*%
D15*
%TO.P,C82,1*%
%TO.N,+3V3*%
X167365000Y-66975000D03*
%TO.P,C82,2*%
%TO.N,GND*%
X167365000Y-68525000D03*
%TD*%
D18*
%TO.P,R50,1*%
%TO.N,GND*%
X161777500Y-72250000D03*
%TO.P,R50,2*%
%TO.N,Net-(U13-ROSC)*%
X159952500Y-72250000D03*
%TD*%
D15*
%TO.P,C58,1*%
%TO.N,+3V3*%
X237365000Y-66975000D03*
%TO.P,C58,2*%
%TO.N,GND*%
X237365000Y-68525000D03*
%TD*%
D50*
%TO.P,J3,1,1*%
%TO.N,/EXT_GPIO0*%
X96600000Y-81772500D03*
%TO.P,J3,2,2*%
%TO.N,/EXT_GPIO10*%
X100500000Y-81772500D03*
%TO.P,J3,3,3*%
%TO.N,/EXT_GPIO1*%
X96600000Y-83042500D03*
%TO.P,J3,4,4*%
%TO.N,/EXT_GPIO11*%
X100500000Y-83042500D03*
%TO.P,J3,5,5*%
%TO.N,/EXT_GPIO2*%
X96600000Y-84312500D03*
%TO.P,J3,6,6*%
%TO.N,/EXT_GPIO12*%
X100500000Y-84312500D03*
%TO.P,J3,7,7*%
%TO.N,/EXT_GPIO3*%
X96600000Y-85582500D03*
%TO.P,J3,8,8*%
%TO.N,/EXT_GPIO13*%
X100500000Y-85582500D03*
%TO.P,J3,9,9*%
%TO.N,/EXT_GPIO4*%
X96600000Y-86852500D03*
%TO.P,J3,10,10*%
%TO.N,/EXT_GPIO14*%
X100500000Y-86852500D03*
%TO.P,J3,11,11*%
%TO.N,/EXT_GPIO5*%
X96600000Y-88122500D03*
%TO.P,J3,12,12*%
%TO.N,/EXT_GPIO15*%
X100500000Y-88122500D03*
%TO.P,J3,13,13*%
%TO.N,/EXT_GPIO6*%
X96600000Y-89392500D03*
%TO.P,J3,14,14*%
%TO.N,/EXT_GPIO16*%
X100500000Y-89392500D03*
%TO.P,J3,15,15*%
%TO.N,/EXT_GPIO7*%
X96600000Y-90662500D03*
%TO.P,J3,16,16*%
%TO.N,/EXT_GPIO17*%
X100500000Y-90662500D03*
%TO.P,J3,17,17*%
%TO.N,/EXT_GPIO8*%
X96600000Y-91932500D03*
%TO.P,J3,18,18*%
%TO.N,/USB_D+*%
X100500000Y-91932500D03*
%TO.P,J3,19,19*%
%TO.N,/EXT_GPIO9*%
X96600000Y-93202500D03*
%TO.P,J3,20,20*%
%TO.N,/USB_D-*%
X100500000Y-93202500D03*
%TD*%
D16*
%TO.P,R49,1*%
%TO.N,GND*%
X229000000Y-123563500D03*
%TO.P,R49,2*%
%TO.N,Net-(U9-SENSE1)*%
X229000000Y-121738500D03*
%TD*%
D40*
%TO.P,R24,1*%
%TO.N,GND*%
X158587500Y-108250000D03*
%TO.P,R24,2*%
%TO.N,Net-(U6-ROSC)*%
X160412500Y-108250000D03*
%TD*%
D17*
%TO.P,R30,1*%
%TO.N,GND*%
X193000000Y-114337500D03*
%TO.P,R30,2*%
%TO.N,Net-(U7-~{ENABLE})*%
X193000000Y-116162500D03*
%TD*%
D51*
%TO.P,J14,1,1*%
%TO.N,unconnected-(J14-Pad1)*%
X98400000Y-97600000D03*
%TO.P,J14,2,2*%
%TO.N,/USB_D-*%
X98400000Y-98250000D03*
%TO.P,J14,3,3*%
%TO.N,/USB_D+*%
X98400000Y-98900000D03*
%TO.P,J14,4,4*%
%TO.N,unconnected-(J14-Pad4)*%
X98400000Y-99550000D03*
%TO.P,J14,5,5*%
%TO.N,GND*%
X98400000Y-100200000D03*
D52*
%TO.P,J14,SH1,SHIELD*%
%TO.N,unconnected-(J14-SHIELD-PadSH1)*%
X98175000Y-95700000D03*
%TO.P,J14,SH2,SHIELD*%
%TO.N,unconnected-(J14-SHIELD-PadSH1)_2*%
X98175000Y-102100000D03*
D53*
%TO.P,J14,SH3,SHIELD*%
%TO.N,unconnected-(J14-SHIELD-PadSH1)_5*%
X95725000Y-102325000D03*
D54*
%TO.P,J14,SH4,SHIELD*%
%TO.N,unconnected-(J14-SHIELD-PadSH1)_4*%
X95725000Y-100100000D03*
%TO.P,J14,SH5,SHIELD*%
%TO.N,unconnected-(J14-SHIELD-PadSH1)_1*%
X95725000Y-97700000D03*
D53*
%TO.P,J14,SH6,SHIELD*%
%TO.N,unconnected-(J14-SHIELD-PadSH1)_3*%
X95725000Y-95475000D03*
%TD*%
D19*
%TO.P,C100,1*%
%TO.N,GND*%
X136180000Y-87000000D03*
%TO.P,C100,2*%
%TO.N,+3V3*%
X135220000Y-87000000D03*
%TD*%
D15*
%TO.P,C99,1*%
%TO.N,+12V*%
X114700000Y-59715000D03*
%TO.P,C99,2*%
%TO.N,GND*%
X114700000Y-61265000D03*
%TD*%
D22*
%TO.P,C18,1*%
%TO.N,+3V3*%
X128795000Y-113525000D03*
%TO.P,C18,2*%
%TO.N,GND*%
X128795000Y-111975000D03*
%TD*%
D16*
%TO.P,R23,1*%
%TO.N,GND*%
X163750000Y-123162500D03*
%TO.P,R23,2*%
%TO.N,Net-(U6-SENSE2)*%
X163750000Y-121337500D03*
%TD*%
D17*
%TO.P,R21,1*%
%TO.N,Net-(U5-REF)*%
X132795000Y-115337500D03*
%TO.P,R21,2*%
%TO.N,GND*%
X132795000Y-117162500D03*
%TD*%
D16*
%TO.P,R81,1*%
%TO.N,GND*%
X172660000Y-65662500D03*
%TO.P,R81,2*%
%TO.N,Net-(U12-~{ENABLE})*%
X172660000Y-63837500D03*
%TD*%
D17*
%TO.P,R46,1*%
%TO.N,GND*%
X238250000Y-115238500D03*
%TO.P,R46,2*%
%TO.N,Net-(U9-~{ENABLE})*%
X238250000Y-117063500D03*
%TD*%
D39*
%TO.P,R82,1*%
%TO.N,Net-(U1-GPIO29)*%
X115710000Y-83900000D03*
%TO.P,R82,2*%
%TO.N,Net-(D6-PadA)*%
X114690000Y-83900000D03*
%TD*%
D15*
%TO.P,C38,1*%
%TO.N,+12V*%
X209955000Y-119475000D03*
%TO.P,C38,2*%
%TO.N,GND*%
X209955000Y-121025000D03*
%TD*%
D16*
%TO.P,R61,1*%
%TO.N,Net-(U10-REF)*%
X233365000Y-65162500D03*
%TO.P,R61,2*%
%TO.N,GND*%
X233365000Y-63337500D03*
%TD*%
D17*
%TO.P,R84,1*%
%TO.N,GND*%
X164000000Y-109337500D03*
%TO.P,R84,2*%
%TO.N,Net-(U6-MS1)*%
X164000000Y-111162500D03*
%TD*%
D19*
%TO.P,C110,1*%
%TO.N,GND*%
X135660000Y-89800000D03*
%TO.P,C110,2*%
%TO.N,+1V1*%
X134700000Y-89800000D03*
%TD*%
D22*
%TO.P,C115,1*%
%TO.N,+12V*%
X235500000Y-100050000D03*
%TO.P,C115,2*%
%TO.N,GND*%
X235500000Y-98500000D03*
%TD*%
D21*
%TO.P,C71,1*%
%TO.N,Net-(U12-VREG)*%
X177435000Y-68250000D03*
%TO.P,C71,2*%
%TO.N,GND*%
X175885000Y-68250000D03*
%TD*%
D16*
%TO.P,R105,1*%
%TO.N,Net-(U14-REF)*%
X140070000Y-65162500D03*
%TO.P,R105,2*%
%TO.N,GND*%
X140070000Y-63337500D03*
%TD*%
D40*
%TO.P,R5,1*%
%TO.N,Net-(R5-Pad1)*%
X116987500Y-80900000D03*
%TO.P,R5,2*%
%TO.N,Net-(U1-RUN)*%
X118812500Y-80900000D03*
%TD*%
D25*
%TO.P,C39,1*%
%TO.N,Net-(U8-VREG)*%
X210180000Y-112500000D03*
%TO.P,C39,2*%
%TO.N,GND*%
X211730000Y-112500000D03*
%TD*%
D17*
%TO.P,R65,1*%
%TO.N,GND*%
X204865000Y-57312500D03*
%TO.P,R65,2*%
%TO.N,Net-(U11-SENSE1)*%
X204865000Y-59137500D03*
%TD*%
%TO.P,R104,1*%
%TO.N,+3V3*%
X142070000Y-63337500D03*
%TO.P,R104,2*%
%TO.N,Net-(U14-REF)*%
X142070000Y-65162500D03*
%TD*%
D21*
%TO.P,C13,1*%
%TO.N,Net-(U5-CP2)*%
X144345000Y-115750000D03*
%TO.P,C13,2*%
%TO.N,Net-(U5-CP1)*%
X142795000Y-115750000D03*
%TD*%
D40*
%TO.P,R95,1*%
%TO.N,Net-(U13-~{SLEEP})*%
X159952500Y-70250000D03*
%TO.P,R95,2*%
%TO.N,+3V3*%
X161777500Y-70250000D03*
%TD*%
D15*
%TO.P,C30,1*%
%TO.N,+12V*%
X188000000Y-118725000D03*
%TO.P,C30,2*%
%TO.N,GND*%
X188000000Y-120275000D03*
%TD*%
D55*
%TO.P,D6,A*%
%TO.N,Net-(D6-PadA)*%
X111350000Y-85400000D03*
%TO.P,D6,C*%
%TO.N,GND*%
X109850000Y-85400000D03*
%TD*%
D25*
%TO.P,C53,1*%
%TO.N,Net-(U10-CP2)*%
X221815000Y-64750000D03*
%TO.P,C53,2*%
%TO.N,Net-(U10-CP1)*%
X223365000Y-64750000D03*
%TD*%
D17*
%TO.P,R60,1*%
%TO.N,+3V3*%
X235365000Y-63337500D03*
%TO.P,R60,2*%
%TO.N,Net-(U10-REF)*%
X235365000Y-65162500D03*
%TD*%
D16*
%TO.P,R106,1*%
%TO.N,GND*%
X99700000Y-65902500D03*
%TO.P,R106,2*%
%TO.N,Net-(U15-~{ENABLE})*%
X99700000Y-64077500D03*
%TD*%
D34*
%TO.P,R74,1*%
%TO.N,/In2*%
X142490000Y-83300000D03*
%TO.P,R74,2*%
%TO.N,+3V3*%
X143510000Y-83300000D03*
%TD*%
D17*
%TO.P,R14,1*%
%TO.N,GND*%
X146295000Y-114837500D03*
%TO.P,R14,2*%
%TO.N,Net-(U5-~{ENABLE})*%
X146295000Y-116662500D03*
%TD*%
D56*
%TO.P,J1,01,01*%
%TO.N,/12V_IN*%
X242390000Y-71400000D03*
D57*
%TO.P,J1,02,02*%
%TO.N,GND*%
X246200000Y-71400000D03*
%TD*%
D16*
%TO.P,R15,1*%
%TO.N,GND*%
X139545000Y-123162500D03*
%TO.P,R15,2*%
%TO.N,Net-(U5-SENSE2)*%
X139545000Y-121337500D03*
%TD*%
D33*
%TO.P,C105,1*%
%TO.N,GND*%
X119740000Y-93000000D03*
%TO.P,C105,2*%
%TO.N,+3V3*%
X120700000Y-93000000D03*
%TD*%
D13*
%TO.P,J23,1,1*%
%TO.N,/OUT1A9*%
X186540000Y-51300000D03*
D14*
%TO.P,J23,2,2*%
%TO.N,/OUT1B9*%
X184000000Y-51300000D03*
%TO.P,J23,3,3*%
%TO.N,/OUT2A9*%
X181460000Y-51300000D03*
%TO.P,J23,4,4*%
%TO.N,/OUT2B9*%
X178920000Y-51300000D03*
%TO.P,J23,5,5*%
%TO.N,+3V3*%
X176380000Y-51300000D03*
%TD*%
D16*
%TO.P,R28,1*%
%TO.N,+3V3*%
X155000000Y-117162500D03*
%TO.P,R28,2*%
%TO.N,Net-(U6-REF)*%
X155000000Y-115337500D03*
%TD*%
D13*
%TO.P,J21,1,1*%
%TO.N,/OUT1A8*%
X210140000Y-51300000D03*
D14*
%TO.P,J21,2,2*%
%TO.N,/OUT1B8*%
X207600000Y-51300000D03*
%TO.P,J21,3,3*%
%TO.N,/OUT2A8*%
X205060000Y-51300000D03*
%TO.P,J21,4,4*%
%TO.N,/OUT2B8*%
X202520000Y-51300000D03*
%TO.P,J21,5,5*%
%TO.N,+3V3*%
X199980000Y-51300000D03*
%TD*%
D18*
%TO.P,R35,1*%
%TO.N,Net-(U7-~{SLEEP})*%
X182912500Y-109750000D03*
%TO.P,R35,2*%
%TO.N,+3V3*%
X181087500Y-109750000D03*
%TD*%
D58*
%TO.P,U16,1,VIN*%
%TO.N,+12V*%
X237345000Y-103700000D03*
%TO.P,U16,2,OUTPUT*%
%TO.N,Net-(D1-K)*%
X238615000Y-103700000D03*
%TO.P,U16,3,FB*%
%TO.N,Net-(U16-FB)*%
X239885000Y-103700000D03*
%TO.P,U16,4,SD*%
%TO.N,GND*%
X241155000Y-103700000D03*
%TO.P,U16,5,GND*%
X241155000Y-98300000D03*
%TO.P,U16,6,GND@1*%
X239885000Y-98300000D03*
%TO.P,U16,7,GND@2*%
X238615000Y-98300000D03*
%TO.P,U16,8,GND@3*%
X237345000Y-98300000D03*
%TD*%
D18*
%TO.P,R4,1*%
%TO.N,Net-(R4-Pad1)*%
X145600000Y-91900000D03*
%TO.P,R4,2*%
%TO.N,/QSPI_SS*%
X143775000Y-91900000D03*
%TD*%
D16*
%TO.P,R41,1*%
%TO.N,GND*%
X205705000Y-123412500D03*
%TO.P,R41,2*%
%TO.N,Net-(U8-SENSE1)*%
X205705000Y-121587500D03*
%TD*%
D17*
%TO.P,R91,1*%
%TO.N,GND*%
X156615000Y-57337500D03*
%TO.P,R91,2*%
%TO.N,Net-(U13-SENSE2)*%
X156615000Y-59162500D03*
%TD*%
%TO.P,R99,1*%
%TO.N,GND*%
X133320000Y-57337500D03*
%TO.P,R99,2*%
%TO.N,Net-(U14-SENSE2)*%
X133320000Y-59162500D03*
%TD*%
D15*
%TO.P,C91,1*%
%TO.N,+12V*%
X141570000Y-59475000D03*
%TO.P,C91,2*%
%TO.N,GND*%
X141570000Y-61025000D03*
%TD*%
D21*
%TO.P,C84,1*%
%TO.N,Net-(U14-VCP)*%
X130070000Y-66500000D03*
%TO.P,C84,2*%
%TO.N,+12V*%
X128520000Y-66500000D03*
%TD*%
D40*
%TO.P,R3,1*%
%TO.N,/QSPI_SS*%
X142975000Y-95700000D03*
%TO.P,R3,2*%
%TO.N,Net-(U3-{slash}CS)*%
X144800000Y-95700000D03*
%TD*%
D17*
%TO.P,R66,1*%
%TO.N,GND*%
X139795000Y-109337500D03*
%TO.P,R66,2*%
%TO.N,Net-(U5-MS1)*%
X139795000Y-111162500D03*
%TD*%
D16*
%TO.P,R115,1*%
%TO.N,GND*%
X106200000Y-71402500D03*
%TO.P,R115,2*%
%TO.N,Net-(U15-MS1)*%
X106200000Y-69577500D03*
%TD*%
D22*
%TO.P,C62,1*%
%TO.N,+12V*%
X200615000Y-61250000D03*
%TO.P,C62,2*%
%TO.N,GND*%
X200615000Y-59700000D03*
%TD*%
D25*
%TO.P,C65,1*%
%TO.N,+12V*%
X206340000Y-61225000D03*
%TO.P,C65,2*%
%TO.N,GND*%
X207890000Y-61225000D03*
%TD*%
D16*
%TO.P,R47,1*%
%TO.N,GND*%
X231500000Y-123563500D03*
%TO.P,R47,2*%
%TO.N,Net-(U9-SENSE2)*%
X231500000Y-121738500D03*
%TD*%
D15*
%TO.P,C74,1*%
%TO.N,+3V3*%
X190160000Y-66975000D03*
%TO.P,C74,2*%
%TO.N,GND*%
X190160000Y-68525000D03*
%TD*%
D25*
%TO.P,C85,1*%
%TO.N,Net-(U14-CP2)*%
X128520000Y-64750000D03*
%TO.P,C85,2*%
%TO.N,Net-(U14-CP1)*%
X130070000Y-64750000D03*
%TD*%
D17*
%TO.P,R13,1*%
%TO.N,GND*%
X122750000Y-115337500D03*
%TO.P,R13,2*%
%TO.N,Net-(U4-~{ENABLE})*%
X122750000Y-117162500D03*
%TD*%
D21*
%TO.P,C41,1*%
%TO.N,+12V*%
X204230000Y-119500000D03*
%TO.P,C41,2*%
%TO.N,GND*%
X202680000Y-119500000D03*
%TD*%
D17*
%TO.P,R38,1*%
%TO.N,GND*%
X214955000Y-115087500D03*
%TO.P,R38,2*%
%TO.N,Net-(U8-~{ENABLE})*%
X214955000Y-116912500D03*
%TD*%
D25*
%TO.P,C23,1*%
%TO.N,Net-(U6-VREG)*%
X165725000Y-112250000D03*
%TO.P,C23,2*%
%TO.N,GND*%
X167275000Y-112250000D03*
%TD*%
D40*
%TO.P,R18,1*%
%TO.N,GND*%
X134382500Y-108250000D03*
%TO.P,R18,2*%
%TO.N,Net-(U5-ROSC)*%
X136207500Y-108250000D03*
%TD*%
D22*
%TO.P,C42,1*%
%TO.N,+3V3*%
X197455000Y-113775000D03*
%TO.P,C42,2*%
%TO.N,GND*%
X197455000Y-112225000D03*
%TD*%
D15*
%TO.P,C83,1*%
%TO.N,+12V*%
X164865000Y-59475000D03*
%TO.P,C83,2*%
%TO.N,GND*%
X164865000Y-61025000D03*
%TD*%
D16*
%TO.P,R31,1*%
%TO.N,GND*%
X186250000Y-122662500D03*
%TO.P,R31,2*%
%TO.N,Net-(U7-SENSE2)*%
X186250000Y-120837500D03*
%TD*%
D17*
%TO.P,R88,1*%
%TO.N,+3V3*%
X188160000Y-63337500D03*
%TO.P,R88,2*%
%TO.N,Net-(U12-REF)*%
X188160000Y-65162500D03*
%TD*%
D59*
%TO.P,R75,1*%
%TO.N,/In3*%
X136245000Y-80420000D03*
%TO.P,R75,2*%
%TO.N,+3V3*%
X136245000Y-79400000D03*
%TD*%
D21*
%TO.P,C95,1*%
%TO.N,Net-(U15-VREG)*%
X104475000Y-68490000D03*
%TO.P,C95,2*%
%TO.N,GND*%
X102925000Y-68490000D03*
%TD*%
D60*
%TO.N,GND*%
X104142500Y-58695000D03*
X185000000Y-122500000D03*
X113200000Y-61490000D03*
X200455000Y-111500000D03*
X98450000Y-64900000D03*
X224750000Y-119651000D03*
X203115000Y-64725000D03*
X148615000Y-64500000D03*
X171750000Y-115500000D03*
X233365000Y-61250000D03*
X128300000Y-100200000D03*
X203600000Y-57000000D03*
X200115000Y-70225000D03*
X119666341Y-84432245D03*
X138295000Y-123000000D03*
X107700000Y-84300000D03*
X115250000Y-116250000D03*
X141070000Y-69250000D03*
X216072500Y-115662500D03*
X180160000Y-64750000D03*
X179500000Y-118750000D03*
X107700000Y-57740000D03*
X117700000Y-89000000D03*
X194365000Y-64975000D03*
X133800000Y-98301000D03*
X157000000Y-119250000D03*
X209115000Y-61225000D03*
X148600000Y-99000000D03*
X164365000Y-69250000D03*
X187160000Y-69250000D03*
X114750000Y-123500000D03*
X118250000Y-110750000D03*
X124000000Y-116000000D03*
X163365000Y-61250000D03*
X102400000Y-95900000D03*
X177160000Y-70250000D03*
X100200000Y-100400000D03*
X157500000Y-108250000D03*
X234365000Y-69250000D03*
X171410000Y-64700000D03*
X178500000Y-110750000D03*
X230750000Y-116151000D03*
X155700000Y-87600000D03*
X230250000Y-123401000D03*
X109250000Y-119750000D03*
X140070000Y-61250000D03*
X136300000Y-89800000D03*
X154307500Y-58705000D03*
X125320000Y-64900000D03*
X239750000Y-96750000D03*
X224365000Y-58680000D03*
X125325735Y-80074265D03*
X104200000Y-70490000D03*
X134070000Y-64750000D03*
X162500000Y-123000000D03*
X136900000Y-87000000D03*
X119800000Y-93700000D03*
X188500000Y-109750000D03*
X107200000Y-64990000D03*
X132800000Y-82000000D03*
X105000000Y-76600000D03*
X200115000Y-58475000D03*
X151300000Y-75800000D03*
X233750000Y-110651000D03*
X124000000Y-100100000D03*
X239322500Y-115813500D03*
X180660000Y-57500000D03*
X157865000Y-57500000D03*
X206955000Y-123250000D03*
X136800000Y-92300000D03*
X218865000Y-65000000D03*
X185500000Y-115250000D03*
X163000000Y-115750000D03*
X131070000Y-70250000D03*
X147412500Y-115662500D03*
X154365000Y-70250000D03*
X193912500Y-115162500D03*
X210115000Y-69225000D03*
X224365000Y-70250000D03*
X201455000Y-119500000D03*
X210455000Y-110500000D03*
X227865000Y-57500000D03*
X242500000Y-104000000D03*
X227365000Y-64750000D03*
X131795000Y-111250000D03*
X151600000Y-77800000D03*
X141795000Y-110250000D03*
X134570000Y-57500000D03*
X127900000Y-78700000D03*
X138795000Y-115750000D03*
X131057500Y-58705000D03*
X207455000Y-116000000D03*
X156000000Y-111250000D03*
X114200000Y-69490000D03*
X108250000Y-111750000D03*
X151200000Y-80000000D03*
X132795000Y-119250000D03*
X138400000Y-104300000D03*
X157365000Y-64750000D03*
X223750000Y-111651000D03*
X186160000Y-61250000D03*
X166000000Y-110250000D03*
%TO.N,/OUT1B1*%
X111600000Y-118200000D03*
X108600000Y-124200000D03*
%TO.N,/OUT2A1*%
X122500000Y-126500000D03*
X115600000Y-126500000D03*
X115650000Y-120000000D03*
%TO.N,/OUT1A1*%
X114600000Y-120800000D03*
X113600000Y-125700000D03*
%TO.N,/OUT1A2*%
X136900000Y-124700000D03*
X138395000Y-119500000D03*
%TO.N,/OUT2A2*%
X139300000Y-126100000D03*
X139195000Y-119900000D03*
%TO.N,/OUT1B2*%
X134900000Y-117600000D03*
%TO.N,/OUT2A3*%
X163600000Y-125600000D03*
X163400000Y-119600000D03*
%TO.N,/OUT1B3*%
X159300000Y-117600000D03*
%TO.N,/OUT1A3*%
X161100000Y-124800000D03*
X162500000Y-119900000D03*
%TO.N,/OUT2A4*%
X186000000Y-125000000D03*
X185900000Y-119100000D03*
%TO.N,/OUT1B4*%
X181800000Y-117200000D03*
%TO.N,/OUT1A4*%
X183500000Y-124600000D03*
X185000000Y-119600000D03*
%TO.N,/OUT1A5*%
X206900000Y-120200000D03*
X205500000Y-125600000D03*
%TO.N,/OUT1B5*%
X203700000Y-118000000D03*
%TO.N,/OUT2A5*%
X207900000Y-125700000D03*
X207855000Y-119700000D03*
%TO.N,/OUT1A6*%
X230146568Y-120352961D03*
X229300000Y-125000000D03*
%TO.N,/OUT1B6*%
X227100000Y-117900000D03*
%TO.N,/OUT2A6*%
X231150000Y-120000000D03*
X231200000Y-126100000D03*
%TO.N,/OUT1B7*%
X231100000Y-62800000D03*
%TO.N,/OUT2A7*%
X227000000Y-55000000D03*
X226965000Y-60800000D03*
%TO.N,/OUT1A7*%
X229400000Y-55700000D03*
X227860821Y-60674723D03*
%TO.N,/OUT1A8*%
X205600000Y-55700000D03*
X203600000Y-60500000D03*
%TO.N,/OUT1B8*%
X207100000Y-62700000D03*
%TO.N,/OUT2A8*%
X202600000Y-55700000D03*
X202715000Y-60800000D03*
%TO.N,/OUT1B9*%
X184000000Y-62800000D03*
%TO.N,/OUT2A9*%
X179700000Y-55700000D03*
X179760000Y-60600000D03*
%TO.N,/OUT1A9*%
X180700000Y-60500000D03*
X182600000Y-55600000D03*
%TO.N,/OUT1B10*%
X161000000Y-62900000D03*
%TO.N,/OUT1A10*%
X157860821Y-60674723D03*
X158600000Y-55300000D03*
%TO.N,/OUT2A10*%
X156965000Y-60700000D03*
X156900000Y-54700000D03*
%TO.N,/OUT1A11*%
X135700000Y-55400000D03*
X134564246Y-60677178D03*
%TO.N,/OUT2A11*%
X133670000Y-60900000D03*
X133500000Y-54800000D03*
%TO.N,/OUT1B11*%
X138000000Y-63200000D03*
%TO.N,/OUT1A12*%
X107700000Y-60800000D03*
X109100000Y-56000000D03*
%TO.N,/OUT1B12*%
X111100000Y-63300000D03*
%TO.N,/OUT2A12*%
X106800000Y-61100000D03*
X106800000Y-54400000D03*
%TO.N,+3V3*%
X134424265Y-86924265D03*
X196322500Y-113912500D03*
X214115000Y-66475000D03*
X145000000Y-67000000D03*
X121554725Y-92945675D03*
X180000000Y-109750000D03*
X128195261Y-81473760D03*
X201955000Y-110500000D03*
X219572500Y-114063500D03*
X118245000Y-66690000D03*
X157500000Y-110250000D03*
X130312500Y-82800000D03*
X121708698Y-85085504D03*
X130073988Y-95850241D03*
X162865000Y-70250000D03*
X144300000Y-83900000D03*
X225250000Y-110651000D03*
X133295000Y-110250000D03*
X127662500Y-113912500D03*
X134206196Y-92093804D03*
X109750000Y-110750000D03*
X120479438Y-88955691D03*
X138200000Y-102900000D03*
X174162500Y-113662500D03*
X185660000Y-70250000D03*
X126875191Y-97023306D03*
X139570000Y-70250000D03*
X151750000Y-113000000D03*
X238365000Y-66680000D03*
X185400000Y-67600000D03*
X119900000Y-99200000D03*
X112700000Y-70490000D03*
X232865000Y-70250000D03*
X124300000Y-97500000D03*
X156800000Y-96400000D03*
X135345000Y-79410000D03*
X208615000Y-70225000D03*
X168307500Y-66705000D03*
X104250000Y-114250000D03*
%TO.N,/DIR12*%
X111400000Y-64600000D03*
X131200000Y-80800000D03*
%TO.N,/DIR9*%
X140000000Y-85785232D03*
X184100000Y-64500000D03*
%TO.N,/DIR1*%
X111100000Y-116600000D03*
X128200000Y-104700000D03*
X133900000Y-97000000D03*
%TO.N,/DIR8*%
X207500000Y-64400000D03*
X138791092Y-86985232D03*
%TO.N,/EXT_GPIO1*%
X117300000Y-84300000D03*
X96400000Y-80100000D03*
%TO.N,/STEP1*%
X133300000Y-96400000D03*
X110100000Y-114625000D03*
X115600000Y-103600000D03*
%TO.N,/STEP6*%
X224100000Y-114600000D03*
X140303976Y-90205781D03*
%TO.N,/DIR6*%
X139000000Y-89700000D03*
X226700000Y-116600000D03*
%TO.N,/DIR2*%
X134300000Y-94400000D03*
X134600000Y-116200000D03*
%TO.N,/STEP10*%
X163100000Y-66375000D03*
X136600000Y-85028000D03*
%TO.N,/STEP4*%
X177600000Y-113700000D03*
X138300000Y-94000000D03*
%TO.N,/DIR3*%
X136700000Y-95400000D03*
X159100000Y-116200000D03*
%TO.N,/STEP11*%
X140300000Y-66375000D03*
X134500000Y-83500000D03*
%TO.N,/STEP8*%
X209100000Y-66350000D03*
X141300000Y-87700000D03*
%TO.N,/DIR7*%
X140400000Y-88100000D03*
X231400000Y-64500000D03*
%TO.N,/STEP7*%
X233100000Y-66375000D03*
X139300000Y-88700000D03*
%TO.N,/DIR5*%
X140400000Y-91000000D03*
X203300000Y-116400000D03*
%TO.N,/STEP12*%
X114100000Y-66600000D03*
X133700000Y-82200000D03*
%TO.N,/STEP9*%
X185700000Y-66375000D03*
X139400000Y-86385232D03*
%TO.N,/STEP3*%
X157300000Y-114125000D03*
X136000000Y-95900000D03*
%TO.N,/DIR4*%
X138000000Y-92400000D03*
X181600000Y-115600000D03*
%TO.N,/EXT_GPIO5*%
X113395836Y-84678014D03*
X98600000Y-86800000D03*
%TO.N,/STEP5*%
X139200000Y-91600000D03*
X200200000Y-114375000D03*
%TO.N,/STEP2*%
X134700000Y-114650000D03*
X135800000Y-97100000D03*
%TO.N,/DIR10*%
X161400000Y-64300000D03*
X135800000Y-84500000D03*
%TO.N,/DIR11*%
X138000000Y-64400000D03*
X134551470Y-82600000D03*
%TO.N,/EXT_GPIO4*%
X114184097Y-84814569D03*
X98700000Y-85500000D03*
%TO.N,/RESET_N*%
X107600000Y-70900000D03*
X117700000Y-83600000D03*
X129200000Y-75900000D03*
%TO.N,/EXT_GPIO6*%
X112850743Y-85263572D03*
X98500000Y-88400000D03*
%TO.N,/EXT_GPIO9*%
X111900000Y-87163862D03*
X98700000Y-93000000D03*
%TO.N,/EXT_GPIO3*%
X98700000Y-84100000D03*
X119100653Y-84997931D03*
%TO.N,/EXT_GPIO7*%
X112966637Y-86055135D03*
X98600000Y-90400000D03*
%TO.N,/EXT_GPIO8*%
X112632316Y-86781931D03*
X98700000Y-91700000D03*
%TO.N,/EXT_GPIO2*%
X116500000Y-84900000D03*
X98700000Y-80700000D03*
%TO.N,/GPIO0*%
X137900000Y-95600000D03*
X155600000Y-99900000D03*
%TO.N,/USB_D-*%
X107175000Y-95300000D03*
X105300000Y-98125000D03*
%TO.N,/USB_D+*%
X108025000Y-95300000D03*
X105300000Y-98975000D03*
%TO.N,+12V*%
X101600000Y-67900000D03*
X130000000Y-121000000D03*
X221700000Y-67600000D03*
X197500000Y-67700000D03*
X217300000Y-96800000D03*
X215500000Y-91600000D03*
X212100000Y-59200000D03*
X222800000Y-96500000D03*
X191500000Y-112200000D03*
X213500000Y-113000000D03*
X234400000Y-119600000D03*
X168700000Y-112800000D03*
X160600000Y-60100000D03*
X130300000Y-61300000D03*
X206400000Y-60200000D03*
X112000000Y-120800000D03*
X120900000Y-113300000D03*
X174600000Y-67600000D03*
X217300000Y-93200000D03*
X151800000Y-67500000D03*
X204200000Y-120700000D03*
X143070000Y-59250000D03*
X142500000Y-119200000D03*
X198800000Y-121300000D03*
X189300000Y-118700000D03*
X215500000Y-96800000D03*
X220600000Y-91400000D03*
X182200000Y-119900000D03*
X179200000Y-120500000D03*
X223500000Y-61300000D03*
X176400000Y-61300000D03*
X221000000Y-96000000D03*
X106500000Y-121500000D03*
X156800000Y-121000000D03*
X186500000Y-59500000D03*
X235400000Y-101300000D03*
X153600000Y-61300000D03*
X220400000Y-93800000D03*
X163700000Y-59500000D03*
X128200000Y-67900000D03*
X215400000Y-95000000D03*
X166600000Y-119200000D03*
X236800000Y-113300000D03*
X217300000Y-94900000D03*
X211200000Y-119400000D03*
X218600000Y-97600000D03*
X215400000Y-93200000D03*
X224500000Y-121400000D03*
X116200000Y-59490000D03*
X233700000Y-59500000D03*
X159800000Y-120400000D03*
X144400000Y-112800000D03*
X103200000Y-61500000D03*
X119000000Y-119700000D03*
X217300000Y-91600000D03*
X135600000Y-120400000D03*
X183400000Y-60200000D03*
X227200000Y-120900000D03*
X137300000Y-60200000D03*
X199400000Y-61200000D03*
X110500000Y-60300000D03*
X230600000Y-60100000D03*
%TD*%
D61*
%TO.N,/EXT_GPIO4*%
X98700000Y-85800000D02*
X98700000Y-85500000D01*
X97647500Y-86852500D02*
X96600000Y-86852500D01*
X98700000Y-85800000D02*
X97647500Y-86852500D01*
%TO.N,/EXT_GPIO5*%
X98600000Y-86942500D02*
X98600000Y-86800000D01*
X96600000Y-88122500D02*
X97420000Y-88122500D01*
X97420000Y-88122500D02*
X98600000Y-86942500D01*
%TO.N,/SWD*%
X121137500Y-68262500D02*
X121137500Y-57240000D01*
X118900000Y-70500000D02*
X121137500Y-68262500D01*
X118900000Y-76100000D02*
X118900000Y-70500000D01*
X126112500Y-83312500D02*
X118900000Y-76100000D01*
X126112500Y-84337500D02*
X126112500Y-83312500D01*
%TO.N,/SWCLK*%
X121860000Y-52160000D02*
X121137500Y-52160000D01*
X120100000Y-71600000D02*
X122500000Y-69200000D01*
X120100000Y-76836138D02*
X120100000Y-71600000D01*
X126512500Y-83248638D02*
X120100000Y-76836138D01*
X126512500Y-84337500D02*
X126512500Y-83248638D01*
X122500000Y-69200000D02*
X122500000Y-52800000D01*
X122500000Y-52800000D02*
X121860000Y-52160000D01*
%TO.N,/RESET_N*%
X189600000Y-73800000D02*
X189600000Y-103400000D01*
X208468840Y-103400000D02*
X189600000Y-103400000D01*
X189600000Y-73800000D02*
X202400000Y-73800000D01*
X156600000Y-73800000D02*
X179600000Y-73800000D01*
X188400000Y-103400000D02*
X165900000Y-103400000D01*
X225600000Y-103400000D02*
X230250000Y-108050000D01*
X208468840Y-103400000D02*
X225600000Y-103400000D01*
X189600000Y-103400000D02*
X188400000Y-103400000D01*
X206955000Y-104913840D02*
X208468840Y-103400000D01*
X206955000Y-113410000D02*
X206955000Y-104913840D01*
%TO.N,GND*%
X119698586Y-84400000D02*
X119666341Y-84432245D01*
X124600000Y-99380000D02*
X124600000Y-99500000D01*
X150800000Y-80400000D02*
X151200000Y-80000000D01*
X128000000Y-99500000D02*
X128000000Y-99380000D01*
X203777500Y-57177500D02*
X203600000Y-57000000D01*
X231250000Y-116651000D02*
X230750000Y-116151000D01*
X171410000Y-64795000D02*
X171410000Y-64700000D01*
X133070000Y-71162500D02*
X131982500Y-71162500D01*
X129420000Y-71900000D02*
X131070000Y-70250000D01*
X209542500Y-109587500D02*
X210455000Y-110500000D01*
X101800000Y-100000000D02*
X100600000Y-100000000D01*
X175885000Y-68975000D02*
X177160000Y-70250000D01*
X106500000Y-78100000D02*
X105000000Y-76600000D01*
X161250000Y-123162500D02*
X162337500Y-123162500D01*
X151540000Y-77860000D02*
X151600000Y-77800000D01*
X186160000Y-63337500D02*
X186160000Y-61250000D01*
X143070000Y-111525000D02*
X141795000Y-110250000D01*
X187534000Y-68376000D02*
X187160000Y-68750000D01*
X201027500Y-71137500D02*
X200115000Y-70225000D01*
X140882500Y-109337500D02*
X141795000Y-110250000D01*
X232140000Y-61250000D02*
X233365000Y-61250000D01*
X209115000Y-63312500D02*
X209115000Y-61225000D01*
X113975000Y-68765000D02*
X114200000Y-68990000D01*
X200615000Y-59062500D02*
X202365000Y-57312500D01*
X126900000Y-73500000D02*
X125402000Y-73500000D01*
X128927000Y-71900000D02*
X129100000Y-71900000D01*
X163750000Y-123162500D02*
X162662500Y-123162500D01*
X107750000Y-119975000D02*
X109025000Y-119975000D01*
X200455000Y-112000000D02*
X200455000Y-111500000D01*
X233250000Y-121176000D02*
X233250000Y-121813500D01*
X199955000Y-119725000D02*
X201230000Y-119725000D01*
X231750000Y-99550000D02*
X232800000Y-98500000D01*
X141444000Y-68376000D02*
X141070000Y-68750000D01*
X117750000Y-121275000D02*
X117750000Y-121912500D01*
X131570000Y-59725000D02*
X131570000Y-59087500D01*
X150820000Y-75320000D02*
X151300000Y-75800000D01*
X144070000Y-68525000D02*
X143921000Y-68376000D01*
X128795000Y-111975000D02*
X128944000Y-112124000D01*
X203455000Y-112225000D02*
X200680000Y-112225000D01*
X128200000Y-79000000D02*
X127900000Y-78700000D01*
X148700000Y-64500000D02*
X148615000Y-64500000D01*
X153090000Y-68250000D02*
X153090000Y-68975000D01*
X178072500Y-71162500D02*
X177160000Y-70250000D01*
X131982500Y-71162500D02*
X131070000Y-70250000D01*
X136600000Y-92100000D02*
X136800000Y-92300000D01*
X108950000Y-57577500D02*
X107862500Y-57577500D01*
X121740000Y-95400000D02*
X121000000Y-95400000D01*
X157000000Y-117162500D02*
X157000000Y-119250000D01*
X149110000Y-75320000D02*
X149110000Y-77860000D01*
X223376000Y-112525000D02*
X223750000Y-112151000D01*
X115250000Y-116250000D02*
X112660000Y-116250000D01*
X219527500Y-65662500D02*
X218865000Y-65000000D01*
X180497500Y-57337500D02*
X180660000Y-57500000D01*
X126905000Y-78825000D02*
X127775000Y-78825000D01*
X108250000Y-112250000D02*
X108250000Y-111750000D01*
X102925000Y-68490000D02*
X102925000Y-69215000D01*
X139545000Y-123162500D02*
X138457500Y-123162500D01*
X155277500Y-71162500D02*
X154365000Y-70250000D01*
X153149000Y-112124000D02*
X155626000Y-112124000D01*
X180160000Y-64750000D02*
X182750000Y-64750000D01*
X154400000Y-88900000D02*
X155700000Y-87600000D01*
X208205000Y-123412500D02*
X207117500Y-123412500D01*
X180725000Y-118750000D02*
X179500000Y-118750000D01*
X200081000Y-112374000D02*
X200455000Y-112000000D01*
X210115000Y-69637500D02*
X210115000Y-69225000D01*
X242875000Y-105375000D02*
X242750000Y-105250000D01*
X128200000Y-79620000D02*
X128200000Y-79000000D01*
X167216000Y-68376000D02*
X164739000Y-68376000D01*
X220750000Y-112376000D02*
X220899000Y-112525000D01*
X198840000Y-68950000D02*
X200115000Y-70225000D01*
X231777500Y-72250000D02*
X234365000Y-69662500D01*
X125991470Y-80740000D02*
X125325735Y-80074265D01*
X231500000Y-123563500D02*
X230412500Y-123563500D01*
X124600000Y-99500000D02*
X124000000Y-100100000D01*
X230750000Y-116151000D02*
X228160000Y-116151000D01*
X241155000Y-103700000D02*
X242200000Y-103700000D01*
X186000000Y-115750000D02*
X185500000Y-115250000D01*
X207115000Y-68500000D02*
X209890000Y-68500000D01*
X210045000Y-116500000D02*
X207955000Y-116500000D01*
X108250000Y-111337500D02*
X108250000Y-111750000D01*
X239885000Y-98300000D02*
X239885000Y-96885000D01*
X159000000Y-111975000D02*
X156225000Y-111975000D01*
X114574000Y-68616000D02*
X114200000Y-68990000D01*
X237365000Y-68525000D02*
X237216000Y-68376000D01*
X203452500Y-57147500D02*
X203600000Y-57000000D01*
X98700000Y-65240000D02*
X98700000Y-65150000D01*
X186250000Y-122662500D02*
X185162500Y-122662500D01*
X224775000Y-64250000D02*
X226865000Y-64250000D01*
X126300000Y-80740000D02*
X125991470Y-80740000D01*
X134732500Y-57337500D02*
X134570000Y-57500000D01*
X163500000Y-116250000D02*
X163000000Y-115750000D01*
X181500000Y-111475000D02*
X178725000Y-111475000D01*
X226365000Y-71162500D02*
X225277500Y-71162500D01*
X156615000Y-57337500D02*
X157702500Y-57337500D01*
X111975000Y-61490000D02*
X113200000Y-61490000D01*
X125830000Y-65035000D02*
X125455000Y-65035000D01*
X136180000Y-87000000D02*
X136900000Y-87000000D01*
X209955000Y-121025000D02*
X209955000Y-121662500D01*
X179160000Y-71162500D02*
X178072500Y-71162500D01*
X113500000Y-123662500D02*
X114587500Y-123662500D01*
X239885000Y-98300000D02*
X241155000Y-98300000D01*
X163000000Y-115750000D02*
X160410000Y-115750000D01*
X156000000Y-110837500D02*
X156000000Y-111250000D01*
X154807500Y-59205000D02*
X154307500Y-58705000D01*
X133570000Y-64250000D02*
X134070000Y-64750000D01*
X170500000Y-114837500D02*
X171087500Y-114837500D01*
X149110000Y-77860000D02*
X151540000Y-77860000D01*
X171087500Y-114837500D02*
X171750000Y-115500000D01*
X223750000Y-112151000D02*
X223750000Y-111651000D01*
X203115000Y-64725000D02*
X205705000Y-64725000D01*
X214955000Y-115087500D02*
X215542500Y-115087500D01*
X184935000Y-61250000D02*
X186160000Y-61250000D01*
X235025000Y-111926000D02*
X233750000Y-110651000D01*
X207955000Y-116500000D02*
X207455000Y-116000000D01*
X141070000Y-68750000D02*
X141070000Y-69250000D01*
X183750000Y-122662500D02*
X184837500Y-122662500D01*
X98400000Y-100200000D02*
X100000000Y-100200000D01*
X121000000Y-95400000D02*
X121000000Y-94900000D01*
X238615000Y-98300000D02*
X239885000Y-98300000D01*
X101800000Y-97100000D02*
X101800000Y-96500000D01*
X235500000Y-98500000D02*
X237145000Y-98500000D01*
X108500000Y-83500000D02*
X107700000Y-84300000D01*
X141295000Y-121412500D02*
X139545000Y-123162500D01*
X200455000Y-111087500D02*
X200455000Y-111500000D01*
X215410000Y-115000000D02*
X216072500Y-115662500D01*
X233365000Y-63337500D02*
X233365000Y-61250000D01*
X202365000Y-57312500D02*
X203452500Y-57312500D01*
X202615000Y-64225000D02*
X203115000Y-64725000D01*
X105250000Y-112475000D02*
X105399000Y-112624000D01*
X190011000Y-68376000D02*
X187534000Y-68376000D01*
X178000000Y-118975000D02*
X179275000Y-118975000D01*
X131795000Y-110837500D02*
X131795000Y-111250000D01*
X234140000Y-68525000D02*
X234365000Y-68750000D01*
X203452500Y-57312500D02*
X203452500Y-57147500D01*
X154865000Y-59725000D02*
X154865000Y-59087500D01*
X233250000Y-121813500D02*
X231500000Y-123563500D01*
X154400000Y-89400000D02*
X154400000Y-88900000D01*
X226337500Y-108651000D02*
X223750000Y-111238500D01*
X128944000Y-112124000D02*
X131421000Y-112124000D01*
X104700000Y-59327500D02*
X106450000Y-57577500D01*
X207527500Y-72225000D02*
X210115000Y-69637500D01*
X116000000Y-123662500D02*
X114912500Y-123662500D01*
X104700000Y-59965000D02*
X104700000Y-59327500D01*
X118000000Y-88700000D02*
X117700000Y-89000000D01*
X140295000Y-61025000D02*
X140070000Y-61250000D01*
X230412500Y-123563500D02*
X230250000Y-123401000D01*
X135820000Y-57337500D02*
X134732500Y-57337500D01*
X186500000Y-108837500D02*
X187587500Y-108837500D01*
X184572500Y-72250000D02*
X187160000Y-69662500D01*
X105399000Y-112624000D02*
X107876000Y-112624000D01*
X225277500Y-71162500D02*
X224365000Y-70250000D01*
X140070000Y-63337500D02*
X140070000Y-61250000D01*
X239885000Y-96885000D02*
X239750000Y-96750000D01*
X137045000Y-123162500D02*
X138132500Y-123162500D01*
X197604000Y-112374000D02*
X200081000Y-112374000D01*
X153000000Y-111975000D02*
X153149000Y-112124000D01*
X135960000Y-92100000D02*
X136600000Y-92100000D01*
X155500000Y-119475000D02*
X156775000Y-119475000D01*
X189775000Y-111025000D02*
X188500000Y-109750000D01*
X127327000Y-73500000D02*
X126900000Y-73500000D01*
X101800000Y-96500000D02*
X102400000Y-95900000D01*
X171410000Y-64795000D02*
X172277500Y-65662500D01*
X135660000Y-89800000D02*
X136300000Y-89800000D01*
X149777500Y-65662500D02*
X149115000Y-65000000D01*
X106200000Y-71402500D02*
X105112500Y-71402500D01*
X156365000Y-71162500D02*
X155277500Y-71162500D01*
X207117500Y-123412500D02*
X206955000Y-123250000D01*
X226750000Y-112376000D02*
X223975000Y-112376000D01*
X237216000Y-68376000D02*
X234739000Y-68376000D01*
X110837500Y-108750000D02*
X108250000Y-111337500D01*
X175885000Y-68250000D02*
X175885000Y-68975000D01*
X164000000Y-109337500D02*
X165087500Y-109337500D01*
X149115000Y-65000000D02*
X149115000Y-64915000D01*
X180822500Y-57337500D02*
X180660000Y-57500000D01*
X147105000Y-99095000D02*
X148505000Y-99095000D01*
X138300000Y-104200000D02*
X138400000Y-104300000D01*
X149110000Y-80400000D02*
X149110000Y-77860000D01*
X201230000Y-119725000D02*
X201455000Y-119500000D01*
X229000000Y-123563500D02*
X230087500Y-123563500D01*
X177570000Y-64250000D02*
X179660000Y-64250000D01*
X131557500Y-59205000D02*
X131057500Y-58705000D01*
X119525000Y-112025000D02*
X118250000Y-110750000D01*
X242200000Y-103700000D02*
X242500000Y-104000000D01*
X122750000Y-115337500D02*
X123337500Y-115337500D01*
X234365000Y-68750000D02*
X234365000Y-69250000D01*
X149115000Y-64915000D02*
X148700000Y-64500000D01*
X211730000Y-112500000D02*
X211730000Y-111775000D01*
X165500000Y-120775000D02*
X165500000Y-121412500D01*
X128300000Y-99800000D02*
X128000000Y-99500000D01*
X200680000Y-112225000D02*
X200455000Y-112000000D01*
X188090000Y-115750000D02*
X186000000Y-115750000D01*
X195027500Y-65637500D02*
X194365000Y-64975000D01*
X224525000Y-119876000D02*
X224750000Y-119651000D01*
X156865000Y-64250000D02*
X157365000Y-64750000D01*
X227702500Y-57337500D02*
X227865000Y-57500000D01*
X149110000Y-80400000D02*
X150800000Y-80400000D01*
X167275000Y-112250000D02*
X167275000Y-111525000D01*
X141570000Y-61025000D02*
X140295000Y-61025000D01*
X158587500Y-108250000D02*
X157500000Y-108250000D01*
X187660000Y-61025000D02*
X186385000Y-61025000D01*
X129795000Y-68975000D02*
X131070000Y-70250000D01*
X178500000Y-111250000D02*
X178500000Y-110750000D01*
X140845000Y-68525000D02*
X141070000Y-68750000D01*
X162337500Y-123162500D02*
X162500000Y-123000000D01*
X210489000Y-68351000D02*
X210115000Y-68725000D01*
X127327000Y-73500000D02*
X128927000Y-71900000D01*
X154865000Y-59087500D02*
X156615000Y-57337500D01*
X102925000Y-69215000D02*
X104200000Y-70490000D01*
X111250000Y-112475000D02*
X108475000Y-112475000D01*
X161777500Y-72250000D02*
X164365000Y-69662500D01*
X111612500Y-72490000D02*
X114200000Y-69902500D01*
X234865000Y-61025000D02*
X233590000Y-61025000D01*
X232837500Y-109738500D02*
X233750000Y-110651000D01*
X117750000Y-121912500D02*
X116000000Y-123662500D01*
X213115000Y-68500000D02*
X212966000Y-68351000D01*
X138845000Y-61250000D02*
X140070000Y-61250000D01*
X118440000Y-89700000D02*
X118400000Y-89700000D01*
X125865000Y-65000000D02*
X125830000Y-65035000D01*
X98700000Y-65150000D02*
X98450000Y-64900000D01*
X114912500Y-123662500D02*
X114750000Y-123500000D01*
X131478822Y-97278822D02*
X132501000Y-98301000D01*
X114587500Y-123662500D02*
X114750000Y-123500000D01*
X225975000Y-119651000D02*
X224750000Y-119651000D01*
X107200000Y-64990000D02*
X109790000Y-64990000D01*
X181910000Y-57337500D02*
X180822500Y-57337500D01*
X187160000Y-69662500D02*
X187160000Y-69250000D01*
X224865000Y-59180000D02*
X224365000Y-58680000D01*
X202680000Y-119500000D02*
X201455000Y-119500000D01*
X109025000Y-119975000D02*
X109250000Y-119750000D01*
X107862500Y-57577500D02*
X107700000Y-57740000D01*
X132501000Y-98301000D02*
X133800000Y-98301000D01*
X211730000Y-111775000D02*
X210455000Y-110500000D01*
X223250000Y-119876000D02*
X224525000Y-119876000D01*
X238250000Y-115238500D02*
X238837500Y-115238500D01*
X197455000Y-112225000D02*
X197604000Y-112374000D01*
X167365000Y-68525000D02*
X167216000Y-68376000D01*
X195615000Y-65637500D02*
X195027500Y-65637500D01*
X200615000Y-59700000D02*
X200615000Y-59062500D01*
X156225000Y-111975000D02*
X156000000Y-111750000D01*
X141385000Y-116250000D02*
X139295000Y-116250000D01*
X181087500Y-107750000D02*
X178500000Y-110337500D01*
X164365000Y-69662500D02*
X164365000Y-69250000D01*
X179500000Y-116662500D02*
X179500000Y-118750000D01*
X187587500Y-108837500D02*
X188500000Y-109750000D01*
X99700000Y-65902500D02*
X99112500Y-65902500D01*
X203777500Y-57312500D02*
X203777500Y-57177500D01*
X141070000Y-69662500D02*
X141070000Y-69250000D01*
X118400000Y-89700000D02*
X117700000Y-89000000D01*
X106450000Y-57577500D02*
X107537500Y-57577500D01*
X114200000Y-68990000D02*
X114200000Y-69490000D01*
X223090000Y-68250000D02*
X223090000Y-68975000D01*
X115750000Y-116750000D02*
X115250000Y-116250000D01*
X134020000Y-119250000D02*
X132795000Y-119250000D01*
X242750000Y-105250000D02*
X242750000Y-104250000D01*
X116250000Y-109837500D02*
X117337500Y-109837500D01*
X117337500Y-109837500D02*
X118250000Y-110750000D01*
X100600000Y-100000000D02*
X100200000Y-100400000D01*
X139295000Y-116250000D02*
X138795000Y-115750000D01*
X234739000Y-68376000D02*
X234365000Y-68750000D01*
X190160000Y-68525000D02*
X190011000Y-68376000D01*
X139795000Y-109337500D02*
X140882500Y-109337500D01*
X164365000Y-68750000D02*
X164365000Y-69250000D01*
X155626000Y-112124000D02*
X156000000Y-111750000D01*
X131421000Y-112124000D02*
X131795000Y-111750000D01*
X179275000Y-118975000D02*
X179500000Y-118750000D01*
X186935000Y-68525000D02*
X187160000Y-68750000D01*
X233340000Y-116651000D02*
X231250000Y-116651000D01*
X158587500Y-108250000D02*
X156000000Y-110837500D01*
X178126000Y-111624000D02*
X178500000Y-111250000D01*
X104642500Y-59195000D02*
X104142500Y-58695000D01*
X158225000Y-119250000D02*
X157000000Y-119250000D01*
X178725000Y-111475000D02*
X178500000Y-111250000D01*
X105112500Y-71402500D02*
X104200000Y-70490000D01*
X156000000Y-111750000D02*
X156000000Y-111250000D01*
X226615000Y-57337500D02*
X227702500Y-57337500D01*
X178500000Y-110337500D02*
X178500000Y-110750000D01*
X107537500Y-57577500D02*
X107700000Y-57740000D01*
X133320000Y-57337500D02*
X134407500Y-57337500D01*
X188000000Y-120912500D02*
X186250000Y-122662500D01*
X179660000Y-64250000D02*
X180160000Y-64750000D01*
X234365000Y-69662500D02*
X234365000Y-69250000D01*
X109600000Y-83500000D02*
X108500000Y-83500000D01*
X125455000Y-65035000D02*
X125320000Y-64900000D01*
X198840000Y-68225000D02*
X198840000Y-68950000D01*
X209955000Y-121662500D02*
X208205000Y-123412500D01*
X154775000Y-64250000D02*
X156865000Y-64250000D01*
X203042500Y-108500000D02*
X200455000Y-111087500D01*
X185500000Y-115250000D02*
X182910000Y-115250000D01*
X162140000Y-61250000D02*
X163365000Y-61250000D01*
X114200000Y-69902500D02*
X114200000Y-69490000D01*
X106700000Y-64490000D02*
X107200000Y-64990000D01*
X117051000Y-68616000D02*
X114574000Y-68616000D01*
X164140000Y-68525000D02*
X164365000Y-68750000D01*
X185162500Y-122662500D02*
X185000000Y-122500000D01*
X238615000Y-98300000D02*
X237345000Y-98300000D01*
X119740000Y-93640000D02*
X119800000Y-93700000D01*
X164865000Y-61025000D02*
X163590000Y-61025000D01*
X157365000Y-64750000D02*
X159955000Y-64750000D01*
X131295000Y-119475000D02*
X132570000Y-119475000D01*
X108800000Y-85400000D02*
X107700000Y-84300000D01*
X230087500Y-123563500D02*
X230250000Y-123401000D01*
X228027500Y-57337500D02*
X227865000Y-57500000D01*
X132570000Y-119475000D02*
X132795000Y-119250000D01*
X132795000Y-117162500D02*
X132795000Y-119250000D01*
X165087500Y-109337500D02*
X166000000Y-110250000D01*
X159115000Y-57337500D02*
X158027500Y-57337500D01*
X141295000Y-120775000D02*
X141295000Y-121412500D01*
X184837500Y-122662500D02*
X185000000Y-122500000D01*
X138457500Y-123162500D02*
X138295000Y-123000000D01*
X110475000Y-119750000D02*
X109250000Y-119750000D01*
X128300000Y-100200000D02*
X128300000Y-99800000D01*
X210615000Y-61000000D02*
X209340000Y-61000000D01*
X223750000Y-111238500D02*
X223750000Y-111651000D01*
X226865000Y-64250000D02*
X227365000Y-64750000D01*
X212966000Y-68351000D02*
X210489000Y-68351000D01*
X165500000Y-121412500D02*
X163750000Y-123162500D01*
X124112500Y-94237500D02*
X124112500Y-92687500D01*
X113425000Y-61265000D02*
X113200000Y-61490000D01*
X224865000Y-59087500D02*
X226615000Y-57337500D01*
X123600000Y-99380000D02*
X123600000Y-99700000D01*
X223975000Y-112376000D02*
X223750000Y-112151000D01*
X184160000Y-68525000D02*
X186935000Y-68525000D01*
X156775000Y-119475000D02*
X157000000Y-119250000D01*
X229115000Y-57337500D02*
X228027500Y-57337500D01*
X220899000Y-112525000D02*
X223376000Y-112525000D01*
X158027500Y-57337500D02*
X157865000Y-57500000D01*
X219865000Y-65662500D02*
X219277500Y-65662500D01*
X129100000Y-71900000D02*
X129420000Y-71900000D01*
X117840000Y-116750000D02*
X115750000Y-116750000D01*
X172660000Y-65662500D02*
X172072500Y-65662500D01*
X200615000Y-58975000D02*
X200115000Y-58475000D01*
X143921000Y-68376000D02*
X141444000Y-68376000D01*
X235025000Y-112651000D02*
X235025000Y-111926000D01*
X177660000Y-59087500D02*
X179410000Y-57337500D01*
X187160000Y-68750000D02*
X187160000Y-69250000D01*
X242750000Y-104250000D02*
X242500000Y-104000000D01*
X193250000Y-114500000D02*
X193912500Y-115162500D01*
X157702500Y-57337500D02*
X157865000Y-57500000D01*
X113200000Y-63577500D02*
X113200000Y-61490000D01*
X120220000Y-84400000D02*
X119698586Y-84400000D01*
X238660000Y-115151000D02*
X239322500Y-115813500D01*
X134382500Y-108250000D02*
X131795000Y-110837500D01*
X231365000Y-68525000D02*
X234140000Y-68525000D01*
X131880000Y-82000000D02*
X132800000Y-82000000D01*
X200525000Y-64225000D02*
X202615000Y-64225000D01*
X161365000Y-68525000D02*
X164140000Y-68525000D01*
X111200000Y-68765000D02*
X113975000Y-68765000D01*
X114700000Y-61265000D02*
X113425000Y-61265000D01*
X223090000Y-68975000D02*
X224365000Y-70250000D01*
X165590000Y-116250000D02*
X163500000Y-116250000D01*
X123600000Y-99700000D02*
X124000000Y-100100000D01*
X118440000Y-88700000D02*
X118000000Y-88700000D01*
X146750000Y-115000000D02*
X147412500Y-115662500D01*
X209340000Y-61000000D02*
X209115000Y-61225000D01*
X246500000Y-105375000D02*
X242875000Y-105375000D01*
X108475000Y-112475000D02*
X108250000Y-112250000D01*
X162662500Y-123162500D02*
X162500000Y-123000000D01*
X175649000Y-111624000D02*
X178126000Y-111624000D01*
X138132500Y-123162500D02*
X138295000Y-123000000D01*
X121000000Y-94900000D02*
X119800000Y-93700000D01*
X175500000Y-111475000D02*
X175649000Y-111624000D01*
X206792500Y-123412500D02*
X206955000Y-123250000D01*
X232800000Y-98500000D02*
X235500000Y-98500000D01*
X153090000Y-68975000D02*
X154365000Y-70250000D01*
X134795000Y-111975000D02*
X132020000Y-111975000D01*
X119525000Y-112750000D02*
X119525000Y-112025000D01*
X109250000Y-117662500D02*
X109250000Y-119750000D01*
X143070000Y-112250000D02*
X143070000Y-111525000D01*
X224750000Y-117563500D02*
X224750000Y-119651000D01*
X148505000Y-99095000D02*
X148600000Y-99000000D01*
X132020000Y-111975000D02*
X131795000Y-111750000D01*
X233590000Y-61025000D02*
X233365000Y-61250000D01*
X131570000Y-59087500D02*
X133320000Y-57337500D01*
X207890000Y-61225000D02*
X209115000Y-61225000D01*
X207455000Y-116000000D02*
X204865000Y-116000000D01*
X186385000Y-61025000D02*
X186160000Y-61250000D01*
X224865000Y-59725000D02*
X224865000Y-59180000D01*
X117200000Y-68765000D02*
X117051000Y-68616000D01*
X131795000Y-111750000D02*
X131795000Y-111250000D01*
X163365000Y-63337500D02*
X163365000Y-61250000D01*
X107876000Y-112624000D02*
X108250000Y-112250000D01*
X219865000Y-65662500D02*
X219527500Y-65662500D01*
X99362500Y-65902500D02*
X98700000Y-65240000D01*
X177660000Y-59725000D02*
X177660000Y-59087500D01*
X164739000Y-68376000D02*
X164365000Y-68750000D01*
X209890000Y-68500000D02*
X210115000Y-68725000D01*
X237145000Y-98500000D02*
X237345000Y-98300000D01*
X163590000Y-61025000D02*
X163365000Y-61250000D01*
X109850000Y-85400000D02*
X108800000Y-85400000D01*
X205705000Y-123412500D02*
X206792500Y-123412500D01*
X126527500Y-65662500D02*
X125865000Y-65000000D01*
X138482500Y-72250000D02*
X141070000Y-69662500D01*
X123337500Y-115337500D02*
X124000000Y-116000000D01*
X125402000Y-73500000D02*
X125377000Y-73475000D01*
X138070000Y-68525000D02*
X140845000Y-68525000D01*
X189775000Y-111750000D02*
X189775000Y-111025000D01*
X224865000Y-59725000D02*
X224865000Y-59087500D01*
X202115000Y-71137500D02*
X201027500Y-71137500D01*
X124112500Y-92687500D02*
X126062500Y-90737500D01*
X227365000Y-64750000D02*
X229955000Y-64750000D01*
X100000000Y-100200000D02*
X100200000Y-100400000D01*
X188000000Y-120275000D02*
X188000000Y-120912500D01*
X134407500Y-57337500D02*
X134570000Y-57500000D01*
X149110000Y-75320000D02*
X150820000Y-75320000D01*
X167275000Y-111525000D02*
X166000000Y-110250000D01*
X104610000Y-64490000D02*
X106700000Y-64490000D01*
X138795000Y-115750000D02*
X136205000Y-115750000D01*
X231750000Y-109738500D02*
X232837500Y-109738500D01*
X134070000Y-64750000D02*
X136660000Y-64750000D01*
X137200000Y-104200000D02*
X138300000Y-104200000D01*
X201455000Y-117412500D02*
X201455000Y-119500000D01*
X210115000Y-68725000D02*
X210115000Y-69225000D01*
X204865000Y-57312500D02*
X203777500Y-57312500D01*
X131480000Y-64250000D02*
X133570000Y-64250000D01*
X179410000Y-57337500D02*
X180497500Y-57337500D01*
X127775000Y-78825000D02*
X127900000Y-78700000D01*
X208455000Y-109587500D02*
X209542500Y-109587500D01*
X129795000Y-68250000D02*
X129795000Y-68975000D01*
X119740000Y-93000000D02*
X119740000Y-93640000D01*
%TO.N,Net-(U4-VREG)*%
X117065000Y-113660000D02*
X117975000Y-112750000D01*
X116750000Y-113660000D02*
X117065000Y-113660000D01*
%TO.N,/XIN*%
X125945000Y-75155000D02*
X125945000Y-78825000D01*
X129100000Y-74400000D02*
X128800000Y-74700000D01*
X127589000Y-79789000D02*
X127300000Y-79500000D01*
X127712500Y-81830050D02*
X127589000Y-81706550D01*
X126620000Y-79500000D02*
X125945000Y-78825000D01*
X129100000Y-73500000D02*
X129100000Y-74400000D01*
X127589000Y-81706550D02*
X127589000Y-79789000D01*
X127300000Y-79500000D02*
X126620000Y-79500000D01*
X128800000Y-74700000D02*
X126400000Y-74700000D01*
X127712500Y-84337500D02*
X127712500Y-81830050D01*
X126400000Y-74700000D02*
X125945000Y-75155000D01*
%TO.N,Net-(C4-Pad2)*%
X125377000Y-71502000D02*
X125300000Y-71425000D01*
X125902000Y-71425000D02*
X125300000Y-71425000D01*
X124489500Y-71425000D02*
X123902000Y-72012500D01*
X126900000Y-71900000D02*
X126377000Y-71900000D01*
X126377000Y-71900000D02*
X125902000Y-71425000D01*
X125300000Y-71425000D02*
X124489500Y-71425000D01*
X125377000Y-72220000D02*
X125377000Y-71502000D01*
%TO.N,Net-(U4-CP2)*%
X117840000Y-115750000D02*
X118490000Y-115750000D01*
X118766000Y-115474000D02*
X120024000Y-115474000D01*
X118490000Y-115750000D02*
X118766000Y-115474000D01*
X120024000Y-115474000D02*
X120800000Y-116250000D01*
%TO.N,Net-(U4-CP1)*%
X117840000Y-116250000D02*
X119250000Y-116250000D01*
%TO.N,Net-(U4-VCP)*%
X118500000Y-115250000D02*
X119250000Y-114500000D01*
X117840000Y-115250000D02*
X118500000Y-115250000D01*
%TO.N,Net-(U5-VCP)*%
X142045000Y-114750000D02*
X142795000Y-114000000D01*
X141385000Y-114750000D02*
X142045000Y-114750000D01*
%TO.N,Net-(U5-CP2)*%
X143569000Y-114974000D02*
X144345000Y-115750000D01*
X142035000Y-115250000D02*
X142311000Y-114974000D01*
X142311000Y-114974000D02*
X143569000Y-114974000D01*
X141385000Y-115250000D02*
X142035000Y-115250000D01*
%TO.N,Net-(U5-CP1)*%
X141385000Y-115750000D02*
X142795000Y-115750000D01*
%TO.N,Net-(U5-VREG)*%
X140610000Y-113160000D02*
X141520000Y-112250000D01*
X140295000Y-113160000D02*
X140610000Y-113160000D01*
%TO.N,Net-(U6-VCP)*%
X165590000Y-114750000D02*
X166250000Y-114750000D01*
X166250000Y-114750000D02*
X167000000Y-114000000D01*
%TO.N,Net-(U6-CP2)*%
X166516000Y-114974000D02*
X167774000Y-114974000D01*
X167774000Y-114974000D02*
X168550000Y-115750000D01*
X165590000Y-115250000D02*
X166240000Y-115250000D01*
X166240000Y-115250000D02*
X166516000Y-114974000D01*
%TO.N,Net-(U6-CP1)*%
X165590000Y-115750000D02*
X167000000Y-115750000D01*
%TO.N,Net-(U6-VREG)*%
X164815000Y-113160000D02*
X165725000Y-112250000D01*
X164500000Y-113160000D02*
X164815000Y-113160000D01*
%TO.N,Net-(U7-VCP)*%
X188090000Y-114250000D02*
X188750000Y-114250000D01*
X188750000Y-114250000D02*
X189500000Y-113500000D01*
%TO.N,Net-(U7-CP2)*%
X190274000Y-114474000D02*
X191050000Y-115250000D01*
X189016000Y-114474000D02*
X190274000Y-114474000D01*
X188090000Y-114750000D02*
X188740000Y-114750000D01*
X188740000Y-114750000D02*
X189016000Y-114474000D01*
%TO.N,Net-(U7-CP1)*%
X188090000Y-115250000D02*
X189500000Y-115250000D01*
%TO.N,Net-(U7-VREG)*%
X187315000Y-112660000D02*
X188225000Y-111750000D01*
X187000000Y-112660000D02*
X187315000Y-112660000D01*
%TO.N,Net-(U8-VCP)*%
X210705000Y-115000000D02*
X211455000Y-114250000D01*
X210045000Y-115000000D02*
X210705000Y-115000000D01*
%TO.N,Net-(U8-CP1)*%
X210045000Y-116000000D02*
X211455000Y-116000000D01*
%TO.N,Net-(U8-CP2)*%
X210695000Y-115500000D02*
X210971000Y-115224000D01*
X210045000Y-115500000D02*
X210695000Y-115500000D01*
X212229000Y-115224000D02*
X213005000Y-116000000D01*
X210971000Y-115224000D02*
X212229000Y-115224000D01*
%TO.N,Net-(U8-VREG)*%
X209270000Y-113410000D02*
X210180000Y-112500000D01*
X208955000Y-113410000D02*
X209270000Y-113410000D01*
%TO.N,Net-(U9-VCP)*%
X234000000Y-115151000D02*
X234750000Y-114401000D01*
X233340000Y-115151000D02*
X234000000Y-115151000D01*
%TO.N,Net-(U9-CP1)*%
X233340000Y-116151000D02*
X234750000Y-116151000D01*
%TO.N,Net-(U9-CP2)*%
X233340000Y-115651000D02*
X233990000Y-115651000D01*
X233990000Y-115651000D02*
X234266000Y-115375000D01*
X235524000Y-115375000D02*
X236300000Y-116151000D01*
X234266000Y-115375000D02*
X235524000Y-115375000D01*
%TO.N,Net-(U9-VREG)*%
X232250000Y-113561000D02*
X232565000Y-113561000D01*
X232565000Y-113561000D02*
X233475000Y-112651000D01*
%TO.N,Net-(U10-VCP)*%
X224115000Y-65750000D02*
X223365000Y-66500000D01*
X224775000Y-65750000D02*
X224115000Y-65750000D01*
%TO.N,Net-(U11-VCP)*%
X200525000Y-65725000D02*
X199865000Y-65725000D01*
X199865000Y-65725000D02*
X199115000Y-66475000D01*
%TO.N,Net-(U12-VCP)*%
X177570000Y-65750000D02*
X176910000Y-65750000D01*
X176910000Y-65750000D02*
X176160000Y-66500000D01*
%TO.N,Net-(U10-CP1)*%
X224775000Y-64750000D02*
X223365000Y-64750000D01*
%TO.N,Net-(U10-CP2)*%
X224125000Y-65250000D02*
X223849000Y-65526000D01*
X224775000Y-65250000D02*
X224125000Y-65250000D01*
X222591000Y-65526000D02*
X221815000Y-64750000D01*
X223849000Y-65526000D02*
X222591000Y-65526000D01*
%TO.N,Net-(U11-CP1)*%
X200525000Y-64725000D02*
X199115000Y-64725000D01*
%TO.N,Net-(U11-CP2)*%
X199875000Y-65225000D02*
X199599000Y-65501000D01*
X200525000Y-65225000D02*
X199875000Y-65225000D01*
X198341000Y-65501000D02*
X197565000Y-64725000D01*
X199599000Y-65501000D02*
X198341000Y-65501000D01*
%TO.N,Net-(U12-CP1)*%
X177570000Y-64750000D02*
X176160000Y-64750000D01*
%TO.N,Net-(U12-CP2)*%
X175386000Y-65526000D02*
X174610000Y-64750000D01*
X176644000Y-65526000D02*
X175386000Y-65526000D01*
X177570000Y-65250000D02*
X176920000Y-65250000D01*
X176920000Y-65250000D02*
X176644000Y-65526000D01*
%TO.N,Net-(U10-VREG)*%
X225865000Y-67340000D02*
X225550000Y-67340000D01*
X225550000Y-67340000D02*
X224640000Y-68250000D01*
%TO.N,Net-(U11-VREG)*%
X201300000Y-67315000D02*
X200390000Y-68225000D01*
X201615000Y-67315000D02*
X201300000Y-67315000D01*
%TO.N,Net-(U12-VREG)*%
X178660000Y-67340000D02*
X178345000Y-67340000D01*
X178345000Y-67340000D02*
X177435000Y-68250000D01*
%TO.N,Net-(U13-VCP)*%
X154775000Y-65750000D02*
X154115000Y-65750000D01*
X154115000Y-65750000D02*
X153365000Y-66500000D01*
%TO.N,Net-(U14-VCP)*%
X131480000Y-65750000D02*
X130820000Y-65750000D01*
X130820000Y-65750000D02*
X130070000Y-66500000D01*
%TO.N,Net-(U15-VCP)*%
X104610000Y-65990000D02*
X103950000Y-65990000D01*
X103950000Y-65990000D02*
X103200000Y-66740000D01*
%TO.N,Net-(U13-CP2)*%
X153849000Y-65526000D02*
X152591000Y-65526000D01*
X154125000Y-65250000D02*
X153849000Y-65526000D01*
X152591000Y-65526000D02*
X151815000Y-64750000D01*
X154775000Y-65250000D02*
X154125000Y-65250000D01*
%TO.N,Net-(U13-CP1)*%
X154775000Y-64750000D02*
X153365000Y-64750000D01*
%TO.N,Net-(U14-CP2)*%
X131480000Y-65250000D02*
X130830000Y-65250000D01*
X130830000Y-65250000D02*
X130554000Y-65526000D01*
X130554000Y-65526000D02*
X129296000Y-65526000D01*
X129296000Y-65526000D02*
X128520000Y-64750000D01*
%TO.N,Net-(U14-CP1)*%
X131480000Y-64750000D02*
X130070000Y-64750000D01*
%TO.N,Net-(U15-CP2)*%
X102426000Y-65766000D02*
X101650000Y-64990000D01*
X103684000Y-65766000D02*
X102426000Y-65766000D01*
X103960000Y-65490000D02*
X103684000Y-65766000D01*
X104610000Y-65490000D02*
X103960000Y-65490000D01*
%TO.N,Net-(U15-CP1)*%
X104610000Y-64990000D02*
X103200000Y-64990000D01*
%TO.N,Net-(U13-VREG)*%
X155865000Y-67340000D02*
X155550000Y-67340000D01*
X155550000Y-67340000D02*
X154640000Y-68250000D01*
%TO.N,Net-(U14-VREG)*%
X132570000Y-67340000D02*
X132255000Y-67340000D01*
X132255000Y-67340000D02*
X131345000Y-68250000D01*
%TO.N,Net-(U15-VREG)*%
X105385000Y-67580000D02*
X104475000Y-68490000D01*
X105700000Y-67580000D02*
X105385000Y-67580000D01*
%TO.N,+1V1*%
X131612500Y-89487500D02*
X132462500Y-89487500D01*
X126912500Y-83112500D02*
X126300000Y-82500000D01*
X123700000Y-98320000D02*
X123600000Y-98420000D01*
X133687500Y-89487500D02*
X134000000Y-89800000D01*
X125211000Y-100189000D02*
X124699000Y-100701000D01*
X122800000Y-99800000D02*
X122800000Y-98800000D01*
X131000000Y-90900000D02*
X131000000Y-90100000D01*
X127477226Y-85400000D02*
X126400000Y-85400000D01*
X125000000Y-97700000D02*
X125211000Y-97911000D01*
X120812500Y-89487500D02*
X120600000Y-89700000D01*
X125312500Y-95187500D02*
X125000000Y-95500000D01*
X124600000Y-88200000D02*
X123312500Y-89487500D01*
X134000000Y-89800000D02*
X134700000Y-89800000D01*
X125312500Y-94237500D02*
X125312500Y-93287500D01*
X120600000Y-89700000D02*
X119400000Y-89700000D01*
X122562500Y-89487500D02*
X120812500Y-89487500D01*
X131000000Y-90100000D02*
X131612500Y-89487500D01*
X123700000Y-96685000D02*
X123700000Y-98320000D01*
X122800000Y-98800000D02*
X123180000Y-98420000D01*
X132462500Y-89487500D02*
X133687500Y-89487500D01*
X126400000Y-85400000D02*
X124600000Y-87200000D01*
X123312500Y-89487500D02*
X122562500Y-89487500D01*
X125312500Y-94237500D02*
X125312500Y-95187500D01*
X131612500Y-89487500D02*
X131612500Y-88712500D01*
X124699000Y-100701000D02*
X123701000Y-100701000D01*
X123180000Y-98420000D02*
X123600000Y-98420000D01*
X126300000Y-82500000D02*
X126300000Y-81700000D01*
X125312500Y-93287500D02*
X126300000Y-92300000D01*
X126912500Y-84337500D02*
X126912500Y-83112500D01*
X126912500Y-84835274D02*
X126912500Y-84337500D01*
X128300000Y-85400000D02*
X127477226Y-85400000D01*
X125211000Y-97911000D02*
X125211000Y-100189000D01*
X131612500Y-88712500D02*
X128300000Y-85400000D01*
X129600000Y-92300000D02*
X131000000Y-90900000D01*
X125000000Y-95500000D02*
X125000000Y-97700000D01*
X123701000Y-100701000D02*
X122800000Y-99800000D01*
X127477226Y-85400000D02*
X126912500Y-84835274D01*
X126300000Y-92300000D02*
X129600000Y-92300000D01*
X124600000Y-87200000D02*
X124600000Y-88200000D01*
%TO.N,Net-(U1-VREG_AVDD)*%
X123712500Y-94387500D02*
X122700000Y-95400000D01*
X122700000Y-95800000D02*
X122700000Y-95400000D01*
X123712500Y-94237500D02*
X123712500Y-94387500D01*
X121300000Y-97200000D02*
X122700000Y-95800000D01*
%TO.N,Net-(U16-FB)*%
X239812500Y-106000000D02*
X239812500Y-103772500D01*
X242700000Y-106800000D02*
X241900000Y-106000000D01*
X242750000Y-106800000D02*
X242700000Y-106800000D01*
X239812500Y-103772500D02*
X239885000Y-103700000D01*
X241900000Y-106000000D02*
X239812500Y-106000000D01*
X243250000Y-112250000D02*
X243250000Y-109750000D01*
X242750000Y-106800000D02*
X242750000Y-109250000D01*
X243250000Y-109750000D02*
X242750000Y-109250000D01*
%TO.N,Net-(D1-K)*%
X237687500Y-106000000D02*
X238615000Y-105072500D01*
X231750000Y-103950000D02*
X233800000Y-106000000D01*
X233800000Y-106000000D02*
X237687500Y-106000000D01*
X238615000Y-105072500D02*
X238615000Y-103700000D01*
%TO.N,Net-(D5-PadA)*%
X111837500Y-82800000D02*
X111437500Y-83200000D01*
X114690000Y-82800000D02*
X111837500Y-82800000D01*
%TO.N,Net-(D6-PadA)*%
X112875000Y-83900000D02*
X111475000Y-85300000D01*
X114690000Y-83900000D02*
X112875000Y-83900000D01*
%TO.N,/OUT1B1*%
X102100000Y-123500000D02*
X107900000Y-123500000D01*
X112050000Y-117750000D02*
X111600000Y-118200000D01*
X112660000Y-117750000D02*
X112050000Y-117750000D01*
X107900000Y-123500000D02*
X108600000Y-124200000D01*
%TO.N,/OUT2B1*%
X122700000Y-123800000D02*
X119800000Y-123800000D01*
X119800000Y-118700000D02*
X118850000Y-117750000D01*
X119800000Y-129777500D02*
X119800000Y-123800000D01*
X119800000Y-123800000D02*
X119800000Y-118700000D01*
X118850000Y-117750000D02*
X117840000Y-117750000D01*
X118140000Y-131437500D02*
X119800000Y-129777500D01*
%TO.N,/OUT2A1*%
X123600000Y-127600000D02*
X122500000Y-126500000D01*
X115600000Y-131437500D02*
X115600000Y-126500000D01*
X115650000Y-120000000D02*
X115750000Y-119900000D01*
X115750000Y-119900000D02*
X115750000Y-118840000D01*
X126900000Y-127600000D02*
X123600000Y-127600000D01*
%TO.N,/OUT1A1*%
X114600000Y-120800000D02*
X114750000Y-120650000D01*
X110520000Y-127680000D02*
X112500000Y-125700000D01*
X112500000Y-125700000D02*
X113600000Y-125700000D01*
X110520000Y-131437500D02*
X110520000Y-127800000D01*
X114750000Y-120650000D02*
X114750000Y-118840000D01*
X110220000Y-127500000D02*
X110520000Y-127800000D01*
X106200000Y-127500000D02*
X110220000Y-127500000D01*
X110520000Y-127800000D02*
X110520000Y-127680000D01*
%TO.N,/OUT1A2*%
X136400000Y-125200000D02*
X136900000Y-124700000D01*
X134220000Y-131337500D02*
X134220000Y-128180000D01*
X134220000Y-128180000D02*
X136400000Y-126000000D01*
X138295000Y-119400000D02*
X138295000Y-118340000D01*
X136400000Y-126000000D02*
X136400000Y-125200000D01*
X138395000Y-119500000D02*
X138295000Y-119400000D01*
%TO.N,/OUT2A2*%
X139195000Y-119900000D02*
X139295000Y-119800000D01*
X139300000Y-131337500D02*
X139300000Y-126100000D01*
X139295000Y-119800000D02*
X139295000Y-118340000D01*
%TO.N,/OUT2B2*%
X145000000Y-120400000D02*
X141850000Y-117250000D01*
X141850000Y-117250000D02*
X141385000Y-117250000D01*
X141840000Y-131337500D02*
X145000000Y-128177500D01*
X145000000Y-128177500D02*
X145000000Y-120400000D01*
%TO.N,/OUT1B2*%
X135250000Y-117250000D02*
X134900000Y-117600000D01*
X136205000Y-117250000D02*
X135250000Y-117250000D01*
%TO.N,/OUT2A3*%
X163400000Y-119600000D02*
X163500000Y-119500000D01*
X164260000Y-131400000D02*
X163600000Y-130740000D01*
X163500000Y-119500000D02*
X163500000Y-118340000D01*
X163600000Y-130740000D02*
X163600000Y-125600000D01*
%TO.N,/OUT1B3*%
X160410000Y-117250000D02*
X159650000Y-117250000D01*
X159650000Y-117250000D02*
X159300000Y-117600000D01*
%TO.N,/OUT2B3*%
X166800000Y-131400000D02*
X168300000Y-129900000D01*
X168300000Y-129900000D02*
X168300000Y-118600000D01*
X166950000Y-117250000D02*
X165590000Y-117250000D01*
X168300000Y-118600000D02*
X166950000Y-117250000D01*
%TO.N,/OUT1A3*%
X159180000Y-127020000D02*
X161100000Y-125100000D01*
X159180000Y-131400000D02*
X159180000Y-127020000D01*
X162500000Y-119900000D02*
X162500000Y-118340000D01*
X161100000Y-125100000D02*
X161100000Y-124800000D01*
%TO.N,/OUT2A4*%
X185900000Y-119100000D02*
X186000000Y-119000000D01*
X186720000Y-131500000D02*
X186720000Y-125720000D01*
X186000000Y-119000000D02*
X186000000Y-117840000D01*
X186720000Y-125720000D02*
X186000000Y-125000000D01*
%TO.N,/OUT2B4*%
X191000000Y-118200000D02*
X189550000Y-116750000D01*
X189550000Y-116750000D02*
X188090000Y-116750000D01*
X189260000Y-131500000D02*
X191000000Y-129760000D01*
X191000000Y-129760000D02*
X191000000Y-118200000D01*
%TO.N,/OUT1B4*%
X182910000Y-116750000D02*
X182250000Y-116750000D01*
X182250000Y-116750000D02*
X181800000Y-117200000D01*
%TO.N,/OUT1A4*%
X181640000Y-126460000D02*
X183500000Y-124600000D01*
X185000000Y-119600000D02*
X185000000Y-117840000D01*
X181640000Y-131500000D02*
X181640000Y-126460000D01*
%TO.N,/OUT2B5*%
X210440000Y-131437500D02*
X210440000Y-128060000D01*
X215000000Y-123500000D02*
X215000000Y-120600000D01*
X215000000Y-120600000D02*
X211900000Y-117500000D01*
X211900000Y-117500000D02*
X210045000Y-117500000D01*
X210440000Y-128060000D02*
X215000000Y-123500000D01*
%TO.N,/OUT1A5*%
X202820000Y-128280000D02*
X205500000Y-125600000D01*
X202820000Y-131437500D02*
X202820000Y-128280000D01*
X206955000Y-118590000D02*
X206955000Y-120145000D01*
X206955000Y-120145000D02*
X206900000Y-120200000D01*
%TO.N,/OUT1B5*%
X204200000Y-117500000D02*
X203700000Y-118000000D01*
X204865000Y-117500000D02*
X204200000Y-117500000D01*
%TO.N,/OUT2A5*%
X207900000Y-131437500D02*
X207900000Y-125700000D01*
X207955000Y-119600000D02*
X207955000Y-118590000D01*
X207855000Y-119700000D02*
X207955000Y-119600000D01*
%TO.N,/OUT1A6*%
X226280000Y-131300000D02*
X226280000Y-128120000D01*
X226280000Y-128120000D02*
X229300000Y-125100000D01*
X230250000Y-120249529D02*
X230250000Y-118741000D01*
X230146568Y-120352961D02*
X230250000Y-120249529D01*
X229300000Y-125100000D02*
X229300000Y-125000000D01*
%TO.N,/OUT1B6*%
X227349000Y-117651000D02*
X227100000Y-117900000D01*
X228160000Y-117651000D02*
X227349000Y-117651000D01*
%TO.N,/OUT2B6*%
X235800000Y-119200000D02*
X234251000Y-117651000D01*
X234251000Y-117651000D02*
X233340000Y-117651000D01*
X233900000Y-131300000D02*
X235800000Y-129400000D01*
X235800000Y-129400000D02*
X235800000Y-119200000D01*
%TO.N,/OUT2A6*%
X231360000Y-126260000D02*
X231200000Y-126100000D01*
X231150000Y-120000000D02*
X231250000Y-119900000D01*
X231360000Y-131300000D02*
X231360000Y-126260000D01*
X231250000Y-119900000D02*
X231250000Y-118741000D01*
%TO.N,/OUT1B7*%
X229955000Y-63250000D02*
X230650000Y-63250000D01*
X230650000Y-63250000D02*
X231100000Y-62800000D01*
%TO.N,/OUT2A7*%
X226865000Y-60900000D02*
X226865000Y-62160000D01*
X228360000Y-51400000D02*
X228360000Y-53640000D01*
X226965000Y-60800000D02*
X226865000Y-60900000D01*
X228360000Y-53640000D02*
X227000000Y-55000000D01*
%TO.N,/OUT2B7*%
X225820000Y-51400000D02*
X225820000Y-54080000D01*
X225820000Y-54080000D02*
X222600000Y-57300000D01*
X222600000Y-57300000D02*
X222600000Y-61398000D01*
X224452000Y-63250000D02*
X224775000Y-63250000D01*
X222600000Y-61398000D02*
X224452000Y-63250000D01*
%TO.N,/OUT1A7*%
X233440000Y-54460000D02*
X232600000Y-55300000D01*
X229800000Y-55300000D02*
X229400000Y-55700000D01*
X232600000Y-55300000D02*
X229800000Y-55300000D01*
X227860821Y-60674723D02*
X227860821Y-62155821D01*
X227860821Y-62155821D02*
X227865000Y-62160000D01*
X233440000Y-51400000D02*
X233440000Y-54460000D01*
%TO.N,/OUT2B8*%
X202520000Y-53480000D02*
X198400000Y-57600000D01*
X202520000Y-51300000D02*
X202520000Y-53480000D01*
X198400000Y-57600000D02*
X198400000Y-62400000D01*
X199225000Y-63225000D02*
X200525000Y-63225000D01*
X198400000Y-62400000D02*
X199225000Y-63225000D01*
%TO.N,/OUT1A8*%
X208600000Y-55700000D02*
X210140000Y-54160000D01*
X208600000Y-55700000D02*
X205600000Y-55700000D01*
X203600000Y-62120000D02*
X203615000Y-62135000D01*
X210140000Y-51300000D02*
X210140000Y-54160000D01*
X203600000Y-60500000D02*
X203600000Y-62120000D01*
%TO.N,/OUT1B8*%
X205705000Y-63225000D02*
X206575000Y-63225000D01*
X206575000Y-63225000D02*
X207100000Y-62700000D01*
%TO.N,/OUT2A8*%
X205060000Y-53240000D02*
X202600000Y-55700000D01*
X202715000Y-60800000D02*
X202615000Y-60900000D01*
X205060000Y-51300000D02*
X205060000Y-53240000D01*
X202615000Y-60900000D02*
X202615000Y-62135000D01*
%TO.N,/OUT1B9*%
X182750000Y-63250000D02*
X183550000Y-63250000D01*
X183550000Y-63250000D02*
X184000000Y-62800000D01*
%TO.N,/OUT2B9*%
X178920000Y-54180000D02*
X175200000Y-57900000D01*
X175200000Y-57900000D02*
X175200000Y-61900000D01*
X178920000Y-51300000D02*
X178920000Y-54180000D01*
X175200000Y-61900000D02*
X176550000Y-63250000D01*
X176550000Y-63250000D02*
X177570000Y-63250000D01*
%TO.N,/OUT2A9*%
X179700000Y-53060000D02*
X179700000Y-55700000D01*
X179760000Y-60600000D02*
X179660000Y-60700000D01*
X179660000Y-60700000D02*
X179660000Y-62160000D01*
X181460000Y-51300000D02*
X179700000Y-53060000D01*
%TO.N,/OUT1A9*%
X185500000Y-55600000D02*
X182600000Y-55600000D01*
X185500000Y-55600000D02*
X186540000Y-54560000D01*
X180700000Y-62120000D02*
X180660000Y-62160000D01*
X186540000Y-51300000D02*
X186540000Y-54560000D01*
X180700000Y-60500000D02*
X180700000Y-62120000D01*
%TO.N,/OUT1B10*%
X159955000Y-63250000D02*
X160650000Y-63250000D01*
X160650000Y-63250000D02*
X161000000Y-62900000D01*
%TO.N,/OUT1A10*%
X159400000Y-54500000D02*
X158600000Y-55300000D01*
X160200000Y-54500000D02*
X159400000Y-54500000D01*
X162320000Y-52380000D02*
X160200000Y-54500000D01*
X157860821Y-60674723D02*
X157860821Y-62155821D01*
X157860821Y-62155821D02*
X157865000Y-62160000D01*
X162320000Y-51400000D02*
X162320000Y-52380000D01*
%TO.N,/OUT2A10*%
X156900000Y-51740000D02*
X156900000Y-54700000D01*
X156865000Y-60800000D02*
X156865000Y-62160000D01*
X156965000Y-60700000D02*
X156865000Y-60800000D01*
X157240000Y-51400000D02*
X156900000Y-51740000D01*
%TO.N,/OUT2B10*%
X152600000Y-55000000D02*
X152600000Y-61600000D01*
X152600000Y-61600000D02*
X154250000Y-63250000D01*
X154700000Y-51400000D02*
X154700000Y-52900000D01*
X154250000Y-63250000D02*
X154775000Y-63250000D01*
X154700000Y-52900000D02*
X152600000Y-55000000D01*
%TO.N,/OUT1A11*%
X137800000Y-55400000D02*
X135700000Y-55400000D01*
X138980000Y-51362500D02*
X138980000Y-54220000D01*
X134564246Y-60677178D02*
X134564246Y-62154246D01*
X137800000Y-55400000D02*
X138980000Y-54220000D01*
X134564246Y-62154246D02*
X134570000Y-62160000D01*
%TO.N,/OUT2A11*%
X133900000Y-51362500D02*
X133500000Y-51762500D01*
X133500000Y-51762500D02*
X133500000Y-54800000D01*
X133670000Y-60900000D02*
X133570000Y-61000000D01*
X133570000Y-61000000D02*
X133570000Y-62160000D01*
%TO.N,/OUT2B11*%
X131360000Y-54440000D02*
X129000000Y-56800000D01*
X129000000Y-61600000D02*
X130650000Y-63250000D01*
X131360000Y-51362500D02*
X131360000Y-54440000D01*
X130650000Y-63250000D02*
X131480000Y-63250000D01*
X129000000Y-56800000D02*
X129000000Y-61600000D01*
%TO.N,/OUT1B11*%
X137950000Y-63250000D02*
X138000000Y-63200000D01*
X136660000Y-63250000D02*
X137950000Y-63250000D01*
%TO.N,/OUT1A12*%
X112940000Y-54160000D02*
X112300000Y-54800000D01*
X107700000Y-60800000D02*
X107700000Y-62400000D01*
X109100000Y-55000000D02*
X109100000Y-56000000D01*
X112300000Y-54800000D02*
X109300000Y-54800000D01*
X109300000Y-54800000D02*
X109100000Y-55000000D01*
X112940000Y-51300000D02*
X112940000Y-54160000D01*
%TO.N,/OUT1B12*%
X109790000Y-63490000D02*
X110910000Y-63490000D01*
X110910000Y-63490000D02*
X111100000Y-63300000D01*
%TO.N,/OUT2B12*%
X105320000Y-51300000D02*
X102300000Y-54320000D01*
X102300000Y-54320000D02*
X102300000Y-62100000D01*
X103690000Y-63490000D02*
X104610000Y-63490000D01*
X102300000Y-62100000D02*
X103690000Y-63490000D01*
%TO.N,/OUT2A12*%
X106700000Y-61200000D02*
X106700000Y-62400000D01*
X106800000Y-52360000D02*
X106800000Y-54400000D01*
X106800000Y-61100000D02*
X106700000Y-61200000D01*
X107860000Y-51300000D02*
X106800000Y-52360000D01*
%TO.N,Net-(U1-VREG_LX)*%
X124512500Y-94787500D02*
X124100000Y-95200000D01*
X124100000Y-95200000D02*
X124100000Y-95315000D01*
X124512500Y-94237500D02*
X124512500Y-94787500D01*
X124100000Y-95315000D02*
X123700000Y-95715000D01*
%TO.N,/QSPI_SS*%
X142575000Y-91900000D02*
X138775000Y-95700000D01*
X143775000Y-91900000D02*
X142575000Y-91900000D01*
X129312500Y-96112500D02*
X132944000Y-99744000D01*
X138775000Y-95700000D02*
X142975000Y-95700000D01*
X132944000Y-99744000D02*
X134731000Y-99744000D01*
X134731000Y-99744000D02*
X138775000Y-95700000D01*
X129312500Y-94237500D02*
X129312500Y-96112500D01*
%TO.N,Net-(R4-Pad1)*%
X148100000Y-89400000D02*
X145600000Y-91900000D01*
X148400000Y-89400000D02*
X148100000Y-89400000D01*
%TO.N,Net-(U1-RUN)*%
X118812500Y-80900000D02*
X123200000Y-80900000D01*
X125712500Y-83412500D02*
X125712500Y-84337500D01*
X123200000Y-80900000D02*
X125712500Y-83412500D01*
%TO.N,Net-(R5-Pad1)*%
X115300000Y-80900000D02*
X112500000Y-78100000D01*
X116987500Y-80900000D02*
X115300000Y-80900000D01*
%TO.N,Net-(U4-ROSC)*%
X114250000Y-110337500D02*
X112662500Y-108750000D01*
X114250000Y-113660000D02*
X114250000Y-110337500D01*
%TO.N,Net-(U4-SENSE2)*%
X116250000Y-121587500D02*
X116000000Y-121837500D01*
X116250000Y-118840000D02*
X116250000Y-121587500D01*
%TO.N,Net-(U4-SENSE1)*%
X114250000Y-118840000D02*
X114250000Y-120000000D01*
X114250000Y-120000000D02*
X113500000Y-120750000D01*
X113500000Y-120750000D02*
X113500000Y-121837500D01*
%TO.N,Net-(U4-REF)*%
X112660000Y-115750000D02*
X109337500Y-115750000D01*
X109250000Y-115837500D02*
X107250000Y-115837500D01*
X109337500Y-115750000D02*
X109250000Y-115837500D01*
%TO.N,Net-(U5-SENSE2)*%
X139795000Y-121087500D02*
X139545000Y-121337500D01*
X139795000Y-118340000D02*
X139795000Y-121087500D01*
%TO.N,Net-(U5-SENSE1)*%
X137045000Y-120250000D02*
X137045000Y-121337500D01*
X137795000Y-118340000D02*
X137795000Y-119500000D01*
X137795000Y-119500000D02*
X137045000Y-120250000D01*
%TO.N,Net-(U5-ROSC)*%
X137795000Y-109837500D02*
X136207500Y-108250000D01*
X137795000Y-113160000D02*
X137795000Y-109837500D01*
%TO.N,Net-(U5-REF)*%
X136205000Y-115250000D02*
X132882500Y-115250000D01*
X132882500Y-115250000D02*
X132795000Y-115337500D01*
X132795000Y-115337500D02*
X130795000Y-115337500D01*
%TO.N,Net-(U6-SENSE2)*%
X164000000Y-118340000D02*
X164000000Y-121087500D01*
X164000000Y-121087500D02*
X163750000Y-121337500D01*
%TO.N,Net-(U6-SENSE1)*%
X161250000Y-120250000D02*
X161250000Y-121337500D01*
X162000000Y-118340000D02*
X162000000Y-119500000D01*
X162000000Y-119500000D02*
X161250000Y-120250000D01*
%TO.N,Net-(U6-ROSC)*%
X162000000Y-113160000D02*
X162000000Y-109837500D01*
X162000000Y-109837500D02*
X160412500Y-108250000D01*
%TO.N,Net-(U6-REF)*%
X157087500Y-115250000D02*
X157000000Y-115337500D01*
X157000000Y-115337500D02*
X155000000Y-115337500D01*
X160410000Y-115250000D02*
X157087500Y-115250000D01*
%TO.N,Net-(U7-SENSE2)*%
X186500000Y-117840000D02*
X186500000Y-120587500D01*
X186500000Y-120587500D02*
X186250000Y-120837500D01*
%TO.N,Net-(U7-SENSE1)*%
X184500000Y-117840000D02*
X184500000Y-119000000D01*
X184500000Y-119000000D02*
X183750000Y-119750000D01*
X183750000Y-119750000D02*
X183750000Y-120837500D01*
%TO.N,Net-(U7-ROSC)*%
X184500000Y-112660000D02*
X184500000Y-109337500D01*
X184500000Y-109337500D02*
X182912500Y-107750000D01*
%TO.N,Net-(U7-REF)*%
X179500000Y-114837500D02*
X177500000Y-114837500D01*
X182910000Y-114750000D02*
X179587500Y-114750000D01*
X179587500Y-114750000D02*
X179500000Y-114837500D01*
%TO.N,Net-(U8-SENSE2)*%
X208455000Y-121337500D02*
X208205000Y-121587500D01*
X208455000Y-118590000D02*
X208455000Y-121337500D01*
%TO.N,Net-(U8-SENSE1)*%
X206455000Y-118590000D02*
X206455000Y-119750000D01*
X206455000Y-119750000D02*
X205705000Y-120500000D01*
X205705000Y-120500000D02*
X205705000Y-121587500D01*
%TO.N,Net-(U8-ROSC)*%
X206455000Y-110087500D02*
X204867500Y-108500000D01*
X206455000Y-113410000D02*
X206455000Y-110087500D01*
%TO.N,Net-(U8-REF)*%
X201542500Y-115500000D02*
X201455000Y-115587500D01*
X201455000Y-115587500D02*
X199455000Y-115587500D01*
X204865000Y-115500000D02*
X201542500Y-115500000D01*
%TO.N,Net-(U9-SENSE2)*%
X231750000Y-121488500D02*
X231500000Y-121738500D01*
X231750000Y-118741000D02*
X231750000Y-121488500D01*
%TO.N,Net-(U9-SENSE1)*%
X229750000Y-118741000D02*
X229750000Y-119901000D01*
X229000000Y-120651000D02*
X229000000Y-121738500D01*
X229750000Y-119901000D02*
X229000000Y-120651000D01*
%TO.N,Net-(U9-ROSC)*%
X229750000Y-110238500D02*
X228162500Y-108651000D01*
X229750000Y-113561000D02*
X229750000Y-110238500D01*
%TO.N,Net-(U9-REF)*%
X224750000Y-115738500D02*
X222750000Y-115738500D01*
X224837500Y-115651000D02*
X224750000Y-115738500D01*
X228160000Y-115651000D02*
X224837500Y-115651000D01*
%TO.N,Net-(U10-SENSE2)*%
X226365000Y-59412500D02*
X226615000Y-59162500D01*
X226365000Y-62160000D02*
X226365000Y-59412500D01*
%TO.N,Net-(U11-SENSE2)*%
X202115000Y-62135000D02*
X202115000Y-59387500D01*
X202115000Y-59387500D02*
X202365000Y-59137500D01*
%TO.N,Net-(U12-SENSE2)*%
X179160000Y-59412500D02*
X179410000Y-59162500D01*
X179160000Y-62160000D02*
X179160000Y-59412500D01*
%TO.N,Net-(U10-SENSE1)*%
X228365000Y-61000000D02*
X229115000Y-60250000D01*
X228365000Y-62160000D02*
X228365000Y-61000000D01*
X229115000Y-60250000D02*
X229115000Y-59162500D01*
%TO.N,Net-(U10-ROSC)*%
X228365000Y-67340000D02*
X228365000Y-70662500D01*
X228365000Y-70662500D02*
X229952500Y-72250000D01*
%TO.N,Net-(U11-SENSE1)*%
X204115000Y-62135000D02*
X204115000Y-60975000D01*
X204115000Y-60975000D02*
X204865000Y-60225000D01*
X204865000Y-60225000D02*
X204865000Y-59137500D01*
%TO.N,Net-(U11-ROSC)*%
X204115000Y-67315000D02*
X204115000Y-70637500D01*
X204115000Y-70637500D02*
X205702500Y-72225000D01*
%TO.N,Net-(U12-SENSE1)*%
X181160000Y-62160000D02*
X181160000Y-61000000D01*
X181160000Y-61000000D02*
X181910000Y-60250000D01*
X181910000Y-60250000D02*
X181910000Y-59162500D01*
%TO.N,Net-(U12-ROSC)*%
X181160000Y-70662500D02*
X182747500Y-72250000D01*
X181160000Y-67340000D02*
X181160000Y-70662500D01*
%TO.N,Net-(U10-REF)*%
X229955000Y-65250000D02*
X233277500Y-65250000D01*
X233277500Y-65250000D02*
X233365000Y-65162500D01*
X233365000Y-65162500D02*
X235365000Y-65162500D01*
%TO.N,Net-(U11-REF)*%
X205705000Y-65225000D02*
X209027500Y-65225000D01*
X209115000Y-65137500D02*
X211115000Y-65137500D01*
X209027500Y-65225000D02*
X209115000Y-65137500D01*
%TO.N,Net-(U12-REF)*%
X182750000Y-65250000D02*
X186072500Y-65250000D01*
X186072500Y-65250000D02*
X186160000Y-65162500D01*
X186160000Y-65162500D02*
X188160000Y-65162500D01*
%TO.N,Net-(U13-SENSE2)*%
X156365000Y-62160000D02*
X156365000Y-59412500D01*
X156365000Y-59412500D02*
X156615000Y-59162500D01*
%TO.N,Net-(U14-SENSE2)*%
X133070000Y-59412500D02*
X133320000Y-59162500D01*
X133070000Y-62160000D02*
X133070000Y-59412500D01*
%TO.N,Net-(U15-SENSE2)*%
X106200000Y-59652500D02*
X106450000Y-59402500D01*
X106200000Y-62400000D02*
X106200000Y-59652500D01*
%TO.N,Net-(U13-SENSE1)*%
X158365000Y-61000000D02*
X159115000Y-60250000D01*
X159115000Y-60250000D02*
X159115000Y-59162500D01*
X158365000Y-62160000D02*
X158365000Y-61000000D01*
%TO.N,Net-(U13-ROSC)*%
X158365000Y-67340000D02*
X158365000Y-70662500D01*
X158365000Y-70662500D02*
X159952500Y-72250000D01*
%TO.N,Net-(U14-SENSE1)*%
X135820000Y-60250000D02*
X135820000Y-59162500D01*
X135070000Y-61000000D02*
X135820000Y-60250000D01*
X135070000Y-62160000D02*
X135070000Y-61000000D01*
%TO.N,Net-(U14-ROSC)*%
X135070000Y-70662500D02*
X136657500Y-72250000D01*
X135070000Y-67340000D02*
X135070000Y-70662500D01*
%TO.N,Net-(U15-SENSE1)*%
X108200000Y-61240000D02*
X108950000Y-60490000D01*
X108200000Y-62400000D02*
X108200000Y-61240000D01*
X108950000Y-60490000D02*
X108950000Y-59402500D01*
%TO.N,Net-(U15-ROSC)*%
X108200000Y-70902500D02*
X109787500Y-72490000D01*
X108200000Y-67580000D02*
X108200000Y-70902500D01*
%TO.N,Net-(U13-REF)*%
X159955000Y-65250000D02*
X163277500Y-65250000D01*
X163277500Y-65250000D02*
X163365000Y-65162500D01*
X163365000Y-65162500D02*
X165365000Y-65162500D01*
%TO.N,Net-(U14-REF)*%
X139982500Y-65250000D02*
X140070000Y-65162500D01*
X140070000Y-65162500D02*
X142070000Y-65162500D01*
X136660000Y-65250000D02*
X139982500Y-65250000D01*
%TO.N,Net-(U15-REF)*%
X113112500Y-65490000D02*
X113200000Y-65402500D01*
X113200000Y-65402500D02*
X115200000Y-65402500D01*
X109790000Y-65490000D02*
X113112500Y-65490000D01*
%TO.N,Net-(U1-USB_DP)*%
X126112500Y-95487500D02*
X126228000Y-95603000D01*
X126112500Y-94237500D02*
X126112500Y-95487500D01*
X126228000Y-97718000D02*
X126900000Y-98390000D01*
X126228000Y-95603000D02*
X126228000Y-97718000D01*
%TO.N,Net-(U1-USB_DM)*%
X125712500Y-94237500D02*
X125712500Y-95287500D01*
X125400000Y-95600000D02*
X125400000Y-96500000D01*
X125712500Y-95287500D02*
X125400000Y-95600000D01*
X125400000Y-96500000D02*
X125900000Y-97000000D01*
X125900000Y-97000000D02*
X125900000Y-98400000D01*
%TO.N,/XOUT*%
X126900000Y-80100000D02*
X126200000Y-80100000D01*
X127240500Y-80440500D02*
X126900000Y-80100000D01*
X127312500Y-82312500D02*
X127240500Y-82240500D01*
X127312500Y-84337500D02*
X127312500Y-82312500D01*
X125200000Y-79100000D02*
X125200000Y-74300000D01*
X124737500Y-73837500D02*
X123902000Y-73837500D01*
X127240500Y-82240500D02*
X127240500Y-80440500D01*
X126200000Y-80100000D02*
X125200000Y-79100000D01*
X125200000Y-74300000D02*
X124737500Y-73837500D01*
%TO.N,/In1*%
X130301000Y-80199000D02*
X132999000Y-80199000D01*
X140500000Y-75320000D02*
X142220000Y-75320000D01*
X132999000Y-80199000D02*
X137500000Y-84700000D01*
X144500000Y-85700000D02*
X143000000Y-85700000D01*
X129900000Y-80600000D02*
X130301000Y-80199000D01*
X145000000Y-85200000D02*
X144500000Y-85700000D01*
X129900000Y-81700000D02*
X129900000Y-80600000D01*
X129312500Y-82287500D02*
X129900000Y-81700000D01*
X145000000Y-78100000D02*
X145000000Y-85200000D01*
X137500000Y-84700000D02*
X142500000Y-84700000D01*
X129312500Y-84337500D02*
X129312500Y-82287500D01*
X142220000Y-75320000D02*
X145000000Y-78100000D01*
X143000000Y-85700000D02*
X142500000Y-85200000D01*
X142500000Y-85200000D02*
X142500000Y-84700000D01*
%TO.N,/In2*%
X129431931Y-81668069D02*
X129431931Y-80431931D01*
X142490000Y-83300000D02*
X142490000Y-79850000D01*
X128912500Y-82187500D02*
X129431931Y-81668069D01*
X129992862Y-79871000D02*
X133134862Y-79871000D01*
X128912500Y-84337500D02*
X128912500Y-82187500D01*
X129431931Y-80431931D02*
X129992862Y-79871000D01*
X136563862Y-83300000D02*
X142490000Y-83300000D01*
X133134862Y-79871000D02*
X136563862Y-83300000D01*
X142490000Y-79850000D02*
X140500000Y-77860000D01*
%TO.N,/In3*%
X137300000Y-80410000D02*
X137290000Y-80420000D01*
X136245000Y-80420000D02*
X134420000Y-80420000D01*
X140490000Y-80410000D02*
X140500000Y-80400000D01*
X129100000Y-80300000D02*
X129100000Y-81500000D01*
X129900000Y-79500000D02*
X129100000Y-80300000D01*
X129100000Y-81500000D02*
X128512500Y-82087500D01*
X134420000Y-80420000D02*
X133500000Y-79500000D01*
X137300000Y-80410000D02*
X140490000Y-80410000D01*
X128512500Y-82087500D02*
X128512500Y-84337500D01*
X137290000Y-80420000D02*
X136245000Y-80420000D01*
X133500000Y-79500000D02*
X129900000Y-79500000D01*
%TO.N,+3V3*%
X184775000Y-66975000D02*
X185400000Y-67600000D01*
X124912500Y-94237500D02*
X124912500Y-94987500D01*
X128795000Y-113525000D02*
X134795000Y-113525000D01*
X143510000Y-83300000D02*
X143700000Y-83300000D01*
X121696550Y-93087500D02*
X121554725Y-92945675D01*
X133861030Y-87487500D02*
X134424265Y-86924265D01*
X197455000Y-115412500D02*
X197455000Y-113775000D01*
X220750000Y-113926000D02*
X226750000Y-113926000D01*
X211115000Y-63312500D02*
X213115000Y-65312500D01*
X126912500Y-95800000D02*
X126912500Y-96985997D01*
X167307500Y-67000000D02*
X168012500Y-67000000D01*
X175500000Y-113025000D02*
X181500000Y-113025000D01*
X124600000Y-97800000D02*
X124300000Y-97500000D01*
X168012500Y-67000000D02*
X168307500Y-66705000D01*
X161365000Y-66975000D02*
X160680000Y-66975000D01*
X237365000Y-65337500D02*
X237365000Y-66975000D01*
X121708698Y-85085504D02*
X121785504Y-85085504D01*
X152275000Y-113525000D02*
X151750000Y-113000000D01*
X159000000Y-113525000D02*
X159685000Y-113525000D01*
X144070000Y-66975000D02*
X144975000Y-66975000D01*
X161777500Y-70250000D02*
X162865000Y-70250000D01*
X128795000Y-115162500D02*
X128795000Y-113525000D01*
X130725000Y-81800000D02*
X130725000Y-82387500D01*
X206430000Y-66950000D02*
X205705000Y-66225000D01*
X138200000Y-102900000D02*
X137540000Y-102900000D01*
X175500000Y-114662500D02*
X175500000Y-113025000D01*
X144975000Y-66975000D02*
X145000000Y-67000000D01*
X120223747Y-88700000D02*
X120479438Y-88955691D01*
X111935000Y-114025000D02*
X112660000Y-114750000D01*
X126512500Y-95400000D02*
X126912500Y-95800000D01*
X160680000Y-66975000D02*
X159955000Y-66250000D01*
X117142500Y-66990000D02*
X117847500Y-66990000D01*
X104475000Y-114025000D02*
X104250000Y-114250000D01*
X184160000Y-66975000D02*
X183475000Y-66975000D01*
X230680000Y-66975000D02*
X229955000Y-66250000D01*
X133287500Y-91487500D02*
X133893804Y-92093804D01*
X182185000Y-113025000D02*
X182910000Y-113750000D01*
X120611247Y-89087500D02*
X120479438Y-88955691D01*
X130795000Y-117162500D02*
X128795000Y-115162500D01*
X122562500Y-93087500D02*
X121696550Y-93087500D01*
X126912500Y-94237500D02*
X126912500Y-95800000D01*
X121708698Y-85008698D02*
X121708698Y-85085504D01*
X124600000Y-98420000D02*
X124600000Y-97800000D01*
X132462500Y-91487500D02*
X133287500Y-91487500D01*
X197322500Y-113687500D02*
X196547500Y-113687500D01*
X128112500Y-81556521D02*
X128195261Y-81473760D01*
X144070000Y-65337500D02*
X144070000Y-66975000D01*
X130112500Y-84337500D02*
X130112500Y-83000000D01*
X222750000Y-117563500D02*
X220750000Y-115563500D01*
X138205000Y-102905000D02*
X138200000Y-102900000D01*
X110515000Y-67215000D02*
X109790000Y-66490000D01*
X126512500Y-94237500D02*
X126512500Y-95400000D01*
X117200000Y-67215000D02*
X111200000Y-67215000D01*
X129712500Y-94237500D02*
X129712500Y-95488753D01*
X143700000Y-83300000D02*
X144300000Y-83900000D01*
X121500400Y-93000000D02*
X121554725Y-92945675D01*
X111612500Y-70490000D02*
X112700000Y-70490000D01*
X181500000Y-113025000D02*
X182185000Y-113025000D01*
X174387500Y-113187500D02*
X174387500Y-113437500D01*
X167365000Y-65337500D02*
X167365000Y-66975000D01*
X227435000Y-113926000D02*
X228160000Y-114651000D01*
X231777500Y-70250000D02*
X232865000Y-70250000D01*
X138070000Y-66975000D02*
X137385000Y-66975000D01*
X119400000Y-88700000D02*
X120223747Y-88700000D01*
X121200000Y-84500000D02*
X121708698Y-85008698D01*
X142070000Y-63337500D02*
X144070000Y-65337500D01*
X204140000Y-113775000D02*
X204865000Y-114500000D01*
X128000000Y-98420000D02*
X128000000Y-98148115D01*
X117245000Y-65690000D02*
X117245000Y-67327500D01*
X120700000Y-93000000D02*
X121500400Y-93000000D01*
X153000000Y-115162500D02*
X153000000Y-113525000D01*
X124600000Y-97200000D02*
X124300000Y-97500000D01*
X160000000Y-111662500D02*
X160000000Y-113840000D01*
X220572500Y-113838500D02*
X219797500Y-113838500D01*
X175162500Y-113187500D02*
X174387500Y-113187500D01*
X139895000Y-102905000D02*
X138205000Y-102905000D01*
X237365000Y-66975000D02*
X238070000Y-66975000D01*
X126912500Y-96985997D02*
X126875191Y-97023306D01*
X122562500Y-92687500D02*
X121812900Y-92687500D01*
X184572500Y-70250000D02*
X185660000Y-70250000D01*
X207527500Y-70225000D02*
X206115000Y-68812500D01*
X117950000Y-66985000D02*
X118245000Y-66690000D01*
X207527500Y-70225000D02*
X208615000Y-70225000D01*
X153000000Y-113525000D02*
X152275000Y-113525000D01*
X128662500Y-113687500D02*
X127887500Y-113687500D01*
X135000000Y-92100000D02*
X134212392Y-92100000D01*
X136245000Y-79400000D02*
X135355000Y-79400000D01*
X134500000Y-87000000D02*
X134424265Y-86924265D01*
X143520000Y-84680000D02*
X144300000Y-83900000D01*
X128112500Y-84337500D02*
X128112500Y-81556521D01*
X144070000Y-66975000D02*
X138070000Y-66975000D01*
X184160000Y-66975000D02*
X184775000Y-66975000D01*
X107250000Y-117662500D02*
X105250000Y-115662500D01*
X158587500Y-110250000D02*
X157500000Y-110250000D01*
X134212392Y-92100000D02*
X134206196Y-92093804D01*
X167365000Y-66975000D02*
X161365000Y-66975000D01*
X153000000Y-113525000D02*
X159000000Y-113525000D01*
X129712500Y-95488753D02*
X130073988Y-95850241D01*
X177500000Y-116662500D02*
X175500000Y-114662500D01*
X105250000Y-114025000D02*
X111250000Y-114025000D01*
X238070000Y-66975000D02*
X238365000Y-66680000D01*
X135480000Y-113525000D02*
X136205000Y-114250000D01*
X237365000Y-66975000D02*
X231365000Y-66975000D01*
X128000000Y-98148115D02*
X126875191Y-97023306D01*
X110837500Y-110750000D02*
X109750000Y-110750000D01*
X132462500Y-87487500D02*
X133861030Y-87487500D01*
X220750000Y-115563500D02*
X220750000Y-113926000D01*
X130800000Y-96576253D02*
X130073988Y-95850241D01*
X213115000Y-66950000D02*
X207115000Y-66950000D01*
X207115000Y-66950000D02*
X206430000Y-66950000D01*
X134795000Y-113525000D02*
X135480000Y-113525000D01*
X213115000Y-65312500D02*
X213115000Y-66950000D01*
X137385000Y-66975000D02*
X136660000Y-66250000D01*
X165365000Y-63337500D02*
X167365000Y-65337500D01*
X111200000Y-67215000D02*
X110515000Y-67215000D01*
X120075000Y-99025000D02*
X119900000Y-99200000D01*
X158587500Y-110250000D02*
X160000000Y-111662500D01*
X111250000Y-114025000D02*
X111935000Y-114025000D01*
X155300000Y-96400000D02*
X156800000Y-96400000D01*
X143520000Y-84700000D02*
X143520000Y-84680000D01*
X137540000Y-102900000D02*
X137200000Y-103240000D01*
X160000000Y-113840000D02*
X160410000Y-114250000D01*
X124600000Y-95300000D02*
X124600000Y-97200000D01*
X181087500Y-109750000D02*
X180000000Y-109750000D01*
X188160000Y-63337500D02*
X190160000Y-65337500D01*
X206115000Y-66635000D02*
X205705000Y-66225000D01*
X130800000Y-96600000D02*
X130800000Y-96576253D01*
X203455000Y-113775000D02*
X204140000Y-113775000D01*
X138482500Y-70250000D02*
X139570000Y-70250000D01*
X213115000Y-66770000D02*
X213820000Y-66770000D01*
X135220000Y-87000000D02*
X134500000Y-87000000D01*
X115200000Y-63577500D02*
X117200000Y-65577500D01*
X226750000Y-113926000D02*
X227435000Y-113926000D01*
X183475000Y-66975000D02*
X182750000Y-66250000D01*
X105250000Y-114025000D02*
X104475000Y-114025000D01*
X121785504Y-85085504D02*
X122187500Y-85487500D01*
X124912500Y-94987500D02*
X124600000Y-95300000D01*
X235365000Y-63337500D02*
X237365000Y-65337500D01*
X122562500Y-89087500D02*
X120611247Y-89087500D01*
X134382500Y-110250000D02*
X133295000Y-110250000D01*
X197455000Y-113775000D02*
X203455000Y-113775000D01*
X226337500Y-110651000D02*
X225250000Y-110651000D01*
X206115000Y-68812500D02*
X206115000Y-66635000D01*
X155000000Y-117162500D02*
X153000000Y-115162500D01*
X231365000Y-66975000D02*
X230680000Y-66975000D01*
X105250000Y-115662500D02*
X105250000Y-114025000D01*
X213820000Y-66770000D02*
X214115000Y-66475000D01*
X190160000Y-66975000D02*
X184160000Y-66975000D01*
X133893804Y-92093804D02*
X134206196Y-92093804D01*
X130112500Y-83000000D02*
X130312500Y-82800000D01*
X121812900Y-92687500D02*
X121554725Y-92945675D01*
X203042500Y-110500000D02*
X201955000Y-110500000D01*
X122187500Y-85487500D02*
X122562500Y-85487500D01*
X159685000Y-113525000D02*
X160410000Y-114250000D01*
X174387500Y-113437500D02*
X174162500Y-113662500D01*
X130725000Y-82387500D02*
X130312500Y-82800000D01*
X199455000Y-117412500D02*
X197455000Y-115412500D01*
X121300000Y-99025000D02*
X120075000Y-99025000D01*
X128200000Y-80580000D02*
X128200000Y-81469021D01*
X190160000Y-65337500D02*
X190160000Y-66975000D01*
X128200000Y-81469021D02*
X128195261Y-81473760D01*
%TO.N,/DIR12*%
X130300000Y-81000000D02*
X130500000Y-80800000D01*
X130500000Y-80800000D02*
X131200000Y-80800000D01*
X130300000Y-81900000D02*
X130300000Y-81000000D01*
X129712500Y-82487500D02*
X130300000Y-81900000D01*
X111290000Y-64490000D02*
X109790000Y-64490000D01*
X111400000Y-64600000D02*
X111290000Y-64490000D01*
X129712500Y-84337500D02*
X129712500Y-82487500D01*
%TO.N,/DIR9*%
X183850000Y-64250000D02*
X182750000Y-64250000D01*
X132462500Y-86287500D02*
X133212500Y-86287500D01*
X133212500Y-86287500D02*
X133872000Y-85628000D01*
X139842768Y-85628000D02*
X140000000Y-85785232D01*
X133872000Y-85628000D02*
X139842768Y-85628000D01*
X184100000Y-64500000D02*
X183850000Y-64250000D01*
%TO.N,/DIR1*%
X131600000Y-95600000D02*
X133349943Y-95600000D01*
X133900000Y-96150057D02*
X133900000Y-97000000D01*
X127900000Y-104400000D02*
X115900000Y-104400000D01*
X128200000Y-104700000D02*
X127900000Y-104400000D01*
X115900000Y-104400000D02*
X113800000Y-106500000D01*
X113800000Y-106500000D02*
X103200000Y-106500000D01*
X130912500Y-94237500D02*
X130912500Y-94912500D01*
X130912500Y-94912500D02*
X131600000Y-95600000D01*
X111250000Y-116750000D02*
X112660000Y-116750000D01*
X133349943Y-95600000D02*
X133900000Y-96150057D01*
X111100000Y-116600000D02*
X111250000Y-116750000D01*
%TO.N,/DIR8*%
X137700000Y-86300000D02*
X138385232Y-86985232D01*
X207325000Y-64225000D02*
X205705000Y-64225000D01*
X133512500Y-87087500D02*
X133800000Y-86800000D01*
X133800000Y-86698587D02*
X134198587Y-86300000D01*
X133800000Y-86800000D02*
X133800000Y-86698587D01*
X134198587Y-86300000D02*
X137700000Y-86300000D01*
X132462500Y-87087500D02*
X133512500Y-87087500D01*
X207500000Y-64400000D02*
X207325000Y-64225000D01*
X138385232Y-86985232D02*
X138791092Y-86985232D01*
%TO.N,Net-(D7-PadA)*%
X244575000Y-109175000D02*
X244575000Y-109250000D01*
X246500000Y-107250000D02*
X244575000Y-109175000D01*
%TO.N,/EXT_GPIO1*%
X95780000Y-83042500D02*
X96600000Y-83042500D01*
X95600000Y-80100000D02*
X94800000Y-80900000D01*
X119328000Y-83372000D02*
X118400000Y-84300000D01*
X119328000Y-83372000D02*
X123735862Y-83372000D01*
X124112500Y-84337500D02*
X124112500Y-83748638D01*
X94800000Y-82062500D02*
X95780000Y-83042500D01*
X118400000Y-84300000D02*
X117300000Y-84300000D01*
X94800000Y-80900000D02*
X94800000Y-82062500D01*
X124112500Y-83748638D02*
X123735862Y-83372000D01*
X96400000Y-80100000D02*
X95600000Y-80100000D01*
%TO.N,/QSPI_SD3*%
X127312500Y-96612500D02*
X132335000Y-101635000D01*
X127312500Y-94237500D02*
X127312500Y-96612500D01*
X132335000Y-101635000D02*
X139895000Y-101635000D01*
%TO.N,/STEP1*%
X130512500Y-94976362D02*
X131536138Y-96000000D01*
X114700000Y-102700000D02*
X115600000Y-103600000D01*
X130512500Y-94237500D02*
X130512500Y-94976362D01*
X131536138Y-96000000D02*
X132900000Y-96000000D01*
X110200000Y-102700000D02*
X114700000Y-102700000D01*
X132900000Y-96000000D02*
X133300000Y-96400000D01*
X110850000Y-115250000D02*
X112660000Y-115250000D01*
X110100000Y-114625000D02*
X110225000Y-114625000D01*
X110225000Y-114625000D02*
X110850000Y-115250000D01*
%TO.N,/STEP6*%
X228160000Y-115151000D02*
X226051000Y-115151000D01*
X132462500Y-89887500D02*
X133587500Y-89887500D01*
X133587500Y-89887500D02*
X134205000Y-90505000D01*
X225600000Y-114700000D02*
X224200000Y-114700000D01*
X140004757Y-90505000D02*
X140303976Y-90205781D01*
X134205000Y-90505000D02*
X140004757Y-90505000D01*
X224200000Y-114700000D02*
X224100000Y-114600000D01*
X226051000Y-115151000D02*
X225600000Y-114700000D01*
%TO.N,/DIR6*%
X138387500Y-89087500D02*
X139000000Y-89700000D01*
X132462500Y-89087500D02*
X138387500Y-89087500D01*
X226751000Y-116651000D02*
X226700000Y-116600000D01*
X228160000Y-116651000D02*
X226751000Y-116651000D01*
%TO.N,/DIR2*%
X133775000Y-94400000D02*
X134300000Y-94400000D01*
X136205000Y-116250000D02*
X134650000Y-116250000D01*
X132462500Y-93087500D02*
X133775000Y-94400000D01*
X134650000Y-116250000D02*
X134600000Y-116200000D01*
%TO.N,/EXT_GPIO12*%
X104187500Y-84312500D02*
X100500000Y-84312500D01*
X104200000Y-84300000D02*
X104187500Y-84312500D01*
X120535862Y-90728000D02*
X117764138Y-90728000D01*
X108364138Y-88428000D02*
X104236138Y-84300000D01*
X115464138Y-88428000D02*
X108364138Y-88428000D01*
X117764138Y-90728000D02*
X115464138Y-88428000D01*
X122562500Y-90287500D02*
X120976362Y-90287500D01*
X120976362Y-90287500D02*
X120535862Y-90728000D01*
X104236138Y-84300000D02*
X104200000Y-84300000D01*
%TO.N,/STEP10*%
X162575000Y-66375000D02*
X161950000Y-65750000D01*
X161950000Y-65750000D02*
X159955000Y-65750000D01*
X132462500Y-85887500D02*
X133112500Y-85887500D01*
X133700000Y-85300000D02*
X136328000Y-85300000D01*
X133112500Y-85887500D02*
X133700000Y-85300000D01*
X163100000Y-66375000D02*
X162575000Y-66375000D01*
X136328000Y-85300000D02*
X136600000Y-85028000D01*
%TO.N,/STEP4*%
X136319550Y-92744000D02*
X137575550Y-94000000D01*
X137575550Y-94000000D02*
X138300000Y-94000000D01*
X182910000Y-114250000D02*
X180850000Y-114250000D01*
X180300000Y-113700000D02*
X177600000Y-113700000D01*
X180850000Y-114250000D02*
X180300000Y-113700000D01*
X134007862Y-92744000D02*
X136319550Y-92744000D01*
X132462500Y-91887500D02*
X133151362Y-91887500D01*
X133151362Y-91887500D02*
X134007862Y-92744000D01*
%TO.N,/DIR3*%
X133087500Y-92287500D02*
X133872000Y-93072000D01*
X160410000Y-116250000D02*
X159150000Y-116250000D01*
X132462500Y-92287500D02*
X133087500Y-92287500D01*
X135246862Y-93072000D02*
X136700000Y-94525138D01*
X133872000Y-93072000D02*
X135246862Y-93072000D01*
X136700000Y-94525138D02*
X136700000Y-95400000D01*
X159150000Y-116250000D02*
X159100000Y-116200000D01*
%TO.N,/STEP11*%
X140300000Y-66375000D02*
X139275000Y-66375000D01*
X138650000Y-65750000D02*
X136660000Y-65750000D01*
X131312500Y-84337500D02*
X131312500Y-83687500D01*
X131400000Y-83600000D02*
X134400000Y-83600000D01*
X134400000Y-83600000D02*
X134500000Y-83500000D01*
X139275000Y-66375000D02*
X138650000Y-65750000D01*
X131312500Y-83687500D02*
X131400000Y-83600000D01*
%TO.N,/STEP8*%
X139101000Y-87499000D02*
X141099000Y-87499000D01*
X208250000Y-66350000D02*
X207800000Y-65900000D01*
X209100000Y-66350000D02*
X208250000Y-66350000D01*
X138712500Y-87887500D02*
X139101000Y-87499000D01*
X207300000Y-65900000D02*
X207125000Y-65725000D01*
X207800000Y-65900000D02*
X207300000Y-65900000D01*
X141099000Y-87499000D02*
X141300000Y-87700000D01*
X132462500Y-87887500D02*
X138712500Y-87887500D01*
X207125000Y-65725000D02*
X205705000Y-65725000D01*
%TO.N,/DIR7*%
X138812500Y-88287500D02*
X139000000Y-88100000D01*
X231400000Y-64500000D02*
X231150000Y-64250000D01*
X231150000Y-64250000D02*
X229955000Y-64250000D01*
X139700000Y-88100000D02*
X139800000Y-88200000D01*
X132462500Y-88287500D02*
X138812500Y-88287500D01*
X140300000Y-88200000D02*
X140400000Y-88100000D01*
X139000000Y-88100000D02*
X139700000Y-88100000D01*
X139800000Y-88200000D02*
X140300000Y-88200000D01*
%TO.N,/EXT_GPIO16*%
X121207862Y-92056000D02*
X117236690Y-92056000D01*
X114932483Y-89751793D02*
X107832483Y-89751793D01*
X122562500Y-91887500D02*
X121376362Y-91887500D01*
X107473190Y-89392500D02*
X100500000Y-89392500D01*
X107832483Y-89751793D02*
X107473190Y-89392500D01*
X121376362Y-91887500D02*
X121207862Y-92056000D01*
X117236690Y-92056000D02*
X114932483Y-89751793D01*
%TO.N,/STEP7*%
X132462500Y-88687500D02*
X139287500Y-88687500D01*
X232475000Y-66375000D02*
X231850000Y-65750000D01*
X233100000Y-66375000D02*
X232475000Y-66375000D01*
X231850000Y-65750000D02*
X229955000Y-65750000D01*
X139287500Y-88687500D02*
X139300000Y-88700000D01*
%TO.N,/DIR5*%
X132462500Y-90287500D02*
X133515224Y-90287500D01*
X203400000Y-116500000D02*
X204865000Y-116500000D01*
X134060724Y-90833000D02*
X140233000Y-90833000D01*
X133515224Y-90287500D02*
X134060724Y-90833000D01*
X203300000Y-116400000D02*
X203400000Y-116500000D01*
X140233000Y-90833000D02*
X140400000Y-91000000D01*
%TO.N,/STEP12*%
X112400000Y-66600000D02*
X111790000Y-65990000D01*
X131200000Y-82800000D02*
X133100000Y-82800000D01*
X130512500Y-83487500D02*
X131200000Y-82800000D01*
X130512500Y-84337500D02*
X130512500Y-83487500D01*
X133100000Y-82800000D02*
X133700000Y-82200000D01*
X114100000Y-66600000D02*
X112400000Y-66600000D01*
X111790000Y-65990000D02*
X109790000Y-65990000D01*
%TO.N,/STEP9*%
X133276362Y-86687500D02*
X134007862Y-85956000D01*
X185700000Y-66375000D02*
X185275000Y-66375000D01*
X138970768Y-85956000D02*
X139400000Y-86385232D01*
X184650000Y-65750000D02*
X182750000Y-65750000D01*
X185275000Y-66375000D02*
X184650000Y-65750000D01*
X134007862Y-85956000D02*
X138970768Y-85956000D01*
X132462500Y-86687500D02*
X133276362Y-86687500D01*
%TO.N,/QSPI_SD1*%
X128912500Y-96212500D02*
X132772000Y-100072000D01*
X128912500Y-94237500D02*
X128912500Y-96212500D01*
X149665000Y-101635000D02*
X147105000Y-101635000D01*
X150000000Y-101300000D02*
X149665000Y-101635000D01*
X149400000Y-97200000D02*
X150000000Y-97800000D01*
X132772000Y-100072000D02*
X134928000Y-100072000D01*
X150000000Y-97800000D02*
X150000000Y-101300000D01*
X134928000Y-100072000D02*
X137800000Y-97200000D01*
X137800000Y-97200000D02*
X149400000Y-97200000D01*
%TO.N,/STEP3*%
X158450000Y-114750000D02*
X160410000Y-114750000D01*
X135111000Y-93400000D02*
X136000000Y-94289000D01*
X133700000Y-93400000D02*
X135111000Y-93400000D01*
X136000000Y-94289000D02*
X136000000Y-95900000D01*
X157300000Y-114125000D02*
X157825000Y-114125000D01*
X157825000Y-114125000D02*
X158450000Y-114750000D01*
X132462500Y-92687500D02*
X132987500Y-92687500D01*
X132987500Y-92687500D02*
X133700000Y-93400000D01*
%TO.N,/DIR4*%
X133789000Y-91489000D02*
X137089000Y-91489000D01*
X137089000Y-91489000D02*
X138000000Y-92400000D01*
X133387500Y-91087500D02*
X133789000Y-91489000D01*
X181750000Y-115750000D02*
X182910000Y-115750000D01*
X181600000Y-115600000D02*
X181750000Y-115750000D01*
X132462500Y-91087500D02*
X133387500Y-91087500D01*
%TO.N,/EXT_GPIO5*%
X122562500Y-86687500D02*
X121523638Y-86687500D01*
X121523638Y-86687500D02*
X120618069Y-85781931D01*
X120618069Y-85781931D02*
X120474069Y-85925931D01*
X120474069Y-85925931D02*
X114400000Y-85925931D01*
X114400000Y-85925931D02*
X113395836Y-84921767D01*
X113395836Y-84921767D02*
X113395836Y-84678014D01*
X97477500Y-88122500D02*
X96600000Y-88122500D01*
%TO.N,/STEP5*%
X202900000Y-115000000D02*
X204865000Y-115000000D01*
X137800000Y-91600000D02*
X139200000Y-91600000D01*
X132462500Y-90687500D02*
X133451362Y-90687500D01*
X137361000Y-91161000D02*
X137800000Y-91600000D01*
X133451362Y-90687500D02*
X133924862Y-91161000D01*
X200200000Y-114375000D02*
X202275000Y-114375000D01*
X133924862Y-91161000D02*
X137361000Y-91161000D01*
X202275000Y-114375000D02*
X202900000Y-115000000D01*
%TO.N,/QSPI_SD2*%
X149672000Y-100228000D02*
X149400000Y-100500000D01*
X149400000Y-100500000D02*
X147240000Y-100500000D01*
X128512500Y-94237500D02*
X128512500Y-96312500D01*
X149672000Y-97972000D02*
X149672000Y-100228000D01*
X135100000Y-100400000D02*
X137972000Y-97528000D01*
X147240000Y-100500000D02*
X147105000Y-100365000D01*
X128512500Y-96312500D02*
X132600000Y-100400000D01*
X149228000Y-97528000D02*
X149672000Y-97972000D01*
X132600000Y-100400000D02*
X135100000Y-100400000D01*
X137972000Y-97528000D02*
X149228000Y-97528000D01*
%TO.N,/QSPI_SD0*%
X132642862Y-100942862D02*
X132642862Y-100979000D01*
X139895000Y-99095000D02*
X139448138Y-99095000D01*
X137564138Y-100979000D02*
X132642862Y-100979000D01*
X128112500Y-94237500D02*
X128112500Y-96412500D01*
X139448138Y-99095000D02*
X137564138Y-100979000D01*
X128112500Y-96412500D02*
X132642862Y-100942862D01*
%TO.N,/STEP2*%
X131312500Y-94237500D02*
X131312500Y-94812500D01*
X133900000Y-95200000D02*
X135800000Y-97100000D01*
X134700000Y-114650000D02*
X134800000Y-114750000D01*
X131312500Y-94812500D02*
X131700000Y-95200000D01*
X134800000Y-114750000D02*
X136205000Y-114750000D01*
X131700000Y-95200000D02*
X133900000Y-95200000D01*
%TO.N,/QSPI_SCLK*%
X127712500Y-96512500D02*
X132500000Y-101300000D01*
X127712500Y-94237500D02*
X127712500Y-96512500D01*
X137700000Y-101307000D02*
X138642000Y-100365000D01*
X132500000Y-101307000D02*
X137700000Y-101307000D01*
X132500000Y-101300000D02*
X132500000Y-101307000D01*
X138642000Y-100365000D02*
X139895000Y-100365000D01*
%TO.N,/DIR10*%
X133012500Y-85487500D02*
X133528000Y-84972000D01*
X132462500Y-85487500D02*
X133012500Y-85487500D01*
X135328000Y-84972000D02*
X135800000Y-84500000D01*
X133528000Y-84972000D02*
X135328000Y-84972000D01*
X159955000Y-64250000D02*
X161350000Y-64250000D01*
X161350000Y-64250000D02*
X161400000Y-64300000D01*
%TO.N,/DIR11*%
X130912500Y-83587500D02*
X131228000Y-83272000D01*
X138000000Y-64400000D02*
X137850000Y-64250000D01*
X131228000Y-83272000D02*
X133879470Y-83272000D01*
X133879470Y-83272000D02*
X134551470Y-82600000D01*
X137850000Y-64250000D02*
X136660000Y-64250000D01*
X130912500Y-84337500D02*
X130912500Y-83587500D01*
%TO.N,/EXT_GPIO10*%
X108663862Y-87763862D02*
X104000000Y-83100000D01*
X103272500Y-81772500D02*
X100500000Y-81772500D01*
X121059776Y-88687500D02*
X120136138Y-87763862D01*
X104000000Y-83100000D02*
X104000000Y-82500000D01*
X104000000Y-82500000D02*
X103272500Y-81772500D01*
X122562500Y-88687500D02*
X121059776Y-88687500D01*
X120136138Y-87763862D02*
X108663862Y-87763862D01*
%TO.N,/EXT_GPIO17*%
X122562500Y-92287500D02*
X121440224Y-92287500D01*
X103337500Y-90662500D02*
X100500000Y-90662500D01*
X114808414Y-90091586D02*
X103908414Y-90091586D01*
X117000000Y-92283172D02*
X114808414Y-90091586D01*
X121440224Y-92287500D02*
X121343724Y-92384000D01*
X121343724Y-92384000D02*
X117084000Y-92384000D01*
X103908414Y-90091586D02*
X103337500Y-90662500D01*
X117084000Y-92384000D02*
X117000000Y-92300000D01*
X117000000Y-92300000D02*
X117000000Y-92283172D01*
%TO.N,/EXT_GPIO4*%
X114967459Y-85597931D02*
X119702069Y-85597931D01*
X121587500Y-86287500D02*
X120700000Y-85400000D01*
X114967459Y-85597931D02*
X114184097Y-84814569D01*
X122562500Y-86287500D02*
X121587500Y-86287500D01*
X120700000Y-85400000D02*
X119900000Y-85400000D01*
X119900000Y-85400000D02*
X119702069Y-85597931D01*
%TO.N,/RESET_N*%
X202400000Y-73800000D02*
X203615000Y-72585000D01*
X138295000Y-108105000D02*
X138295000Y-113160000D01*
X114750000Y-108150000D02*
X114750000Y-113660000D01*
X162500000Y-106800000D02*
X162500000Y-113160000D01*
X134570000Y-74630000D02*
X134570000Y-73800000D01*
X188300000Y-103400000D02*
X185000000Y-106700000D01*
X185000000Y-106700000D02*
X185000000Y-112660000D01*
X178500000Y-77500000D02*
X178500000Y-74900000D01*
X162500000Y-106800000D02*
X165900000Y-103400000D01*
X219500000Y-73800000D02*
X226600000Y-73800000D01*
X180660000Y-72740000D02*
X180660000Y-67340000D01*
X134570000Y-73800000D02*
X134570000Y-67340000D01*
X179600000Y-73800000D02*
X189600000Y-73800000D01*
X188400000Y-103400000D02*
X188300000Y-103400000D01*
X162500000Y-106800000D02*
X139600000Y-106800000D01*
X139600000Y-106800000D02*
X116100000Y-106800000D01*
X179600000Y-73800000D02*
X180660000Y-72740000D01*
X203615000Y-72585000D02*
X203615000Y-67315000D01*
X133300000Y-75900000D02*
X134570000Y-74630000D01*
X129200000Y-75900000D02*
X133300000Y-75900000D01*
X156600000Y-73800000D02*
X157865000Y-72535000D01*
X157865000Y-72535000D02*
X157865000Y-67340000D01*
X116100000Y-106800000D02*
X114750000Y-108150000D01*
X107600000Y-70900000D02*
X107700000Y-70800000D01*
X118256000Y-83044000D02*
X123871724Y-83044000D01*
X227865000Y-72535000D02*
X227865000Y-67340000D01*
X118256000Y-83044000D02*
X117700000Y-83600000D01*
X139600000Y-106800000D02*
X138295000Y-108105000D01*
X178500000Y-74900000D02*
X179600000Y-73800000D01*
X230250000Y-108050000D02*
X230250000Y-113561000D01*
X124512500Y-83684776D02*
X123871724Y-83044000D01*
X134570000Y-73800000D02*
X156600000Y-73800000D01*
X124512500Y-84337500D02*
X124512500Y-83684776D01*
X226600000Y-73800000D02*
X227865000Y-72535000D01*
X202400000Y-73800000D02*
X219500000Y-73800000D01*
X107700000Y-70800000D02*
X107700000Y-67580000D01*
%TO.N,/EXT_GPIO6*%
X114000000Y-86253931D02*
X120553931Y-86253931D01*
X122562500Y-87087500D02*
X121387500Y-87087500D01*
X97507500Y-89392500D02*
X96600000Y-89392500D01*
X113025017Y-85263572D02*
X112850743Y-85263572D01*
X98500000Y-88400000D02*
X97507500Y-89392500D01*
X114000000Y-86253931D02*
X114000000Y-86238555D01*
X120553931Y-86253931D02*
X121387500Y-87087500D01*
X114000000Y-86238555D02*
X113025017Y-85263572D01*
%TO.N,/EXT_GPIO9*%
X98400000Y-93000000D02*
X98197500Y-93202500D01*
X98700000Y-93000000D02*
X98400000Y-93000000D01*
X121123638Y-88287500D02*
X120218069Y-87381931D01*
X122562500Y-88287500D02*
X121123638Y-88287500D01*
X120218069Y-87381931D02*
X112118069Y-87381931D01*
X112118069Y-87381931D02*
X111900000Y-87163862D01*
X98197500Y-93202500D02*
X96600000Y-93202500D01*
%TO.N,/EXT_GPIO3*%
X121687500Y-85887500D02*
X121400000Y-85600000D01*
X119174722Y-85072000D02*
X119100653Y-84997931D01*
X122562500Y-85887500D02*
X121687500Y-85887500D01*
X120835862Y-85072000D02*
X121363862Y-85600000D01*
X98700000Y-84302500D02*
X97420000Y-85582500D01*
X97420000Y-85582500D02*
X96600000Y-85582500D01*
X98700000Y-84100000D02*
X98700000Y-84302500D01*
X121400000Y-85600000D02*
X121363862Y-85600000D01*
X119174722Y-85072000D02*
X120835862Y-85072000D01*
%TO.N,/EXT_GPIO7*%
X121323638Y-87487500D02*
X120418069Y-86581931D01*
X98037500Y-90662500D02*
X96600000Y-90662500D01*
X98300000Y-90400000D02*
X98037500Y-90662500D01*
X120418069Y-86581931D02*
X113493433Y-86581931D01*
X122562500Y-87487500D02*
X121323638Y-87487500D01*
X113493433Y-86581931D02*
X112966637Y-86055135D01*
X98600000Y-90400000D02*
X98300000Y-90400000D01*
%TO.N,/EXT_GPIO13*%
X105054776Y-85582500D02*
X100500000Y-85582500D01*
X108228276Y-88756000D02*
X105054776Y-85582500D01*
X117628276Y-91056000D02*
X115328276Y-88756000D01*
X115328276Y-88756000D02*
X108228276Y-88756000D01*
X121112500Y-90687500D02*
X120744000Y-91056000D01*
X120744000Y-91056000D02*
X117628276Y-91056000D01*
X122562500Y-90687500D02*
X121112500Y-90687500D01*
%TO.N,/EXT_GPIO8*%
X112800385Y-86950000D02*
X112632316Y-86781931D01*
X122562500Y-87887500D02*
X121187500Y-87887500D01*
X98300000Y-91700000D02*
X98067500Y-91932500D01*
X120250000Y-86950000D02*
X112800385Y-86950000D01*
X121187500Y-87887500D02*
X120250000Y-86950000D01*
X98067500Y-91932500D02*
X96600000Y-91932500D01*
X98700000Y-91700000D02*
X98300000Y-91700000D01*
%TO.N,/EXT_GPIO11*%
X120400000Y-90400000D02*
X117900000Y-90400000D01*
X108500000Y-88100000D02*
X107500000Y-87100000D01*
X117900000Y-90400000D02*
X115600000Y-88100000D01*
X107500000Y-87063862D02*
X103478638Y-83042500D01*
X107500000Y-87100000D02*
X107500000Y-87063862D01*
X122562500Y-89887500D02*
X120912500Y-89887500D01*
X120912500Y-89887500D02*
X120400000Y-90400000D01*
X115600000Y-88100000D02*
X108500000Y-88100000D01*
X103478638Y-83042500D02*
X100500000Y-83042500D01*
%TO.N,/EXT_GPIO2*%
X98700000Y-83032500D02*
X97420000Y-84312500D01*
X118350057Y-84900000D02*
X119550057Y-83700000D01*
X123712500Y-84337500D02*
X123712500Y-83812500D01*
X98700000Y-80700000D02*
X98700000Y-83032500D01*
X119550057Y-83700000D02*
X123600000Y-83700000D01*
X118350057Y-84900000D02*
X116500000Y-84900000D01*
X97420000Y-84312500D02*
X96600000Y-84312500D01*
X123600000Y-83700000D02*
X123712500Y-83812500D01*
%TO.N,/EXT_GPIO15*%
X115068345Y-89423793D02*
X107968345Y-89423793D01*
X106667052Y-88122500D02*
X100500000Y-88122500D01*
X121072000Y-91728000D02*
X117372552Y-91728000D01*
X117372552Y-91728000D02*
X115068345Y-89423793D01*
X107968345Y-89423793D02*
X106667052Y-88122500D01*
X121312500Y-91487500D02*
X121072000Y-91728000D01*
X122562500Y-91487500D02*
X121312500Y-91487500D01*
%TO.N,/EXT_GPIO14*%
X106000000Y-87000000D02*
X105852500Y-86852500D01*
X115204207Y-89095793D02*
X108104207Y-89095793D01*
X105852500Y-86852500D02*
X100500000Y-86852500D01*
X120916000Y-91384000D02*
X117492414Y-91384000D01*
X108104207Y-89095793D02*
X106008414Y-87000000D01*
X121212500Y-91087500D02*
X120916000Y-91384000D01*
X122562500Y-91087500D02*
X121212500Y-91087500D01*
X117492414Y-91384000D02*
X115204207Y-89095793D01*
X106008414Y-87000000D02*
X106000000Y-87000000D01*
%TO.N,Net-(U3-{slash}CS)*%
X151200000Y-102905000D02*
X151270000Y-102905000D01*
X151100000Y-96400000D02*
X145500000Y-96400000D01*
X153987500Y-102400000D02*
X151775000Y-102400000D01*
X151200000Y-96500000D02*
X151100000Y-96400000D01*
X145500000Y-96400000D02*
X144800000Y-95700000D01*
X151200000Y-102905000D02*
X151200000Y-96500000D01*
X153475000Y-96400000D02*
X151100000Y-96400000D01*
X151775000Y-102400000D02*
X151270000Y-102905000D01*
X147105000Y-102905000D02*
X151200000Y-102905000D01*
%TO.N,/GPIO0*%
X155600000Y-99900000D02*
X155812500Y-100112500D01*
X130112500Y-95040224D02*
X132773276Y-97701000D01*
X130112500Y-94237500D02*
X130112500Y-95040224D01*
X132773276Y-97701000D02*
X136048943Y-97701000D01*
X136048943Y-97701000D02*
X137900000Y-95849943D01*
X137900000Y-95849943D02*
X137900000Y-95600000D01*
X155812500Y-100112500D02*
X155812500Y-102400000D01*
%TO.N,Net-(U1-GPIO28)*%
X124151862Y-82388000D02*
X116122000Y-82388000D01*
X125312500Y-84337500D02*
X125312500Y-83548638D01*
X116122000Y-82388000D02*
X115710000Y-82800000D01*
X125312500Y-83548638D02*
X124151862Y-82388000D01*
%TO.N,Net-(U1-GPIO29)*%
X116984000Y-82716000D02*
X115800000Y-83900000D01*
X124016000Y-82716000D02*
X116984000Y-82716000D01*
X115800000Y-83900000D02*
X115710000Y-83900000D01*
X124912500Y-84337500D02*
X124912500Y-83612500D01*
X124912500Y-83612500D02*
X124016000Y-82716000D01*
%TO.N,Net-(U4-~{SLEEP})*%
X113750000Y-113660000D02*
X113750000Y-111837500D01*
X113750000Y-111837500D02*
X112662500Y-110750000D01*
%TO.N,Net-(U4-MS1)*%
X116250000Y-111662500D02*
X116250000Y-113660000D01*
X115750000Y-113660000D02*
X116250000Y-113660000D01*
X115750000Y-113660000D02*
X115250000Y-113660000D01*
%TO.N,Net-(U4-~{ENABLE})*%
X122500000Y-117250000D02*
X122750000Y-117000000D01*
X117840000Y-117250000D02*
X122500000Y-117250000D01*
%TO.N,Net-(U5-~{ENABLE})*%
X141385000Y-116750000D02*
X146045000Y-116750000D01*
X146045000Y-116750000D02*
X146295000Y-116500000D01*
%TO.N,Net-(U5-MS1)*%
X139795000Y-111162500D02*
X139795000Y-113160000D01*
X139295000Y-113160000D02*
X138795000Y-113160000D01*
X139295000Y-113160000D02*
X139795000Y-113160000D01*
%TO.N,Net-(U5-~{SLEEP})*%
X137295000Y-111337500D02*
X136207500Y-110250000D01*
X137295000Y-113160000D02*
X137295000Y-111337500D01*
%TO.N,Net-(U6-~{ENABLE})*%
X165590000Y-116750000D02*
X170250000Y-116750000D01*
X170250000Y-116750000D02*
X170500000Y-116500000D01*
%TO.N,Net-(U6-MS1)*%
X163500000Y-113160000D02*
X163000000Y-113160000D01*
X163500000Y-113160000D02*
X164000000Y-113160000D01*
X164000000Y-111162500D02*
X164000000Y-113160000D01*
%TO.N,Net-(U6-~{SLEEP})*%
X161500000Y-111337500D02*
X160412500Y-110250000D01*
X161500000Y-113160000D02*
X161500000Y-111337500D01*
%TO.N,Net-(U7-~{ENABLE})*%
X192750000Y-116250000D02*
X193000000Y-116000000D01*
X188090000Y-116250000D02*
X192750000Y-116250000D01*
%TO.N,Net-(U7-MS1)*%
X186500000Y-110662500D02*
X186500000Y-112660000D01*
X186000000Y-112660000D02*
X186500000Y-112660000D01*
X186000000Y-112660000D02*
X185500000Y-112660000D01*
%TO.N,Net-(U7-~{SLEEP})*%
X184000000Y-112660000D02*
X184000000Y-110837500D01*
X184000000Y-110837500D02*
X182912500Y-109750000D01*
%TO.N,Net-(U8-~{ENABLE})*%
X214705000Y-117000000D02*
X214955000Y-116750000D01*
X210045000Y-117000000D02*
X214705000Y-117000000D01*
%TO.N,Net-(U8-MS1)*%
X208455000Y-111412500D02*
X208455000Y-113410000D01*
X207955000Y-113410000D02*
X207455000Y-113410000D01*
X207955000Y-113410000D02*
X208455000Y-113410000D01*
%TO.N,Net-(U8-~{SLEEP})*%
X205955000Y-111587500D02*
X204867500Y-110500000D01*
X205955000Y-113410000D02*
X205955000Y-111587500D01*
%TO.N,Net-(U9-~{ENABLE})*%
X238000000Y-117151000D02*
X238250000Y-116901000D01*
X233340000Y-117151000D02*
X238000000Y-117151000D01*
%TO.N,Net-(U9-MS1)*%
X231750000Y-111563500D02*
X231750000Y-113561000D01*
X231250000Y-113561000D02*
X231750000Y-113561000D01*
X231250000Y-113561000D02*
X230750000Y-113561000D01*
%TO.N,Net-(U9-~{SLEEP})*%
X229250000Y-111738500D02*
X228162500Y-110651000D01*
X229250000Y-113561000D02*
X229250000Y-111738500D01*
%TO.N,Net-(U10-~{ENABLE})*%
X224775000Y-63750000D02*
X220115000Y-63750000D01*
X220115000Y-63750000D02*
X219865000Y-64000000D01*
%TO.N,Net-(U10-MS1)*%
X226865000Y-67340000D02*
X227365000Y-67340000D01*
X226865000Y-67340000D02*
X226365000Y-67340000D01*
X226365000Y-69337500D02*
X226365000Y-67340000D01*
%TO.N,Net-(U10-~{SLEEP})*%
X228865000Y-69162500D02*
X229952500Y-70250000D01*
X228865000Y-67340000D02*
X228865000Y-69162500D01*
%TO.N,Net-(U11-~{ENABLE})*%
X195865000Y-63725000D02*
X195615000Y-63975000D01*
X200525000Y-63725000D02*
X195865000Y-63725000D01*
%TO.N,Net-(U11-MS1)*%
X202115000Y-69312500D02*
X202115000Y-67315000D01*
X202615000Y-67315000D02*
X202115000Y-67315000D01*
X202615000Y-67315000D02*
X203115000Y-67315000D01*
%TO.N,Net-(U11-~{SLEEP})*%
X204615000Y-67315000D02*
X204615000Y-69137500D01*
X204615000Y-69137500D02*
X205702500Y-70225000D01*
%TO.N,Net-(U12-~{ENABLE})*%
X172910000Y-63750000D02*
X172660000Y-64000000D01*
X177570000Y-63750000D02*
X172910000Y-63750000D01*
%TO.N,Net-(U12-MS1)*%
X179660000Y-67340000D02*
X179160000Y-67340000D01*
X179660000Y-67340000D02*
X180160000Y-67340000D01*
X179160000Y-69337500D02*
X179160000Y-67340000D01*
%TO.N,Net-(U12-~{SLEEP})*%
X181660000Y-69162500D02*
X182747500Y-70250000D01*
X181660000Y-67340000D02*
X181660000Y-69162500D01*
%TO.N,Net-(U13-~{ENABLE})*%
X150115000Y-63750000D02*
X149865000Y-64000000D01*
X154775000Y-63750000D02*
X150115000Y-63750000D01*
%TO.N,Net-(U13-MS1)*%
X156365000Y-69337500D02*
X156365000Y-67340000D01*
X156865000Y-67340000D02*
X157365000Y-67340000D01*
X156865000Y-67340000D02*
X156365000Y-67340000D01*
%TO.N,Net-(U13-~{SLEEP})*%
X158865000Y-69162500D02*
X159952500Y-70250000D01*
X158865000Y-67340000D02*
X158865000Y-69162500D01*
%TO.N,Net-(U14-~{ENABLE})*%
X126820000Y-63750000D02*
X126570000Y-64000000D01*
X131480000Y-63750000D02*
X126820000Y-63750000D01*
%TO.N,Net-(U14-MS1)*%
X133570000Y-67340000D02*
X133070000Y-67340000D01*
X133070000Y-69337500D02*
X133070000Y-67340000D01*
X133570000Y-67340000D02*
X134070000Y-67340000D01*
%TO.N,Net-(U14-~{SLEEP})*%
X135570000Y-67340000D02*
X135570000Y-69162500D01*
X135570000Y-69162500D02*
X136657500Y-70250000D01*
%TO.N,Net-(U15-~{ENABLE})*%
X104610000Y-63990000D02*
X99950000Y-63990000D01*
X99950000Y-63990000D02*
X99700000Y-64240000D01*
%TO.N,Net-(U15-MS1)*%
X106700000Y-67580000D02*
X106200000Y-67580000D01*
X106700000Y-67580000D02*
X107200000Y-67580000D01*
X106200000Y-69577500D02*
X106200000Y-67580000D01*
%TO.N,Net-(U15-~{SLEEP})*%
X108700000Y-69402500D02*
X109787500Y-70490000D01*
X108700000Y-67580000D02*
X108700000Y-69402500D01*
%TO.N,/USB_D-*%
X124006802Y-102175000D02*
X126169999Y-100011803D01*
X118208827Y-101935000D02*
X118208827Y-101829063D01*
X104461895Y-93504086D02*
X104461895Y-93032500D01*
X118448827Y-101589063D02*
X118568827Y-101589063D01*
X107375000Y-95100000D02*
X107175000Y-95300000D01*
X126169999Y-99689999D02*
X125900000Y-99420000D01*
X104101895Y-93744086D02*
X104221895Y-93744086D01*
X113143198Y-98325000D02*
X116993198Y-102175000D01*
X100500000Y-93202500D02*
X102300001Y-93202500D01*
X102300001Y-93202500D02*
X102710001Y-92792500D01*
X116993198Y-102175000D02*
X117968827Y-102175000D01*
X105100001Y-98324999D02*
X105300000Y-98125000D01*
X105500000Y-98325000D02*
X113143198Y-98325000D01*
X102850001Y-98325000D02*
X105100001Y-98324999D01*
X104701895Y-92792500D02*
X106774302Y-92792500D01*
X107375000Y-93393198D02*
X107375000Y-95100000D01*
X106774302Y-92792500D02*
X107375000Y-93393198D01*
X99512501Y-98350000D02*
X100800000Y-98350000D01*
X103861895Y-93032500D02*
X103861895Y-93504086D01*
X100825000Y-98325000D02*
X101125000Y-98325000D01*
X99412501Y-98250000D02*
X99512501Y-98350000D01*
X101125000Y-98325000D02*
X101650000Y-97800000D01*
X101650000Y-97800000D02*
X101800000Y-97800000D01*
X102850001Y-98325000D02*
X102325001Y-97800000D01*
X105300000Y-98125000D02*
X105500000Y-98325000D01*
X102325001Y-97800000D02*
X101800000Y-97800000D01*
X100800000Y-98350000D02*
X100825000Y-98325000D01*
X119048827Y-102175000D02*
X124006802Y-102175000D01*
X98400000Y-98250000D02*
X99412501Y-98250000D01*
X102710001Y-92792500D02*
X103621895Y-92792500D01*
X126169999Y-100011803D02*
X126169999Y-99689999D01*
X118808827Y-101829063D02*
X118808827Y-101935000D01*
X118808827Y-101935000D02*
G75*
G03*
X119048827Y-102174973I239973J0D01*
G01*
X118568827Y-101589063D02*
G75*
G02*
X118808837Y-101829063I-27J-240037D01*
G01*
X104221895Y-93744086D02*
G75*
G03*
X104461886Y-93504086I5J239986D01*
G01*
X103621895Y-92792500D02*
G75*
G02*
X103861900Y-93032500I5J-240000D01*
G01*
X103861895Y-93504086D02*
G75*
G03*
X104101895Y-93744105I240005J-14D01*
G01*
X117968827Y-102175000D02*
G75*
G03*
X118208800Y-101935000I-27J240000D01*
G01*
X118208827Y-101829063D02*
G75*
G02*
X118448827Y-101589127I239973J-37D01*
G01*
X104461895Y-93032500D02*
G75*
G02*
X104701895Y-92792495I240005J0D01*
G01*
%TO.N,/USB_D+*%
X112956802Y-98775000D02*
X116806802Y-102625000D01*
X124193198Y-102625000D02*
X126620001Y-100198197D01*
X99412501Y-98900000D02*
X99512501Y-98800000D01*
X101125000Y-98775000D02*
X101650000Y-99300000D01*
X98400000Y-98900000D02*
X99412501Y-98900000D01*
X102300001Y-91932500D02*
X100500000Y-91932500D01*
X102325001Y-99300000D02*
X101800000Y-99300000D01*
X102850001Y-98775000D02*
X105100001Y-98775001D01*
X126620001Y-99689999D02*
X126900000Y-99410000D01*
X102710001Y-92342500D02*
X102300001Y-91932500D01*
X100972206Y-98800000D02*
X100997206Y-98775000D01*
X106960698Y-92342500D02*
X107825000Y-93206802D01*
X102850001Y-98775000D02*
X102325001Y-99300000D01*
X116806802Y-102625000D02*
X124193198Y-102625000D01*
X101650000Y-99300000D02*
X101800000Y-99300000D01*
X107825000Y-93206802D02*
X107825000Y-95100000D01*
X126620001Y-100198197D02*
X126620001Y-99689999D01*
X99512501Y-98800000D02*
X100972206Y-98800000D01*
X107825000Y-95100000D02*
X108025000Y-95300000D01*
X102710001Y-92342500D02*
X106960698Y-92342500D01*
X105100001Y-98775001D02*
X105300000Y-98975000D01*
X105300000Y-98975000D02*
X105500000Y-98775000D01*
X105500000Y-98775000D02*
X112956802Y-98775000D01*
X100997206Y-98775000D02*
X101125000Y-98775000D01*
D62*
%TO.N,+12V*%
X178000000Y-120525000D02*
X179175000Y-120525000D01*
D63*
X135570000Y-61750000D02*
X136070000Y-61250000D01*
D62*
X163725000Y-59475000D02*
X163700000Y-59500000D01*
D63*
X137295000Y-60205000D02*
X137300000Y-60200000D01*
X205455000Y-119500000D02*
X204230000Y-119500000D01*
X183500000Y-118750000D02*
X182275000Y-118750000D01*
D61*
X105585000Y-62400000D02*
X104700000Y-61515000D01*
D63*
X160590000Y-60110000D02*
X160600000Y-60100000D01*
D62*
X188000000Y-118725000D02*
X189275000Y-118725000D01*
D63*
X112025000Y-119750000D02*
X112025000Y-120775000D01*
D61*
X232365000Y-118741000D02*
X233250000Y-119626000D01*
D62*
X106525000Y-121525000D02*
X106500000Y-121500000D01*
D63*
X159365000Y-61250000D02*
X160590000Y-61250000D01*
X137295000Y-61250000D02*
X137295000Y-60205000D01*
D61*
X132570000Y-62160000D02*
X132455000Y-62160000D01*
X187115000Y-117840000D02*
X188000000Y-118725000D01*
D62*
X199955000Y-121275000D02*
X198825000Y-121275000D01*
X236300000Y-113800000D02*
X236800000Y-113300000D01*
D61*
X232250000Y-118741000D02*
X232365000Y-118741000D01*
X225865000Y-62160000D02*
X225750000Y-62160000D01*
D63*
X182160000Y-61250000D02*
X183385000Y-61250000D01*
X204230000Y-120670000D02*
X204200000Y-120700000D01*
X159775000Y-119250000D02*
X159775000Y-120375000D01*
D62*
X189275000Y-118725000D02*
X189300000Y-118700000D01*
X176425000Y-61275000D02*
X176400000Y-61300000D01*
D63*
X161500000Y-118750000D02*
X161000000Y-119250000D01*
X136795000Y-119250000D02*
X135570000Y-119250000D01*
X228865000Y-62160000D02*
X228865000Y-61750000D01*
D62*
X234374000Y-119626000D02*
X234400000Y-119600000D01*
X164865000Y-59475000D02*
X163725000Y-59475000D01*
D63*
X135570000Y-62160000D02*
X135570000Y-61750000D01*
D62*
X211125000Y-119475000D02*
X211200000Y-119400000D01*
X107750000Y-121525000D02*
X106525000Y-121525000D01*
D64*
X115975000Y-59715000D02*
X116200000Y-59490000D01*
D63*
X206340000Y-61225000D02*
X206340000Y-60260000D01*
X110425000Y-60375000D02*
X110500000Y-60300000D01*
D62*
X155500000Y-121025000D02*
X156775000Y-121025000D01*
D61*
X155750000Y-62160000D02*
X154865000Y-61275000D01*
D62*
X200615000Y-61250000D02*
X199450000Y-61250000D01*
X166575000Y-119225000D02*
X166600000Y-119200000D01*
D61*
X116865000Y-118840000D02*
X117750000Y-119725000D01*
D63*
X204230000Y-119500000D02*
X204230000Y-120670000D01*
X230590000Y-60110000D02*
X230600000Y-60100000D01*
X109200000Y-61490000D02*
X110425000Y-61490000D01*
X136070000Y-61250000D02*
X137295000Y-61250000D01*
D62*
X131295000Y-121025000D02*
X130025000Y-121025000D01*
X234865000Y-59475000D02*
X233725000Y-59475000D01*
D63*
X182275000Y-119825000D02*
X182200000Y-119900000D01*
D62*
X174610000Y-66500000D02*
X174610000Y-67590000D01*
X233250000Y-119626000D02*
X234374000Y-119626000D01*
X141570000Y-59475000D02*
X142845000Y-59475000D01*
D63*
X227525000Y-119651000D02*
X227525000Y-120575000D01*
D62*
X186525000Y-59475000D02*
X186500000Y-59500000D01*
X168550000Y-114000000D02*
X168550000Y-112950000D01*
X156775000Y-121025000D02*
X156800000Y-121000000D01*
X144345000Y-114000000D02*
X144345000Y-112855000D01*
X198825000Y-121275000D02*
X198800000Y-121300000D01*
D63*
X160590000Y-61250000D02*
X160590000Y-60110000D01*
D62*
X104700000Y-61515000D02*
X103215000Y-61515000D01*
D61*
X140410000Y-118340000D02*
X141295000Y-119225000D01*
D62*
X197565000Y-66475000D02*
X197565000Y-67635000D01*
X128520000Y-67580000D02*
X128200000Y-67900000D01*
D63*
X204615000Y-62135000D02*
X204615000Y-61725000D01*
D62*
X210615000Y-59450000D02*
X211850000Y-59450000D01*
X142845000Y-59475000D02*
X143070000Y-59250000D01*
X197565000Y-67635000D02*
X197500000Y-67700000D01*
D61*
X201615000Y-62135000D02*
X201500000Y-62135000D01*
D63*
X135570000Y-119250000D02*
X135570000Y-120370000D01*
X183385000Y-61250000D02*
X183385000Y-60215000D01*
X181660000Y-62160000D02*
X181660000Y-61750000D01*
X158865000Y-61750000D02*
X159365000Y-61250000D01*
D62*
X233725000Y-59475000D02*
X233700000Y-59500000D01*
D63*
X158865000Y-62160000D02*
X158865000Y-61750000D01*
D61*
X209070000Y-118590000D02*
X209955000Y-119475000D01*
D63*
X113250000Y-119750000D02*
X112025000Y-119750000D01*
X227525000Y-120575000D02*
X227200000Y-120900000D01*
X228865000Y-61750000D02*
X229365000Y-61250000D01*
D62*
X151815000Y-66500000D02*
X151815000Y-67485000D01*
X237345000Y-103700000D02*
X236300000Y-103700000D01*
X131570000Y-61275000D02*
X130325000Y-61275000D01*
X120800000Y-113400000D02*
X120900000Y-113300000D01*
X236300000Y-103700000D02*
X235400000Y-102800000D01*
D63*
X229365000Y-61250000D02*
X230590000Y-61250000D01*
X184000000Y-117840000D02*
X184000000Y-118250000D01*
X229250000Y-119151000D02*
X228750000Y-119651000D01*
D62*
X236300000Y-114401000D02*
X236300000Y-113800000D01*
X142475000Y-119225000D02*
X142500000Y-119200000D01*
D63*
X228750000Y-119651000D02*
X227525000Y-119651000D01*
D61*
X208955000Y-118590000D02*
X209070000Y-118590000D01*
X132455000Y-62160000D02*
X131570000Y-61275000D01*
D62*
X141295000Y-119225000D02*
X142475000Y-119225000D01*
D63*
X108700000Y-61990000D02*
X109200000Y-61490000D01*
X229250000Y-118741000D02*
X229250000Y-119151000D01*
X230590000Y-61250000D02*
X230590000Y-60110000D01*
X181660000Y-61750000D02*
X182160000Y-61250000D01*
D61*
X105700000Y-62400000D02*
X105585000Y-62400000D01*
D63*
X183385000Y-60215000D02*
X183400000Y-60200000D01*
X205955000Y-119000000D02*
X205455000Y-119500000D01*
D62*
X120800000Y-114500000D02*
X120800000Y-113400000D01*
D63*
X110425000Y-61490000D02*
X110425000Y-60375000D01*
D62*
X128520000Y-66500000D02*
X128520000Y-67580000D01*
D61*
X164500000Y-118340000D02*
X164615000Y-118340000D01*
X140295000Y-118340000D02*
X140410000Y-118340000D01*
X225750000Y-62160000D02*
X224865000Y-61275000D01*
D62*
X179175000Y-120525000D02*
X179200000Y-120500000D01*
D61*
X155865000Y-62160000D02*
X155750000Y-62160000D01*
D62*
X103215000Y-61515000D02*
X103200000Y-61500000D01*
X213005000Y-113495000D02*
X213500000Y-113000000D01*
X235400000Y-102800000D02*
X235400000Y-101300000D01*
D63*
X161500000Y-118340000D02*
X161500000Y-118750000D01*
D62*
X117750000Y-119725000D02*
X118975000Y-119725000D01*
X153625000Y-61275000D02*
X153600000Y-61300000D01*
D61*
X178660000Y-62160000D02*
X178545000Y-62160000D01*
X116750000Y-118840000D02*
X116865000Y-118840000D01*
D62*
X235500000Y-101200000D02*
X235400000Y-101300000D01*
D63*
X205955000Y-118590000D02*
X205955000Y-119000000D01*
X112025000Y-120775000D02*
X112000000Y-120800000D01*
D62*
X154865000Y-61275000D02*
X153625000Y-61275000D01*
X223525000Y-61275000D02*
X223500000Y-61300000D01*
D63*
X113750000Y-119250000D02*
X113250000Y-119750000D01*
X113750000Y-118840000D02*
X113750000Y-119250000D01*
D62*
X209955000Y-119475000D02*
X211125000Y-119475000D01*
D63*
X204615000Y-61725000D02*
X205115000Y-61225000D01*
X159775000Y-120375000D02*
X159800000Y-120400000D01*
D62*
X191050000Y-112650000D02*
X191500000Y-112200000D01*
X235500000Y-100050000D02*
X235500000Y-101200000D01*
X174610000Y-67590000D02*
X174600000Y-67600000D01*
X165500000Y-119225000D02*
X166575000Y-119225000D01*
D61*
X201500000Y-62135000D02*
X200615000Y-61250000D01*
D62*
X187660000Y-59475000D02*
X186525000Y-59475000D01*
D64*
X114700000Y-59715000D02*
X115975000Y-59715000D01*
D63*
X205115000Y-61225000D02*
X206340000Y-61225000D01*
D62*
X224865000Y-61275000D02*
X223525000Y-61275000D01*
D63*
X137295000Y-118750000D02*
X136795000Y-119250000D01*
D62*
X168550000Y-112950000D02*
X168700000Y-112800000D01*
D63*
X135570000Y-120370000D02*
X135600000Y-120400000D01*
X108700000Y-62400000D02*
X108700000Y-61990000D01*
X184000000Y-118250000D02*
X183500000Y-118750000D01*
D62*
X130025000Y-121025000D02*
X130000000Y-121000000D01*
D61*
X187000000Y-117840000D02*
X187115000Y-117840000D01*
D63*
X161000000Y-119250000D02*
X159775000Y-119250000D01*
D62*
X177660000Y-61275000D02*
X176425000Y-61275000D01*
X221815000Y-66500000D02*
X221815000Y-67485000D01*
X213005000Y-114250000D02*
X213005000Y-113495000D01*
X221815000Y-67485000D02*
X221700000Y-67600000D01*
X191050000Y-113500000D02*
X191050000Y-112650000D01*
D61*
X164615000Y-118340000D02*
X165500000Y-119225000D01*
D62*
X101650000Y-66740000D02*
X101650000Y-67850000D01*
X224474000Y-121426000D02*
X224500000Y-121400000D01*
X199450000Y-61250000D02*
X199400000Y-61200000D01*
X144345000Y-112855000D02*
X144400000Y-112800000D01*
D61*
X178545000Y-62160000D02*
X177660000Y-61275000D01*
D63*
X182275000Y-118750000D02*
X182275000Y-119825000D01*
X137295000Y-118340000D02*
X137295000Y-118750000D01*
X206340000Y-60260000D02*
X206400000Y-60200000D01*
D62*
X101650000Y-67850000D02*
X101600000Y-67900000D01*
X211850000Y-59450000D02*
X212100000Y-59200000D01*
X223250000Y-121426000D02*
X224474000Y-121426000D01*
X118975000Y-119725000D02*
X119000000Y-119700000D01*
X151815000Y-67485000D02*
X151800000Y-67500000D01*
X130325000Y-61275000D02*
X130300000Y-61300000D01*
%TD*%
%TA.AperFunction,Conductor*%
%TO.N,Net-(D2-K)*%
G36*
X225368039Y-85919685D02*
G01*
X225413794Y-85972489D01*
X225425000Y-86024000D01*
X225425000Y-86075000D01*
X228575000Y-86075000D01*
X228575000Y-86024000D01*
X228577550Y-86015314D01*
X228576262Y-86006353D01*
X228587240Y-85982312D01*
X228594685Y-85956961D01*
X228601525Y-85951033D01*
X228605287Y-85942797D01*
X228627521Y-85928507D01*
X228647489Y-85911206D01*
X228658003Y-85908918D01*
X228664065Y-85905023D01*
X228699000Y-85900000D01*
X228766102Y-85900000D01*
X228829184Y-85917245D01*
X231000006Y-87200004D01*
X234107544Y-88981829D01*
X234155910Y-89032252D01*
X234169863Y-89088882D01*
X234187771Y-93373739D01*
X234194345Y-94946930D01*
X234199480Y-96175482D01*
X234180076Y-96242603D01*
X234127463Y-96288578D01*
X234075481Y-96300000D01*
X227500000Y-96300000D01*
X225424000Y-96300000D01*
X225356961Y-96280315D01*
X225311206Y-96227511D01*
X225300000Y-96176000D01*
X225300000Y-94343176D01*
X225300000Y-93158895D01*
X226135000Y-93158895D01*
X226135000Y-93341105D01*
X226170547Y-93519813D01*
X226240275Y-93688152D01*
X226341505Y-93839653D01*
X226470347Y-93968495D01*
X226621848Y-94069725D01*
X226790187Y-94139453D01*
X226968895Y-94175000D01*
X227151105Y-94175000D01*
X227329813Y-94139453D01*
X227498152Y-94069725D01*
X227649653Y-93968495D01*
X227778495Y-93839653D01*
X227879725Y-93688152D01*
X227949453Y-93519813D01*
X227985000Y-93341105D01*
X227985000Y-93158895D01*
X227978509Y-93126260D01*
X228982000Y-93126260D01*
X228982000Y-93373739D01*
X228982001Y-93373756D01*
X229014303Y-93619117D01*
X229078361Y-93858184D01*
X229173069Y-94086829D01*
X229173074Y-94086840D01*
X229296812Y-94301159D01*
X229296823Y-94301175D01*
X229447479Y-94497514D01*
X229447485Y-94497521D01*
X229622478Y-94672514D01*
X229622485Y-94672520D01*
X229716921Y-94744983D01*
X229818833Y-94823183D01*
X229818840Y-94823187D01*
X230033159Y-94946925D01*
X230033164Y-94946927D01*
X230033167Y-94946929D01*
X230261820Y-95041640D01*
X230500879Y-95105696D01*
X230746254Y-95138000D01*
X230746261Y-95138000D01*
X230993739Y-95138000D01*
X230993746Y-95138000D01*
X231239121Y-95105696D01*
X231478180Y-95041640D01*
X231706833Y-94946929D01*
X231921167Y-94823183D01*
X232117516Y-94672519D01*
X232292519Y-94497516D01*
X232443183Y-94301167D01*
X232566929Y-94086833D01*
X232661640Y-93858180D01*
X232725696Y-93619121D01*
X232758000Y-93373746D01*
X232758000Y-93126254D01*
X232725696Y-92880879D01*
X232661640Y-92641820D01*
X232566929Y-92413167D01*
X232566927Y-92413164D01*
X232566925Y-92413159D01*
X232443187Y-92198840D01*
X232443183Y-92198833D01*
X232292519Y-92002484D01*
X232292514Y-92002478D01*
X232117521Y-91827485D01*
X232117514Y-91827479D01*
X231921175Y-91676823D01*
X231921173Y-91676821D01*
X231921167Y-91676817D01*
X231921162Y-91676814D01*
X231921159Y-91676812D01*
X231706840Y-91553074D01*
X231706829Y-91553069D01*
X231478184Y-91458361D01*
X231239117Y-91394303D01*
X230993756Y-91362001D01*
X230993751Y-91362000D01*
X230993746Y-91362000D01*
X230746254Y-91362000D01*
X230746248Y-91362000D01*
X230746243Y-91362001D01*
X230500882Y-91394303D01*
X230261815Y-91458361D01*
X230033170Y-91553069D01*
X230033159Y-91553074D01*
X229818840Y-91676812D01*
X229818824Y-91676823D01*
X229622485Y-91827479D01*
X229622478Y-91827485D01*
X229447485Y-92002478D01*
X229447479Y-92002485D01*
X229296823Y-92198824D01*
X229296812Y-92198840D01*
X229173074Y-92413159D01*
X229173069Y-92413170D01*
X229078361Y-92641815D01*
X229014303Y-92880882D01*
X228982001Y-93126243D01*
X228982000Y-93126260D01*
X227978509Y-93126260D01*
X227949453Y-92980187D01*
X227879725Y-92811848D01*
X227778495Y-92660347D01*
X227649653Y-92531505D01*
X227498152Y-92430275D01*
X227329813Y-92360547D01*
X227151105Y-92325000D01*
X226968895Y-92325000D01*
X226790187Y-92360547D01*
X226621848Y-92430275D01*
X226470347Y-92531505D01*
X226341505Y-92660347D01*
X226240275Y-92811848D01*
X226170547Y-92980187D01*
X226135000Y-93158895D01*
X225300000Y-93158895D01*
X225300000Y-89600000D01*
X224603612Y-89003096D01*
X224596629Y-88996629D01*
X224108319Y-88508319D01*
X224093299Y-88480812D01*
X224076642Y-88454249D01*
X224075952Y-88449044D01*
X224074834Y-88446996D01*
X224072008Y-88419265D01*
X224073357Y-88297844D01*
X225425000Y-88297844D01*
X225431401Y-88357372D01*
X225431403Y-88357379D01*
X225481645Y-88492086D01*
X225481649Y-88492093D01*
X225567809Y-88607187D01*
X225567812Y-88607190D01*
X225682906Y-88693350D01*
X225682913Y-88693354D01*
X225817620Y-88743596D01*
X225817627Y-88743598D01*
X225877155Y-88749999D01*
X225877172Y-88750000D01*
X225925000Y-88750000D01*
X228075000Y-88750000D01*
X228122828Y-88750000D01*
X228122844Y-88749999D01*
X228182372Y-88743598D01*
X228182379Y-88743596D01*
X228317086Y-88693354D01*
X228317093Y-88693350D01*
X228432187Y-88607190D01*
X228432190Y-88607187D01*
X228518350Y-88492093D01*
X228518354Y-88492086D01*
X228568596Y-88357379D01*
X228568598Y-88357372D01*
X228574999Y-88297844D01*
X228575000Y-88297827D01*
X228575000Y-88225000D01*
X228075000Y-88225000D01*
X228075000Y-88750000D01*
X225925000Y-88750000D01*
X225925000Y-88225000D01*
X225425000Y-88225000D01*
X225425000Y-88297844D01*
X224073357Y-88297844D01*
X224098056Y-86075000D01*
X224098638Y-86022622D01*
X224119066Y-85955806D01*
X224172375Y-85910640D01*
X224222630Y-85900000D01*
X225301000Y-85900000D01*
X225368039Y-85919685D01*
G37*
%TD.AperFunction*%
%TD*%
%TA.AperFunction,Conductor*%
%TO.N,/12V_IN*%
G36*
X244738788Y-63219685D02*
G01*
X244784543Y-63272489D01*
X244795679Y-63328177D01*
X244500000Y-72099999D01*
X244500000Y-72100002D01*
X246036348Y-76358128D01*
X246042548Y-76417131D01*
X245964518Y-76983678D01*
X245935871Y-77047404D01*
X245899215Y-77076602D01*
X237880101Y-81277090D01*
X237880100Y-81277092D01*
X237701684Y-86451152D01*
X237692676Y-86478327D01*
X237686590Y-86506306D01*
X237680870Y-86513946D01*
X237679701Y-86517474D01*
X237665439Y-86534560D01*
X237496859Y-86703140D01*
X237445438Y-86734039D01*
X237325445Y-86770731D01*
X237265535Y-86773875D01*
X235945841Y-86517474D01*
X232808256Y-85907877D01*
X231407219Y-85635672D01*
X231372081Y-85623126D01*
X228963002Y-84325928D01*
X232300000Y-84325928D01*
X232339397Y-84574669D01*
X232417219Y-84814184D01*
X232531557Y-85038583D01*
X232679590Y-85242331D01*
X232679591Y-85242333D01*
X232799999Y-85362742D01*
X235000000Y-85362742D01*
X235120408Y-85242333D01*
X235120409Y-85242331D01*
X235268442Y-85038583D01*
X235382780Y-84814184D01*
X235460602Y-84574669D01*
X235500000Y-84325928D01*
X235500000Y-84200000D01*
X235000000Y-84200000D01*
X235000000Y-85362742D01*
X232799999Y-85362742D01*
X232800000Y-85362741D01*
X232800000Y-84200000D01*
X232300000Y-84200000D01*
X232300000Y-84325928D01*
X228963002Y-84325928D01*
X228836510Y-84257817D01*
X228836507Y-84257817D01*
X228788697Y-84232073D01*
X228642671Y-84227778D01*
X228576239Y-84206131D01*
X228532057Y-84152005D01*
X228524151Y-84082584D01*
X228530135Y-84060498D01*
X228568597Y-83957376D01*
X228568598Y-83957372D01*
X228574999Y-83897844D01*
X228575000Y-83897827D01*
X228575000Y-83825000D01*
X225425000Y-83825000D01*
X225425000Y-83897844D01*
X225431401Y-83957372D01*
X225431403Y-83957382D01*
X225437806Y-83974548D01*
X225442790Y-84044239D01*
X225409304Y-84105562D01*
X225347981Y-84139046D01*
X225318807Y-84141848D01*
X218322892Y-83982851D01*
X218322878Y-83982851D01*
X218322876Y-83982851D01*
X218047603Y-83984190D01*
X214841310Y-83999798D01*
X214774175Y-83980440D01*
X214766821Y-83975383D01*
X212062281Y-81968789D01*
X211934618Y-81874071D01*
X232300000Y-81874071D01*
X232300000Y-82000000D01*
X232800000Y-82000000D01*
X232800000Y-81784174D01*
X233400000Y-81784174D01*
X233400000Y-84415826D01*
X233434075Y-84542993D01*
X233499901Y-84657007D01*
X233592993Y-84750099D01*
X233707007Y-84815925D01*
X233834174Y-84850000D01*
X233965826Y-84850000D01*
X234092993Y-84815925D01*
X234207007Y-84750099D01*
X234300099Y-84657007D01*
X234365925Y-84542993D01*
X234400000Y-84415826D01*
X234400000Y-82000000D01*
X235000000Y-82000000D01*
X235500000Y-82000000D01*
X235500000Y-81874071D01*
X235460602Y-81625330D01*
X235382780Y-81385815D01*
X235268442Y-81161416D01*
X235120409Y-80957668D01*
X235120408Y-80957666D01*
X235000000Y-80837257D01*
X235000000Y-82000000D01*
X234400000Y-82000000D01*
X234400000Y-81784174D01*
X234365925Y-81657007D01*
X234300099Y-81542993D01*
X234207007Y-81449901D01*
X234092993Y-81384075D01*
X233965826Y-81350000D01*
X233834174Y-81350000D01*
X233707007Y-81384075D01*
X233592993Y-81449901D01*
X233499901Y-81542993D01*
X233434075Y-81657007D01*
X233400000Y-81784174D01*
X232800000Y-81784174D01*
X232800000Y-80837258D01*
X232799999Y-80837257D01*
X232679591Y-80957666D01*
X232679590Y-80957668D01*
X232531557Y-81161416D01*
X232417219Y-81385815D01*
X232339397Y-81625330D01*
X232300000Y-81874071D01*
X211934618Y-81874071D01*
X211750115Y-81737182D01*
X211747199Y-81733321D01*
X211742797Y-81731311D01*
X211726342Y-81705706D01*
X211708005Y-81681428D01*
X211706919Y-81675483D01*
X211705023Y-81672533D01*
X211700000Y-81637598D01*
X211700000Y-81602155D01*
X225425000Y-81602155D01*
X225425000Y-81675000D01*
X225925000Y-81675000D01*
X228075000Y-81675000D01*
X228575000Y-81675000D01*
X228575000Y-81602172D01*
X228574999Y-81602155D01*
X228568598Y-81542627D01*
X228568596Y-81542620D01*
X228518354Y-81407913D01*
X228518350Y-81407906D01*
X228432190Y-81292812D01*
X228432187Y-81292809D01*
X228317093Y-81206649D01*
X228317086Y-81206645D01*
X228182379Y-81156403D01*
X228182372Y-81156401D01*
X228122844Y-81150000D01*
X228075000Y-81150000D01*
X228075000Y-81675000D01*
X225925000Y-81675000D01*
X225925000Y-81150000D01*
X225877155Y-81150000D01*
X225817627Y-81156401D01*
X225817620Y-81156403D01*
X225682913Y-81206645D01*
X225682906Y-81206649D01*
X225567812Y-81292809D01*
X225567809Y-81292812D01*
X225481649Y-81407906D01*
X225481645Y-81407913D01*
X225431403Y-81542620D01*
X225431401Y-81542627D01*
X225425000Y-81602155D01*
X211700000Y-81602155D01*
X211700000Y-78281902D01*
X234399500Y-78281902D01*
X234399500Y-78518097D01*
X234436446Y-78751368D01*
X234509433Y-78975996D01*
X234616657Y-79186433D01*
X234755483Y-79377510D01*
X234922490Y-79544517D01*
X235113567Y-79683343D01*
X235212991Y-79734002D01*
X235324003Y-79790566D01*
X235324005Y-79790566D01*
X235324008Y-79790568D01*
X235444412Y-79829689D01*
X235548631Y-79863553D01*
X235781903Y-79900500D01*
X235781908Y-79900500D01*
X238018097Y-79900500D01*
X238251368Y-79863553D01*
X238475992Y-79790568D01*
X238686433Y-79683343D01*
X238877510Y-79544517D01*
X239044517Y-79377510D01*
X239183343Y-79186433D01*
X239290568Y-78975992D01*
X239363553Y-78751368D01*
X239400500Y-78518097D01*
X239400500Y-78281902D01*
X239363553Y-78048631D01*
X239290566Y-77824003D01*
X239183342Y-77613566D01*
X239044517Y-77422490D01*
X238877510Y-77255483D01*
X238686433Y-77116657D01*
X238607821Y-77076602D01*
X238475996Y-77009433D01*
X238251368Y-76936446D01*
X238018097Y-76899500D01*
X238018092Y-76899500D01*
X235781908Y-76899500D01*
X235781903Y-76899500D01*
X235548631Y-76936446D01*
X235324003Y-77009433D01*
X235113566Y-77116657D01*
X235004550Y-77195862D01*
X234922490Y-77255483D01*
X234922488Y-77255485D01*
X234922487Y-77255485D01*
X234755485Y-77422487D01*
X234755485Y-77422488D01*
X234755483Y-77422490D01*
X234695862Y-77504550D01*
X234616657Y-77613566D01*
X234509433Y-77824003D01*
X234436446Y-78048631D01*
X234399500Y-78281902D01*
X211700000Y-78281902D01*
X211700000Y-76187575D01*
X211719685Y-76120536D01*
X211772489Y-76074781D01*
X211782533Y-76070714D01*
X214780819Y-75006806D01*
X214820350Y-74999683D01*
X234100000Y-74700000D01*
X235600000Y-73600000D01*
X236586666Y-72272844D01*
X241065000Y-72272844D01*
X241071401Y-72332372D01*
X241071403Y-72332379D01*
X241121645Y-72467086D01*
X241121649Y-72467093D01*
X241207809Y-72582187D01*
X241207812Y-72582190D01*
X241322906Y-72668350D01*
X241322913Y-72668354D01*
X241457620Y-72718596D01*
X241457627Y-72718598D01*
X241517155Y-72724999D01*
X241517172Y-72725000D01*
X241565000Y-72725000D01*
X243215000Y-72725000D01*
X243262828Y-72725000D01*
X243262844Y-72724999D01*
X243322372Y-72718598D01*
X243322379Y-72718596D01*
X243457086Y-72668354D01*
X243457093Y-72668350D01*
X243572187Y-72582190D01*
X243572190Y-72582187D01*
X243658350Y-72467093D01*
X243658354Y-72467086D01*
X243708596Y-72332379D01*
X243708598Y-72332372D01*
X243714999Y-72272844D01*
X243715000Y-72272827D01*
X243715000Y-72225000D01*
X243215000Y-72225000D01*
X243215000Y-72725000D01*
X241565000Y-72725000D01*
X241565000Y-72225000D01*
X241065000Y-72225000D01*
X241065000Y-72272844D01*
X236586666Y-72272844D01*
X237007971Y-71706150D01*
X237217021Y-71327591D01*
X241840000Y-71327591D01*
X241840000Y-71472409D01*
X241877482Y-71612292D01*
X241949890Y-71737708D01*
X242052292Y-71840110D01*
X242177708Y-71912518D01*
X242317591Y-71950000D01*
X242462409Y-71950000D01*
X242602292Y-71912518D01*
X242727708Y-71840110D01*
X242830110Y-71737708D01*
X242902518Y-71612292D01*
X242940000Y-71472409D01*
X242940000Y-71327591D01*
X242902518Y-71187708D01*
X242830110Y-71062292D01*
X242727708Y-70959890D01*
X242602292Y-70887482D01*
X242462409Y-70850000D01*
X242317591Y-70850000D01*
X242177708Y-70887482D01*
X242052292Y-70959890D01*
X241949890Y-71062292D01*
X241877482Y-71187708D01*
X241840000Y-71327591D01*
X237217021Y-71327591D01*
X237659042Y-70527155D01*
X241065000Y-70527155D01*
X241065000Y-70575000D01*
X241565000Y-70575000D01*
X243215000Y-70575000D01*
X243715000Y-70575000D01*
X243715000Y-70527172D01*
X243714999Y-70527155D01*
X243708598Y-70467627D01*
X243708596Y-70467620D01*
X243658354Y-70332913D01*
X243658350Y-70332906D01*
X243572190Y-70217812D01*
X243572187Y-70217809D01*
X243457093Y-70131649D01*
X243457086Y-70131645D01*
X243322379Y-70081403D01*
X243322372Y-70081401D01*
X243262844Y-70075000D01*
X243215000Y-70075000D01*
X243215000Y-70575000D01*
X241565000Y-70575000D01*
X241565000Y-70075000D01*
X241517155Y-70075000D01*
X241457627Y-70081401D01*
X241457620Y-70081403D01*
X241322913Y-70131645D01*
X241322906Y-70131649D01*
X241207812Y-70217809D01*
X241207809Y-70217812D01*
X241121649Y-70332906D01*
X241121645Y-70332913D01*
X241071403Y-70467620D01*
X241071401Y-70467627D01*
X241065000Y-70527155D01*
X237659042Y-70527155D01*
X241669912Y-63264056D01*
X241719552Y-63214887D01*
X241778461Y-63200000D01*
X244671749Y-63200000D01*
X244738788Y-63219685D01*
G37*
%TD.AperFunction*%
%TD*%
M02*
