%TF.GenerationSoftware,KiCad,Pcbnew,9.0.0*%
%TF.CreationDate,2025-04-24T16:42:49+01:00*%
%TF.ProjectId,DST,4453542e-6b69-4636-9164-5f7063625858,rev?*%
%TF.SameCoordinates,Original*%
%TF.FileFunction,Soldermask,Bot*%
%TF.FilePolarity,Negative*%
%FSLAX46Y46*%
G04 Gerber Fmt 4.6, Leading zero omitted, Abs format (unit mm)*
G04 Created by KiCad (PCBNEW 9.0.0) date 2025-04-24 16:42:49*
%MOMM*%
%LPD*%
G01*
G04 APERTURE LIST*
%ADD10R,1.398000X1.398000*%
%ADD11C,1.398000*%
%ADD12C,3.000000*%
%ADD13O,2.200000X4.400000*%
%ADD14O,2.000000X4.000000*%
%ADD15O,4.000000X2.000000*%
%ADD16R,2.775000X2.775000*%
%ADD17C,2.775000*%
%ADD18R,1.650000X1.650000*%
%ADD19C,1.650000*%
G04 APERTURE END LIST*
D10*
%TO.C,J2*%
X121137500Y-52160000D03*
D11*
X121137500Y-54700000D03*
X121137500Y-57240000D03*
%TD*%
D10*
%TO.C,J29*%
X112940000Y-51300000D03*
D11*
X110400000Y-51300000D03*
X107860000Y-51300000D03*
X105320000Y-51300000D03*
X102780000Y-51300000D03*
%TD*%
D12*
%TO.C,REF\u002A\u002A*%
X97900000Y-129300000D03*
%TD*%
D10*
%TO.C,J24*%
X181640000Y-131500000D03*
D11*
X184180000Y-131500000D03*
X186720000Y-131500000D03*
X189260000Y-131500000D03*
X191800000Y-131500000D03*
%TD*%
D10*
%TO.C,J26*%
X202820000Y-131437500D03*
D11*
X205360000Y-131437500D03*
X207900000Y-131437500D03*
X210440000Y-131437500D03*
X212980000Y-131437500D03*
%TD*%
D10*
%TO.C,J22*%
X159180000Y-131400000D03*
D11*
X161720000Y-131400000D03*
X164260000Y-131400000D03*
X166800000Y-131400000D03*
X169340000Y-131400000D03*
%TD*%
D13*
%TO.C,J13*%
X233900000Y-83100000D03*
D14*
X239900000Y-83100000D03*
D15*
X236900000Y-78400000D03*
%TD*%
D10*
%TO.C,J20*%
X134220000Y-131337500D03*
D11*
X136760000Y-131337500D03*
X139300000Y-131337500D03*
X141840000Y-131337500D03*
X144380000Y-131337500D03*
%TD*%
D12*
%TO.C,REF\u002A\u002A*%
X248800000Y-129300000D03*
%TD*%
D10*
%TO.C,J19*%
X233440000Y-51400000D03*
D11*
X230900000Y-51400000D03*
X228360000Y-51400000D03*
X225820000Y-51400000D03*
X223280000Y-51400000D03*
%TD*%
D10*
%TO.C,J25*%
X162320000Y-51400000D03*
D11*
X159780000Y-51400000D03*
X157240000Y-51400000D03*
X154700000Y-51400000D03*
X152160000Y-51400000D03*
%TD*%
D16*
%TO.C,S1*%
X223250000Y-93250000D03*
D17*
X227060000Y-93250000D03*
X230870000Y-93250000D03*
X210550000Y-95790000D03*
X210550000Y-90710000D03*
%TD*%
D10*
%TO.C,J18*%
X110520000Y-131437500D03*
D11*
X113060000Y-131437500D03*
X115600000Y-131437500D03*
X118140000Y-131437500D03*
X120680000Y-131437500D03*
%TD*%
D12*
%TO.C,REF\u002A\u002A*%
X248800000Y-54300000D03*
%TD*%
D10*
%TO.C,J27*%
X138980000Y-51362500D03*
D11*
X136440000Y-51362500D03*
X133900000Y-51362500D03*
X131360000Y-51362500D03*
X128820000Y-51362500D03*
%TD*%
D10*
%TO.C,J28*%
X226280000Y-131300000D03*
D11*
X228820000Y-131300000D03*
X231360000Y-131300000D03*
X233900000Y-131300000D03*
X236440000Y-131300000D03*
%TD*%
D12*
%TO.C,REF\u002A\u002A*%
X97900000Y-54300000D03*
%TD*%
D18*
%TO.C,J1*%
X242390000Y-71400000D03*
D19*
X246200000Y-71400000D03*
%TD*%
D10*
%TO.C,J23*%
X186540000Y-51300000D03*
D11*
X184000000Y-51300000D03*
X181460000Y-51300000D03*
X178920000Y-51300000D03*
X176380000Y-51300000D03*
%TD*%
D10*
%TO.C,J21*%
X210140000Y-51300000D03*
D11*
X207600000Y-51300000D03*
X205060000Y-51300000D03*
X202520000Y-51300000D03*
X199980000Y-51300000D03*
%TD*%
M02*
